<svg id="Слой_1" data-name="Слой 1" xmlns="http://www.w3.org/2000/svg" xmlns:xlink="http://www.w3.org/1999/xlink" viewBox="0 0 7718.19 3492.33"><defs><style>.cls-1,.cls-12,.cls-16,.cls-17,.cls-20,.cls-22,.cls-23,.cls-24,.cls-30,.cls-4,.cls-6{fill:none;}.cls-2{fill:#fbcc45;}.cls-3{clip-path:url(#clip-path);}.cls-4,.cls-5,.cls-6{stroke:#601515;}.cls-12,.cls-16,.cls-17,.cls-20,.cls-22,.cls-23,.cls-24,.cls-30,.cls-4,.cls-6{stroke-linecap:round;stroke-linejoin:round;}.cls-12,.cls-16,.cls-17,.cls-20,.cls-22,.cls-24,.cls-30,.cls-4{stroke-width:1.8px;}.cls-5{fill:#b8d8c7;}.cls-28,.cls-5{stroke-miterlimit:10;}.cls-6{stroke-width:1.8px;}.cls-7{fill:#b0d7c0;}.cls-28,.cls-8{fill:#601615;}.cls-9{fill:#22272e;}.cls-10{fill:#f4c2c9;}.cls-11{fill:#a83d0c;}.cls-12,.cls-23{stroke:#22272e;}.cls-13{fill:#5f0101;}.cls-14{fill:#ffe779;}.cls-15{fill:#b28d93;}.cls-16{stroke:#896068;}.cls-17{stroke:#63737a;}.cls-18{fill:#896068;}.cls-19{fill:#63737a;}.cls-20{stroke:#fff;}.cls-21{fill:#f8ab5d;}.cls-22{stroke:#f8ab5d;}.cls-23{stroke-width:4px;}.cls-24{stroke:#e26e85;}.cls-25{fill:#fff;}.cls-26{fill:#e26e85;}.cls-27{fill:#e86484;}.cls-28{stroke:#601715;}.cls-29{fill:#ffe7ca;}.cls-30{stroke:#ffbf94;}.cls-31{fill:#ffbf94;}.cls-32{fill:#6dafa7;}</style><clipPath id="clip-path" transform="translate(1179.67 1.37)"><path class="cls-1" d="M4238.61,2854.1,943.44,2759.68a304.61,304.61,0,0,1-294.66-274.39L489.72,913.75C472.83,746,595.15,596.29,762.92,579.4q12.92-1.3,25.9-1.5l3667.77-50.69c168.71-2.28,307.32,132.63,309.61,301.34a305.9,305.9,0,0,1-2.27,41.48L4550.38,2587.32C4530.84,2743.36,4395.79,2858.91,4238.61,2854.1Z"/></clipPath></defs><path class="cls-2" d="M4238.61,2854.1,943.44,2759.68a304.61,304.61,0,0,1-294.66-274.39L489.72,913.75C472.83,746,595.15,596.29,762.92,579.4q12.92-1.3,25.9-1.5l3667.77-50.69c168.71-2.28,307.32,132.63,309.61,301.34a305.9,305.9,0,0,1-2.27,41.48L4550.38,2587.32C4530.84,2743.36,4395.79,2858.91,4238.61,2854.1Z" transform="translate(1179.67 1.37)"/><g class="cls-3"><path class="cls-4" d="M1549.25,3139.89h-2633a95,95,0,0,1-95-95V1551.24a95.06,95.06,0,0,1,95-95h2633a95.06,95.06,0,0,1,95,95v1493A95.49,95.49,0,0,1,1549.25,3139.89Z" transform="translate(1179.67 1.37)"/><path class="cls-4" d="M5028.81,3039.14H2373a95.06,95.06,0,0,1-95.06-95.06V762.3a95.06,95.06,0,0,1,95.06-95H5028.81a95,95,0,0,1,95,95h0V2944.08A95.05,95.05,0,0,1,5028.81,3039.14Z" transform="translate(1179.67 1.37)"/><path class="cls-4" d="M821.77,1456.19H693.14a27.37,27.37,0,0,1-27.25-24.08l-10.14-91.25a27.44,27.44,0,0,1,24.3-30.26,29,29,0,0,1,3-.16H831.91a27.51,27.51,0,0,1,27.41,27.6c0,.94-.06,1.88-.16,2.82L849,1432.11A27.37,27.37,0,0,1,821.77,1456.19Z" transform="translate(1179.67 1.37)"/><path class="cls-5" d="M741.93,1311.08s-50.69-5.07-60.83-73.51c0,0,45.62,13.31,60.2,45.62,0,0,6.33-72.24,40.55-79.21,0,0,15.21,53.87-8.87,80.48,0,0,18.38-30.42,65.27-29.78a86.17,86.17,0,0,1-58.3,55.76" transform="translate(1179.67 1.37)"/><path class="cls-4" d="M1529.6,1771.13H958a26.81,26.81,0,0,1-26.62-26.61V1570.89A26.82,26.82,0,0,1,958,1544.27H1529.6a26.82,26.82,0,0,1,26.62,26.62v173.63A26.81,26.81,0,0,1,1529.6,1771.13Z" transform="translate(1179.67 1.37)"/><path class="cls-5" d="M1309.08,1605.74H1177.27a9.75,9.75,0,0,1-9.5-9.51h0a9.75,9.75,0,0,1,9.5-9.5h131.81a9.75,9.75,0,0,1,9.5,9.5h0a9.31,9.31,0,0,1-9.12,9.51Z" transform="translate(1179.67 1.37)"/><path class="cls-4" d="M1529.6,2061.36H958a26.81,26.81,0,0,1-26.62-26.62V1861.11A26.81,26.81,0,0,1,958,1834.5H1529.6a26.81,26.81,0,0,1,26.62,26.61v173.63A26.81,26.81,0,0,1,1529.6,2061.36Z" transform="translate(1179.67 1.37)"/><path class="cls-5" d="M1309.08,1896H1177.27a9.76,9.76,0,0,1-9.5-9.51h0a9.75,9.75,0,0,1,9.5-9.5h131.81a9.75,9.75,0,0,1,9.5,9.5h0a9.31,9.31,0,0,1-9.12,9.51Z" transform="translate(1179.67 1.37)"/><path class="cls-4" d="M4464.2,2266.67H3892.61a26.8,26.8,0,0,1-26.61-26.61V2066.43a26.81,26.81,0,0,1,26.61-26.62H4464.2a26.81,26.81,0,0,1,26.61,26.62v173.63a26,26,0,0,1-25.33,26.61Z" transform="translate(1179.67 1.37)"/><path class="cls-5" d="M4244.31,2100.65H4112.5a9.76,9.76,0,0,1-9.5-9.51h0a9.75,9.75,0,0,1,9.5-9.5h131.81a9.75,9.75,0,0,1,9.5,9.5h0a9.31,9.31,0,0,1-9.12,9.51Z" transform="translate(1179.67 1.37)"/><path class="cls-4" d="M3730.39,2266.67H3158.81a26.8,26.8,0,0,1-26.62-26.61V2066.43a26.81,26.81,0,0,1,26.62-26.62h571.58a26.82,26.82,0,0,1,26.62,26.62v173.63a26,26,0,0,1-25.34,26.61Z" transform="translate(1179.67 1.37)"/><path class="cls-5" d="M3510.5,2100.65H3378.69a9.76,9.76,0,0,1-9.5-9.51h0a9.75,9.75,0,0,1,9.5-9.5H3510.5a9.77,9.77,0,0,1,9.51,9.5h0a9.32,9.32,0,0,1-9.12,9.51Z" transform="translate(1179.67 1.37)"/><path class="cls-4" d="M800.86,1771.13H229.28a26.81,26.81,0,0,1-26.62-26.61V1570.89a26.82,26.82,0,0,1,26.62-26.62H800.86a26.82,26.82,0,0,1,26.62,26.62v173.63A26.81,26.81,0,0,1,800.86,1771.13Z" transform="translate(1179.67 1.37)"/><path class="cls-5" d="M580.34,1605.74H448.53a9.75,9.75,0,0,1-9.5-9.51h0a9.75,9.75,0,0,1,9.5-9.5H580.34a9.77,9.77,0,0,1,9.51,9.5h0a9.32,9.32,0,0,1-9.13,9.51Z" transform="translate(1179.67 1.37)"/><path class="cls-4" d="M800.86,2061.36H229.28a26.81,26.81,0,0,1-26.62-26.62V1861.11a26.81,26.81,0,0,1,26.62-26.61H800.86a26.81,26.81,0,0,1,26.62,26.61v173.63A26.81,26.81,0,0,1,800.86,2061.36Z" transform="translate(1179.67 1.37)"/><path class="cls-5" d="M580.34,1896H448.53a9.76,9.76,0,0,1-9.5-9.51h0a9.75,9.75,0,0,1,9.5-9.5H580.34a9.77,9.77,0,0,1,9.51,9.5h0a9.32,9.32,0,0,1-9.13,9.51Z" transform="translate(1179.67 1.37)"/><path class="cls-4" d="M5296.86,1332H2413.59a29.46,29.46,0,0,1-29.15-29.15v-505a29.46,29.46,0,0,1,29.15-29.15H5296.86A29.46,29.46,0,0,1,5326,797.79v505.05A29.46,29.46,0,0,1,5296.86,1332Z" transform="translate(1179.67 1.37)"/><path class="cls-4" d="M5296.86,1958.7H2413.59a29.46,29.46,0,0,1-29.15-29.15v-505a29.46,29.46,0,0,1,29.15-29.15H5296.86a29.46,29.46,0,0,1,29.15,29.15v505A29.46,29.46,0,0,1,5296.86,1958.7Z" transform="translate(1179.67 1.37)"/><rect class="cls-4" x="3758.02" y="1014.62" width="62.74" height="318.74"/><rect class="cls-4" x="3820.12" y="1101.43" width="65.27" height="231.93"/><rect class="cls-4" x="5648.94" y="1640.7" width="62.74" height="318.74"/><rect class="cls-4" x="5711.04" y="1727.51" width="65.27" height="231.93"/><rect class="cls-4" x="5520.93" y="1640.7" width="62.74" height="318.74"/><rect class="cls-6" x="4104.59" y="1762.02" width="318.74" height="62.73" transform="translate(2449.81 5321.05) rotate(-72.48)"/><rect class="cls-4" x="5583.67" y="1727.51" width="65.27" height="231.93"/><rect class="cls-4" x="4802.33" y="1014.62" width="62.74" height="318.74"/><rect class="cls-4" x="4865.07" y="1101.43" width="65.27" height="231.93"/><rect class="cls-4" x="4183.22" y="1014.62" width="62.74" height="318.74"/><rect class="cls-6" x="2767.09" y="1135.51" width="318.74" height="62.73" transform="translate(2112.4 3607.68) rotate(-72.48)"/><rect class="cls-4" x="4245.32" y="1101.43" width="65.27" height="231.93"/><path class="cls-5" d="M4278.53,1054.43l7-94.42a10.45,10.45,0,0,0-9.46-11.36,9.56,9.56,0,0,0-1.31,0h-54.5a10.83,10.83,0,0,0-10.79,10.88c0,.18,0,.35,0,.52l7,94.42s-57,36.76-56.4,67.17c.63,23.45,14.57,135.61,20.91,185a27.38,27.38,0,0,0,27.25,24.08h78.58a27.37,27.37,0,0,0,27.24-24.08c6.34-49.43,20.28-161.59,20.92-185C4335.56,1091.19,4278.53,1054.43,4278.53,1054.43Z" transform="translate(1179.67 1.37)"/><line class="cls-4" x1="1660.52" y1="2558.28" x2="7717.29" y2="2558.28"/></g><path class="cls-7" d="M1115.8,2011.3l-80.47,1125.42a16.65,16.65,0,0,0,15.55,17.71l.92,0h0a16.1,16.1,0,0,0,16.48-15.21l97-1128Z" transform="translate(1179.67 1.37)"/><path class="cls-8" d="M4373.58,2011.3l80.48,1125.42a16.67,16.67,0,0,1-15.55,17.71l-.93,0h0a16.09,16.09,0,0,1-16.47-15.21l-97-1128Z" transform="translate(1179.67 1.37)"/><path class="cls-9" d="M1820.46,618.46s56.4,114.69,97,218,47.52,199,8.23,219.25c-55.13,28.52-116.59,30.42-187.57-103.92S1720.34,513.9,1820.46,618.46Z" transform="translate(1179.67 1.37)"/><path class="cls-10" d="M1516.93,2713.42c.63,7.61-22.18,136.24-20.91,145.75s-97,34.22-144.48-8.24c0,0,7-167.93,7-193.27S1512.49,2642.45,1516.93,2713.42Z" transform="translate(1179.67 1.37)"/><path class="cls-11" d="M1497.92,2836.36s10.77,47.52,26.61,76.67,103.29,110.9,93.79,138.78-90,30.42-152.09,27.88-90-24.08-114.69-68.44-8.24-74.14-5.07-160.32c0,0,1.9-14.57,5.7-17.11,0,0,12.67,22.18,27.25,24.08s29.15-33.58,64.63-37.39,39.93,31.69,43.73,31.69S1496.65,2846.5,1497.92,2836.36Z" transform="translate(1179.67 1.37)"/><path class="cls-12" d="M1555.58,2972.6s-44.36-19-126.74,12" transform="translate(1179.67 1.37)"/><path class="cls-12" d="M1539.74,2937.75s-44.36-19-126.74,12" transform="translate(1179.67 1.37)"/><path class="cls-10" d="M1833.77,2691.24c.63,7.61-22.18,136.25-20.91,145.75s-97,34.22-144.48-8.24c0,0,7-167.92,7-193.27S1830,2620.27,1833.77,2691.24Z" transform="translate(1179.67 1.37)"/><path class="cls-11" d="M1815.39,2813.54s10.78,47.53,26.62,76.68,103.29,110.89,93.78,138.78-90,30.41-152.08,27.88-90-24.08-114.7-68.44-8.24-74.14-5.07-160.32c0,0,1.9-14.58,5.71-17.11,0,0,12.67,22.18,27.24,24.08s29.15-33.59,64.64-37.39,39.92,31.69,43.72,31.69S1814.13,2824.32,1815.39,2813.54Z" transform="translate(1179.67 1.37)"/><path class="cls-12" d="M1872.42,2950.42s-44.35-19-126.73,12" transform="translate(1179.67 1.37)"/><path class="cls-12" d="M1857.22,2915.57s-44.36-19-126.74,12" transform="translate(1179.67 1.37)"/><path class="cls-13" d="M1233.67,1323.75s-19,110.89,35.49,371.34c16.47,79.21,29.78,182.5,39.28,290.86,22.18,247.14,3.17,499.34-8.23,598.83-16.48,142.58,56.4,169.83,135,176.17s107.73-29.79,111.53-69.71,50.7-572.22,68.44-692.62,19.64-285.15,13.94-309.23,62.73-19,34.22-316.85C1635.43,1073.44,1256.48,1244.54,1233.67,1323.75Z" transform="translate(1179.67 1.37)"/><path class="cls-14" d="M1779.27,1338.32s95.06,406.83,106.46,533.57-12,748.38-11.4,785.77-33.59,71-118.5,72.87-119.14-54.5-118.5-84.91c1.9-101.39,3.17-505-3.17-567.15s-98.86-367.54-117.23-396.69-58.94-248.4,20.91-286.42S1743.15,1300.3,1779.27,1338.32Z" transform="translate(1179.67 1.37)"/><path class="cls-11" d="M1659.51,526.57s-162.23-5.7-237.64-15.84S1205.79,500,1150,613.39s117.24,169.19,112.8,249.67S1247,1079.78,1247,1079.78s-15.84,152.72-33.59,210.38,15.84,86.82,31.69,91.89,180.6,38.65,305.43,31.68,226.86-35.48,235.73-63.37-5.7-109.62,0-195.17,22.18-235.1,22.18-292.13,27.88-201.51,0-261.08S1713.37,528.47,1659.51,526.57Z" transform="translate(1179.67 1.37)"/><path class="cls-9" d="M1446.59,459.4s-26,3.8-34.85,20.91a108.33,108.33,0,0,0-12,50.7c.63,20.28,31,76,119.13,86.18s119.76-33,123.57-49.43-2.54-60.83-8.87-68.44-15.21-16.47-46.9-20.27C1555.58,474,1456.73,455.6,1446.59,459.4Z" transform="translate(1179.67 1.37)"/><path class="cls-15" d="M1574,844.68a435.81,435.81,0,0,0,39.29-47.52c13.3-20.28,31-42.46,45.62-50.7s45-13.94,53.23-18.37,17.75,11.4,0,26-10.14,57-34.85,79.84S1582.83,870.66,1574,844.68Z" transform="translate(1179.67 1.37)"/><path class="cls-14" d="M1758.36,469.54l320-20.91a15,15,0,0,1,16,14,14.61,14.61,0,0,1-.12,3.1l-78.57,482.87a24.22,24.22,0,0,1-20.91,20.28l-306.07,41.82a15.45,15.45,0,0,1-17.11-16.48l64.63-503.14A22.82,22.82,0,0,1,1758.36,469.54Z" transform="translate(1179.67 1.37)"/><path class="cls-11" d="M1984.59,470.81l-121,6.34a7.48,7.48,0,0,1-7.64-7.31,7.23,7.23,0,0,1,0-.93l1.9-12.68a10.15,10.15,0,0,1,9.51-8.87l121-6.33a7.47,7.47,0,0,1,7.64,7.31,7,7,0,0,1,0,.92l-1.9,12.68A10.77,10.77,0,0,1,1984.59,470.81Z" transform="translate(1179.67 1.37)"/><path class="cls-15" d="M1278.66,960s39.92-160.32,50.06-221.79-28.51-129.9-88.08-145.11c-69.7-17.11-91.25,19.64-91.25,19.64s-27.88,48.8-55.76,202.15-43.73,295.93,55.76,330.78,303.54-78.57,368.8-127.37,89.35-69.07,102-72.24,62.73,10.14,89.35-19.64,49.43-53.23,52-53.23,65.9,9.5,76.68,1.27c12-9.51-5.71-19-18.38-20.91S1771,839.61,1771,839.61s28.51-8.87,48.79-16.47,41.19-12,39.92-22.81-13.94-9.51-26.61-10.14a136.88,136.88,0,0,0-29.79,3.17s34.86-9.51,43.73-19.65,1.26-19-17.11-17.11a278.29,278.29,0,0,0-34.85,6.34s35.48-3.17,33-19c-1.9-10.78-33.59-5.07-54.5-2.54a620,620,0,0,0-70.34,13.31,231.11,231.11,0,0,0-38.65,12.67c-22.18,10.78-77.95,64-86.82,74.78s-120.4,28.51-211.65,48.79-144.48,36.76-172.36,62.74Z" transform="translate(1179.67 1.37)"/><path class="cls-16" d="M1774.84,740.76a617.4,617.4,0,0,0-70.34,13.31,229.41,229.41,0,0,0-38.66,12.67" transform="translate(1179.67 1.37)"/><path class="cls-9" d="M1596.77,960c-15.84,11.41-39.92,30.42-77.94,58.3-65.27,48.16-269.32,161.59-368.81,127.37s-83-177.43-55.76-330.78S1150,612.75,1150,612.75s21.55-36.75,91.25-19.64c58.94,14.58,98.23,83,88.09,145.11-6.34,38.66-24.72,117.24-37.39,169.83,22.18-6.33,47.53-12,76.67-18.37,64.64-13.95,140-27.25,181.24-37.39a107.32,107.32,0,0,0,7,68.44C1571.42,953.68,1596.77,960,1596.77,960Z" transform="translate(1179.67 1.37)"/><path class="cls-17" d="M1087.92,1085.48s-1.27-34.22,40.56-29.78,150.18,43.72,119.13,90" transform="translate(1179.67 1.37)"/><path class="cls-17" d="M1499.18,863.69a122.16,122.16,0,0,0,7.61,74.15A131.43,131.43,0,0,0,1555,992.33" transform="translate(1179.67 1.37)"/><path class="cls-15" d="M1441.52,359.91s-1.9,81.12-7,131.81,89.35,71.61,135,62.74,52.6-22.82,52.6-22.82-3.8-68.44,0-93.15S1442.15,333.3,1441.52,359.91Z" transform="translate(1179.67 1.37)"/><path class="cls-18" d="M1620.85,513.27c-.63-10.14-.63-23.45-.63-36.76-38.66,1.9-72.88-33.58-100.76-62.73C1511.86,474.61,1564.45,513.9,1620.85,513.27Z" transform="translate(1179.67 1.37)"/><path class="cls-9" d="M1695.63,252.19s31.68-16.48,41.19-68.44-1.9-129.27-37.39-138.14-10.77,100.12-34.85,120.4S1695.63,223.67,1695.63,252.19Z" transform="translate(1179.67 1.37)"/><path class="cls-15" d="M1694.36,162.84a396.56,396.56,0,0,1,7,107.72c-3.8,64.64,8.87,173.63-61.47,205.32s-163.49-1.27-201.51-105.19S1399.7,163.47,1458,119.11,1673.45,80.46,1694.36,162.84Z" transform="translate(1179.67 1.37)"/><path class="cls-9" d="M1446,287.67s21.55-7,22.18-45.62,20.92-71.61,62.74-60.2,100.12,43.72,134.34,43.09c40.56-1.27,53.23-45,56.4-98.86S1707,38.64,1686.12,44.34s-38.65,23.45-64.63-9.51C1586-9.52,1554.31-8.26,1529,12.65c-44.36,37.39-34.22,57-74.78,41.19-23.44-9.5-39.92-7-51.33,36.76s-7,55.76-34.22,52-10.13,140.68,34.22,173C1403.5,315.56,1437.72,284.51,1446,287.67Z" transform="translate(1179.67 1.37)"/><path class="cls-9" d="M1663.94,298.45c2.54,7,3.8,13.94,5.71,20.27s3.8,13.31,5.7,18.38a33.63,33.63,0,0,1,3.17,12,17.85,17.85,0,0,1-3.81,12.68,24.17,24.17,0,0,1-21.54,8.23,34.48,34.48,0,0,0,13.94-12.67,17.29,17.29,0,0,0-2.53-15.21,55.42,55.42,0,0,1-4.44-22.18A118.25,118.25,0,0,1,1663.94,298.45Z" transform="translate(1179.67 1.37)"/><path class="cls-9" d="M1602.47,243.32a7.6,7.6,0,0,0,8.24-10.14c-1.9-5.71-3.17-10.78-9.5-12a83.91,83.91,0,0,0-58.94,12c-17.11,12.67-.63,15.21,20.92,10.77A137.51,137.51,0,0,1,1602.47,243.32Z" transform="translate(1179.67 1.37)"/><ellipse class="cls-12" cx="2753" cy="306.79" rx="62.73" ry="65.27"/><ellipse class="cls-12" cx="2884.17" cy="306.79" rx="40.56" ry="59.57"/><path class="cls-12" d="M1665.21,292.11s-8.24-11.41-30.42,0" transform="translate(1179.67 1.37)"/><line class="cls-12" x1="2692.8" y1="288.41" x2="2617.39" y2="282.71"/><path class="cls-12" d="M1611.35,415a56.17,56.17,0,0,1-43.09-29.78" transform="translate(1179.67 1.37)"/><path class="cls-9" d="M1582.83,329.5h0a10.66,10.66,0,0,0,11.39-9.85c0-.1,0-.19,0-.29l.63-6.34a10.65,10.65,0,0,0-9.85-11.39h-.29a10.65,10.65,0,0,0-11.39,9.84c0,.1,0,.2,0,.29l-.64,6.34a10.33,10.33,0,0,0,9.2,11.35C1582.2,329.47,1582.51,329.49,1582.83,329.5Z" transform="translate(1179.67 1.37)"/><path class="cls-9" d="M1676.62,331.4h0a10.64,10.64,0,0,0,11.38-9.85,2.83,2.83,0,0,0,0-.29l.64-6.34a10.66,10.66,0,0,0-9.85-11.39h-.29a10.63,10.63,0,0,0-11.39,9.84c0,.1,0,.2,0,.3l-.63,6.33A11.6,11.6,0,0,0,1676.62,331.4Z" transform="translate(1179.67 1.37)"/><path class="cls-15" d="M1443.42,289.58s-18.38-31.69-43.09-23.45-24.08,46.26-12,69.07a69.7,69.7,0,0,0,68.44,34.85" transform="translate(1179.67 1.37)"/><path class="cls-9" d="M1399.7,312.39a18.09,18.09,0,0,1-1.27-10.14,11.36,11.36,0,0,1,2.53-5.7,10.18,10.18,0,0,1,7-3.17,14.81,14.81,0,0,1,11.41,5.07,45.49,45.49,0,0,1,6.34,8.87,109.1,109.1,0,0,1,6.33,16.47,23,23,0,0,0,3.17,5.71c1.27,1.26,4.44,1.26,7.61,1.26a10,10,0,0,1-9.51,4.44,21,21,0,0,1-9.5-6.34A137.33,137.33,0,0,1,1414.9,313c-2.53-5.07-5.07-8.87-7.6-9.5-.63,0-1.27-.64-1.9,0s-1.27.63-1.9,1.9A54.89,54.89,0,0,0,1399.7,312.39Z" transform="translate(1179.67 1.37)"/><path class="cls-16" d="M1774.84,840.25a141.53,141.53,0,0,0-20.91-3.8,49.1,49.1,0,0,0-15.21,0" transform="translate(1179.67 1.37)"/><path class="cls-16" d="M1804,792.72s-64.64,13.94-70.34,18.38" transform="translate(1179.67 1.37)"/><path class="cls-16" d="M1796.38,762.3s-44.36,9.51-46.89,10.14c-8.24,2.54-23.45,7-23.45,7" transform="translate(1179.67 1.37)"/><path class="cls-12" d="M1292,1584.19s74.14-31.68,74.14-139.41" transform="translate(1179.67 1.37)"/><path class="cls-8" d="M581,2466.28l-36.75,763A14.82,14.82,0,0,0,558,3245.05a11.54,11.54,0,0,0,1.44,0h0a15.21,15.21,0,0,0,15.21-13.94l64-765.49H581Z" transform="translate(1179.67 1.37)"/><path class="cls-8" d="M942.81,2466.28l36.75,763a14.82,14.82,0,0,1-13.77,15.81,11.54,11.54,0,0,1-1.44,0h0a15.2,15.2,0,0,1-15.2-13.94l-64-765.49h57.67Z" transform="translate(1179.67 1.37)"/><path class="cls-8" d="M828.11,2316.1l-.63,763.59a15.15,15.15,0,0,1-15.07,15.23l-.77,0h0a16.22,16.22,0,0,1-14.58-14.57l-26.61-767.4Z" transform="translate(1179.67 1.37)"/><path class="cls-9" d="M968.16,2392.14a1592,1592,0,0,0-215.46-13.3,1598.45,1598.45,0,0,0-215.45,13.3H418.12v43.09c0,31.05,149.55,56.4,334.58,56.4s334.59-25.35,334.59-56.4v-43.09Z" transform="translate(1179.67 1.37)"/><ellipse class="cls-19" cx="1932.37" cy="2393.52" rx="334.59" ry="56.4"/><path class="cls-9" d="M991.6,2987.81S983.36,3048.64,972,3067s-30.42,64-29.79,74.77c1.91,19.65,62.74,69.71,98.23,100.13s64.63,31.68,130.53,36.75,92.52-5.07,92.52-25.35-13.3-29.78-42.45-63.37-74.78-81.11-90-108.36,15.21-68.44,29.15-93.78S1020.75,2916.2,991.6,2987.81Z" transform="translate(1179.67 1.37)"/><path class="cls-10" d="M1160.16,2987.81c-13.31,25.34-43.72,66.53-29.15,93.78,1.27,2.54,3.17,5.07,4.44,7.61a52.66,52.66,0,0,0-43.09-21.55c-30.42,0-46.89,35.49-70.34,18.38-15.21-11.41-34.85-24.08-46.26-31.05a424.53,424.53,0,0,0,14.57-67.81C1020.75,2916.2,1174.1,2962.46,1160.16,2987.81Z" transform="translate(1179.67 1.37)"/><path class="cls-11" d="M968.79,1953s26.61,64.64,39.92,83,339.66,50.06,374.51,182.5-171.73,691.35-193.91,743.95-25.35,98.85-100.12,91.25-135-55.76-120.4-108.36,71.61-192.64,95-360.57,108.36-203.41-43.72-254.74-273.12-34.85-231.3-176.8S939.64,1937.79,968.79,1953Z" transform="translate(1179.67 1.37)"/><path class="cls-9" d="M1204.52,3080.33s26.62,95.05,26.62,105.19-17.11,91.88-13.31,116,36.75,37.39,80.48,77.31c46.89,43.73,84.91,41.19,142.58,36.75,49.42-3.8,115.33-27.88,122.3-47.52s-.64-33.59-39.93-54.5c-34.85-19-122.3-116-126.73-126.74s-31-152.08-32.32-165.39S1188.68,3044.21,1204.52,3080.33Z" transform="translate(1179.67 1.37)"/><path class="cls-10" d="M1392.09,3173.48c-13.31-16.48-32.32-30.42-57.66-15.21-26.62,15.84-29.15,50.06-43.09,52s-15.21-17.74-33.59-23.45A68,68,0,0,1,1228,3169c-7-29.78-23.45-89.35-23.45-89.35-15.84-36.12,158.42-72.87,159.06-58.93C1364.84,3032.8,1383.85,3135.46,1392.09,3173.48Z" transform="translate(1179.67 1.37)"/><path class="cls-20" d="M1434.55,3242.55s-33-12.67-97.59,19.64" transform="translate(1179.67 1.37)"/><path class="cls-20" d="M1480.17,3283.1s-48.79-12.67-113.43,19.65" transform="translate(1179.67 1.37)"/><path class="cls-11" d="M522.67,1942.86s-30.41,79.84-48.79,129.91-41.82,152.71,10.77,235.73,154,97.58,316.85,117.86c161,19.65,195.81,32.32,195.81,32.32a2882.42,2882.42,0,0,0,96.32,325.08c59.56,161,81.74,254.74,84.28,277.55s14.57,45,54.49,54.5,143.85-13.31,150.82-59.57-38-187.57-67.17-375.14-42.46-344.72-97.59-417.6S946,2183,946,2162.11,628.5,1892.17,522.67,1942.86Z" transform="translate(1179.67 1.37)"/><path class="cls-12" d="M1315.42,2681.1c-29.15-187.57-42.46-344.72-97.59-417.6s-261.71-93.15-272.49-101.38a228.81,228.81,0,0,0-121-34.22" transform="translate(1179.67 1.37)"/><path class="cls-12" d="M945.34,2162.12s5.07-33,0-48.16" transform="translate(1179.67 1.37)"/><path class="cls-12" d="M484.65,2186.83s105.83-1.9,129.28-117.23" transform="translate(1179.67 1.37)"/><path class="cls-12" d="M996.67,2458.68a69.7,69.7,0,0,1,24.08-51.33" transform="translate(1179.67 1.37)"/><path class="cls-20" d="M1214.66,3181.71s-13.31-36.12-119.77-7" transform="translate(1179.67 1.37)"/><path class="cls-20" d="M1161.43,3124.68s-10.14-26.61-95,9.51" transform="translate(1179.67 1.37)"/><path class="cls-21" d="M3741.16,802.23l-852.94-34.86c-18.37-.63-31-17.74-28.51-38.65l69.7-512.65a44.35,44.35,0,0,1,38.66-38L3821,143.19a34.32,34.32,0,0,1,37.38,39.29L3788.69,761A46.33,46.33,0,0,1,3741.16,802.23Z" transform="translate(1179.67 1.37)"/><path class="cls-14" d="M3726.59,791.45,2873.65,756.6c-18.38-.63-31.05-17.74-28.52-38.65l69.71-512.66a44.37,44.37,0,0,1,38.65-38l852.94-34.85a34.35,34.35,0,0,1,37.6,30.75,33.92,33.92,0,0,1-.21,8.54l-69.71,578.55A46.74,46.74,0,0,1,3726.59,791.45Z" transform="translate(1179.67 1.37)"/><line class="cls-22" x1="4228.85" y1="462.04" x2="4454.44" y2="462.04"/><path class="cls-22" d="M3250.69,646.34,3129,643.17a30.92,30.92,0,0,1-29.68-32.11,31.39,31.39,0,0,1,.53-4.64l38.66-290.86a42.46,42.46,0,0,1,38.65-36.76l121.67-3.17" transform="translate(1179.67 1.37)"/><path class="cls-11" d="M3431.92,309.22l-141.31,2.53a12.68,12.68,0,0,1-12.67-14.57l5.7-42.46a17.57,17.57,0,0,1,16.48-15.21l141.31-4.43a13,13,0,0,1,13.4,12.57,13.33,13.33,0,0,1-.09,2L3449,292.74A18.25,18.25,0,0,1,3431.92,309.22Z" transform="translate(1179.67 1.37)"/><path class="cls-11" d="M3675.26,498.69l-151.45-.63a13.44,13.44,0,0,1-13.53-13.35,13.89,13.89,0,0,1,.22-2.49l5.7-44.36A18.18,18.18,0,0,1,3533.31,422l151.46-.64a13.56,13.56,0,0,1,14.12,13,13.76,13.76,0,0,1-.18,2.87l-5.71,45A17.86,17.86,0,0,1,3675.26,498.69Z" transform="translate(1179.67 1.37)"/><path class="cls-11" d="M3384.4,686.9l-141.31-3.81a13.06,13.06,0,0,1-12.86-13.25,14.14,14.14,0,0,1,.18-2l5.71-43.1a16.4,16.4,0,0,1,16.47-14.57l141.31,2.53a13.74,13.74,0,0,1,13.31,15.85l-5.7,43.72A17.63,17.63,0,0,1,3384.4,686.9Z" transform="translate(1179.67 1.37)"/><line class="cls-22" x1="4607.79" y1="461.41" x2="4693.34" y2="461.41"/><path class="cls-10" d="M3408.48,497.42l-141.31-.63a13.06,13.06,0,0,1-12.86-13.25,14.28,14.28,0,0,1,.18-2l5.71-42.46a17.54,17.54,0,0,1,16.47-15.2l141.31-.64a13.51,13.51,0,0,1,13.42,13.58,12.63,12.63,0,0,1-.11,1.63l-5.7,43.73A18.18,18.18,0,0,1,3408.48,497.42Z" transform="translate(1179.67 1.37)"/><path class="cls-11" d="M3049.18,460.67c3.17-23.45-12-41.82-33.59-41.82s-41.19,19-44.35,41.82,11.4,41.82,33,41.82A47.9,47.9,0,0,0,3049.18,460.67Z" transform="translate(1179.67 1.37)"/><path class="cls-9" d="M3657.52,2344v43.09c0,27.89-140.05,50.7-313.68,50.7s-313.67-22.81-313.67-50.7V2344h147.65a1816.05,1816.05,0,0,1,332,0Z" transform="translate(1179.67 1.37)"/><ellipse class="cls-19" cx="4523.51" cy="2345.36" rx="313.67" ry="50.69"/><path class="cls-9" d="M3343.84,2906.7h0a14.32,14.32,0,0,1-14.57-14.07,4.34,4.34,0,0,1,0-.51V2395.31h29.78v496.81a14.9,14.9,0,0,1-15.2,14.58Z" transform="translate(1179.67 1.37)"/><path class="cls-23" d="M3343.84,2890.85s-172.36,12.68-226.86,127.37" transform="translate(1179.67 1.37)"/><path class="cls-23" d="M3571.34,3018.22c-55.14-114.69-226.86-127.37-226.86-127.37S3316,2913,3303.92,3044.21" transform="translate(1179.67 1.37)"/><circle class="cls-11" cx="4482.89" cy="3059.77" r="46.26"/><circle class="cls-11" cx="4750.69" cy="3028.98" r="46.26"/><circle class="cls-12" cx="4296.59" cy="3028.72" r="46.26"/><path class="cls-9" d="M3514.94,1877c30.41,72.87,84.28,190.1,83.64,321.91,0,159.69-193.27,225-212.91,250.3s-422,53.23-463.23-27.24-38.65-165.4,71.61-368.81c73.51-136.24,64-174.26,64.63-176.16,0,0,10.14,10.77,14.58-31.69S3496.56,1833.87,3514.94,1877Z" transform="translate(1179.67 1.37)"/><path class="cls-10" d="M3018.13,2256.53c-39.29,6.34-105.19,27.25-112.16,131.81s76.67,510.12,77.94,581.72-5.7,74.78-54.5,118.5-145.75,91.25-137.51,124.84,119.13,62.1,192,48.79,89.35-96.32,103.29-103.29,22.81-33,24.71-49.42,53.23-598.2,58.3-683.75C3177.18,2319.9,3133.46,2238.16,3018.13,2256.53Z" transform="translate(1179.67 1.37)"/><path class="cls-9" d="M3117,3060.05c-2.53,27.88-4.43,45.62-4.43,48.79-1.9,17.11-10.78,42.46-24.72,49.43s-29.78,90-103.29,103.29-184.4-15.21-192-48.79c-6.34-26,51.32-60.84,100.12-95.69-1.27,1.27-15.21,15.21,0,18.38s44.36-8.88,98.85,21.54,70.34-17.11,81.11-49.43C3082.13,3080.33,3101.14,3089.2,3117,3060.05Z" transform="translate(1179.67 1.37)"/><path class="cls-10" d="M3209.5,2275.54c-47.53,31.69-66.54,70.34-75.41,216.09-12,200.25-33.58,515.19-43.72,548.77s-22.81,48.8-34.85,82.38-114.07,130.54-107.73,167.3,64.63,73.5,101.39,85.54,80.48,17.11,107.09,0,39.92-124.2,46.89-149.55,14.58-44.35,20.92-89.35,52.59-247.77,72.24-306.07S3404,2489.1,3406.58,2378.2C3407.84,2267.31,3279.21,2229.92,3209.5,2275.54Z" transform="translate(1179.67 1.37)"/><path class="cls-24" d="M3209.5,2275.54c-47.53,31.69-66.54,70.34-75.41,216.09-12,200.25-33.58,515.19-43.72,548.77s-22.81,48.8-34.85,82.38" transform="translate(1179.67 1.37)"/><path class="cls-9" d="M3231.05,3096.8a355.26,355.26,0,0,0-7,39.92c-5.71,44.36-13.95,63.37-20.92,89.35s-19.64,133.08-46.25,149.55-70.34,12-107.1,0-95-48.79-101.39-84.91c-4.43-26.62,47.53-84.28,81.11-127.37-1.9,2.53-26,38.65,17.11,70.34,37.39,27.88,107.1,45,124.84,3.17s27.25-81.12,35.49-93.79A142.94,142.94,0,0,0,3231.05,3096.8Z" transform="translate(1179.67 1.37)"/><ellipse class="cls-25" cx="3071.89" cy="3243.97" rx="25.98" ry="34.85" transform="translate(147.32 5010.31) rotate(-69.83)"/><path class="cls-25" d="M2963.63,3148.13c-1.9,13.31-18.38,21.55-36.12,19s-31.05-15.84-29.15-29.15,18.38-21.54,36.12-19S2965.53,3134.82,2963.63,3148.13Z" transform="translate(1179.67 1.37)"/><path class="cls-11" d="M3073.89,1347.2s-86.18,1.26-144.48,129.9S2778.59,1787,2791.9,1863.65s190.11,0,273.75-143.85S3141.06,1351,3073.89,1347.2Z" transform="translate(1179.67 1.37)"/><path class="cls-9" d="M3140.43,1091.19s-43.73-2.54-57.67-58.94,43.73-126.73,97-143.84,66.53,15.84,101.39,19.64,128-6.33,165.39,76.68-24.71,161.59,22.81,223.69,87.45,177.43-52.59,226.86-301,10.77-351.07-78.58,46.26-141.94,60.84-188.2C3142.33,1122.87,3149.3,1111.47,3140.43,1091.19Z" transform="translate(1179.67 1.37)"/><path class="cls-11" d="M3282.37,1314.24s-129.27-1.26-199.61,25.35c-20.91,7.61-38.65,20.91-43.72,86.82-4.44,59.56-7.6,58.93-24.08,88.08-26,46.89-36.75,100.75,13.31,188.2,32.31,57,22.18,164.13,17.11,218s1.26,77.94,105.82,104.56,328.88,0,354.23-25.35,36.76-276.28,31.69-325.08,88.71-178.7,81.74-230S3551.06,1323.12,3282.37,1314.24Z" transform="translate(1179.67 1.37)"/><path class="cls-25" d="M3211.4,1303.47s-58.3,2.54-77.31,22.18c-13.3,13.94-2.53,22.81,13.31,34.85,10.77,8.24-27.25,29.79-7.6,54.5,14.57,18.38,47.52-4.44,60.2,12.67,14.57,20.28,17.1,27.89,39.28,28.52,27.89.63,30.42-29.15,51.33-26,25.35,3.8,31,12.67,49.43,10.77,28.52-3.17,29.15-31.68,25.35-48.79s6.33-17.75,28.51-24.08,26.62-49.43-55.13-61.47S3211.4,1303.47,3211.4,1303.47Z" transform="translate(1179.67 1.37)"/><path class="cls-10" d="M3355.88,1188.77a675.76,675.76,0,0,0-12,132.44,96.39,96.39,0,0,1-98.22,62.11c-71-3.81-54.5-60.84-54.5-60.84s17.11-63.37,17.75-79.84S3338.14,1171.67,3355.88,1188.77Z" transform="translate(1179.67 1.37)"/><path class="cls-26" d="M3299.48,1261c-30.41,20.28-65.9,32.32-99.48,29.79l-8.24,31.68s-.64,3.17-1.27,8.24C3239.92,1329.45,3284.28,1307.27,3299.48,1261Z" transform="translate(1179.67 1.37)"/><path class="cls-10" d="M3132.19,1027.82a591.69,591.69,0,0,1-7,105.19c-8.87,54.5.63,140.68,59.57,161,81.74,27.88,166.66-27.89,187.57-109s31.68-180.6-72.24-210.38S3137.89,987.9,3132.19,1027.82Z" transform="translate(1179.67 1.37)"/><path class="cls-9" d="M3129,1050.63s-4.43-19.64,13.94-23.45a262.43,262.43,0,0,0,52.6-19.64c12-5.7,27.25-3.8,39.29,22.81,26.61,57,60.2,142.58,129.9,118.5,0,0,26.62,5.71,34.22-38.65s4.44-103.93-72.87-140.05-166-11.4-182.5,7C3118.25,1005.64,3129,1050.63,3129,1050.63Z" transform="translate(1179.67 1.37)"/><path class="cls-10" d="M3335,1157.72s28.52-39.28,55.13-16.47-10.14,80.48-46.89,78.58" transform="translate(1179.67 1.37)"/><path class="cls-14" d="M3376.16,1224.26c0-8.87-7.6-25.35-16.48-25.35s-16.47,16.48-16.47,25.35a16.8,16.8,0,0,0,16.47,16.48,16.36,16.36,0,0,0,16.48-16.22Z" transform="translate(1179.67 1.37)"/><path class="cls-9" d="M3380.6,1167.86c-2.54-1.26-4.44-3.17-6.34-3.8a3.69,3.69,0,0,0-4.44,0c-.63,0-.63.63-1.26,1.27s-1.27,1.27-1.27,1.9a39.54,39.54,0,0,0-1.27,4.44c-.63,3.8,0,8.87-1.27,14.57a12.7,12.7,0,0,1-5.7,8.24,10.8,10.8,0,0,1-8.87,0c2.53-1.27,4.43-2.54,5.07-4.44a12.63,12.63,0,0,0,.63-5.07,98.51,98.51,0,0,1-.63-14.57,15.22,15.22,0,0,1,3.8-9.51l3.8-3.8a19.89,19.89,0,0,1,5.71-1.9,9.82,9.82,0,0,1,8.87,5.07A10,10,0,0,1,3380.6,1167.86Z" transform="translate(1179.67 1.37)"/><path class="cls-9" d="M3153.74,1129.21a30.16,30.16,0,0,1,1.26,18.37,35.9,35.9,0,0,1-8.23,17.11c-1.27,1.91-1.91,1.91-1.91,3.81a14.64,14.64,0,0,0,1.91,5.7,38.13,38.13,0,0,0,4.43,6.34c1.9,1.9,3.8,4.43,6.34,5.07a12.7,12.7,0,0,1-9.51-.64,35.56,35.56,0,0,1-8.23-5.07,17.14,17.14,0,0,1-5.07-10.14v-3.16a28.21,28.21,0,0,1,.63-3.17c.63-1.27.63-1.9,1.27-3.17a8.66,8.66,0,0,1,1.9-2.54A100.9,100.9,0,0,0,3153.74,1129.21Z" transform="translate(1179.67 1.37)"/><path class="cls-12" d="M3182.25,1219.19a57.1,57.1,0,0,0,40.56-11.4" transform="translate(1179.67 1.37)"/><path class="cls-9" d="M3209.5,1081.05a15.64,15.64,0,0,1,2.54-12c5.07-6.34,21.54-7,34.22,1.27s17.74,19.64,13.94,20.91c-5.71,1.9-11.41-5.71-24.72-7S3212,1088,3209.5,1081.05Z" transform="translate(1179.67 1.37)"/><path class="cls-9" d="M3144.23,1079.15a4.94,4.94,0,0,0,6.14-3.34,4.63,4.63,0,0,0,.2-1.1,20.87,20.87,0,0,0-1.27-12.67c-3.8-5.71-13.94.63-17.11,5.07s-1.9,12,0,12A36.31,36.31,0,0,1,3144.23,1079.15Z" transform="translate(1179.67 1.37)"/><path class="cls-9" d="M3222.17,1140.61h0a8.68,8.68,0,0,0,9.48-7.8l0-.43.63-5.07a8.68,8.68,0,0,0-7.8-9.48l-.43,0h0a8.69,8.69,0,0,0-9.48,7.81l0,.43-.63,5.07a8.67,8.67,0,0,0,7.8,9.47Z" transform="translate(1179.67 1.37)"/><path class="cls-9" d="M3140.43,1134.28h0a8.68,8.68,0,0,0,9.47-7.81,3.11,3.11,0,0,0,0-.43l.64-5.07a8.68,8.68,0,0,0-7.81-9.47,3.11,3.11,0,0,0-.43,0h0a8.67,8.67,0,0,0-9.47,7.8c0,.15,0,.29,0,.43l-.63,5.07A9.58,9.58,0,0,0,3140.43,1134.28Z" transform="translate(1179.67 1.37)"/><path class="cls-8" d="M2274.81,2120.93l36.76,859.27a16.1,16.1,0,0,1-14.34,17.68l-.87.07h0a16.48,16.48,0,0,1-15.21-15.85l-64-861.81h57.67Z" transform="translate(1179.67 1.37)"/><path class="cls-8" d="M2354,2020.17l34.85,817.45a15.47,15.47,0,0,1-13.71,17,8.28,8.28,0,0,1-.87.07h0a15.14,15.14,0,0,1-14.57-14.57l-60.83-820Z" transform="translate(1179.67 1.37)"/><path class="cls-8" d="M1698.79,2121.56l-115.33,852.31a16.36,16.36,0,0,0,13.19,19l.12,0h0a16.29,16.29,0,0,0,16.48-13.94l142.58-852.31Z" transform="translate(1179.67 1.37)"/><path class="cls-11" d="M2468.09,1209.69s37.39,17.11,5.07,167.29-91.89,349.16-83.65,574.12-139.41,318.11-380.84,301,137.51-699,137.51-699S2418,1148.22,2468.09,1209.69Z" transform="translate(1179.67 1.37)"/><path class="cls-25" d="M1820.46,1255.31c6.34-27.88,19.65-72.87,69.71-91.25s576-9.5,583,55.77-130.54,369.43-129.91,587.42,39.29,398.59-217.35,434.71-531.66-17.11-503.78-104.56,112.79-204.68,138.78-444.85S1797,1363,1820.46,1255.31Z" transform="translate(1179.67 1.37)"/><path class="cls-9" d="M1701.33,1953s-193.27,242.07-199,322.54,317.48,77.31,318.11,60.84,54.5-110.26,79.85-112.16c16.47-1.27,41.82-2.54,46.26,17.74,6.33,28.52,0,88.08,0,88.08l278.18,130.54,27.25-116s46.89-75.41,46.89-199.61-36.12-307.34-36.12-307.34S1733,1893.43,1701.33,1953Z" transform="translate(1179.67 1.37)"/><path class="cls-9" d="M1929.46,3120.25s-17.11,11.4-20.92,39.92-19,71-29.14,105.83-39.93,102.65-24.72,114.06c21.55,17.11,78.58,29.15,144.48,34.85s97.59,1.9,107.73-17.11-11.41-128-15.21-169.19,0-84.28-7.6-98.86S1959.87,3081,1929.46,3120.25Z" transform="translate(1179.67 1.37)"/><path class="cls-9" d="M1695.63,3083.49a165.12,165.12,0,0,0-15.21,37.39c-7.61,24.72-74.78,128.64-74.14,161.59s64.63,33.59,89.35,34.85c29.78,1.27,105.19-4.43,129.9-21.54s25.35-76,27.25-95.05c3.8-38,3.17-60.84-5.7-117.87-2.54-18.38-30.42-23.45-45.63-12.67S1707,3058.78,1695.63,3083.49Z" transform="translate(1179.67 1.37)"/><path class="cls-10" d="M1939.6,3044.84s-11.41,83-12.68,93.15,17.11,32.32,70.34,43.73c45.63,10.13,72.87-7,77.31-13.31s25.35-112.16,32.32-136.24S1954.17,3016.32,1939.6,3044.84Z" transform="translate(1179.67 1.37)"/><path class="cls-10" d="M1680.42,3027.1s17.11,58.3,17.11,65.9,29.15,23.45,69.7,22.18S1842,3091.73,1842,3081s-12-114.06-12-114.06S1684.22,2998,1680.42,3027.1Z" transform="translate(1179.67 1.37)"/><path class="cls-20" d="M1916.15,3267.9a167.33,167.33,0,0,1,151.45,34.85" transform="translate(1179.67 1.37)"/><path class="cls-20" d="M1936.43,3221.64s76.67-13.94,125.47,26" transform="translate(1179.67 1.37)"/><path class="cls-9" d="M1930.09,3153.83a29.25,29.25,0,0,0,27.25,0c14.57-7.6,29.78-21.54,59.56-15.84,36.13,7,43.1,44.36,62.74,27.88,0,0,.63,25.35-48.79,27.89S1930.72,3162.07,1930.09,3153.83Z" transform="translate(1179.67 1.37)"/><path class="cls-9" d="M1695,3094.27s7,7.6,18.38-3.17,10.14-22.81,41.19-27.25c20.28-2.54,37.39,12,52.59,24.08s30.42-4.44,33.59-18.38c0,0,10.14,36.12-3.8,53.87-10.14,13.3-49.43,3.8-72.88,4.43s-74.14-10.77-74.14-10.77Z" transform="translate(1179.67 1.37)"/><path class="cls-20" d="M1651.9,3187.42s59.57-36.76,141.31,12.67" transform="translate(1179.67 1.37)"/><path class="cls-20" d="M1680.42,3149.4s52-36.76,123.57,12.67" transform="translate(1179.67 1.37)"/><path class="cls-9" d="M2021.34,2205.21s-76.68,10.77-81.74,202.14-20.92,498.71-42.46,541.8-13.94,93.79,26,114.07,86.18,43.72,144.48,37.38,86.18-39.92,86.18-107.72,24.71-257.91,62.74-412.53,63.36-307.34-13.95-362.47S2021.34,2205.21,2021.34,2205.21Z" transform="translate(1179.67 1.37)"/><path class="cls-9" d="M1567,2190s-115.33,14.57-50.06,300.36,109,436,98.85,479.7,21.55,67.17,57.67,75.41,105.19,7,144.48-15.21,43.72-57.66,27.88-125.47-19.64-339-21.55-432.17,21.55-251.57-91.25-297.2S1567,2190,1567,2190Z" transform="translate(1179.67 1.37)"/><ellipse class="cls-17" cx="2818.9" cy="2289.59" rx="91.88" ry="90.62"/><ellipse class="cls-17" cx="3273.25" cy="2359.3" rx="91.88" ry="90.62"/><path class="cls-9" d="M2305.23,1008.17s37.39-12,49.43-39.28,10.77-109.63-11.41-135.61-84.28-14.58-123.57-26-66.53-36.76-139.41-22.82-140,79.21-143.21,114.7,17.74,50.06,10.14,72.87-17.74,45,17.74,79.85,21.55,57.66,48.16,57.66-21.54-81.11,12.68-150.81S2286.22,929.6,2305.23,1008.17Z" transform="translate(1179.67 1.37)"/><path class="cls-10" d="M1568.89,1427.67s-83.65,110.27-98.22,193.28,30.42,136.87,86.18,145.75,242.7-235.1,251.57-284.53S1595.5,1389,1568.89,1427.67Z" transform="translate(1179.67 1.37)"/><path class="cls-11" d="M1835.67,1212.22s-42.46-12-144.48,76c-85.55,73.51-153.35,143.85-153.35,143.85s180,163.49,204.68,206c0,0,110.89-128,120.4-257.28S1851.51,1207.15,1835.67,1212.22Z" transform="translate(1179.67 1.37)"/><path class="cls-12" d="M1568.89,1403s129.9,104.56,200.24,200.88" transform="translate(1179.67 1.37)"/><path class="cls-13" d="M1785.61,1266.08c15.84-35.48,47.53-61.46,86.81-62.73,38-1.27,95.69-.63,179.34,5.07,180,12.67,318.74,64,355.5,90.62S2399,1490.41,2361,1581.66s-79.21,174.26-86.18,205.95,18.37,181.23,5.06,211.65-154.61,83-334.58,72.87-254.74-68.44-260.45-90,17.11-208.48,27.89-272.49,18.37-204.68,19.64-225C1743.79,1354.17,1769.13,1302.84,1785.61,1266.08Z" transform="translate(1179.67 1.37)"/><path class="cls-10" d="M2571.38,1560.75c-45-77.31-200.88,76.67-197.08,110.89,0,0,27.89,58.3,27.89,64.64s-27.89,166.66-46.9,256.64c-5.7,27.88-22.81,58.93-43.72,88.72a975.81,975.81,0,0,0,150.82,43.72c67.17-117.23,144.48-296.56,156.52-340.92C2641.09,1701.43,2616.37,1638.06,2571.38,1560.75Z" transform="translate(1179.67 1.37)"/><path class="cls-24" d="M2402.19,1736.28a80.38,80.38,0,0,1,40.55-39.29" transform="translate(1179.67 1.37)"/><path class="cls-11" d="M2407.26,1298.4s51.32,28.52,102,114.07,90,163.49,90,163.49L2376.2,1692.55s-64.63-105.82-91.25-153.35-29.15-145.11,8.24-199.61C2329.31,1285.73,2389.51,1286.36,2407.26,1298.4Z" transform="translate(1179.67 1.37)"/><path class="cls-12" d="M2355.29,1659s129.91-85.55,225.6-117.23" transform="translate(1179.67 1.37)"/><path class="cls-10" d="M2342.62,2028.41s-89.35,8.87-109.63,20.28-50.69,80.47-48.16,86.81,21.55,0,21.55,0-2.54,13.31,12.67,13.31,17.74-6.34,17.74-6.34a13.36,13.36,0,0,0,15.21,15.84c17.75-1.26,54.5-32.95,54.5-32.95s-19.65,34.85-7.61,43.09,38-20.91,41.83-26.61,104.56,55.13,143.21-57C2483.93,2084.81,2411.06,2005.6,2342.62,2028.41Z" transform="translate(1179.67 1.37)"/><path class="cls-11" d="M1966.84,1199.55s-30.41,3.17-36.75,8.87-25.35,55.13,0,106.46,98.86,76.67,173.63,53.23,106.46-95.06,103.92-117.23-15.84-29.15-43.09-36.12S1966.84,1199.55,1966.84,1199.55Z" transform="translate(1179.67 1.37)"/><path class="cls-10" d="M2003,1040.49s1.9,58.3-12.67,105.83a268,268,0,0,1-22.81,52.59,87.55,87.55,0,0,0-10.14,29.79c-3.8,26-1.9,71,45.62,92.51,76.05,34.22,155.89-28.51,166.66-78.57,0,0,4.44-52,15.85-72.88S2039.72,1020.85,2003,1040.49Z" transform="translate(1179.67 1.37)"/><path class="cls-26" d="M2164.55,1257.21a79.07,79.07,0,0,0,5.07-14.57,210.32,210.32,0,0,1,3.17-23.45,195.79,195.79,0,0,1-127.37-80.48C2049.22,1200.81,2102.45,1248.34,2164.55,1257.21Z" transform="translate(1179.67 1.37)"/><path class="cls-10" d="M1525.8,1756.56s31,34.85,169.19,0,316.21-131.18,342.83-140.68,36.75-5.07,65.27-5.07c67.8,1.27,95.68-5.07,104.55-9.51,17.75-8.87,26-22.18,22.82-33.58s6.33-14.58,8.23-24.72c3.17-19-3.8-21.54-1.9-22.81s20.92-7,24.72-12c9.5-14.57,1.9-24.08,1.9-24.08a355.84,355.84,0,0,1,52.59-8.87c28.52-2.53,45.63-12.67,37.39-22.81s-64-7-100.12-7-48.79.63-51.33-.64c-13.94-4.43-41.19-12.67-54.5-11.4s-28.51,12-54.49,26a393.44,393.44,0,0,1-93.15,34.85c-29.15,7.61-225,22.81-346,45.63-17.11,3.16-33,6.33-46.26,10.14a222,222,0,0,0-38.65,13.3C1503,1598.77,1445.32,1691.92,1525.8,1756.56Z" transform="translate(1179.67 1.37)"/><path class="cls-24" d="M2262.77,1484.07s-16.47-2.53-22.17-3.8a95.76,95.76,0,0,0-15.21-1.27" transform="translate(1179.67 1.37)"/><path class="cls-24" d="M2236.79,1520.19s-11.4,3.17-15.84,5.07" transform="translate(1179.67 1.37)"/><path class="cls-24" d="M2230.46,1560.75a187.18,187.18,0,0,1-17.11,8.87" transform="translate(1179.67 1.37)"/><path class="cls-9" d="M2037.82,1615.88c-48.8-57.67-24.08-125.47-24.08-125.47l-54.5,10.14c-31,76.67,24.08,141.31,24.08,141.31Z" transform="translate(1179.67 1.37)"/><path class="cls-24" d="M2201.31,1444.78s-34.22.64-39.92,3.17" transform="translate(1179.67 1.37)"/><path class="cls-24" d="M1653.8,1539.84c-17.11,3.16-33,6.33-46.26,10.14a222,222,0,0,0-38.65,13.3" transform="translate(1179.67 1.37)"/><path class="cls-25" d="M2012.47,1560.75a33,33,0,1,0-33,33A34,34,0,0,0,2012.47,1560.75Z" transform="translate(1179.67 1.37)"/><path class="cls-10" d="M2312.84,900.45s13.94,41.82-5.71,103.92-33,85.55-49.42,135-56.4,92.52-124.21,85.54c-71-7.6-126.73-72.24-129.9-152.71s-10.14-206,85.55-228.13C2183.56,822.5,2296.36,878.9,2312.84,900.45Z" transform="translate(1179.67 1.37)"/><path class="cls-9" d="M2250.1,1034.79a119.4,119.4,0,0,0,1.27,21.54c.63,3.17,1.27,7,1.9,10.14.63,1.9.63,3.17,1.27,5.07l.63,2.54.63,3.17a26,26,0,0,1,0,13.94,21.57,21.57,0,0,1-8.87,10.77,30.85,30.85,0,0,1-23.44,3.17,65.41,65.41,0,0,0,17.74-10.14,12.67,12.67,0,0,0,3.17-14.58l-.64-1.9-.63-3.16c-.63-1.91-.63-3.81-1.27-5.71a76.88,76.88,0,0,1-.63-12A57.07,57.07,0,0,1,2250.1,1034.79Z" transform="translate(1179.67 1.37)"/><path class="cls-9" d="M2020.07,1000.57s20.92-5.07,34.22-60.2c0,0,4.44-12.67,26.62,4.44s58.93,45,123.57,14.57,72.87-40.56,81.74-29.78c0,0,9.51,48.16,42.46,32.95s15.21-100.76-93.79-128.64-186.3-18.38-221.15,42.46S1992.19,996.77,2020.07,1000.57Z" transform="translate(1179.67 1.37)"/><path class="cls-9" d="M2219.05,980.29a19,19,0,0,0,2.54-21.54c-7-10.78-54.5-18.38-65.91-8.87s17.11,10.77,30.42,17.1S2215.25,984.73,2219.05,980.29Z" transform="translate(1179.67 1.37)"/><path class="cls-9" d="M2278,1007.54a18.5,18.5,0,0,1,9.51-10.14c7-3.17,21.54,11.41,19,20.91s-9.51-1.26-15.84-2.53C2284.32,1013.24,2276.08,1011.34,2278,1007.54Z" transform="translate(1179.67 1.37)"/><path class="cls-9" d="M2182.93,1017.05a9.7,9.7,0,0,0-5.71-12.47q-.31-.12-.63-.21h0a9.69,9.69,0,0,0-12.46,5.71q-.12.31-.21.63l-1.27,3.17,18.38,7Z" transform="translate(1179.67 1.37)"/><path class="cls-9" d="M2278,1052.53a10,10,0,1,0-19-6.33h0l-1.26,3.16,18.37,7Z" transform="translate(1179.67 1.37)"/><path class="cls-10" d="M2031.48,1011.34s-10.77-43.09-42.46-42.45-46.26,86.81,26.62,100.12" transform="translate(1179.67 1.37)"/><path class="cls-9" d="M1984,1008.17a12.68,12.68,0,0,1,3.17-8.87,8.06,8.06,0,0,1,5.7-2.53,15.16,15.16,0,0,1,5.71,1.27c.63,0,1.9,1.26,2.53,1.9s1.27,1.9,1.9,2.53.64,1.9,1.27,2.54a3.81,3.81,0,0,1,.63,2.53,38.62,38.62,0,0,1,.64,8.24v14.57a10.27,10.27,0,0,0,1.9,5.71,13.79,13.79,0,0,0,5.7,4.43,10.72,10.72,0,0,1-8.87,0,13.68,13.68,0,0,1-7-7.6,41,41,0,0,1-3.17-17.11c0-5.07-.63-10.77-.63-10.77a4.52,4.52,0,0,0-3.8-1.91A50.84,50.84,0,0,1,1984,1008.17Z" transform="translate(1179.67 1.37)"/><path class="cls-9" d="M2181,1146.32a68.15,68.15,0,0,0,6.34-10.78,10,10,0,0,0-4.49-13.43,12,12,0,0,0-1.22-.51,96.38,96.38,0,0,1-24.08-14.57c-19.64-15.84-28.51-1.9-27.25,15.84C2149.35,1124.77,2166.45,1136.81,2181,1146.32Z" transform="translate(1179.67 1.37)"/><path class="cls-27" d="M2130.33,1122.24c1.27,15.21,9.51,33.58,26,36.12a25.35,25.35,0,0,0,24.71-12C2166.45,1136.81,2149.35,1124.77,2130.33,1122.24Z" transform="translate(1179.67 1.37)"/><path class="cls-8" d="M864.86,2171.62,771.71,3470.68a19.32,19.32,0,0,0,18.35,20.25l.66,0h0a19,19,0,0,0,19-17.11L921.9,2172.25h-57Z" transform="translate(1179.67 1.37)"/><path class="cls-8" d="M4624.52,2171.62l93.15,1299.06a19.32,19.32,0,0,1-18.35,20.25l-.66,0h0a19,19,0,0,1-19-17.11L4567.49,2172.25h57Z" transform="translate(1179.67 1.37)"/><polygon class="cls-25" points="6002.53 2145.75 1846.19 2145.75 2321.46 1954.37 5526.64 1954.37 6002.53 2145.75"/><rect class="cls-28" x="1846.19" y="2145.75" width="4156.98" height="47.53"/><path class="cls-14" d="M2319.17,1921.31H2586a34.91,34.91,0,0,1,20.28,6.34l242.07,161.59a9.63,9.63,0,0,1-5.07,17.74H2457.32a27.94,27.94,0,0,1-22.82-11.4l-122.93-158.42a9.77,9.77,0,0,1,7.6-15.85Z" transform="translate(1179.67 1.37)"/><line class="cls-28" x1="3663.6" y1="2058.3" x2="3912.64" y2="2058.3"/><path class="cls-9" d="M2663.9,2009.4l-52-39.29a12.24,12.24,0,0,0-7.61-2.54h-67.8c-2.54,0-3.17,2.54-1.9,4.44l39.28,38a12.64,12.64,0,0,0,8.88,3.8h79.84C2665.17,2013.83,2665.8,2011.3,2663.9,2009.4Z" transform="translate(1179.67 1.37)"/><line class="cls-28" x1="3702.89" y1="2015.21" x2="3634.45" y2="2015.21"/><line class="cls-28" x1="3680.71" y1="1989.23" x2="3619.24" y2="1989.23"/><path class="cls-19" d="M3859.66,2133l-76,5.7a51.92,51.92,0,0,1-19.64-1.9l-347.26-95a18.45,18.45,0,0,1-13.31-17.75h0L3994,2009.4Z" transform="translate(1179.67 1.37)"/><path class="cls-9" d="M3774.75,2111.42l147-391a34.86,34.86,0,0,1,33.59-22.82L4558.62,1709a19,19,0,0,1,17.11,26.61L4436.32,2077.2a36.2,36.2,0,0,1-30.42,22.18L3793.76,2138a20.47,20.47,0,0,1-19-26.62Z" transform="translate(1179.67 1.37)"/><path class="cls-9" d="M3796.29,2138l-12.67.63a51.92,51.92,0,0,1-19.64-1.9l-347.26-95a19,19,0,0,1-13.31-17.75l380.84,91.25Z" transform="translate(1179.67 1.37)"/><path class="cls-19" d="M4284.86,1908.64c-7,24.08-31.68,43.73-55.76,43.73s-38-19.65-31.05-43.73,31.68-43.72,55.76-43.72S4291.84,1884.56,4284.86,1908.64Z" transform="translate(1179.67 1.37)"/><path class="cls-29" d="M882,1304.11s62.11-17.11,116.6,80.47,81.75,278.83,98.86,297.2,45,32.32,135,90,95.06,59.56,173,69.07,83,36.12,107.09,62.73,41.19,45,18.38,46.89-47.53-31-62.1-21.54a149.3,149.3,0,0,1-51.33,24.08c-26.62,6.34-18.38,17.11-43.09,14.57s-72.88-1.26-57.67-14.57,0-16.48,0-16.48-268-36.12-354.86-106.46-109.63-303.53-126.74-380.84S860.43,1304.11,882,1304.11Z" transform="translate(1179.67 1.37)"/><path class="cls-30" d="M1097.43,1681.78a85.18,85.18,0,0,0-41.19,6.34" transform="translate(1179.67 1.37)"/><path class="cls-9" d="M912.39,995.5s46.89-44.36,28.52-102-75.41-63.37-121.67-49.43-173-9.51-219.26,60.83-17.1,133.71-46.25,152.09-70.34,31.68-63.37,77.94,130.54,113.43,92.52,166.66-74.15,176.8,72.87,247.14,155.89-97.59,165.39-195.18-19.64-210.38,22.18-252.2C885.78,1058.24,920.63,1034.79,912.39,995.5Z" transform="translate(1179.67 1.37)"/><path class="cls-9" d="M698.21,1281.29s167.92,3.8,197.07,17.11,42.46,58.3,51.33,92.52,75.41,75.41,87.45,150.82-52.6,162.85-55.77,176.8-3.8,155.88,3.81,185,20.91,76.68,19.64,97.59-90,62.1-221.79,54.5-270-74.15-274.38-88.72,39.28-83,27.24-226.23-80.47-297.19-30.41-382.11C552.46,1275,672.86,1280.66,698.21,1281.29Z" transform="translate(1179.67 1.37)"/><path class="cls-29" d="M691.87,1160.89s7,73.51,5.7,120.4c0,0,18.38,39.29,76,50.7,69.71,14.57,83.65-25.35,74.15-42.46,0,0-16.48-60.83-18.38-102.66C828.11,1146.32,695,1155.19,691.87,1160.89Z" transform="translate(1179.67 1.37)"/><path class="cls-31" d="M748.9,1221.73c26,40.55,52.6,57,98.22,60.2-2.53-8.88-5.7-24.72-9.5-41.83C801.5,1244.54,784.39,1231.87,748.9,1221.73Z" transform="translate(1179.67 1.37)"/><path class="cls-29" d="M667.79,1281.29a311.3,311.3,0,0,1,73.51,76c36.12,52,82.38,90.62,114.69,86.82s47.53-46.26,5.71-152.72C861.7,1291.43,760.31,1275,667.79,1281.29Z" transform="translate(1179.67 1.37)"/><path class="cls-19" d="M1265.35,1880.76l265.52-16.48c3.17,0,7-7,8.24-4.43a70,70,0,0,1,0,11.4,8.94,8.94,0,0,1-1.9,5.71L1337,2082.27a38.85,38.85,0,0,1-31.68,11.41l-261.08-26a6.35,6.35,0,0,1-5.71-3.81,120.62,120.62,0,0,1-10.13-20.27c0-1.9,14.57-1.9,16.47-3.17l202.78-152.72A31.7,31.7,0,0,1,1265.35,1880.76Z" transform="translate(1179.67 1.37)"/><path class="cls-9" d="M1262.19,1864.28l269.31-11.4a7.79,7.79,0,0,1,5.71,13.3l-207.22,204a38,38,0,0,1-32.32,10.77l-264.24-32.31a7.74,7.74,0,0,1-3.81-14l213.56-164.12A32.59,32.59,0,0,1,1262.19,1864.28Z" transform="translate(1179.67 1.37)"/><path class="cls-29" d="M1381.32,1852.24s-7,1.27-7,14.58,5.07,48.79-8.24,51.33-19-13.31-25.35-27.25-25.34-14.58-37.38-34.85" transform="translate(1179.67 1.37)"/><path class="cls-29" d="M895.92,927.7a367.91,367.91,0,0,1,20.27,103.92c1.9,55.76,20.92,87.45,10.14,135.61s-48.79,85.55-95.68,87.45-115.33-39.92-152.72-90-48.8-154.61-26.62-205.31C672.22,909.32,838.25,856.72,895.92,927.7Z" transform="translate(1179.67 1.37)"/><path class="cls-9" d="M917.46,982.19a48.3,48.3,0,0,1-44.36-24.71s-41.19,95-107.72,101.39c-45.63,4.44-54.5-17.11-73.51,0s36.12,116,19,196.44S612.66,1358,555.63,1308.54c-71.61-62.73,6.33-74.77,20.91-163.49s0-155.89,46.89-207.21,93.15-83,167.29-76.05S895.92,880.17,917.46,982.19Z" transform="translate(1179.67 1.37)"/><path class="cls-9" d="M721.65,1046.83s-4.43,33.58-2.53,44.36-19.65-12-39.29,2.53c-10.77,8.24-20.91-43.72,0-59.56S712.15,1031.62,721.65,1046.83Z" transform="translate(1179.67 1.37)"/><path class="cls-29" d="M709.61,1091.82s-24.08-31-50.06-12,7.61,76.68,46.89,72.24" transform="translate(1179.67 1.37)"/><path class="cls-29" d="M1242.54,2025.87s36.12,29.79,50.06,39.93,5.07,19-10.14,19S1217.19,2044.88,1242.54,2025.87Z" transform="translate(1179.67 1.37)"/><path class="cls-29" d="M524.58,1332.62a79.11,79.11,0,0,0-35.49,33.59,226.73,226.73,0,0,0-20.91,156.52c23.44,107.09,78.57,268,103.29,306.07s140.68,114.06,222.42,164.75,144.48,78.58,159.69,90,45.63,40.55,103.29,47.52,76.68-13.94,94.42-9.5,47.53,24.71,64,22.81,7.61-14.57,1.27-20.91-43.72-39.92-43.72-39.92a488.18,488.18,0,0,1,55.76,29.15c27.88,16.47,41.19,17.11,48.79,16.47s16.48-3.16,15.21-10.14a12.29,12.29,0,0,0,13.94-1.26c6.34-5.71,8.24-10.78-7-27.88s-53.86-62.11-72.87-81.75-41.19-21.55-88.08-19-112.8-7.6-114.7-5.7-203.41-211.65-264.25-272.49c0,0-48.79-159-63.37-227.49C666.52,1345.93,594.28,1299.67,524.58,1332.62Z" transform="translate(1179.67 1.37)"/><path class="cls-30" d="M1292.6,2119.66s0-7.61-19-20.91-48.79-41.83-58.3-48.8a124.27,124.27,0,0,0-22.81-15.84" transform="translate(1179.67 1.37)"/><path class="cls-30" d="M1172.84,2084.17s-14.58-12.67-21.55-10.77" transform="translate(1179.67 1.37)"/><path class="cls-30" d="M759.67,1710.93a69.75,69.75,0,0,0-53.23,20.91" transform="translate(1179.67 1.37)"/><path class="cls-9" d="M892.75,1065.21c4.43,5.7,8.24,11.4,12,16.47a33.3,33.3,0,0,0,6.33,7l3.17,3.17,1.9,1.27c.64.63,1.9,1.27,2.54,2.53a21,21,0,0,1,4.43,13.31,22.19,22.19,0,0,1-3.8,11.41,28.89,28.89,0,0,1-17.11,13.94,51.79,51.79,0,0,0,8.87-17.75,14.51,14.51,0,0,0-1.26-13.94c0-.63-.64-.63-1.27-1.26a8.46,8.46,0,0,0-2.54-1.9,24.05,24.05,0,0,1-3.8-4.44,38.25,38.25,0,0,1-5.7-9.51A64,64,0,0,1,892.75,1065.21Z" transform="translate(1179.67 1.37)"/><path class="cls-12" d="M873.1,1179.27a35.78,35.78,0,0,1-34.85-11.41" transform="translate(1179.67 1.37)"/><path class="cls-9" d="M830,1094.36h0a9.83,9.83,0,0,0,8.43-11c-.05-.33-.11-.67-.19-1l-1.27-5.71a9.82,9.82,0,0,0-11-8.42c-.34,0-.67.11-1,.18h0a9.83,9.83,0,0,0-8.42,11.05c0,.33.11.67.18,1l1.27,5.71A11.23,11.23,0,0,0,830,1094.36Z" transform="translate(1179.67 1.37)"/><path class="cls-9" d="M907.32,1081.68h0a9.82,9.82,0,0,0,8.43-11c0-.34-.11-.67-.19-1l-1.27-5.7a9.82,9.82,0,0,0-11-8.43c-.34,0-.67.11-1,.19h0a9.82,9.82,0,0,0-8.42,11c0,.33.11.66.18,1l1.27,5.7A10.64,10.64,0,0,0,907.32,1081.68Z" transform="translate(1179.67 1.37)"/><path class="cls-9" d="M824.31,1028.45a8.87,8.87,0,0,0,9.57-8.11,8.61,8.61,0,0,0-.07-2,27.5,27.5,0,0,0-4.43-13.3c-5.7-6.34-27.88-4.44-44.36,8.23s-23.45,29.15-15.21,29.79,20.28-10.14,33.59-13.31A46.79,46.79,0,0,1,824.31,1028.45Z" transform="translate(1179.67 1.37)"/><path class="cls-9" d="M907.32,1019a4.13,4.13,0,0,1-5.72-1.1,4.18,4.18,0,0,1-.61-1.44c-1.27-5.07-2.54-12.67-.64-14.57,3.17-3.8,12.68-1.27,14.58,4.43s2.53,8.87.63,8.87S910.49,1016.41,907.32,1019Z" transform="translate(1179.67 1.37)"/><path class="cls-9" d="M669.69,1108.3a10.08,10.08,0,0,1-.63-12.68,12.78,12.78,0,0,1,4.43-3.8c.64,0,1.27-.63,2.54-.63a10.79,10.79,0,0,1,4.43.63,9.74,9.74,0,0,1,4.44,4.44,42.48,42.48,0,0,1,3.8,7.6c1.9,4.44,2.54,8.87,3.8,12a10.25,10.25,0,0,0,2.54,4.44,9.47,9.47,0,0,0,6.33,1.9,10.53,10.53,0,0,1-7.6,3.17,10.86,10.86,0,0,1-8.24-4.44,58.71,58.71,0,0,1-7.6-13.31q-.81-2.9-1.9-5.7c0-.63-.64-1.27,0-1.27h0a3.47,3.47,0,0,0-3.17,1.27A10.1,10.1,0,0,0,669.69,1108.3Z" transform="translate(1179.67 1.37)"/><path class="cls-10" d="M2461.12,716.05H2238.06l-22.81,14.57a11.27,11.27,0,0,1-17.11-8.87V564a29.09,29.09,0,0,1,29-29.15h233.32a29.08,29.08,0,0,1,29.15,29V686.9A28.52,28.52,0,0,1,2461.76,716Z" transform="translate(1179.67 1.37)"/><path class="cls-12" d="M2264.68,657.75l22.17-22.18a30.23,30.23,0,0,1,42.75-.35l.35.35a30.22,30.22,0,0,0,42.74.34l.35-.34,42.45-42.46" transform="translate(1179.67 1.37)"/><polygon class="cls-9" points="3602.13 607.16 3609.74 579.91 3582.49 587.51 3602.13 607.16"/><path class="cls-19" d="M4419.21,1452.39,3835,1384a27.05,27.05,0,0,1-24.32-29.54,26.44,26.44,0,0,1,.87-4.68l135-617.21A38.69,38.69,0,0,1,3978.79,704l609.61-64a21.53,21.53,0,0,1,24.71,26l-161.59,763A30.73,30.73,0,0,1,4419.21,1452.39Z" transform="translate(1179.67 1.37)"/><path class="cls-9" d="M4395.76,1452.39l-589.33-69.07a27.45,27.45,0,0,1-24.85-29.81,28.45,28.45,0,0,1,.77-4.41l136.24-621.65a37.13,37.13,0,0,1,33-28.51l614-64.64a21.55,21.55,0,0,1,24.71,26l-163.49,769.29A29,29,0,0,1,4395.76,1452.39Z" transform="translate(1179.67 1.37)"/><path class="cls-11" d="M4178.41,856.09l-221.79,10.77a8.42,8.42,0,0,1-9-7.78,8.51,8.51,0,0,1,.15-2.36l17.75-82.38a12.28,12.28,0,0,1,10.14-8.87l223.69-19a8,8,0,0,1,8.87,10.14l-19.65,91.25A11.71,11.71,0,0,1,4178.41,856.09Z" transform="translate(1179.67 1.37)"/><path class="cls-10" d="M3885,1318.05h0a7.67,7.67,0,0,1-7.18-8.13,7.2,7.2,0,0,1,.21-1.38L3911,1153.92a10.28,10.28,0,0,1,10.77-8.24h0a7.42,7.42,0,0,1,7.27,7.56,7.15,7.15,0,0,1-.3,2l-32.95,155.25A9.89,9.89,0,0,1,3885,1318.05Z" transform="translate(1179.67 1.37)"/><path class="cls-14" d="M3963.59,1316.15l39.29-182.51a10.25,10.25,0,0,1,10.77-8.23h1.27a7.92,7.92,0,0,1,7.76,8.07,7.64,7.64,0,0,1-.16,1.43l-39.29,182.5a10.9,10.9,0,0,1-11.41,8.24h-1.26a7.23,7.23,0,0,1-7.34-7.11A7,7,0,0,1,3963.59,1316.15Z" transform="translate(1179.67 1.37)"/><path class="cls-11" d="M4049.13,1323.12l44.36-208.49a12.22,12.22,0,0,1,12-9.5h0a8.5,8.5,0,0,1,8.24,10.77l-44.36,208.48a12.66,12.66,0,0,1-12.67,9.51h0a8.43,8.43,0,0,1-7.93-8.9A9,9,0,0,1,4049.13,1323.12Z" transform="translate(1179.67 1.37)"/><path class="cls-11" d="M4366,929.6l14.57,31c-17.74,20.28-39.29,33-59.57,33-39.28,0-60.2-47.53-47.52-106.46s54.5-109,94.42-112.16c20.91-1.9,36.75,8.87,46.26,27.88l-27.89,32.95A27.12,27.12,0,0,0,4359,818.7c-24.08,1.9-49.43,31.69-57.67,67.81s5.07,64.63,29.15,64A55.32,55.32,0,0,0,4366,929.6Z" transform="translate(1179.67 1.37)"/><path class="cls-14" d="M4420.47,880.17A185.31,185.31,0,0,1,4381.18,960l-14.57-31a105,105,0,0,0,23.45-47.52,73.17,73.17,0,0,0-3.17-46.26l27.88-32.95C4424.28,821.87,4426.81,849.12,4420.47,880.17Z" transform="translate(1179.67 1.37)"/><path class="cls-11" d="M4196.78,1236.93c-12.67,58.94,8.24,106.46,47.53,106.46,20.28,0,41.82-12.67,59.57-33l-14.58-31a54.48,54.48,0,0,1-35.49,20.28c-24.08.63-36.75-28.52-29.14-64a104.78,104.78,0,0,1,19.64-42.46L4231,1164.06A180.21,180.21,0,0,0,4196.78,1236.93Z" transform="translate(1179.67 1.37)"/><path class="cls-14" d="M4282.33,1168.5a27.45,27.45,0,0,1,27.25,17.11l27.88-33c-9.5-19-26-29.78-46.26-27.88-21.54,1.9-43.09,17.11-60.83,39.29l13.31,29.15C4255.08,1179.27,4268.39,1169.13,4282.33,1168.5Z" transform="translate(1179.67 1.37)"/><path class="cls-10" d="M4343.16,1231.23a185.5,185.5,0,0,1-39.28,79.85l-14.58-31a105,105,0,0,0,23.45-47.53,73.17,73.17,0,0,0-3.17-46.26l27.88-33C4347,1172.3,4350.13,1200.18,4343.16,1231.23Z" transform="translate(1179.67 1.37)"/><line class="cls-17" x1="5119.81" y1="923.37" x2="5275.7" y2="917.66"/><line class="cls-17" x1="5110.94" y1="958.85" x2="5334" y2="956.32"/><line class="cls-17" x1="5103.97" y1="995.61" x2="5329.56" y2="995.61"/><path class="cls-19" d="M4507.29,695.77c1.27-5.07-.64-8.87-4.44-8.87a11.73,11.73,0,0,0-8.24,10.13c-1.26,5.07.64,8.88,4.44,8.88A11.74,11.74,0,0,0,4507.29,695.77Z" transform="translate(1179.67 1.37)"/><path class="cls-19" d="M4544,692.6c1.27-5.07-1.27-8.87-4.43-8.87a13.37,13.37,0,0,0-8.88,10.14c-1.26,5.07,1.27,8.87,4.44,8.87A11.53,11.53,0,0,0,4544,692.6Z" transform="translate(1179.67 1.37)"/><path class="cls-9" d="M2198.14,2096.21v1.9a11.35,11.35,0,0,1-11.28,11.41H1649.37a11.35,11.35,0,0,1-11.41-11.28v-.13h0a18,18,0,0,1,4.44-10.77l103.92-102.66a25.35,25.35,0,0,1,17.74-7.6h353a26.37,26.37,0,0,1,22.18,12.67l57,98.22A50.73,50.73,0,0,1,2198.14,2096.21Z" transform="translate(1179.67 1.37)"/><path class="cls-19" d="M1930.09,2069c0,1.9-3.8,3.81-8.87,3.81s-8.87-1.91-8.87-3.81,3.8-3.8,8.87-3.8S1930.09,2067.06,1930.09,2069Z" transform="translate(1179.67 1.37)"/><path class="cls-11" d="M4066.24,2659.56s-48.79-104.56,73.51-170.46,292.13-.64,276.92,22.18a749.93,749.93,0,0,1-80.48,104.55C4297.54,2658.29,4186.64,2724.19,4066.24,2659.56Z" transform="translate(1179.67 1.37)"/><path class="cls-12" d="M4395.13,2506.84s-268.69-60.2-329.52,152.72-41.82,417-41.82,417" transform="translate(1179.67 1.37)"/><path class="cls-9" d="M3824.18,2899.09l43.72,515.19c0,19.64,79.84,34.85,178.7,34.85s178.7-15.84,178.7-34.85L4269,2899.09Z" transform="translate(1179.67 1.37)"/><ellipse class="cls-32" cx="5226.27" cy="2900.47" rx="221.79" ry="33.59"/><path class="cls-11" d="M3990.2,2792s-71.61-35.49-117.86,44.36-12,200.24,19.64,218,163.49-42.45,163.49-163.49C4055.47,2783.13,3990.2,2792,3990.2,2792Z" transform="translate(1179.67 1.37)"/><path class="cls-12" d="M3990.2,2792s-71.61-5.07-93.15,245.87" transform="translate(1179.67 1.37)"/><path class="cls-11" d="M3935.7,2645.62s-75.4-117.23-226.22-41.83-146.38,283.26-122.94,295.3S3963,2788.2,3935.7,2645.62Z" transform="translate(1179.67 1.37)"/><path class="cls-12" d="M4055.47,2890.85S4008.58,2726.1,3935.7,2645s-299.1,12-339,207.85" transform="translate(1179.67 1.37)"/><path class="cls-11" d="M4139.75,2711.52s-64-22.18-93.15,57c-28.52,77.31,5.07,253.48,169.83,306.71a22.81,22.81,0,0,0,24.08-7,273.77,273.77,0,0,0,62.73-177.44C4302.61,2762.22,4231.64,2669.06,4139.75,2711.52Z" transform="translate(1179.67 1.37)"/><path class="cls-12" d="M4139.75,2711.52s133.07,65.27,84.28,339.66" transform="translate(1179.67 1.37)"/><path class="cls-11" d="M2791.9,1863.65s2.54,79.84,117.87,87.45,338.39-17.75,382.11-29.79,41.19-82.37,13.31-102-195.18-28.51-280.73-41.19c-19.64-3.17-42.45-7-65.9-8.87a482.14,482.14,0,0,0-60.2-2.53C2840.7,1769.23,2792.54,1791.41,2791.9,1863.65Z" transform="translate(1179.67 1.37)"/><path class="cls-12" d="M2790.63,1841.47s0-16.48,24.72-12c53.86,10.14,99.49,126.1,44.36,111.53" transform="translate(1179.67 1.37)"/><path class="cls-12" d="M3023.83,1778.1c-19.64-3.17-42.46-7-65.9-8.87a482.22,482.22,0,0,0-60.2-2.53" transform="translate(1179.67 1.37)"/><path class="cls-11" d="M3589.71,1408c20.91,7,36.12,23.45,62.74,103.92,34.85,105.2,79.21,328.25,56.4,388.45s-68.44,91.25-221.79,98.22-302.27-5.07-321.92-5.07-52.59-72.24-31.68-119.76c0,0,129.9-31.69,203.41-51.33s154.62-40.56,188.21-44.36c0,0-54.5-133.71-72.24-180.6s-3.17-126.74,38.65-162.86S3572,1402.33,3589.71,1408Z" transform="translate(1179.67 1.37)"/><path class="cls-12" d="M3524.44,1778.1s62.74-12.67,100.12,0" transform="translate(1179.67 1.37)"/><path class="cls-12" d="M3715.18,1863.65s-13.31-31.68-67.17,3.8c-42.46,27.88-55.13,111.53-8.87,106.46" transform="translate(1179.67 1.37)"/><path class="cls-10" d="M3146.13,1875.06s-33.58,3.16-67.8,3.16-80.48,5.71-91.25,10.78-119.77,114.06-117.23,128.64,22.81,5.06,40.55-7,50.7-45,57.67-49.42a399,399,0,0,0-17.11,50.69c-8.24,30.42-16.48,60.84-8.24,65.91,10.77,6.33,20.91-4.44,24.08-10.78,0,0-.63,15.84,12,16.48s24.71-23.45,34.85-43.73a374.58,374.58,0,0,1,32.32-46.89s-10.14,32.32-13.94,50.06-6.34,38.66,3.17,40.56c14.57,3.17,27.88-39.92,36.12-56.4s40.55-5.7,64-20.28a172.34,172.34,0,0,1,36.75-19S3188,1972,3188,1937.79,3159.44,1873.79,3146.13,1875.06Z" transform="translate(1179.67 1.37)"/><path class="cls-24" d="M2965.53,2067.7s30.42-88.72,43.09-105.83,17.11-18.38,20.91-20.91" transform="translate(1179.67 1.37)"/><path class="cls-24" d="M2966.8,1961.87s5.07-10.14,13.31-25.35a68.79,68.79,0,0,1,13.94-15.21" transform="translate(1179.67 1.37)"/><path class="cls-24" d="M3044.74,1992.92s8.87-21.54,17.75-24.08" transform="translate(1179.67 1.37)"/><path class="cls-10" d="M3246.89,1810.42a519.48,519.48,0,0,0,48.79-19c23.45-10.77,33-15.21,51.33-16.48s76-1.9,84.28,3.17,19,29.15,24.71,41.19-12.67,59.57-12.67,59.57,8.24,41.82-1.9,46.26c-6.34,2.53-12,1.26-20.28-20.91,0,0,5.7,19-5.7,20.27s-24.08-31.68-32.32-46.26a259.81,259.81,0,0,0-24.08-33s7,22.82,8.24,30.42,6.34,27.25,3.17,34.85-14.58-2.53-26-28.51-15.21-34.86-22.18-34.22c-39.29,3.8-36.76-5.07-55.77-6.34l-41.82,10.77C3224.08,1851.61,3219.64,1826.26,3246.89,1810.42Z" transform="translate(1179.67 1.37)"/><path class="cls-24" d="M3421.15,1903.57s-12.67-41.19-17.11-53.86a263.55,263.55,0,0,0-19-34.85" transform="translate(1179.67 1.37)"/><path class="cls-24" d="M3443.33,1878.22s-7.6-44.35-10.77-55.13a130.48,130.48,0,0,0-8.24-19.64" transform="translate(1179.67 1.37)"/><path class="cls-24" d="M3358.42,1844.64s-3.8-12.67-5.71-16.48" transform="translate(1179.67 1.37)"/></svg>