<?xml version="1.0" encoding="utf-8"?>
<!-- Generator: Adobe Illustrator 26.0.3, SVG Export Plug-In . SVG Version: 6.00 Build 0)  -->
<svg version="1.1" id="Слой_1" xmlns="http://www.w3.org/2000/svg" xmlns:xlink="http://www.w3.org/1999/xlink" x="0px" y="0px"
	 viewBox="0 0 3656.4 2851.9" style="enable-background:new 0 0 3656.4 2851.9;" xml:space="preserve">
<style type="text/css">
	.st0{fill:#FBCC45;}
	.st1{clip-path:url(#SVGID_00000051376668458081965870000016491299288718718614_);}
	.st2{fill:none;stroke:#601515;stroke-width:1.8;stroke-linecap:round;stroke-linejoin:round;}
	.st3{fill:#B8D8C7;stroke:#601515;stroke-miterlimit:10;}
	.st4{fill:#B0D7C0;}
	.st5{fill:#601615;}
	.st6{fill:#22272E;}
	.st7{fill:#F4C2C9;}
	.st8{fill:#A83D0C;}
	.st9{fill:none;stroke:#22272E;stroke-width:1.8;stroke-linecap:round;stroke-linejoin:round;}
	.st10{fill:#5F0101;}
	.st11{fill:#FFE779;}
	.st12{fill:#B28D93;}
	.st13{fill:none;stroke:#896068;stroke-width:1.8;stroke-linecap:round;stroke-linejoin:round;}
	.st14{fill:none;stroke:#63737A;stroke-width:1.8;stroke-linecap:round;stroke-linejoin:round;}
	.st15{fill:#896068;}
	.st16{fill:#63737A;}
	.st17{fill:none;stroke:#FFFFFF;stroke-width:1.8;stroke-linecap:round;stroke-linejoin:round;}
	.st18{fill:#F8AB5D;}
	.st19{fill:none;stroke:#F8AB5D;stroke-width:1.8;stroke-linecap:round;stroke-linejoin:round;}
	.st20{fill:none;stroke:#22272E;stroke-width:4;stroke-linecap:round;stroke-linejoin:round;}
	.st21{fill:none;stroke:#E26E85;stroke-width:1.8;stroke-linecap:round;stroke-linejoin:round;}
	.st22{fill:#FFFFFF;}
	.st23{fill:#E26E85;}
	.st24{fill:#E86484;}
	.st25{fill:#601615;stroke:#601715;stroke-miterlimit:10;}
	.st26{fill:none;stroke:#601715;stroke-miterlimit:10;}
	.st27{fill:#FFE7CA;}
	.st28{fill:none;stroke:#FFBF94;stroke-width:1.8;stroke-linecap:round;stroke-linejoin:round;}
	.st29{fill:#FFBF94;}
	.st30{fill:#6DAFA7;}
</style>
<path class="st0" d="M3093.3,2227.5L600.9,2156c-115.9-3.2-211.4-92.1-222.9-207.5L257.7,759.8c-12.8-126.9,79.7-240.1,206.6-252.9
	c6.5-0.7,13-1,19.6-1.1l2774.2-38.3c127.6-1.7,232.4,100.3,234.2,227.9c0.1,10.5-0.4,21-1.7,31.4l-161.5,1298.9
	C3314.3,2143.7,3212.1,2231.1,3093.3,2227.5z"/>
<g>
	<defs>
		<path id="SVGID_1_" d="M3093.3,2227.5L600.9,2156c-115.9-3.2-211.4-92.1-222.9-207.5L257.7,759.8
			c-12.8-126.9,79.7-240.1,206.6-252.9c6.5-0.7,13-1,19.6-1.1l2774.2-38.3c127.6-1.7,232.4,100.3,234.2,227.9
			c0.1,10.5-0.4,21-1.7,31.4l-161.5,1298.9C3314.3,2143.7,3212.1,2231.1,3093.3,2227.5z"/>
	</defs>
	<clipPath id="SVGID_00000020377938942855756590000001510866679097667720_">
		<use xlink:href="#SVGID_1_"  style="overflow:visible;"/>
	</clipPath>
	<g style="clip-path:url(#SVGID_00000020377938942855756590000001510866679097667720_);">
		<path class="st2" d="M1059.1,2443.6H-932.5c-39.7,0-71.9-32.2-71.9-71.9l0,0V1242c0-39.7,32.2-71.8,71.9-71.9h1991.5
			c39.7,0,71.8,32.2,71.9,71.9v1129.3C1131,2411.1,1098.9,2443.4,1059.1,2443.6z"/>
		<path class="st2" d="M3690.9,2367.4H1682.1c-39.7,0-71.9-32.2-71.9-71.9l0,0V645.3c0-39.7,32.2-71.9,71.9-71.9h2008.8
			c39.7,0,71.9,32.2,71.9,71.9l0,0v1650.3C3762.8,2335.2,3730.6,2367.4,3690.9,2367.4z"/>
		<path class="st2" d="M508.8,1170.1h-97.3c-10.5,0-19.3-7.8-20.6-18.2l-7.7-69c-1.2-11.4,7-21.6,18.4-22.9c0,0,0,0,0,0
			c0.8-0.1,1.5-0.1,2.3-0.1h112.6c11.5,0,20.8,9.4,20.7,20.9c0,0.7,0,1.4-0.1,2.1l-7.7,69C528.2,1162.3,519.3,1170.1,508.8,1170.1z"
			/>
		<path class="st3" d="M448.4,1060.4c0,0-38.3-3.8-46-55.6c0,0,34.5,10.1,45.5,34.5c0,0,4.8-54.6,30.7-59.9c0,0,11.5,40.7-6.7,60.9
			c0,0,13.9-23,49.4-22.5c-6.8,20.5-23.3,36.3-44.1,42.2"/>
		<path class="st2" d="M1044.2,1408.3H611.9c-11.1-0.1-20.1-9-20.1-20.1v-131.3c0.1-11.1,9-20.1,20.1-20.1h432.3
			c11.1,0.1,20.1,9,20.1,20.1v131.3C1064.3,1399.3,1055.3,1408.2,1044.2,1408.3z"/>
		<path class="st3" d="M877.4,1283.2h-99.7c-3.9-0.1-7.1-3.3-7.2-7.2l0,0c0.1-3.9,3.3-7.1,7.2-7.2h99.7c3.9,0.1,7.1,3.3,7.2,7.2l0,0
			c0.1,3.9-3,7.1-6.9,7.2c0,0,0,0,0,0H877.4z"/>
		<path class="st2" d="M1044.2,1627.9H611.9c-11.1-0.1-20.1-9-20.1-20.1v-131.3c0.1-11.1,9.1-20,20.1-20.1h432.3
			c11.1,0.1,20.1,9,20.1,20.1v131.3C1064.3,1618.8,1055.3,1627.8,1044.2,1627.9z"/>
		<path class="st3" d="M877.4,1502.8h-99.7c-3.9-0.1-7.1-3.3-7.2-7.2l0,0c0.1-3.9,3.3-7.1,7.2-7.2h99.7c3.9,0.1,7.1,3.3,7.2,7.2l0,0
			c0.1,3.9-3,7.1-6.9,7.2c0,0,0,0,0,0H877.4z"/>
		<path class="st2" d="M3263.9,1783.1h-432.3c-11.1-0.1-20-9-20.1-20.1v-131.3c0.1-11.1,9-20.1,20.1-20.1h432.3
			c11.1,0.1,20,9.1,20.1,20.1V1763c0.3,10.8-8.3,19.9-19.2,20.1L3263.9,1783.1z"/>
		<path class="st3" d="M3097.6,1657.6h-99.7c-3.9-0.1-7.1-3.3-7.2-7.2l0,0c0.1-3.9,3.3-7.1,7.2-7.2h99.7c3.9,0.1,7.1,3.3,7.2,7.2
			l0,0c0.1,3.9-3,7.1-6.9,7.2c0,0,0,0,0,0H3097.6z"/>
		<path class="st2" d="M2708.8,1783.1h-432.3c-11.1-0.1-20.1-9-20.1-20.1v-131.3c0.1-11.1,9-20.1,20.1-20.1h432.3
			c11.1,0.1,20.1,9,20.1,20.1V1763c0.3,10.8-8.3,19.9-19.2,20.1L2708.8,1783.1z"/>
		<path class="st3" d="M2542.5,1657.6h-99.7c-3.9-0.1-7.1-3.3-7.2-7.2l0,0c0.1-3.9,3.3-7.1,7.2-7.2h99.7c3.9,0.1,7.1,3.3,7.2,7.2
			l0,0c0.1,3.9-3,7.1-6.9,7.2H2542.5z"/>
		<path class="st2" d="M493,1408.3H60.7c-11.1-0.1-20.1-9-20.1-20.1v-131.3c0.1-11.1,9-20.1,20.1-20.1H493
			c11.1,0.1,20.1,9,20.1,20.1v131.3C513.1,1399.3,504.1,1408.2,493,1408.3z"/>
		<path class="st3" d="M326.2,1283.2h-99.7c-3.9-0.1-7.1-3.3-7.2-7.2l0,0c0.1-3.9,3.3-7.1,7.2-7.2h99.7c3.9,0.1,7.1,3.3,7.2,7.2l0,0
			c0.1,3.9-3,7.1-6.9,7.2c0,0,0,0,0,0H326.2z"/>
		<path class="st2" d="M493,1627.9H60.7c-11.1-0.1-20.1-9-20.1-20.1v-131.3c0.1-11.1,9.1-20,20.1-20.1H493
			c11.1,0.1,20.1,9,20.1,20.1v131.3C513.1,1618.8,504.1,1627.8,493,1627.9z"/>
		<path class="st3" d="M326.2,1502.8h-99.7c-3.9-0.1-7.1-3.3-7.2-7.2l0,0c0.1-3.9,3.3-7.1,7.2-7.2h99.7c3.9,0.1,7.1,3.3,7.2,7.2l0,0
			c0.1,3.9-3,7.1-6.9,7.2c0,0,0,0,0,0H326.2z"/>
		<path class="st2" d="M3893.7,1076.2H1712.8c-12.1-0.1-21.9-9.9-22-22v-382c0.1-12.1,9.9-21.9,22-22h2180.8
			c12.1,0.1,21.9,9.9,22,22v382C3915.6,1066.2,3905.8,1076,3893.7,1076.2z"/>
		<path class="st2" d="M3893.7,1550.2H1712.8c-12.1-0.1-21.9-9.9-22-22v-382c0.1-12.1,9.9-21.9,22-22h2180.8
			c12.1,0.1,21.9,9.9,22,22v382C3915.6,1540.3,3905.8,1550.1,3893.7,1550.2z"/>
		<rect x="1837.5" y="835.1" class="st2" width="47.5" height="241.1"/>
		<rect x="1884.4" y="900.7" class="st2" width="49.4" height="175.4"/>
		<rect x="3267.7" y="1308.6" class="st2" width="47.5" height="241.1"/>
		<rect x="3314.7" y="1374.3" class="st2" width="49.4" height="175.4"/>
		<rect x="3170.9" y="1308.6" class="st2" width="47.5" height="241.1"/>
		
			<rect x="2991.9" y="1401.4" transform="matrix(0.301 -0.9536 0.9536 0.301 816.4032 3964.1787)" class="st2" width="241.1" height="47.4"/>
		<rect x="3218.4" y="1374.3" class="st2" width="49.4" height="175.4"/>
		<rect x="2627.4" y="835.1" class="st2" width="47.5" height="241.1"/>
		<rect x="2674.8" y="900.7" class="st2" width="49.4" height="175.4"/>
		<rect x="2159.1" y="835.1" class="st2" width="47.5" height="241.1"/>
		
			<rect x="1980.2" y="927.6" transform="matrix(0.301 -0.9536 0.9536 0.301 561.1982 2668.2266)" class="st2" width="241.1" height="47.4"/>
		<rect x="2206.1" y="900.7" class="st2" width="49.4" height="175.4"/>
		<path class="st3" d="M3123.4,866.2l5.3-71.4c0.4-4.3-2.8-8.2-7.2-8.6c0,0,0,0,0,0c-0.3,0-0.7,0-1,0h-41.2c-4.5,0-8.2,3.7-8.2,8.2
			c0,0,0,0,0,0c0,0.1,0,0.3,0,0.4l5.3,71.4c0,0-43.1,27.8-42.7,50.8c0.5,17.7,11,102.6,15.8,139.9c1.3,10.4,10.1,18.2,20.6,18.2
			h59.4c10.5,0,19.3-7.8,20.6-18.2c4.8-37.4,15.3-122.2,15.8-139.9C3166.6,894,3123.4,866.2,3123.4,866.2z"/>
		<line class="st2" x1="251" y1="2002.7" x2="4832.2" y2="2002.7"/>
	</g>
</g>
<path class="st4" d="M731.2,1590l-60.9,851.2c-0.5,6.9,4.8,12.9,11.7,13.4c0,0,0,0,0,0h0.7l0,0c6.6,0.2,12.1-4.9,12.5-11.5
	l73.4-853.2L731.2,1590z"/>
<path class="st5" d="M3195.3,1590l60.9,851.2c0.4,6.9-4.8,12.9-11.8,13.4h-0.7l0,0c-6.6,0.2-12.1-4.9-12.5-11.5l-73.4-853.2
	L3195.3,1590z"/>
<path class="st6" d="M1264.2,536.5c0,0,42.7,86.7,73.4,164.9c30.7,78.1,35.9,150.5,6.2,165.8c-41.7,21.6-88.2,23-141.9-78.6
	S1188.5,457.4,1264.2,536.5z"/>
<path class="st7" d="M1034.6,2121.1c0.5,5.8-16.8,103-15.8,110.2c1,7.2-73.4,25.9-109.3-6.2c0,0,5.3-127,5.3-146.2
	S1031.3,2067.4,1034.6,2121.1z"/>
<path class="st8" d="M1020.3,2214c0,0,8.1,35.9,20.1,58c12,22,78.1,83.9,70.9,105c-7.2,21.1-68.1,23-115,21.1
	c-47-1.9-68.1-18.2-86.7-51.8c-18.7-33.6-6.2-56.1-3.8-121.3c0,0,1.4-11,4.3-12.9c0,0,9.6,16.8,20.6,18.2s22-25.4,48.9-28.3
	c26.8-2.9,30.2,24,33.1,24C1015.5,2226,1019.3,2221.7,1020.3,2214z"/>
<path class="st9" d="M1063.9,2317.1c0,0-33.6-14.4-95.9,9.1"/>
<path class="st9" d="M1051.9,2290.7c0,0-33.6-14.4-95.9,9.1"/>
<path class="st7" d="M1274.3,2104.3c0.5,5.8-16.8,103.1-15.8,110.2c1,7.2-73.4,25.9-109.3-6.2c0,0,5.3-127,5.3-146.2
	S1271.4,2050.6,1274.3,2104.3z"/>
<path class="st8" d="M1260.4,2196.8c0,0,8.2,36,20.1,58c12,22,78.1,83.9,70.9,105c-7.2,21.1-68.1,23-115,21.1
	c-47-1.9-68.1-18.2-86.8-51.8c-18.7-33.6-6.2-56.1-3.8-121.3c0,0,1.4-11,4.3-12.9c0,0,9.6,16.8,20.6,18.2s22-25.4,48.9-28.3
	c26.8-2.9,30.2,24,33.1,24S1259.4,2204.9,1260.4,2196.8z"/>
<path class="st9" d="M1303.5,2300.3c0,0-33.5-14.4-95.9,9.1"/>
<path class="st9" d="M1292,2274c0,0-33.6-14.4-95.9,9.1"/>
<path class="st10" d="M820.4,1069.9c0,0-14.4,83.9,26.8,280.9c12.5,59.9,22.5,138,29.7,220c16.8,186.9,2.4,377.7-6.2,452.9
	c-12.5,107.8,42.7,128.5,102.1,133.3c59.5,4.8,81.5-22.5,84.4-52.7s38.3-432.8,51.8-523.9c13.4-91.1,14.9-215.7,10.5-233.9
	c-4.3-18.2,47.4-14.4,25.9-239.7C1124.3,880.6,837.6,1010,820.4,1069.9z"/>
<path class="st11" d="M1233.1,1081c0,0,71.9,307.7,80.5,403.6c8.6,95.9-9.1,566.1-8.6,594.3s-25.4,53.7-89.6,55.1
	s-90.1-41.2-89.6-64.2c1.4-76.7,2.4-382-2.4-429c-4.8-47-74.8-278-88.7-300c-13.9-22-44.6-187.9,15.8-216.6
	C1110.8,1095.3,1205.7,1052.2,1233.1,1081z"/>
<path class="st8" d="M1142.5,467c0,0-122.7-4.3-179.7-12c-57-7.7-163.4-8.1-205.6,77.6s88.7,128,85.3,188.8
	c-3.4,60.9-12,163.9-12,163.9s-12,115.5-25.4,159.1s12,65.7,24,69.5c12,3.8,136.6,29.2,231,24c94.4-5.3,171.6-26.8,178.3-47.9
	c6.7-21.1-4.3-82.9,0-147.6c4.3-64.7,16.8-177.8,16.8-221s21.1-152.4,0-197.5C1234,479,1183.2,468.4,1142.5,467z"/>
<path class="st6" d="M981.4,416.2c0,0-19.7,2.9-26.4,15.8c-6.1,11.9-9.2,25-9.1,38.3c0.5,15.3,23.4,57.5,90.1,65.2
	c66.7,7.7,90.6-25,93.5-37.4c2.9-12.4-1.9-46-6.7-51.8c-4.8-5.8-11.5-12.5-35.5-15.3C1063.9,427.2,989.1,413.3,981.4,416.2z"/>
<path class="st12" d="M1077.8,707.6c10.7-11.3,20.7-23.3,29.7-35.9c10.1-15.3,23.4-32.1,34.5-38.3s34-10.5,40.3-13.9
	c6.2-3.4,13.4,8.6,0,19.7c-13.4,11-7.7,43.1-26.4,60.4C1137.2,716.7,1084.5,727.2,1077.8,707.6z"/>
<path class="st11" d="M1217.2,423.8l242-15.8c6.3-0.4,11.7,4.3,12.1,10.5c0,0,0,0,0,0.1c0.1,0.8,0,1.6-0.1,2.3l-59.4,365.2
	c-1.3,8.1-7.7,14.3-15.8,15.3l-231.5,31.6c-6.4,0.7-12.2-3.9-12.9-10.3c-0.1-0.7-0.1-1.4,0-2.1l48.9-380.6
	C1201,431.2,1208.3,424.1,1217.2,423.8z"/>
<path class="st8" d="M1388.4,424.8l-91.5,4.8c-3.1,0.1-5.7-2.4-5.8-5.5c0-0.2,0-0.5,0-0.7l1.4-9.6c0.5-3.7,3.5-6.5,7.2-6.7l91.5-4.8
	c3.1-0.1,5.7,2.4,5.8,5.5c0,0,0,0,0,0c0,0.2,0,0.5,0,0.7l-1.4,9.6C1394.9,421.7,1392,424.4,1388.4,424.8z"/>
<path class="st12" d="M854.4,794.8c0,0,30.2-121.3,37.9-167.8c7.7-46.5-21.6-98.3-66.6-109.8c-52.7-12.9-69,14.9-69,14.9
	s-21.1,36.9-42.2,152.9s-33.1,223.8,42.2,250.2c75.3,26.4,229.6-59.4,279-96.3c49.4-36.9,67.6-52.2,77.2-54.6s47.4,7.7,67.6-14.9
	s37.4-40.3,39.3-40.3s49.8,7.2,58,1c9.1-7.2-4.3-14.4-13.9-15.8c-9.6-1.4-36.9-10.5-36.9-10.5s21.6-6.7,36.9-12.5
	c15.3-5.7,31.2-9.1,30.2-17.3c-1-8.2-10.5-7.2-20.1-7.7c-7.6,0-15.1,0.8-22.5,2.4c0,0,26.4-7.2,33.1-14.9c6.7-7.7,1-14.4-12.9-12.9
	c-8.9,1-17.7,2.6-26.4,4.8c0,0,26.8-2.4,25-14.4c-1.4-8.2-25.4-3.8-41.2-1.9c-17.9,2.3-35.7,5.7-53.2,10.1
	c-10,2.3-19.8,5.5-29.2,9.6c-16.8,8.2-59,48.4-65.7,56.6c-6.7,8.2-91.1,21.6-160.1,36.9c-69,15.3-109.3,27.8-130.4,47.5L854.4,794.8
	z"/>
<path class="st13" d="M1229.7,629c-17.9,2.3-35.7,5.7-53.2,10.1c-10,2.3-19.8,5.5-29.2,9.6"/>
<path class="st6" d="M1095,794.8c-12,8.6-30.2,23-59,44.1c-49.4,36.4-203.7,122.2-279,96.3S694.3,801,714.9,685
	s42.2-152.9,42.2-152.9s16.3-27.8,69-14.9c44.6,11,74.3,62.8,66.6,109.8c-4.8,29.2-18.7,88.7-28.3,128.5c16.8-4.8,36-9.1,58-13.9
	c48.9-10.6,105.9-20.6,137.1-28.3c-4,17.4-2.1,35.6,5.3,51.8C1075.8,790,1095,794.8,1095,794.8z"/>
<path class="st14" d="M710.1,889.7c0,0-1-25.9,30.7-22.5c31.6,3.4,113.6,33.1,90.1,68.1"/>
<path class="st14" d="M1021.2,722c-4,18.8-2,38.4,5.8,56.1c8,16.9,20.7,31.2,36.5,41.2"/>
<path class="st12" d="M977.6,340.9c0,0-1.4,61.4-5.3,99.7c-3.9,38.3,67.6,54.2,102.1,47.5s39.8-17.3,39.8-17.3s-2.9-51.8,0-70.5
	C1117.1,381.7,978.1,320.8,977.6,340.9z"/>
<path class="st15" d="M1113.2,456.9c-0.5-7.7-0.5-17.7-0.5-27.8c-29.2,1.4-55.1-25.4-76.2-47.4
	C1030.8,427.7,1070.6,457.4,1113.2,456.9z"/>
<path class="st6" d="M1169.8,259.4c0,0,24-12.5,31.2-51.8c7.2-39.3-1.4-97.8-28.3-104.5c-26.8-6.7-8.1,75.7-26.4,91.1
	C1128.1,209.6,1169.8,237.9,1169.8,259.4z"/>
<path class="st12" d="M1168.8,191.9c5.5,26.8,7.3,54.2,5.3,81.5c-2.9,48.9,6.7,131.3-46.5,155.3s-123.7-1-152.4-79.6
	c-28.8-78.6-29.3-156.7,14.8-190.3C1034.2,125.2,1153,129.5,1168.8,191.9z"/>
<path class="st6" d="M981,286.3c0,0,16.3-5.3,16.8-34.5c0.5-29.2,15.8-54.2,47.5-45.5c31.6,8.6,75.7,33.1,101.6,32.6
	c30.7-1,40.3-34,42.7-74.8c2.4-40.7-11.1-66.1-26.9-61.8c-15.8,4.3-29.2,17.7-48.9-7.2c-26.8-33.5-50.8-32.6-70-16.8
	c-33.6,28.3-25.9,43.1-56.6,31.2c-17.7-7.2-30.2-5.3-38.8,27.8c-8.6,33.1-5.3,42.2-25.9,39.3c-20.6-2.8-7.7,106.4,25.9,130.9
	C948.8,307.4,974.7,283.9,981,286.3z"/>
<path class="st6" d="M1145.8,294.4c1.9,5.3,2.9,10.5,4.3,15.3s2.9,10.1,4.3,13.9c1.4,2.9,2.2,5.9,2.4,9.1c0.3,3.4-0.7,6.9-2.9,9.6
	c-4,4.7-10.2,7-16.3,6.2c4.3-2.2,8-5.5,10.5-9.6c1.2-3.9,0.5-8.2-1.9-11.5c-2.3-5.3-3.4-11-3.4-16.8
	C1143.4,305.2,1144.4,299.7,1145.8,294.4z"/>
<path class="st6" d="M1099.3,252.7c3.1,0.5,6.1-1.7,6.5-4.9c0.1-0.9,0-1.9-0.3-2.8c-1.4-4.3-2.4-8.2-7.2-9.1
	c-15.5-2.6-31.4,0.6-44.6,9.1c-12.9,9.6-0.5,11.5,15.8,8.1C1079.5,251.6,1089.5,251.5,1099.3,252.7z"/>
<ellipse class="st9" cx="1077.3" cy="299.7" rx="47.4" ry="49.4"/>
<ellipse class="st9" cx="1176.5" cy="299.7" rx="30.7" ry="45.1"/>
<path class="st9" d="M1146.8,289.6c0,0-6.2-8.6-23,0"/>
<line class="st9" x1="1031.8" y1="285.8" x2="974.7" y2="281.5"/>
<path class="st9" d="M1106.1,382.6c-13.9-1.7-26.1-10.1-32.6-22.5"/>
<path class="st6" d="M1084.5,317.9L1084.5,317.9c4.4,0.3,8.3-3,8.6-7.5c0-0.1,0-0.1,0-0.2l0.5-4.8c0.3-4.4-3-8.3-7.5-8.6h-0.2
	c-4.4-0.3-8.3,3-8.6,7.4c0,0.1,0,0.2,0,0.2l-0.5,4.8c-0.4,4.3,2.7,8.1,7,8.6c0,0,0,0,0,0C1084,317.9,1084.2,317.9,1084.5,317.9z"/>
<path class="st6" d="M1155.4,319.3L1155.4,319.3c4.4,0.3,8.3-3,8.6-7.4c0,0,0,0,0,0c0-0.1,0-0.1,0-0.2l0.5-4.8
	c0.3-4.4-3-8.3-7.5-8.6h-0.2c-4.4-0.3-8.3,3-8.6,7.4c0,0,0,0,0,0c0,0.1,0,0.2,0,0.2l-0.5,4.8
	C1147.8,315.1,1151.1,318.8,1155.4,319.3z"/>
<path class="st12" d="M979,287.7c0,0-13.9-24-32.6-17.7c-18.7,6.2-18.2,35-9.1,52.2c10.4,18.4,30.8,28.7,51.8,26.4"/>
<path class="st6" d="M946,305c-1.1-2.4-1.4-5.1-1-7.7c0.2-1.6,0.9-3.1,1.9-4.3c1.4-1.5,3.3-2.3,5.3-2.4c3.3-0.1,6.5,1.3,8.6,3.8
	c1.9,2,3.5,4.3,4.8,6.7c1.9,4,3.5,8.2,4.8,12.5c0.6,1.5,1.4,3,2.4,4.3c1,1,3.4,1,5.8,1c-1.6,2.4-4.4,3.7-7.2,3.4
	c-2.8-0.9-5.3-2.6-7.2-4.8c-2.5-3.8-4.8-7.9-6.7-12c-1.9-3.8-3.8-6.7-5.7-7.2c-0.5,0-1-0.5-1.4,0s-1,0.5-1.4,1.4
	C947.8,301.4,946.8,303.1,946,305z"/>
<path class="st13" d="M1229.7,704.2c-5.2-1.4-10.5-2.3-15.8-2.9c-3.8-0.6-7.7-0.6-11.5,0"/>
<path class="st13" d="M1251.8,668.3c0,0-48.9,10.5-53.2,13.9"/>
<path class="st13" d="M1246,645.3c0,0-33.6,7.2-35.5,7.7c-6.2,1.9-17.7,5.3-17.7,5.3"/>
<path class="st9" d="M864.5,1266.9c0,0,56.1-24,56.1-105.4"/>
<path class="st5" d="M326.7,1934.1l-27.8,577.1c-0.4,6.2,4.2,11.5,10.4,11.9c0.4,0,0.7,0,1.1,0l0,0c6,0,11-4.6,11.5-10.5l48.4-579
	h-43.6V1934.1z"/>
<path class="st5" d="M600.4,1934.1l27.8,577.1c0.4,6.2-4.2,11.5-10.4,12c0,0,0,0,0,0c-0.4,0-0.7,0-1.1,0l0,0c-6,0-11-4.6-11.5-10.5
	l-48.4-579h43.6L600.4,1934.1z"/>
<path class="st5" d="M513.6,1820.5l-0.5,577.6c0,6.3-5.1,11.5-11.4,11.5c0,0,0,0,0,0h-0.6l0,0c-5.8-0.6-10.5-5.2-11-11L470,1818.1
	L513.6,1820.5z"/>
<path class="st6" d="M619.6,1878c-54-7-108.5-10.4-163-10.1c-54.5-0.3-108.9,3-163,10.1h-90.1v32.6c0,23.5,113.1,42.7,253.1,42.7
	s253.1-19.2,253.1-42.7V1878H619.6z"/>
<ellipse class="st16" cx="456.6" cy="1878.1" rx="253.1" ry="42.7"/>
<path class="st6" d="M637.3,2328.6c0,0-6.2,46-14.8,59.9c-8.6,13.9-23,48.4-22.5,56.6c1.4,14.9,47.5,52.7,74.3,75.7
	s48.9,24,98.7,27.8c49.8,3.8,70-3.8,70-19.2c0-15.3-10.1-22.5-32.1-47.9c-22-25.4-56.6-61.3-68.1-82c-11.5-20.6,11.5-51.8,22-70.9
	C775.3,2309.4,659.3,2274.4,637.3,2328.6z"/>
<path class="st7" d="M764.8,2328.6c-10.1,19.2-33.1,50.3-22,70.9c1,1.9,2.4,3.8,3.4,5.8c-7.6-10.4-19.7-16.4-32.6-16.3
	c-23,0-35.5,26.8-53.2,13.9c-11.5-8.6-26.4-18.2-35-23.5c5.1-16.8,8.8-33.9,11-51.3C659.3,2274.4,775.3,2309.4,764.8,2328.6z"/>
<path class="st8" d="M620,1545.9c0,0,20.1,48.9,30.2,62.8c10.1,13.9,256.9,37.9,283.3,138c26.4,100.2-129.9,522.9-146.7,562.7
	c-16.8,39.8-19.2,74.8-75.7,69s-102.1-42.2-91.1-82c11-39.8,54.2-145.7,71.9-272.7s82-153.9-33.1-192.7s-206.6-26.4-175-133.7
	C515.5,1590,598,1534.4,620,1545.9z"/>
<path class="st6" d="M798.3,2398.6c0,0,20.1,71.9,20.1,79.6c0,7.7-12.9,69.5-10.1,87.7s27.8,28.3,60.9,58.5
	c35.5,33.1,64.2,31.2,107.8,27.8c37.4-2.9,87.2-21.1,92.5-35.9c5.3-14.9-0.5-25.4-30.2-41.2c-26.4-14.4-92.5-87.7-95.9-95.9
	s-23.4-115-24.4-125.1C918.1,2344,786.4,2371.3,798.3,2398.6z"/>
<path class="st7" d="M940.2,2469c-10.1-12.5-24.4-23-43.6-11.5c-20.1,12-22,37.9-32.6,39.3s-11.5-13.4-25.4-17.7
	c-8.5-2.5-16.3-7.1-22.5-13.5c-5.3-22.5-17.7-67.6-17.7-67.6c-12-27.3,119.8-55.1,120.3-44.6C919.6,2362.6,934,2440.3,940.2,2469z"
	/>
<path class="st17" d="M972.3,2521.3c0,0-25-9.6-73.8,14.9"/>
<path class="st17" d="M1006.8,2551.9c0,0-36.9-9.6-85.8,14.9"/>
<path class="st8" d="M282.6,1538.2c0,0-23,60.4-36.9,98.3s-31.6,115.5,8.1,178.3s116.5,73.8,239.7,89.1
	c121.8,14.9,148.1,24.4,148.1,24.4c19.4,83.3,43.8,165.4,72.9,245.9c45,121.8,61.8,192.7,63.7,209.9c1.9,17.3,11,34,41.2,41.2
	c30.2,7.2,108.8-10.1,114.1-45.1c5.3-35-28.7-141.9-50.8-283.7c-22.1-141.9-32.1-260.7-73.8-315.9c-41.7-55.1-206.1-60.9-206.1-76.7
	S362.6,1499.9,282.6,1538.2z"/>
<path class="st9" d="M882.2,2096.6c-22-141.9-32.1-260.7-73.8-315.9c-41.7-55.1-198-70.5-206.1-76.7c-27.5-17-59.2-26-91.5-25.9"/>
<path class="st9" d="M602.3,1704.1c0,0,3.8-25,0-36.4"/>
<path class="st9" d="M253.8,1722.8c0,0,80-1.4,97.8-88.7"/>
<path class="st9" d="M641.1,1928.4c0.3-14.9,6.9-29,18.2-38.8"/>
<path class="st17" d="M806,2475.3c0,0-10.1-27.3-90.6-5.3"/>
<path class="st17" d="M765.7,2432.1c0,0-7.7-20.1-71.9,7.2"/>
<path class="st18" d="M2717,675.5l-645.1-26.4c-13.9-0.5-23.4-13.4-21.6-29.2l52.7-387.8c2.1-15.1,14.1-26.9,29.2-28.7l645.1-26.4
	c14.3-1.4,27,9,28.4,23.2c0.2,2.2,0.2,4.3-0.2,6.5l-52.7,437.6C2750.9,662.5,2735.3,676.1,2717,675.5z"/>
<path class="st11" d="M2706,667.3L2060.8,641c-13.9-0.5-23.5-13.4-21.6-29.2L2092,224c2.1-15.1,14.1-26.9,29.2-28.7l645.1-26.4
	c14.3-1.4,27,9,28.4,23.3c0.2,2.2,0.2,4.3-0.2,6.5l-52.7,437.6C2739.7,654.3,2724.2,667.8,2706,667.3z"/>
<line class="st19" x1="2193.6" y1="417.1" x2="2364.2" y2="417.1"/>
<path class="st19" d="M2346,557.6l-92-2.4c-12.9-0.5-23-11.4-22.4-24.3c0-1.2,0.2-2.4,0.4-3.5l29.2-220c2-15,14.2-26.6,29.2-27.8
	l92-2.4"/>
<path class="st8" d="M2483.1,302.6l-106.9,1.9c-5.3,0.1-9.6-4.2-9.7-9.5c0-0.5,0-1,0.1-1.5l4.3-32.1c0.8-6.3,6.1-11.2,12.5-11.5
	l106.9-3.4c5.4-0.2,10,4.1,10.1,9.5c0,0.5,0,1-0.1,1.5l-4.3,32.6C2495.4,296.9,2489.9,302.2,2483.1,302.6z"/>
<path class="st8" d="M2667.1,445.9l-114.6-0.5c-5.6,0-10.2-4.5-10.2-10.1c0,0,0,0,0,0c0-0.6,0.1-1.3,0.2-1.9l4.3-33.6
	c0.8-6.6,6.3-11.7,12.9-12l114.6-0.5c5.7-0.2,10.4,4.2,10.7,9.8c0,0,0,0,0,0c0,0.7,0,1.5-0.1,2.2l-4.3,34
	C2680,440.4,2674.2,445.9,2667.1,445.9z"/>
<path class="st8" d="M2447.1,588.2l-106.9-2.9c-5.5-0.1-9.8-4.6-9.7-10c0-0.5,0.1-1,0.1-1.5l4.3-32.6c0.7-6.3,6.1-11.1,12.5-11
	l106.9,1.9c5.7,0.1,10.3,4.9,10.2,10.6c0,0.5,0,0.9-0.1,1.4l-4.3,33.1C2459,583.5,2453.6,588.1,2447.1,588.2z"/>
<line class="st19" x1="2480.2" y1="416.6" x2="2544.9" y2="416.6"/>
<path class="st7" d="M2465.4,444.9l-106.9-0.5c-5.5-0.1-9.8-4.6-9.7-10c0-0.5,0.1-1,0.1-1.5l4.3-32.1c0.8-6.3,6.1-11.2,12.5-11.5
	l106.9-0.5c5.6,0,10.2,4.6,10.2,10.3c0,0.4,0,0.8-0.1,1.2l-4.3,33.1C2477.3,439.8,2471.9,444.6,2465.4,444.9z"/>
<path class="st8" d="M2193.6,417.1c2.4-17.7-9.1-31.6-25.4-31.6s-31.2,14.4-33.5,31.6c-2.4,17.3,8.6,31.6,25,31.6
	C2177.1,447.8,2191.4,434.5,2193.6,417.1z"/>
<path class="st6" d="M2653.7,1841.6v32.6c0,21.1-105.9,38.3-237.3,38.3c-131.3,0-237.3-17.3-237.3-38.3v-32.6h111.7
	c83.5-7.7,167.6-7.7,251.1,0H2653.7z"/>
<ellipse class="st16" cx="2416.5" cy="1841.6" rx="237.3" ry="38.3"/>
<path class="st6" d="M2416.5,2267.2L2416.5,2267.2c-6,0.1-10.9-4.7-11-10.6c0,0,0,0,0,0c0-0.1,0-0.3,0-0.4v-375.8h22.5v375.8
	C2427.8,2262.4,2422.7,2267.4,2416.5,2267.2L2416.5,2267.2z"/>
<path class="st20" d="M2416.5,2255.3c0,0-130.4,9.6-171.6,96.3"/>
<path class="st20" d="M2588.5,2351.6c-41.7-86.7-171.6-96.3-171.6-96.3s-21.5,16.8-30.7,116"/>
<circle class="st8" cx="2385.7" cy="2382" r="35"/>
<circle class="st8" cx="2588.3" cy="2358.7" r="35"/>
<circle class="st9" cx="2244.8" cy="2358.5" r="35"/>
<path class="st6" d="M2545.9,1488.4c23,55.1,63.7,143.8,63.3,243.5c0,120.8-146.2,170.2-161,189.3c-14.9,19.1-319.2,40.3-350.4-20.6
	s-29.2-125.1,54.2-279c55.6-103,48.4-131.8,48.9-133.2c0,0,7.7,8.1,11-24C2215.2,1432.3,2532,1455.8,2545.9,1488.4z"/>
<path class="st7" d="M2170.1,1775.5c-29.7,4.8-79.6,20.6-84.8,99.7c-5.3,79.1,58,385.8,59,440c1,54.2-4.3,56.6-41.2,89.6
	c-36.9,33.1-110.2,69-104,94.4c6.2,25.4,90.1,47,145.2,36.9c55.1-10.1,67.6-72.9,78.1-78.1c10.5-5.3,17.3-25,18.7-37.4
	s40.3-452.5,44.1-517.2C2290.4,1823.4,2257.3,1761.6,2170.1,1775.5z"/>
<path class="st6" d="M2244.9,2383.2c-1.9,21.1-3.4,34.5-3.4,36.9c-1.4,12.9-8.2,32.1-18.7,37.4c-10.5,5.3-22.5,68.1-78.1,78.1
	s-139.5-11.5-145.2-36.9c-4.8-19.7,38.8-46,75.7-72.4c-1,1-11.5,11.5,0,13.9c11.5,2.4,33.6-6.7,74.8,16.3
	c41.2,23,53.2-12.9,61.4-37.4C2218.5,2398.6,2232.9,2405.3,2244.9,2383.2z"/>
<path class="st7" d="M2314.9,1789.9c-36,24-50.3,53.2-57,163.4c-9.1,151.5-25.4,389.7-33.1,415.1c-7.7,25.4-17.3,36.9-26.4,62.3
	c-9.1,25.4-86.3,98.7-81.5,126.5c4.8,27.8,48.9,55.6,76.7,64.7c27.8,9.1,60.9,12.9,81,0c20.1-12.9,30.2-93.9,35.5-113.1
	c5.3-19.2,11-33.5,15.8-67.6c4.8-34,39.8-187.4,54.6-231.5s81.4-258.3,83.4-342.2C2464.9,1783.6,2367.6,1755.3,2314.9,1789.9z"/>
<path class="st21" d="M2314.9,1789.9c-36,24-50.3,53.2-57,163.4c-9.1,151.5-25.4,389.7-33.1,415.1c-7.7,25.4-17.3,36.9-26.4,62.3"/>
<path class="st6" d="M2331.2,2411c-2.3,10-4.1,20-5.3,30.2c-4.3,33.6-10.6,47.9-15.8,67.6c-5.3,19.7-14.9,100.7-35,113.1
	c-20.1,12.5-53.2,9.1-81,0c-27.8-9.1-71.9-36.9-76.7-64.2c-3.4-20.1,36-63.7,61.3-96.3c-1.4,1.9-19.7,29.2,12.9,53.2
	c28.3,21.1,81,34,94.4,2.4s20.6-61.4,26.8-70.9C2321.1,2435.6,2327.3,2423.7,2331.2,2411z"/>
<ellipse transform="matrix(0.3448 -0.9387 0.9387 0.3448 -919.1924 3727.8247)" class="st22" cx="2210.8" cy="2522.4" rx="19.7" ry="26.4"/>
<path class="st22" d="M2128.9,2449.9c-1.4,10.1-13.9,16.3-27.3,14.4c-13.4-1.9-23.5-12-22-22c1.4-10.1,13.9-16.3,27.3-14.4
	C2120.3,2429.7,2130.3,2439.8,2128.9,2449.9z"/>
<path class="st8" d="M2212.3,1087.7c0,0-65.2,1-109.3,98.3s-114.1,234.4-104,292.4s143.8,0,207.1-108.8
	C2269.3,1260.7,2263.1,1090.6,2212.3,1087.7z"/>
<path class="st6" d="M2262.6,894c0,0-33.1-1.9-43.6-44.6c-10.5-42.7,33.1-95.9,73.4-108.8c40.3-12.9,50.3,12,76.7,14.9
	c26.4,2.9,96.8-4.8,125.1,58c28.3,62.8-18.7,122.2,17.3,169.2c35.9,47,66.1,134.2-39.8,171.6s-227.7,8.1-265.5-59.4
	c-37.9-67.6,35-107.4,46-142.4C2264.1,918,2269.3,909.4,2262.6,894z"/>
<path class="st8" d="M2370,1062.7c0,0-97.8-1-151,19.2c-15.8,5.8-29.2,15.8-33.1,65.7c-3.4,45-5.7,44.6-18.2,66.6
	c-19.7,35.5-27.8,76.2,10.1,142.4c24.4,43.1,16.8,124.1,12.9,164.9s1,59,80,79.1c79.1,20.1,248.8,0,267.9-19.2
	c19.2-19.2,27.8-209,24-245.9c-3.8-36.9,67.1-135.2,61.8-174C2619.2,1122.7,2573.2,1069.5,2370,1062.7z"/>
<path class="st22" d="M2316.3,1054.6c0,0-44.1,1.9-58.5,16.8c-10.1,10.5-1.9,17.3,10.1,26.4c8.1,6.2-20.6,22.5-5.7,41.2
	c11,13.9,35.9-3.4,45.5,9.6c11,15.3,12.9,21.1,29.7,21.6c21.1,0.5,23-22,38.8-19.7c19.2,2.9,23.4,9.6,37.4,8.1
	c21.6-2.4,22-24,19.2-36.9c-2.9-12.9,4.8-13.4,21.6-18.2c16.8-4.8,20.1-37.4-41.7-46.5S2316.3,1054.6,2316.3,1054.6z"/>
<path class="st7" d="M2425.6,967.8c-6.3,33-9.4,66.6-9.1,100.2c-11.5,30.5-41.8,49.7-74.3,47c-53.7-2.9-41.2-46-41.2-46
	s12.9-47.9,13.4-60.4S2412.2,954.9,2425.6,967.8z"/>
<path class="st23" d="M2382.9,1022.5c-23,15.3-49.8,24.4-75.2,22.5l-6.2,24c0,0-0.5,2.4-1,6.2
	C2337.9,1074.3,2371.4,1057.5,2382.9,1022.5z"/>
<path class="st7" d="M2256.4,846.1c0.6,26.6-1.2,53.3-5.3,79.6c-6.7,41.2,0.5,106.4,45.1,121.8c61.8,21.1,126.1-21.1,141.9-82.4
	c15.8-61.3,24-136.6-54.6-159.1S2260.7,815.9,2256.4,846.1z"/>
<path class="st6" d="M2254,863.4c0,0-3.4-14.9,10.5-17.7c13.8-3.5,27.1-8.5,39.8-14.9c9.1-4.3,20.6-2.9,29.7,17.3
	c20.1,43.1,45.5,107.8,98.3,89.6c0,0,20.1,4.3,25.9-29.2c5.7-33.6,3.4-78.6-55.1-105.9c-58.5-27.3-125.6-8.6-138,5.3
	C2245.8,829.3,2254,863.4,2254,863.4z"/>
<path class="st7" d="M2409.8,944.4c0,0,21.6-29.7,41.7-12.5c20.1,17.3-7.7,60.9-35.5,59.4"/>
<path class="st11" d="M2440.9,994.7c0-6.7-5.7-19.2-12.5-19.2S2416,988,2416,994.7c0.1,6.8,5.6,12.3,12.5,12.5
	c6.8,0.1,12.4-5.4,12.5-12.3V994.7z"/>
<path class="st6" d="M2444.3,952c-1.9-1-3.4-2.4-4.8-2.9c-1-0.7-2.4-0.7-3.4,0c-0.5,0-0.5,0.5-1,1s-1,1-1,1.4
	c-0.4,1.1-0.7,2.2-1,3.4c-0.5,2.9,0,6.7-1,11c-0.5,2.6-2.1,4.8-4.3,6.2c-2.1,1-4.6,1-6.7,0c1.9-1,3.4-1.9,3.8-3.4
	c0.4-1.2,0.6-2.5,0.5-3.8c-0.4-3.7-0.6-7.3-0.5-11c0.1-2.7,1.1-5.2,2.9-7.2l2.9-2.9c1.4-0.7,2.8-1.2,4.3-1.4
	c2.8-0.1,5.4,1.4,6.7,3.8C2443.5,947.8,2444.3,949.9,2444.3,952z"/>
<path class="st6" d="M2272.7,922.8c1.8,4.4,2.1,9.3,1,13.9c-0.9,4.8-3,9.3-6.2,12.9c-1,1.4-1.4,1.4-1.4,2.9c0.2,1.5,0.7,3,1.4,4.3
	c1,1.7,2.1,3.3,3.4,4.8c1.4,1.4,2.9,3.4,4.8,3.8c-2.4,0.8-4.9,0.6-7.2-0.5c-2.2-1-4.3-2.3-6.2-3.8c-2.1-2-3.5-4.8-3.8-7.7v-2.4
	c0.1-0.8,0.3-1.6,0.5-2.4c0.5-1,0.5-1.4,1-2.4c0.4-0.7,0.8-1.4,1.4-1.9C2266.1,937.8,2270,930.6,2272.7,922.8z"/>
<path class="st9" d="M2294.2,990.9c11,1.1,21.9-1.9,30.7-8.6"/>
<path class="st6" d="M2314.9,886.4c-0.6-3.2,0.1-6.4,1.9-9.1c3.8-4.8,16.3-5.3,25.9,1c9.6,6.3,13.4,14.9,10.5,15.8
	c-4.3,1.4-8.6-4.3-18.7-5.3C2324.4,887.8,2316.7,891.6,2314.9,886.4z"/>
<path class="st6" d="M2265.5,884.9c2,0.6,4.1-0.5,4.6-2.5c0,0,0,0,0,0c0.1-0.3,0.1-0.5,0.2-0.8c0.7-3.2,0.4-6.6-1-9.6
	c-2.9-4.3-10.5,0.5-12.9,3.8c-2.4,3.4-1.4,9.1,0,9.1C2259.4,884.4,2262.5,884.4,2265.5,884.9z"/>
<path class="st6" d="M2324.4,931.4L2324.4,931.4c3.6,0.4,6.8-2.3,7.2-5.9c0,0,0,0,0,0v-0.3l0.5-3.8c0.4-3.6-2.3-6.8-5.9-7.2
	c0,0,0,0,0,0h-0.3l0,0c-3.6-0.3-6.8,2.3-7.2,5.9v0.3l-0.5,3.8c-0.4,3.6,2.3,6.8,5.9,7.2c0,0,0,0,0,0H2324.4z"/>
<path class="st6" d="M2262.6,926.6L2262.6,926.6c3.6,0.3,6.8-2.3,7.2-5.9c0-0.1,0-0.2,0-0.3l0.5-3.8c0.3-3.6-2.3-6.8-5.9-7.2
	c-0.1,0-0.2,0-0.3,0l0,0c-3.6-0.4-6.8,2.3-7.2,5.9c0,0,0,0,0,0c0,0.1,0,0.2,0,0.3l-0.5,3.8C2256.4,923.1,2259,926.1,2262.6,926.6z"
	/>
<path class="st5" d="M1607.9,1672.9l27.8,649.9c0.7,6.7-4.2,12.7-10.8,13.4l-0.7,0.1l0,0c-6.3-0.5-11.3-5.6-11.5-12l-48.4-651.9
	h43.6L1607.9,1672.9z"/>
<path class="st5" d="M1667.8,1596.7l26.4,618.3c0.7,6.4-4,12.2-10.4,12.9c-0.2,0-0.4,0-0.7,0.1l0,0c-6-0.2-10.8-5-11-11l-46-620.2
	L1667.8,1596.7z"/>
<path class="st5" d="M1172.2,1673.4l-87.2,644.7c-1.2,6.7,3.3,13.2,10,14.4h0.1l0,0c6.2,0.1,11.6-4.4,12.5-10.5l107.8-644.7
	L1172.2,1673.4z"/>
<path class="st8" d="M1754.1,983.7c0,0,28.3,12.9,3.8,126.5c-24.4,113.6-69.5,264.1-63.3,434.3s-105.4,240.6-288.1,227.7
	s104-528.7,104-528.7S1716.2,937.2,1754.1,983.7z"/>
<path class="st22" d="M1264.2,1018.2c4.8-21.1,14.9-55.1,52.7-69c37.9-13.9,435.7-7.2,441,42.2c5.3,49.4-98.7,279.4-98.3,444.3
	s29.7,301.5-164.4,328.8c-194.1,27.3-402.1-12.9-381-79.1s85.3-154.8,105-336.5C1238.8,1167.2,1246.5,1099.6,1264.2,1018.2z"/>
<path class="st6" d="M1174.1,1545.9c0,0-146.2,183.1-150.5,244s240.1,58.5,240.6,46c0.5-12.5,41.2-83.4,60.4-84.8
	c12.5-1,31.6-1.9,35,13.4c4.8,21.6,0,66.6,0,66.6l210.4,98.7l20.6-87.7c0,0,35.5-57,35.5-151c0-93.9-27.3-232.5-27.3-232.5
	S1198.1,1500.8,1174.1,1545.9z"/>
<path class="st6" d="M1346.7,2428.8c0,0-12.9,8.6-15.8,30.2c-2.9,21.6-14.4,53.7-22,80s-30.2,77.6-18.7,86.3
	c16.3,12.9,59.4,22,109.3,26.4c49.8,4.3,73.8,1.4,81.5-12.9c7.7-14.4-8.6-96.8-11.5-128c-2.9-31.2,0-63.7-5.7-74.8
	S1369.7,2399.1,1346.7,2428.8z"/>
<path class="st6" d="M1169.8,2401c-5,8.9-8.8,18.4-11.5,28.3c-5.8,18.7-56.6,97.3-56.1,122.2c0.5,24.9,48.9,25.4,67.6,26.4
	c22.5,1,79.6-3.4,98.3-16.3c18.7-12.9,19.2-57.5,20.6-71.9c2.9-28.7,2.4-46-4.3-89.2c-1.9-13.9-23-17.7-34.5-9.6
	S1178.4,2382.3,1169.8,2401z"/>
<path class="st7" d="M1354.3,2371.7c0,0-8.6,62.8-9.6,70.5c-1,7.7,12.9,24.4,53.2,33.1c34.5,7.7,55.1-5.3,58.5-10.1
	s19.2-84.8,24.4-103S1365.4,2350.2,1354.3,2371.7z"/>
<path class="st7" d="M1158.3,2358.3c0,0,12.9,44.1,12.9,49.8c0,5.7,22,17.7,52.7,16.8c30.7-1,56.6-17.7,56.6-25.9
	s-9.1-86.3-9.1-86.3S1161.2,2336.3,1158.3,2358.3z"/>
<path class="st17" d="M1336.6,2540.5c40.2-10.6,83-0.7,114.6,26.4"/>
<path class="st17" d="M1351.9,2505.5c0,0,58-10.5,94.9,19.7"/>
<path class="st6" d="M1347.1,2454.2c6.5,3.4,14.2,3.4,20.6,0c11-5.7,22.5-16.3,45-12c27.3,5.3,32.6,33.6,47.5,21.1
	c0,0,0.5,19.2-36.9,21.1C1386,2486.3,1347.6,2460.4,1347.1,2454.2z"/>
<path class="st6" d="M1169.3,2409.1c0,0,5.3,5.7,13.9-2.4c8.6-8.1,7.7-17.3,31.2-20.6c15.3-1.9,28.3,9.1,39.8,18.2
	c11.5,9.1,23-3.4,25.4-13.9c0,0,7.7,27.3-2.9,40.7c-7.7,10.1-37.4,2.9-55.1,3.4c-17.7,0.5-56.1-8.1-56.1-8.1L1169.3,2409.1z"/>
<path class="st17" d="M1136.7,2479.6c0,0,45.1-27.8,106.9,9.6"/>
<path class="st17" d="M1158.3,2450.8c0,0,39.3-27.8,93.5,9.6"/>
<path class="st6" d="M1416.2,1736.7c0,0-58,8.1-61.8,152.9c-3.8,144.7-15.8,377.2-32.1,409.8c-16.3,32.6-10.5,70.9,19.7,86.3
	c30.2,15.3,65.2,33.1,109.3,28.3c44.1-4.8,65.2-30.2,65.2-81.5s18.7-195.1,47.5-312c28.8-117,47.9-232.5-10.6-274.2
	C1494.8,1704.5,1416.2,1736.7,1416.2,1736.7z"/>
<path class="st6" d="M1072.5,1725.2c0,0-87.2,11-37.9,227.2c49.4,216.2,82.4,329.8,74.8,362.8s16.3,50.8,43.6,57
	c27.3,6.2,79.6,5.3,109.3-11.5c29.7-16.8,33.1-43.6,21.1-94.9c-12-51.3-14.9-256.4-16.3-326.9c-1.4-70.5,16.3-190.3-69-224.8
	C1112.8,1679.6,1072.5,1725.2,1072.5,1725.2z"/>
<ellipse class="st14" cx="1127.1" cy="1799.4" rx="69.5" ry="68.5"/>
<ellipse class="st14" cx="1470.8" cy="1852.2" rx="69.5" ry="68.5"/>
<path class="st6" d="M1630.9,831.2c0,0,28.3-9.1,37.4-29.7c9.1-20.6,8.1-82.9-8.6-102.6c-16.8-19.7-63.7-11-93.5-19.7
	c-29.7-8.6-50.3-27.8-105.4-17.3c-55.1,10.5-105.9,59.9-108.3,86.8c-2.4,26.8,13.4,37.9,7.7,55.1c-5.7,17.3-13.4,34,13.4,60.4
	c26.8,26.4,16.3,43.6,36.4,43.6s-16.3-61.3,9.6-114.1C1445.4,741.1,1616.5,771.8,1630.9,831.2z"/>
<path class="st7" d="M1073.9,1148.5c0,0-63.3,83.4-74.3,146.2s23,103.5,65.2,110.2c42.2,6.7,183.6-177.8,190.3-215.2
	C1261.8,1152.4,1094.1,1119.3,1073.9,1148.5z"/>
<path class="st8" d="M1275.7,985.6c0,0-32.1-9.1-109.3,57.5c-64.7,55.6-116,108.8-116,108.8s136.1,123.7,154.8,155.8
	c0,0,83.9-96.8,91.1-194.6C1303.5,1015.3,1287.7,981.7,1275.7,985.6z"/>
<path class="st9" d="M1073.9,1129.9c0,0,98.3,79.1,151.5,151.9"/>
<path class="st10" d="M1237.9,1026.3c12-26.8,36-46.5,65.7-47.4c28.7-1,72.4-0.5,135.6,3.8c136.1,9.6,241.1,48.4,268.9,68.5
	s-6.2,144.7-35,213.8c-28.7,69-59.9,131.8-65.2,155.8c-5.3,24,13.9,137.1,3.8,160.1c-10.1,23-116.9,62.8-253.1,55.1
	s-192.7-51.8-197-68.1c-4.3-16.3,12.9-157.7,21.1-206.1c8.2-48.4,13.9-154.8,14.9-170.2C1206.2,1092.9,1225.4,1054.1,1237.9,1026.3z
	"/>
<path class="st7" d="M1832.2,1249.2c-34-58.5-151.9,58-149.1,83.9c0,0,21.1,44.1,21.1,48.9s-21.1,126.1-35.5,194.1
	c-4.3,21.1-17.3,44.6-33.1,67.1c37.1,14.1,75.2,25.1,114.1,33.1c50.8-88.7,109.3-224.3,118.4-257.9
	C1884.9,1355.6,1866.2,1307.7,1832.2,1249.2z"/>
<path class="st21" d="M1704.2,1382c6.3-13.3,17.2-23.8,30.7-29.7"/>
<path class="st8" d="M1708.1,1050.8c0,0,38.8,21.6,77.2,86.3c38.3,64.7,68.1,123.7,68.1,123.7l-168.7,88.2c0,0-48.9-80-69-116
	s-22-109.8,6.2-151C1649.1,1041.2,1694.6,1041.7,1708.1,1050.8z"/>
<path class="st9" d="M1668.8,1323.5c0,0,98.3-64.7,170.6-88.7"/>
<path class="st7" d="M1659.2,1602.9c0,0-67.6,6.7-82.9,15.3c-15.3,8.6-38.3,60.9-36.4,65.7c1.9,4.8,16.3,0,16.3,0
	s-1.9,10.1,9.6,10.1s13.4-4.8,13.4-4.8c-1.1,5.5,2.4,10.8,7.9,11.9c1.2,0.2,2.4,0.3,3.6,0.1c13.4-1,41.2-24.9,41.2-24.9
	s-14.9,26.4-5.8,32.6s28.7-15.8,31.6-20.1c2.9-4.3,79.1,41.7,108.3-43.1C1766.1,1645.6,1710.9,1585.7,1659.2,1602.9z"/>
<path class="st8" d="M1374.9,976c0,0-23,2.4-27.8,6.7s-19.2,41.7,0,80.5c19.2,38.8,74.8,58,131.3,40.3
	c56.6-17.7,80.5-71.9,78.6-88.7c-1.9-16.8-12-22-32.6-27.3C1503.9,982.2,1374.9,976,1374.9,976z"/>
<path class="st7" d="M1402.3,855.7c0,0,1.4,44.1-9.6,80c-4.3,13.8-10.1,27.2-17.3,39.8c-3.9,7-6.5,14.6-7.7,22.5
	c-2.9,19.7-1.4,53.7,34.5,70c57.5,25.9,117.9-21.6,126.1-59.4c0,0,3.4-39.3,12-55.1C1549,937.7,1430.1,840.8,1402.3,855.7z"/>
<path class="st23" d="M1524.5,1019.6c1.6-3.5,2.9-7.2,3.8-11c0.5-6,1.3-11.9,2.4-17.7c-38.9-6.6-73.6-28.5-96.3-60.9
	C1437.2,977,1477.5,1012.9,1524.5,1019.6z"/>
<path class="st7" d="M1041.3,1397.3c0,0,23.4,26.4,128,0c104.5-26.4,239.2-99.2,259.3-106.4s27.8-3.8,49.4-3.8
	c51.3,1,72.4-3.8,79.1-7.2c13.4-6.7,19.7-16.8,17.3-25.4c-2.4-8.6,4.8-11,6.2-18.7c2.4-14.4-2.9-16.3-1.4-17.3s15.8-5.3,18.7-9.1
	c7.2-11,1.4-18.2,1.4-18.2c13.1-3.2,26.4-5.5,39.8-6.7c21.6-1.9,34.5-9.6,28.3-17.3s-48.4-5.3-75.7-5.3c-27.3,0-36.9,0.5-38.8-0.5
	c-10.5-3.4-31.2-9.6-41.2-8.6c-10.1,1-21.6,9.1-41.2,19.7c-22.3,11.7-46,20.6-70.5,26.4c-22,5.8-170.2,17.3-261.7,34.5
	c-12.9,2.4-25,4.8-35,7.7c-10,2.4-19.8,5.8-29.2,10.1C1024.1,1278,980.5,1348.4,1041.3,1397.3z"/>
<path class="st21" d="M1598.8,1191.2c0,0-12.5-1.9-16.8-2.9c-3.8-0.6-7.7-0.9-11.5-1"/>
<path class="st21" d="M1579.1,1218.5c0,0-8.6,2.4-12,3.8"/>
<path class="st21" d="M1574.3,1249.2c-4.2,2.5-8.5,4.7-12.9,6.7"/>
<path class="st6" d="M1428.6,1290.9c-36.9-43.6-18.2-94.9-18.2-94.9l-41.2,7.7c-23.4,58,18.2,106.9,18.2,106.9L1428.6,1290.9z"/>
<path class="st21" d="M1552.3,1161.5c0,0-25.9,0.5-30.2,2.4"/>
<path class="st21" d="M1138.2,1233.4c-12.9,2.4-25,4.8-35,7.7c-10,2.4-19.8,5.8-29.2,10.1"/>
<path class="st22" d="M1409.4,1249.2c0-13.8-11.2-25-25-25s-25,11.2-25,25s11.2,25,25,25l0,0
	C1398.1,1273.8,1409.1,1262.8,1409.4,1249.2z"/>
<path class="st7" d="M1636.6,749.8c0,0,10.5,31.6-4.3,78.6s-25,64.7-37.4,102.1s-42.7,70-93.9,64.7c-53.7-5.7-95.9-54.6-98.3-115.5
	c-2.4-60.9-7.7-155.8,64.7-172.6C1538.9,690.8,1624.2,733.5,1636.6,749.8z"/>
<path class="st6" d="M1589.2,851.4c-0.2,5.4,0.1,10.9,1,16.3c0.5,2.4,1,5.3,1.4,7.7c0.5,1.4,0.5,2.4,1,3.8l0.5,1.9l0.5,2.4
	c1,3.4,1,7.1,0,10.5c-1.3,3.4-3.6,6.2-6.7,8.1c-5.4,3.1-11.7,4-17.7,2.4c4.8-1.8,9.4-4.4,13.4-7.7c3.1-2.8,4.1-7.2,2.4-11l-0.5-1.4
	l-0.5-2.4c-0.5-1.4-0.5-2.9-1-4.3c-0.4-3-0.6-6-0.5-9.1C1583.4,862.5,1585.7,856.6,1589.2,851.4z"/>
<path class="st6" d="M1415.2,825.5c0,0,15.8-3.8,25.9-45.5c0,0,3.4-9.6,20.1,3.4c16.8,12.9,44.6,34,93.5,11
	c48.9-23,55.1-30.7,61.8-22.5c0,0,7.2,36.4,32.1,24.9c24.9-11.5,11.5-76.2-70.9-97.3c-82.4-21.1-140.9-13.9-167.3,32.1
	C1384,777.6,1394.1,822.6,1415.2,825.5z"/>
<path class="st6" d="M1565.7,810.2c4-4.5,4.7-11,1.9-16.3c-5.3-8.2-41.2-13.9-49.9-6.7c-8.6,7.2,12.9,8.1,23,12.9
	C1550.8,804.9,1562.8,813.5,1565.7,810.2z"/>
<path class="st6" d="M1610.3,830.8c1.3-3.4,3.9-6.1,7.2-7.7c5.3-2.4,16.3,8.6,14.4,15.8c-1.9,7.2-7.2-1-12-1.9
	C1615.1,835.1,1608.8,833.6,1610.3,830.8z"/>
<path class="st6" d="M1538.4,838c1.4-3.8-0.5-8-4.3-9.4c-0.2-0.1-0.3-0.1-0.5-0.2l0,0c-3.8-1.4-8,0.5-9.4,4.3c0,0,0,0,0,0
	c-0.1,0.2-0.1,0.3-0.2,0.5l-1,2.4l13.9,5.3L1538.4,838z"/>
<path class="st6" d="M1610.3,864.8c1.3-4-0.8-8.3-4.8-9.6c-4-1.3-8.3,0.8-9.6,4.8l0,0l-1,2.4l13.9,5.3L1610.3,864.8z"/>
<path class="st7" d="M1423.8,833.6c0,0-8.1-32.6-32.1-32.1s-35,65.7,20.1,75.7"/>
<path class="st6" d="M1387.9,831.2c-0.1-2.5,0.8-4.9,2.4-6.7c1.1-1.2,2.7-1.9,4.3-1.9c1.5,0,3,0.4,4.3,1c0.5,0,1.4,1,1.9,1.4
	c0.5,0.5,1,1.4,1.4,1.9c0.5,0.5,0.5,1.4,1,1.9c0.4,0.6,0.5,1.2,0.5,1.9c0.4,2.1,0.5,4.1,0.5,6.2v11c0,1.6,0.5,3.1,1.4,4.3
	c1.1,1.5,2.6,2.6,4.3,3.4c-2.1,1-4.6,1-6.7,0c-2.4-1.2-4.3-3.2-5.3-5.7c-1.7-4.1-2.5-8.5-2.4-12.9c0-3.8-0.5-8.1-0.5-8.1
	c-0.7-0.9-1.7-1.5-2.9-1.4C1390.9,828.8,1389.4,830.1,1387.9,831.2z"/>
<path class="st6" d="M1536.9,935.7c1.8-2.6,3.5-5.3,4.8-8.2c1.9-3.7,0.4-8.3-3.4-10.1c0,0,0,0,0,0c-0.3-0.1-0.6-0.3-0.9-0.4
	c-6.6-2.8-12.7-6.5-18.2-11c-14.9-12-21.6-1.4-20.6,12C1513,919.4,1525.9,928.5,1536.9,935.7z"/>
<path class="st24" d="M1498.6,917.5c1,11.5,7.2,25.4,19.7,27.3c7.5,0.9,14.8-2.6,18.7-9.1C1525.9,928.5,1513,919.4,1498.6,917.5z"/>
<path class="st5" d="M541.4,1711.3L471,2693.8c-0.4,8.1,5.8,14.9,13.9,15.3c0,0,0,0,0,0h0.5l0,0c7.4,0,13.6-5.6,14.4-12.9
	l84.9-984.5h-43.1L541.4,1711.3z"/>
<path class="st5" d="M3385.1,1711.3l70.5,982.6c0.4,8.1-5.8,14.9-13.9,15.3c0,0,0,0,0,0h-0.5l0,0c-7.4,0-13.6-5.6-14.4-12.9
	l-84.8-984.5h43.1L3385.1,1711.3z"/>
<polygon class="st22" points="3535.2,1690.6 391.4,1690.6 750.9,1545.9 3175.2,1545.9 "/>
<rect x="391.4" y="1690.6" class="st25" width="3144.2" height="36"/>
<path class="st11" d="M1641.4,1521.9h201.8c5.5,0,10.8,1.6,15.3,4.8l183.1,122.2c3.4,2.2,4.4,6.7,2.2,10.1c-1.3,2.1-3.6,3.3-6,3.4
	h-291.9c-6.8,0.1-13.2-3.1-17.3-8.6l-93-119.8c-2.5-3.2-2-7.8,1.2-10.4C1638.2,1522.5,1639.8,1521.9,1641.4,1521.9L1641.4,1521.9z"
	/>
<line class="st26" x1="1766.1" y1="1624.5" x2="1954.4" y2="1624.5"/>
<path class="st6" d="M1902.2,1588.6l-39.3-29.7c-1.6-1.3-3.7-1.9-5.8-1.9h-51.3c-1.9,0-2.4,1.9-1.4,3.4l29.7,28.7
	c1.8,1.8,4.2,2.8,6.7,2.9h60.4C1903.1,1591.9,1903.6,1590,1902.2,1588.6z"/>
<line class="st26" x1="1795.8" y1="1591.9" x2="1744" y2="1591.9"/>
<line class="st26" x1="1779" y1="1572.3" x2="1732.5" y2="1572.3"/>
<path class="st16" d="M2806.6,1682l-57.5,4.3c-5,0.5-10,0-14.9-1.4l-262.7-71.9c-6-1.7-10.1-7.2-10.1-13.4l0,0l446.7-11.1
	L2806.6,1682z"/>
<path class="st6" d="M2742.4,1665.7l111.2-295.7c3.9-10.6,14.1-17.5,25.4-17.3l456.3,8.6c7.9,0.1,14.3,6.7,14.1,14.6
	c0,1.9-0.4,3.8-1.2,5.5l-105.4,258.4c-3.9,9.5-12.8,15.9-23,16.8l-463,29.2c-8.5-0.2-15.3-7.3-15.1-15.9
	C2741.7,1668.5,2742,1667.1,2742.4,1665.7L2742.4,1665.7z"/>
<path class="st6" d="M2758.7,1685.8l-9.6,0.5c-5,0.5-10,0-14.9-1.4l-262.7-71.9c-5.9-1.8-9.9-7.3-10.1-13.4l288.1,69L2758.7,1685.8z
	"/>
<path class="st16" d="M3128.2,1512.3c-5.3,18.2-24,33.1-42.2,33.1c-18.2,0-28.7-14.9-23.5-33.1c5.3-18.2,24-33.1,42.2-33.1
	C3123,1479.3,3133.5,1494.1,3128.2,1512.3z"/>
<path class="st27" d="M554.4,1055.1c0,0,47-12.9,88.2,60.9c41.2,73.8,61.8,210.9,74.8,224.8c12.9,13.9,34,24.4,102.1,68.1
	s71.9,45,130.9,52.2c59,7.2,62.8,27.3,81,47.4c18.2,20.1,31.2,34,13.9,35.5s-36-23.4-47-16.3c-11.7,8.5-24.8,14.7-38.8,18.2
	c-20.1,4.8-13.9,12.9-32.6,11c-18.7-1.9-55.1-1-43.6-11c11.5-10.1,0-12.5,0-12.5s-202.7-27.3-268.4-80.5s-82.9-229.6-95.9-288.1
	C506,1106.4,538.1,1055.1,554.4,1055.1z"/>
<path class="st28" d="M717.3,1340.7c-10.6-1-21.3,0.6-31.2,4.8"/>
<path class="st6" d="M577.4,821.7c0,0,35.5-33.6,21.6-77.2s-57-47.9-92-37.4c-35,10.5-130.9-7.2-165.8,46s-12.9,101.1-35,115
	c-22,13.9-53.2,24-47.9,59c5.3,35,98.7,85.8,70,126.1c-28.8,40.3-56.1,133.7,55.1,186.9s117.9-73.8,125.1-147.6
	c7.2-73.8-14.9-159.1,16.8-190.8C557.2,869.1,583.6,851.4,577.4,821.7z"/>
<path class="st6" d="M415.4,1037.8c0,0,127,2.9,149.1,12.9s32.1,44.1,38.8,70c6.7,25.9,57,57,66.1,114.1s-39.8,123.2-42.2,133.7
	c-2.4,10.6-2.9,117.9,2.9,139.9s15.8,58,14.9,73.8s-68.1,47-167.8,41.2s-204.2-56.1-207.5-67.1c-3.3-11,29.7-62.8,20.6-171.1
	c-9.1-108.3-60.9-224.8-23-289C305.1,1033.1,396.2,1037.3,415.4,1037.8z"/>
<path class="st27" d="M410.6,946.8c0,0,5.3,55.6,4.3,91.1c0,0,13.9,29.7,57.5,38.3c52.7,11,63.3-19.2,56.1-32.1
	c0,0-12.5-46-13.9-77.6C513.6,935.7,412.9,942.4,410.6,946.8z"/>
<path class="st29" d="M453.7,992.8c19.7,30.7,39.8,43.1,74.3,45.5c-1.9-6.7-4.3-18.7-7.2-31.6C493.5,1010,480.6,1000.4,453.7,992.8z
	"/>
<path class="st27" d="M392.4,1037.8c21.7,15.9,40.5,35.3,55.6,57.5c27.3,39.3,62.3,68.5,86.7,65.7s36-35,4.3-115.5
	C539,1045.5,462.3,1033.1,392.4,1037.8z"/>
<path class="st16" d="M844.3,1491.2l200.8-12.5c2.4,0,5.3-5.3,6.2-3.4c0.2,2.9,0.2,5.8,0,8.6c0,1.6-0.5,3.1-1.4,4.3l-151.4,155.3
	c-6.3,6.4-15.1,9.5-24,8.6l-197.5-19.7c-1.9,0-3.6-1.2-4.3-2.9c-3-4.9-5.6-10-7.7-15.3c0-1.4,11-1.4,12.5-2.4L831,1496.5
	C834.8,1493.4,839.4,1491.6,844.3,1491.2z"/>
<path class="st6" d="M842,1478.8l203.7-8.6c3.3-0.1,6,2.5,6,5.7c0,1.6-0.6,3.2-1.7,4.3l-156.7,154.3c-6.4,6.4-15.5,9.4-24.4,8.1
	l-199.9-24.4c-3.2-0.3-5.6-3.1-5.3-6.4c0.2-1.7,1-3.2,2.4-4.2l161.5-124.1C831.8,1480.5,836.8,1478.8,842,1478.8z"/>
<path class="st27" d="M932.1,1469.7c0,0-5.3,1-5.3,11c0,10.1,3.8,36.9-6.2,38.8c-10.1,1.9-14.4-10.1-19.2-20.6
	c-4.8-10.5-19.2-11-28.3-26.4"/>
<path class="st27" d="M564.9,770.4c8.9,25.3,14,51.8,15.3,78.6c1.4,42.2,15.8,66.1,7.7,102.6s-36.9,64.7-72.4,66.1
	c-35.5,1.4-87.2-30.2-115.5-68.1c-28.3-37.9-36.9-116.9-20.1-155.3C395.7,756.5,521.3,716.7,564.9,770.4z"/>
<path class="st6" d="M581.2,811.6c-13.8,0.6-26.8-6.6-33.6-18.7c0,0-31.2,71.9-81.5,76.7c-34.5,3.4-41.2-12.9-55.6,0
	c-14.4,12.9,27.3,87.7,14.4,148.6s-74.3,77.7-117.4,40.3c-54.2-47.4,4.8-56.6,15.8-123.7c11-67.1,0-117.9,35.5-156.7
	s70.5-62.8,126.5-57.5C541.4,725.8,564.9,734.4,581.2,811.6z"/>
<path class="st6" d="M433.1,860.5c0,0-3.4,25.4-1.9,33.6c1.4,8.2-14.9-9.1-29.7,1.9c-8.1,6.2-15.8-33.1,0-45
	C417.3,838.9,425.9,849,433.1,860.5z"/>
<path class="st27" d="M424,894.5c0,0-18.2-23.4-37.9-9.1c-19.7,14.4,5.8,58,35.5,54.6"/>
<path class="st27" d="M827.1,1601c0,0,27.3,22.5,37.9,30.2c10.5,7.7,3.8,14.4-7.7,14.4C845.8,1645.6,807.9,1615.4,827.1,1601z"/>
<path class="st27" d="M284,1076.6c-11.4,5.4-20.8,14.3-26.8,25.4c-19.3,36.3-24.9,78.3-15.8,118.4c17.7,81,59.4,202.7,78.1,231.5
	c18.7,28.8,106.4,86.3,168.2,124.6s109.3,59.4,120.8,68.1c11.5,8.6,34.5,30.7,78.1,35.9c43.6,5.3,58-10.5,71.4-7.2
	s36,18.7,48.4,17.3s5.8-11,1-15.8s-33.1-30.2-33.1-30.2c14.5,6.4,28.6,13.8,42.2,22c21.1,12.5,31.2,12.9,36.9,12.5
	c5.7-0.5,12.5-2.4,11.5-7.7c3.4,1.9,7.6,1.5,10.5-1c4.8-4.3,6.2-8.2-5.3-21.1c-11.5-12.9-40.7-47-55.1-61.8
	c-14.4-14.9-31.2-16.3-66.6-14.4c-35.5,1.9-85.3-5.7-86.8-4.3c-1.4,1.4-153.9-160.1-199.9-206.1c0,0-36.9-120.3-47.9-172.1
	C391.4,1086.7,336.8,1051.7,284,1076.6z"/>
<path class="st28" d="M865,1671.9c0,0,0-5.8-14.4-15.8c-14.4-10.1-36.9-31.6-44.1-36.9c-5.3-4.6-11.1-8.6-17.3-12"/>
<path class="st28" d="M774.4,1645.1c0,0-11-9.6-16.3-8.1"/>
<path class="st28" d="M461.9,1362.8c-15.1-0.7-29.7,5-40.3,15.8"/>
<path class="st6" d="M562.5,874.4c3.4,4.3,6.2,8.6,9.1,12.5c1.3,2,2.9,3.8,4.8,5.3l2.4,2.4l1.4,1c0.5,0.5,1.4,1,1.9,1.9
	c2.2,2.9,3.4,6.4,3.4,10.1c-0.1,3.1-1.1,6.1-2.9,8.6c-2.7,5.1-7.4,8.9-12.9,10.5c3.1-4,5.4-8.6,6.7-13.4c1.5-3.4,1.2-7.4-1-10.5
	c0-0.5-0.5-0.5-1-1c-0.5-0.6-1.2-1.1-1.9-1.4c-1.1-1-2.1-2.1-2.9-3.4c-1.8-2.2-3.2-4.6-4.3-7.2C563.6,884.8,562.6,879.6,562.5,874.4
	z"/>
<path class="st9" d="M547.7,960.7c-9.7,2.2-19.8-1.1-26.4-8.6"/>
<path class="st6" d="M515.1,896.4L515.1,896.4c4.1-0.5,6.9-4.3,6.4-8.3c0-0.2-0.1-0.5-0.1-0.8l-1-4.3c-0.5-4.1-4.3-6.9-8.3-6.4
	c-0.3,0-0.5,0.1-0.8,0.1l0,0c-4.1,0.6-6.9,4.3-6.4,8.4c0,0.2,0.1,0.5,0.1,0.8l1,4.3C507.1,894.2,510.9,896.9,515.1,896.4z"/>
<path class="st6" d="M573.5,886.8L573.5,886.8c4.1-0.5,6.9-4.3,6.4-8.3c0-0.3-0.1-0.5-0.1-0.8l-1-4.3c-0.5-4.1-4.3-6.9-8.3-6.4
	c-0.3,0-0.5,0.1-0.8,0.1l0,0c-4.1,0.5-6.9,4.3-6.4,8.3c0,0.2,0.1,0.5,0.1,0.8l1,4.3C565.4,884.8,569.3,887.5,573.5,886.8z"/>
<path class="st6" d="M510.8,846.6c3.7,0.3,6.9-2.4,7.2-6.1c0,0,0,0,0,0c0-0.5,0-1-0.1-1.5c-0.2-3.6-1.4-7.1-3.4-10.1
	c-4.3-4.8-21.1-3.4-33.6,6.2c-12.5,9.6-17.7,22-11.5,22.5c6.2,0.5,15.3-7.7,25.4-10.1C500.1,846,505.5,845.7,510.8,846.6z"/>
<path class="st6" d="M573.5,839.4c-1.4,1-3.4,0.6-4.3-0.8c-0.2-0.3-0.4-0.7-0.5-1.1c-1-3.8-1.9-9.6-0.5-11c2.4-2.9,9.6-1,11,3.4
	c1.4,4.3,1.9,6.7,0.5,6.7S575.9,837.5,573.5,839.4z"/>
<path class="st6" d="M393.8,907c-2.4-2.7-2.6-6.7-0.5-9.6c0.9-1.2,2-2.2,3.4-2.9c0.5,0,1-0.5,1.9-0.5c1.1-0.1,2.3,0.1,3.4,0.5
	c1.5,0.7,2.6,1.9,3.4,3.4c1.1,1.8,2.1,3.7,2.9,5.7c1.4,3.4,1.9,6.7,2.9,9.1c0.3,1.3,1,2.4,1.9,3.4c1.4,1,3.1,1.5,4.8,1.4
	c-1.5,1.5-3.6,2.4-5.7,2.4c-2.5-0.1-4.8-1.4-6.2-3.4c-2.3-3.1-4.3-6.5-5.7-10.1c-0.4-1.5-0.9-2.9-1.4-4.3c0-0.5-0.5-1,0-1l0,0
	c-0.9-0.1-1.8,0.2-2.4,1C394.8,903.4,394,905.1,393.8,907z"/>
<path class="st7" d="M1748.8,610.3h-168.7l-17.3,11c-4,2.5-9.3,1.2-11.7-2.8c-0.7-1.2-1.1-2.5-1.2-3.9V495.3c0-12.1,9.8-22,21.9-22
	h176.5c12.1,0,22,9.8,22,21.9v93.1c0.2,11.9-9.2,21.7-21.1,22L1748.8,610.3z"/>
<path class="st9" d="M1600.2,566.2l16.8-16.8c8.9-9,23.3-9.1,32.3-0.3l0.3,0.3c8.9,9,23.3,9.1,32.3,0.3c0,0,0,0,0,0l0.3-0.3
	l32.1-32.1"/>
<polygon class="st6" points="1719.6,526.9 1725.3,506.3 1704.7,512 "/>
<path class="st16" d="M3229.9,1167.2l-441.9-51.7c-11.2-1.1-19.5-11.1-18.4-22.3c0,0,0,0,0,0c0.1-1.2,0.3-2.4,0.7-3.5l102.1-466.8
	c3-11.5,12.6-20,24.4-21.6l461.1-48.4c8.9-1.6,17.3,4.4,18.9,13.2c0.4,2.1,0.3,4.3-0.2,6.4l-122.2,577.1
	C3251.6,1160.6,3241.2,1168.1,3229.9,1167.2z"/>
<path class="st6" d="M3212.1,1167.2l-445.8-52.2c-11.4-1-19.8-11.1-18.8-22.5c0.1-1.1,0.3-2.2,0.6-3.3l103-470.2
	c2.8-11.8,12.9-20.5,25-21.6l464.4-48.9c8.9-1.5,17.3,4.4,18.9,13.3c0.4,2.1,0.3,4.3-0.2,6.4L3235.6,1150
	C3233.3,1160.9,3223.2,1168.3,3212.1,1167.2z"/>
<path class="st8" d="M3047.7,716.2l-167.8,8.1c-3.5,0.3-6.5-2.4-6.8-5.9c0-0.6,0-1.2,0.1-1.8l13.4-62.3c1-3.6,4-6.2,7.7-6.7
	l169.2-14.4c3.3-0.5,6.4,1.8,6.9,5.1c0.1,0.9,0.1,1.7-0.2,2.6l-14.9,69C3054.3,713.4,3051.3,715.9,3047.7,716.2z"/>
<path class="st7" d="M2825.8,1065.6L2825.8,1065.6c-3.2-0.2-5.6-3-5.4-6.1c0-0.4,0.1-0.7,0.2-1l24.9-117c0.8-3.8,4.3-6.5,8.1-6.2
	l0,0c3.1,0.1,5.6,2.6,5.5,5.7c0,0.5-0.1,1-0.2,1.5l-24.9,117.4C2833.1,1063.6,2829.6,1066.1,2825.8,1065.6z"/>
<path class="st11" d="M2885.2,1064.2l29.7-138c0.8-3.8,4.3-6.5,8.1-6.2h1c3.3,0.1,5.9,2.8,5.9,6.1c0,0.4,0,0.7-0.1,1.1l-29.7,138
	c-1,3.9-4.6,6.5-8.6,6.2h-1c-3,0-5.5-2.4-5.6-5.4C2884.9,1065.4,2885,1064.8,2885.2,1064.2z"/>
<path class="st8" d="M2949.9,1069.5l33.6-157.7c1-4.2,4.7-7.2,9.1-7.2l0,0c3.6,0,6.4,2.8,6.5,6.4c0,0.6-0.1,1.2-0.2,1.8l-33.6,157.7
	c-1.1,4.3-5.1,7.3-9.6,7.2l0,0c-3.5-0.2-6.2-3.2-6-6.7C2949.7,1070.4,2949.8,1069.9,2949.9,1069.5z"/>
<path class="st8" d="M3189.6,771.8l11,23.4c-13.4,15.3-29.7,25-45.1,25c-29.7,0-45.5-36-35.9-80.5c9.6-44.6,41.2-82.4,71.4-84.8
	c15.8-1.4,27.8,6.7,35,21.1l-21.1,24.9c-3.3-8.4-11.7-13.6-20.6-12.9c-18.2,1.4-37.4,24-43.6,51.3c-6.2,27.3,3.8,48.9,22,48.4
	C3173.4,786,3183,780.3,3189.6,771.8z"/>
<path class="st11" d="M3230.8,734.4c-4.9,22.2-15.1,43-29.7,60.4l-11-23.4c8.9-10.3,15-22.6,17.7-35.9c3-11.6,2.2-23.9-2.4-35
	l21.1-24.9C3233.7,690.3,3235.6,710.9,3230.8,734.4z"/>
<path class="st8" d="M3061.6,1004.3c-9.6,44.6,6.2,80.5,36,80.5c15.3,0,31.6-9.6,45.1-25l-11-23.4c-6.6,8.4-16.2,13.9-26.8,15.3
	c-18.2,0.5-27.8-21.6-22-48.4c2.5-11.7,7.5-22.7,14.9-32.1l-10.1-22C3074.8,965.3,3066,984.2,3061.6,1004.3z"/>
<path class="st11" d="M3126.3,952.5c8.9-0.6,17.3,4.6,20.6,12.9l21.1-25c-7.2-14.4-19.7-22.5-35-21.1c-16.3,1.4-32.6,12.9-46,29.7
	l10.1,22C3105.7,960.7,3115.8,953,3126.3,952.5z"/>
<path class="st7" d="M3172.3,1000c-4.9,22.2-15.1,43-29.7,60.4l-11-23.4c8.9-10.3,15-22.6,17.7-36c3-11.6,2.2-23.9-2.4-35l21.1-25
	C3175.2,955.4,3177.6,976.5,3172.3,1000z"/>
<line class="st14" x1="2867.5" y1="766.1" x2="2985.4" y2="761.7"/>
<line class="st14" x1="2860.8" y1="792.9" x2="3029.5" y2="791"/>
<line class="st14" x1="2855.5" y1="820.7" x2="3026.1" y2="820.7"/>
<path class="st16" d="M3296.5,594.9c1-3.8-0.5-6.7-3.4-6.7c-3.4,1.1-5.9,4.1-6.2,7.7c-1,3.8,0.5,6.7,3.4,6.7
	C3293.7,601.6,3296.1,598.5,3296.5,594.9z"/>
<path class="st16" d="M3324.2,592.6c1-3.8-1-6.7-3.4-6.7c-3.5,1.2-6,4.1-6.7,7.7c-1,3.8,1,6.7,3.4,6.7
	C3321.2,599.4,3323.9,596.3,3324.2,592.6z"/>
<path class="st6" d="M1549.9,1654.2v1.4c0,4.7-3.8,8.6-8.5,8.6h-406.5c-4.7,0-8.6-3.8-8.6-8.5v-0.1l0,0c0.2-3,1.4-5.9,3.4-8.1
	l78.6-77.6c3.5-3.6,8.4-5.7,13.4-5.7h267c6.9,0.1,13.2,3.7,16.8,9.6l43.1,74.3C1549.1,1650,1549.6,1652.1,1549.9,1654.2z"/>
<path class="st16" d="M1347.1,1633.6c0,1.4-2.9,2.9-6.7,2.9c-3.8,0-6.7-1.4-6.7-2.9s2.9-2.9,6.7-2.9
	C1344.3,1630.8,1347.1,1632.2,1347.1,1633.6z"/>
<path class="st8" d="M2962.9,2080.3c0,0-36.9-79.1,55.6-128.9c92.5-49.8,221-0.5,209.5,16.8c-17.9,28.1-38.3,54.6-60.9,79.1
	C3137.8,2079.4,3053.9,2129.2,2962.9,2080.3z"/>
<path class="st9" d="M3211.6,1964.8c0,0-203.2-45.5-249.2,115.5c-46,161-31.6,315.4-31.6,315.4"/>
<path class="st6" d="M2779.8,2261.5l33.1,389.7c0,14.9,60.4,26.4,135.2,26.4c74.8,0,135.2-12,135.2-26.4l33.1-389.7H2779.8z"/>
<ellipse class="st30" cx="2948" cy="2261.5" rx="167.8" ry="25.4"/>
<path class="st8" d="M2905.4,2180.5c0,0-54.2-26.8-89.1,33.6c-35,60.4-9.1,151.5,14.9,164.9c23.9,13.4,123.7-32.1,123.7-123.7
	C2954.7,2173.8,2905.4,2180.5,2905.4,2180.5z"/>
<path class="st9" d="M2905.4,2180.5c0,0-54.2-3.8-70.5,186"/>
<path class="st8" d="M2864.1,2069.8c0,0-57-88.7-171.1-31.6c-114.1,57-110.7,214.3-93,223.4
	C2617.8,2270.6,2884.8,2177.6,2864.1,2069.8z"/>
<path class="st9" d="M2954.7,2255.3c0,0-35.5-124.6-90.6-186c-55.1-61.3-226.2,9.1-256.4,157.2"/>
<path class="st8" d="M3018.5,2119.6c0,0-48.4-16.8-70.5,43.1c-21.6,58.5,3.8,191.7,128.5,232c6.6,2,13.7-0.1,18.2-5.3
	c31.2-37.7,48-85.3,47.4-134.2C3141.7,2158,3088,2087.5,3018.5,2119.6z"/>
<path class="st9" d="M3018.5,2119.6c0,0,100.7,49.4,63.7,256.9"/>
<path class="st8" d="M1999,1478.3c0,0,1.9,60.4,89.2,66.1c87.2,5.8,256-13.4,289-22.5c33.1-9.1,31.2-62.3,10.1-77.2
	c-21.1-14.8-147.6-21.6-212.3-31.2c-14.9-2.4-32.1-5.3-49.8-6.7c-15.1-1.6-30.3-2.2-45.5-1.9
	C2035.9,1406.9,1999.5,1423.7,1999,1478.3z"/>
<path class="st9" d="M1998,1461.5c0,0,0-12.5,18.7-9.1c40.7,7.7,75.3,95.4,33.6,84.4"/>
<path class="st9" d="M2174.4,1413.6c-14.9-2.4-32.1-5.3-49.8-6.7c-15.1-1.6-30.3-2.2-45.5-1.9"/>
<path class="st8" d="M2602.4,1133.7c15.8,5.3,27.3,17.7,47.5,78.6c26.4,79.6,59.9,248.3,42.7,293.8c-17.3,45.5-51.8,69-167.8,74.3
	c-116,5.3-228.6-3.8-243.5-3.8s-39.8-54.6-24-90.6c0,0,98.3-24,153.9-38.8c55.6-14.9,117-30.7,142.4-33.6c0,0-41.2-101.1-54.6-136.6
	c-13.4-35.5-2.4-95.9,29.2-123.2S2589,1129.4,2602.4,1133.7z"/>
<path class="st9" d="M2553.1,1413.6c0,0,47.5-9.6,75.7,0"/>
<path class="st9" d="M2697.3,1478.3c0,0-10.1-24-50.8,2.9c-32.1,21.1-41.7,84.4-6.7,80.5"/>
<path class="st7" d="M2266.9,1486.9c0,0-25.4,2.4-51.3,2.4c-25.9,0-60.9,4.3-69,8.2c-8.1,3.8-90.6,86.3-88.7,97.3
	c1.9,11,17.3,3.8,30.7-5.3c13.4-9.1,38.3-34,43.6-37.4c-5.2,12.5-9.5,25.3-12.9,38.3c-6.2,23-12.5,46-6.2,49.9
	c8.1,4.8,15.8-3.4,18.2-8.2c0,0-0.5,12,9.1,12.5s18.7-17.7,26.4-33.1c7.2-12.4,15.4-24.3,24.4-35.5c0,0-7.7,24.4-10.5,37.9
	s-4.8,29.2,2.4,30.7c11,2.4,21.1-30.2,27.3-42.7c6.2-12.5,30.7-4.3,48.4-15.3c8.7-5.9,18-10.7,27.8-14.4c0,0,12-12,12-37.9
	C2298.6,1508.5,2277,1486,2266.9,1486.9z"/>
<path class="st21" d="M2130.3,1632.6c0,0,23-67.1,32.6-80c9.6-12.9,12.9-13.9,15.8-15.8"/>
<path class="st21" d="M2131.3,1552.6c0,0,3.8-7.7,10.1-19.2c2.9-4.3,6.5-8.2,10.5-11.5"/>
<path class="st21" d="M2190.2,1576.1c0,0,6.7-16.3,13.4-18.2"/>
<path class="st7" d="M2343.1,1438c12.5-4.2,24.9-9,36.9-14.4c17.7-8.1,25-11.5,38.8-12.5c13.9-1,57.5-1.4,63.7,2.4
	c6.3,3.8,14.4,22,18.7,31.2s-9.6,45.1-9.6,45.1s6.2,31.6-1.4,35c-4.8,1.9-9.1,1-15.3-15.8c0,0,4.3,14.4-4.3,15.3
	c-8.6,1-18.2-24-24.4-35c-5.4-8.8-11.5-17.1-18.2-25c0,0,5.3,17.3,6.2,23c0.9,5.7,4.8,20.6,2.4,26.4c-2.4,5.7-11-1.9-19.7-21.6
	c-8.6-19.7-11.5-26.4-16.8-25.9c-29.7,2.9-27.8-3.8-42.2-4.8l-31.6,8.1C2325.9,1469.2,2322.5,1450,2343.1,1438z"/>
<path class="st21" d="M2474.9,1508.5c0,0-9.6-31.2-12.9-40.7c-4.1-9.1-8.9-17.9-14.4-26.4"/>
<path class="st21" d="M2491.7,1489.3c0,0-5.7-33.5-8.1-41.7c-1.7-5.1-3.8-10.1-6.2-14.9"/>
<path class="st21" d="M2427.5,1463.9c0,0-2.9-9.6-4.3-12.5"/>
</svg>
