<svg id="Слой_1" data-name="Слой 1" xmlns="http://www.w3.org/2000/svg" xmlns:xlink="http://www.w3.org/1999/xlink" viewBox="0 0 7151.71 3235.95"><defs><style>.cls-1,.cls-12,.cls-16,.cls-17,.cls-20,.cls-22,.cls-23,.cls-24,.cls-30,.cls-4,.cls-6{fill:none;}.cls-2{fill:#fbcc45;}.cls-3{clip-path:url(#clip-path);}.cls-4,.cls-5,.cls-6{stroke:#601515;}.cls-12,.cls-16,.cls-17,.cls-20,.cls-22,.cls-23,.cls-24,.cls-30,.cls-4,.cls-6{stroke-linecap:round;stroke-linejoin:round;}.cls-12,.cls-16,.cls-17,.cls-20,.cls-22,.cls-24,.cls-30,.cls-4{stroke-width:1.8px;}.cls-5{fill:#b8d8c7;}.cls-28,.cls-5{stroke-miterlimit:10;}.cls-6{stroke-width:1.8px;}.cls-7{fill:#b0d7c0;}.cls-28,.cls-8{fill:#601615;}.cls-9{fill:#22272e;}.cls-10{fill:#f4c2c9;}.cls-11{fill:#a83d0c;}.cls-12,.cls-23{stroke:#22272e;}.cls-13{fill:#5f0101;}.cls-14{fill:#ffe779;}.cls-15{fill:#b28d93;}.cls-16{stroke:#896068;}.cls-17{stroke:#63737a;}.cls-18{fill:#896068;}.cls-19{fill:#63737a;}.cls-20{stroke:#fff;}.cls-21{fill:#f8ab5d;}.cls-22{stroke:#f8ab5d;}.cls-23{stroke-width:4px;}.cls-24{stroke:#e26e85;}.cls-25{fill:#fff;}.cls-26{fill:#e26e85;}.cls-27{fill:#e86484;}.cls-28{stroke:#601715;}.cls-29{fill:#ffe7ca;}.cls-30{stroke:#ffbf94;}.cls-31{fill:#ffbf94;}.cls-32{fill:#6dafa7;}</style><clipPath id="clip-path" transform="translate(952.49 -112.46)"><path class="cls-1" d="M4068.08,2758.31l-3053.26-87.49a282.24,282.24,0,0,1-273-254.24L594.41,960.41C578.76,805,692.1,666.25,847.55,650.6q12-1.2,24-1.39l3398.51-47c156.33-2.11,284.76,122.9,286.88,279.22a283.78,283.78,0,0,1-2.1,38.44L4357,2511.11C4338.86,2655.7,4213.72,2762.77,4068.08,2758.31Z"/></clipPath></defs><path class="cls-2" d="M4068.08,2758.31l-3053.26-87.49a282.24,282.24,0,0,1-273-254.24L594.41,960.41C578.76,805,692.1,666.25,847.55,650.6q12-1.2,24-1.39l3398.51-47c156.33-2.11,284.76,122.9,286.88,279.22a283.78,283.78,0,0,1-2.1,38.44L4357,2511.11C4338.86,2655.7,4213.72,2762.77,4068.08,2758.31Z" transform="translate(952.49 -112.46)"/><g class="cls-3"><path class="cls-4" d="M1576.15,3023.12H-863.52a88.07,88.07,0,0,1-88.07-88.07v-1384A88.08,88.08,0,0,1-863.52,1463H1576.15a88.09,88.09,0,0,1,88.08,88.08V2934.46A88.49,88.49,0,0,1,1576.15,3023.12Z" transform="translate(952.49 -112.46)"/><path class="cls-4" d="M4800.27,2929.76H2339.47a88.07,88.07,0,0,1-88.08-88.07V820.08A88.08,88.08,0,0,1,2339.47,732h2460.8a88.08,88.08,0,0,1,88.08,88.08h0V2841.69A88.07,88.07,0,0,1,4800.27,2929.76Z" transform="translate(952.49 -112.46)"/><path class="cls-4" d="M902.09,1463H782.89a25.37,25.37,0,0,1-25.25-22.31l-9.39-84.55a25.41,25.41,0,0,1,22.51-28,25,25,0,0,1,2.74-.15h138a25.51,25.51,0,0,1,25.25,28.18l-9.4,84.55A25.35,25.35,0,0,1,902.09,1463Z" transform="translate(952.49 -112.46)"/><path class="cls-5" d="M828.1,1328.56s-47-4.69-56.37-68.11c0,0,42.28,12.33,55.79,42.28,0,0,5.87-66.94,37.57-73.4,0,0,14.1,49.91-8.22,74.57,0,0,17-28.18,60.48-27.59a79.85,79.85,0,0,1-54,51.67" transform="translate(952.49 -112.46)"/><path class="cls-4" d="M1558,1754.85H1028.33a24.86,24.86,0,0,1-24.67-24.67V1569.3a24.85,24.85,0,0,1,24.67-24.66H1558a24.84,24.84,0,0,1,24.66,24.66v160.88A24.85,24.85,0,0,1,1558,1754.85Z" transform="translate(952.49 -112.46)"/><path class="cls-5" d="M1353.62,1601.6H1231.48a9,9,0,0,1-8.8-8.81h0a9,9,0,0,1,8.8-8.81h122.14a9,9,0,0,1,8.8,8.81h0a8.63,8.63,0,0,1-8.45,8.81Z" transform="translate(952.49 -112.46)"/><path class="cls-4" d="M1558,2023.77H1028.33a24.85,24.85,0,0,1-24.67-24.66V1838.22a24.85,24.85,0,0,1,24.67-24.66H1558a24.84,24.84,0,0,1,24.66,24.66v160.89A24.84,24.84,0,0,1,1558,2023.77Z" transform="translate(952.49 -112.46)"/><path class="cls-5" d="M1353.62,1870.52H1231.48a9,9,0,0,1-8.8-8.81h0a9,9,0,0,1,8.8-8.81h122.14a9,9,0,0,1,8.8,8.81h0a8.63,8.63,0,0,1-8.45,8.81Z" transform="translate(952.49 -112.46)"/><path class="cls-4" d="M4277.11,2214H3747.49a24.83,24.83,0,0,1-24.66-24.66V2028.46a24.83,24.83,0,0,1,24.66-24.66h529.62a24.84,24.84,0,0,1,24.66,24.66v160.89A24.07,24.07,0,0,1,4278.3,2214Z" transform="translate(952.49 -112.46)"/><path class="cls-5" d="M4073.36,2060.17H3951.23a9,9,0,0,1-8.8-8.81h0a9,9,0,0,1,8.8-8.8h122.13a9,9,0,0,1,8.81,8.8h0a8.63,8.63,0,0,1-8.45,8.81Z" transform="translate(952.49 -112.46)"/><path class="cls-4" d="M3597.17,2214H3067.55a24.84,24.84,0,0,1-24.66-24.66V2028.46a24.84,24.84,0,0,1,24.66-24.66h529.62a24.83,24.83,0,0,1,24.66,24.66v160.89a24.07,24.07,0,0,1-23.47,24.66Z" transform="translate(952.49 -112.46)"/><path class="cls-5" d="M3393.43,2060.17H3271.3a9,9,0,0,1-8.81-8.81h0a9,9,0,0,1,8.81-8.8h122.13a9,9,0,0,1,8.8,8.8h0a8.63,8.63,0,0,1-8.45,8.81Z" transform="translate(952.49 -112.46)"/><path class="cls-4" d="M882.71,1754.85H353.09a24.86,24.86,0,0,1-24.67-24.67V1569.3a24.85,24.85,0,0,1,24.67-24.66H882.71a24.84,24.84,0,0,1,24.66,24.66v160.88A24.85,24.85,0,0,1,882.71,1754.85Z" transform="translate(952.49 -112.46)"/><path class="cls-5" d="M678.38,1601.6H556.24a9,9,0,0,1-8.8-8.81h0a9,9,0,0,1,8.8-8.81H678.38a9,9,0,0,1,8.8,8.81h0a8.63,8.63,0,0,1-8.45,8.81Z" transform="translate(952.49 -112.46)"/><path class="cls-4" d="M882.71,2023.77H353.09a24.85,24.85,0,0,1-24.67-24.66V1838.22a24.85,24.85,0,0,1,24.67-24.66H882.71a24.84,24.84,0,0,1,24.66,24.66v160.89A24.84,24.84,0,0,1,882.71,2023.77Z" transform="translate(952.49 -112.46)"/><path class="cls-5" d="M678.38,1870.52H556.24a9,9,0,0,1-8.8-8.81h0a9,9,0,0,1,8.8-8.81H678.38a9,9,0,0,1,8.8,8.81h0a8.63,8.63,0,0,1-8.45,8.81Z" transform="translate(952.49 -112.46)"/><path class="cls-4" d="M5048.64,1347.94H2377a27.31,27.31,0,0,1-27-27V853a27.31,27.31,0,0,1,27-27h2671.6a27.29,27.29,0,0,1,27,27v468A27.29,27.29,0,0,1,5048.64,1347.94Z" transform="translate(952.49 -112.46)"/><path class="cls-4" d="M5048.64,1928.65H2377a27.31,27.31,0,0,1-27-27v-468a27.31,27.31,0,0,1,27-27h2671.6a27.29,27.29,0,0,1,27,27v468A27.29,27.29,0,0,1,5048.64,1928.65Z" transform="translate(952.49 -112.46)"/><rect class="cls-4" x="3482.2" y="940.13" width="58.13" height="295.34"/><rect class="cls-4" x="3539.74" y="1020.57" width="60.48" height="214.9"/><rect class="cls-4" x="5234.3" y="1520.25" width="58.13" height="295.34"/><rect class="cls-4" x="5291.84" y="1600.69" width="60.48" height="214.9"/><rect class="cls-4" x="5115.69" y="1520.25" width="58.13" height="295.34"/><rect class="cls-6" x="3943.9" y="1746.41" width="295.34" height="58.13" transform="translate(2119.23 5030.29) rotate(-72.48)"/><rect class="cls-4" x="5173.82" y="1600.69" width="60.48" height="214.9"/><rect class="cls-4" x="4449.85" y="940.13" width="58.13" height="295.34"/><rect class="cls-4" x="4507.98" y="1020.57" width="60.48" height="214.9"/><rect class="cls-4" x="3876.19" y="940.13" width="58.13" height="295.34"/><rect class="cls-6" x="2704.59" y="1165.89" width="295.34" height="58.13" transform="translate(1806.59 3442.71) rotate(-72.48)"/><rect class="cls-4" x="3933.73" y="1020.57" width="60.48" height="214.9"/><path class="cls-5" d="M4105.07,1090.76l6.46-87.49a9.69,9.69,0,0,0-8.76-10.53,8.32,8.32,0,0,0-1.22,0h-50.5a10,10,0,0,0-10,10.08c0,.16,0,.32,0,.48l6.46,87.49s-52.85,34.06-52.26,62.24c.59,21.73,13.5,125.66,19.38,171.45a25.37,25.37,0,0,0,25.24,22.32h72.81a25.38,25.38,0,0,0,25.25-22.32c5.87-45.79,18.79-149.72,19.38-171.45C4157.92,1124.82,4105.07,1090.76,4105.07,1090.76Z" transform="translate(952.49 -112.46)"/><line class="cls-4" x1="1538.69" y1="2370.47" x2="7150.81" y2="2370.47"/></g><path class="cls-7" d="M1174.53,1977.38,1100,3020.19a15.45,15.45,0,0,0,14.41,16.41l.86,0h0a14.91,14.91,0,0,0,15.26-14.09l89.84-1045.16Z" transform="translate(952.49 -112.46)"/><path class="cls-8" d="M4193.15,1977.38l74.57,1042.81a15.46,15.46,0,0,1-14.42,16.41l-.85,0h0a14.92,14.92,0,0,1-15.27-14.09l-89.83-1045.16Z" transform="translate(952.49 -112.46)"/><path class="cls-9" d="M1827.46,686.79s52.25,106.28,89.83,202,44,184.37,7.64,203.16c-51.09,26.42-108,28.18-173.8-96.3S1734.69,589.91,1827.46,686.79Z" transform="translate(952.49 -112.46)"/><path class="cls-10" d="M1546.21,2628c.58,7.05-20.56,126.24-19.38,135.05s-89.84,31.71-133.87-7.63c0,0,6.45-155.6,6.45-179.09S1542.1,2562.2,1546.21,2628Z" transform="translate(952.49 -112.46)"/><path class="cls-11" d="M1528.59,2741.87s10,44,24.66,71.05,95.71,102.75,86.9,128.59-83.38,28.18-140.92,25.83S1415.85,2945,1393,2903.93s-7.64-68.7-4.7-148.55c0,0,1.76-13.51,5.28-15.86,0,0,11.75,20.55,25.25,22.31s27-31.12,59.89-34.64,37,29.36,40.52,29.36S1527.42,2751.27,1528.59,2741.87Z" transform="translate(952.49 -112.46)"/><path class="cls-12" d="M1582,2868.11s-41.1-17.61-117.43,11.16" transform="translate(952.49 -112.46)"/><path class="cls-12" d="M1567.34,2835.82s-41.1-17.62-117.43,11.15" transform="translate(952.49 -112.46)"/><path class="cls-10" d="M1839.79,2607.41c.58,7.05-20.55,126.24-19.38,135.05s-89.83,31.7-133.87-7.64c0,0,6.46-155.59,6.46-179.08S1836.26,2541.65,1839.79,2607.41Z" transform="translate(952.49 -112.46)"/><path class="cls-11" d="M1822.76,2720.73s10,44,24.66,71.05,95.71,102.75,86.9,128.59-83.38,28.18-140.92,25.83-83.38-22.31-106.28-63.41-7.63-68.7-4.69-148.55c0,0,1.76-13.51,5.28-15.86,0,0,11.75,20.55,25.25,22.32s27-31.12,59.89-34.65,37,29.36,40.52,29.36S1821.59,2730.71,1822.76,2720.73Z" transform="translate(952.49 -112.46)"/><path class="cls-12" d="M1875.6,2847.56s-41.1-17.62-117.43,11.16" transform="translate(952.49 -112.46)"/><path class="cls-12" d="M1861.51,2815.27s-41.1-17.62-117.43,11.15" transform="translate(952.49 -112.46)"/><path class="cls-13" d="M1283.74,1340.31s-17.61,102.75,32.88,344.08c15.27,73.39,27.6,169.1,36.41,269.5,20.55,229,2.93,462.69-7.64,554.88-15.26,132.11,52.26,157.36,125.07,163.23s99.82-27.6,103.34-64.59,47-530.21,63.42-641.77,18.2-264.23,12.91-286.54,58.13-17.61,31.71-293.58C1656,1108.38,1304.88,1266.91,1283.74,1340.31Z" transform="translate(952.49 -112.46)"/><path class="cls-14" d="M1789.29,1353.81s88.08,377,98.65,494.39-11.16,693.45-10.57,728.09-31.12,65.76-109.8,67.52-110.39-50.49-109.8-78.68c1.76-93.94,2.93-468-2.94-525.51s-91.6-340.56-108.62-367.56-54.61-230.17,19.37-265.4S1755.82,1318.58,1789.29,1353.81Z" transform="translate(952.49 -112.46)"/><path class="cls-11" d="M1678.32,601.65S1528,596.37,1458.13,587s-200.22-10-251.89,95.13,108.62,156.77,104.51,231.34-14.68,200.81-14.68,200.81-14.68,141.51-31.12,194.94,14.68,80.44,29.36,85.14,167.34,35.81,283,29.35,210.21-32.88,218.43-58.71-5.28-101.58,0-180.85,20.55-217.84,20.55-270.68,25.84-186.72,0-241.91S1728.23,603.42,1678.32,601.65Z" transform="translate(952.49 -112.46)"/><path class="cls-9" d="M1481,539.41s-24.07,3.53-32.29,19.38a100.54,100.54,0,0,0-11.16,47c.59,18.79,28.77,70.46,110.39,79.86s111-30.53,114.49-45.8-2.34-56.37-8.22-63.41-14.09-15.27-43.45-18.79C1582,552.92,1490.42,535.89,1481,539.41Z" transform="translate(952.49 -112.46)"/><path class="cls-15" d="M1599.05,896.41a402.53,402.53,0,0,0,36.4-44c12.33-18.79,28.78-39.34,42.28-47s41.69-12.92,49.32-17,16.44,10.57,0,24.08-9.39,52.84-32.29,74S1607.27,920.48,1599.05,896.41Z" transform="translate(952.49 -112.46)"/><path class="cls-14" d="M1769.92,548.81l296.51-19.38a13.92,13.92,0,0,1,14.79,13,13.14,13.14,0,0,1-.11,2.87L2008.3,992.71a22.41,22.41,0,0,1-19.37,18.78l-283.6,38.76a14.33,14.33,0,0,1-15.81-12.68,14.94,14.94,0,0,1,0-2.59l59.89-466.21A21.14,21.14,0,0,1,1769.92,548.81Z" transform="translate(952.49 -112.46)"/><path class="cls-11" d="M1979.53,550l-112.15,5.87a6.93,6.93,0,0,1-7.08-6.77,8.25,8.25,0,0,1,0-.86l1.76-11.74a9.39,9.39,0,0,1,8.81-8.22l112.15-5.87a6.93,6.93,0,0,1,7.08,6.77,8.25,8.25,0,0,1,0,.86l-1.76,11.74A10,10,0,0,1,1979.53,550Z" transform="translate(952.49 -112.46)"/><path class="cls-15" d="M1325.43,1003.27s37-148.55,46.39-205.5-26.43-120.37-81.62-134.46c-64.59-15.86-84.55,18.2-84.55,18.2s-25.84,45.21-51.67,187.3-40.52,274.21,51.67,306.5,281.25-72.8,341.73-118,82.79-64,94.53-66.93,58.13,9.39,82.79-18.21,45.8-49.32,48.15-49.32,61.07,8.81,71.05,1.18c11.15-8.81-5.29-17.62-17-19.38s-45.21-12.92-45.21-12.92,26.42-8.22,45.21-15.26,38.17-11.16,37-21.14-12.92-8.81-24.66-9.4a127.45,127.45,0,0,0-27.6,2.94s32.3-8.81,40.52-18.2,1.17-17.62-15.86-15.86a260.27,260.27,0,0,0-32.29,5.88s32.88-2.94,30.53-17.62c-1.76-10-31.12-4.7-50.49-2.35A574.47,574.47,0,0,0,1718.83,813,212.9,212.9,0,0,0,1683,824.78c-20.55,10-72.22,59.3-80.44,69.28S1491,920.48,1406.46,939.27s-133.87,34.06-159.71,58.13Z" transform="translate(952.49 -112.46)"/><path class="cls-16" d="M1785.18,800.12A572.52,572.52,0,0,0,1720,812.45a213.47,213.47,0,0,0-35.82,11.74" transform="translate(952.49 -112.46)"/><path class="cls-9" d="M1620.19,1003.27c-14.68,10.57-37,28.19-72.22,54-60.48,44.63-249.55,149.73-341.73,118s-76.92-164.4-51.67-306.5,51.67-187.3,51.67-187.3,20-34.06,84.55-18.2c54.6,13.5,91,76.91,81.61,134.46-5.87,35.81-22.9,108.62-34.64,157.36,20.55-5.87,44-11.16,71-17,59.89-12.92,129.76-25.25,167.93-34.64a99.48,99.48,0,0,0,6.46,63.41C1596.7,997.4,1620.19,1003.27,1620.19,1003.27Z" transform="translate(952.49 -112.46)"/><path class="cls-17" d="M1148.69,1119.53s-1.17-31.7,37.58-27.59,139.16,40.51,110.39,83.37" transform="translate(952.49 -112.46)"/><path class="cls-17" d="M1529.76,914a113.11,113.11,0,0,0,7,68.69,121.77,121.77,0,0,0,44.63,50.5" transform="translate(952.49 -112.46)"/><path class="cls-15" d="M1476.33,447.23s-1.76,75.16-6.46,122.13,82.79,66.35,125.07,58.13,48.73-21.14,48.73-21.14-3.52-63.41,0-86.31S1476.92,422.57,1476.33,447.23Z" transform="translate(952.49 -112.46)"/><path class="cls-18" d="M1642.5,589.32c-.59-9.39-.59-21.72-.59-34.05-35.81,1.76-67.52-31.12-93.36-58.13C1541.51,553.51,1590.24,589.91,1642.5,589.32Z" transform="translate(952.49 -112.46)"/><path class="cls-9" d="M1711.79,347.41S1741.14,332.14,1750,284s-1.76-119.78-34.64-128-10,92.77-32.3,111.56S1711.79,321,1711.79,347.41Z" transform="translate(952.49 -112.46)"/><path class="cls-15" d="M1710.61,264.62a367.45,367.45,0,0,1,6.46,99.82c-3.52,59.89,8.22,160.88-57,190.24s-151.49-1.17-186.72-97.47-35.82-192,18.2-233.1S1691.23,188.29,1710.61,264.62Z" transform="translate(952.49 -112.46)"/><path class="cls-9" d="M1480.44,380.29s20-6.46,20.55-42.27,19.38-66.35,58.13-55.78,92.77,40.51,124.48,39.92c37.58-1.17,49.32-41.69,52.26-91.59s-13.51-81-32.88-75.75-35.82,21.73-59.89-8.81c-32.88-41.1-62.24-39.92-85.73-20.55-41.1,34.65-31.71,52.85-69.28,38.17-21.73-8.81-37-6.46-47.56,34.05s-6.46,51.67-31.71,48.15-9.4,130.35,31.71,160.3C1441.1,406.13,1472.81,377.36,1480.44,380.29Z" transform="translate(952.49 -112.46)"/><path class="cls-9" d="M1682.43,390.27c2.35,6.46,3.52,12.92,5.28,18.79s3.52,12.33,5.29,17a31.12,31.12,0,0,1,2.93,11.16,16.48,16.48,0,0,1-3.52,11.74,22.4,22.4,0,0,1-20,7.63,31.91,31.91,0,0,0,12.91-11.74,16,16,0,0,0-2.35-14.09,51.63,51.63,0,0,1-4.11-20.55A110,110,0,0,1,1682.43,390.27Z" transform="translate(952.49 -112.46)"/><path class="cls-9" d="M1625.47,339.19a7.05,7.05,0,0,0,7.64-9.39c-1.77-5.29-2.94-10-8.81-11.16a77.74,77.74,0,0,0-54.61,11.16c-15.85,11.74-.59,14.09,19.38,10A127.58,127.58,0,0,1,1625.47,339.19Z" transform="translate(952.49 -112.46)"/><ellipse class="cls-12" cx="2550.96" cy="284.27" rx="58.13" ry="60.48"/><ellipse class="cls-12" cx="2672.5" cy="284.27" rx="37.58" ry="55.19"/><path class="cls-12" d="M1683.6,384.4s-7.63-10.57-28.18,0" transform="translate(952.49 -112.46)"/><line class="cls-12" x1="2495.18" y1="267.24" x2="2425.3" y2="261.96"/><path class="cls-12" d="M1633.69,498.31a52.06,52.06,0,0,1-39.92-27.59" transform="translate(952.49 -112.46)"/><path class="cls-9" d="M1607.27,419.05h0a9.86,9.86,0,0,0,10.55-9.13,2.45,2.45,0,0,0,0-.27l.59-5.87a9.86,9.86,0,0,0-9.13-10.55l-.27,0h0a9.86,9.86,0,0,0-10.55,9.12c0,.09,0,.18,0,.27l-.58,5.88A9.56,9.56,0,0,0,1606.4,419Z" transform="translate(952.49 -112.46)"/><path class="cls-9" d="M1694.17,420.81h0a9.86,9.86,0,0,0,10.55-9.13,2.45,2.45,0,0,0,0-.27l.59-5.87A9.86,9.86,0,0,0,1696.2,395l-.27,0h0a9.86,9.86,0,0,0-10.55,9.13c0,.09,0,.18,0,.27l-.58,5.87A10.74,10.74,0,0,0,1694.17,420.81Z" transform="translate(952.49 -112.46)"/><path class="cls-15" d="M1478.09,382.05s-17-29.35-39.92-21.72-22.32,42.86-11.16,64a64.59,64.59,0,0,0,63.41,32.29" transform="translate(952.49 -112.46)"/><path class="cls-9" d="M1437.58,403.19a16.61,16.61,0,0,1-1.17-9.39,10.5,10.5,0,0,1,2.34-5.29,9.44,9.44,0,0,1,6.46-2.93,13.72,13.72,0,0,1,10.57,4.69,42,42,0,0,1,5.87,8.22,100.86,100.86,0,0,1,5.87,15.27,21.59,21.59,0,0,0,2.94,5.29c1.18,1.17,4.11,1.17,7,1.17a9.28,9.28,0,0,1-8.81,4.11,19.47,19.47,0,0,1-8.81-5.87,128.64,128.64,0,0,1-8.22-14.68c-2.35-4.7-4.7-8.22-7-8.81-.59,0-1.18-.59-1.77,0s-1.17.59-1.76,1.76A54.63,54.63,0,0,0,1437.58,403.19Z" transform="translate(952.49 -112.46)"/><path class="cls-16" d="M1785.18,892.3a130,130,0,0,0-19.38-3.52,45.6,45.6,0,0,0-14.09,0" transform="translate(952.49 -112.46)"/><path class="cls-16" d="M1812.19,848.26s-59.89,12.92-65.17,17" transform="translate(952.49 -112.46)"/><path class="cls-16" d="M1805.14,820.08s-41.1,8.81-43.45,9.39c-7.63,2.35-21.72,6.46-21.72,6.46" transform="translate(952.49 -112.46)"/><path class="cls-12" d="M1337.76,1581.63s68.7-29.36,68.7-129.17" transform="translate(952.49 -112.46)"/><path class="cls-8" d="M679,2399l-34.05,706.94a13.74,13.74,0,0,0,12.76,14.65c.44,0,.89,0,1.33,0h0a14.09,14.09,0,0,0,14.09-12.92l59.3-709.29H679Z" transform="translate(952.49 -112.46)"/><path class="cls-8" d="M1014.23,2399l34.06,706.94a13.74,13.74,0,0,1-12.76,14.65c-.45,0-.89,0-1.33,0h0a14.09,14.09,0,0,1-14.09-12.92L960.8,2398.38h53.43Z" transform="translate(952.49 -112.46)"/><path class="cls-8" d="M908,2259.81l-.59,707.53a14,14,0,0,1-14,14.11l-.72,0h0a15,15,0,0,1-13.5-13.5l-24.67-711.06Z" transform="translate(952.49 -112.46)"/><path class="cls-9" d="M1037.72,2330.27a1472.48,1472.48,0,0,0-199.64-12.33,1478.93,1478.93,0,0,0-199.63,12.33H528.06v39.92c0,28.78,138.57,52.26,310,52.26s310-23.48,310-52.26v-39.92Z" transform="translate(952.49 -112.46)"/><ellipse class="cls-19" cx="1790.58" cy="2217.8" rx="310.02" ry="52.26"/><path class="cls-9" d="M1059.45,2882.2s-7.64,56.37-18.21,73.4-28.18,59.3-27.59,69.28c1.76,18.21,58.13,64.59,91,92.78s59.89,29.35,120.95,34.05,85.73-4.7,85.73-23.49-12.33-27.59-39.34-58.71-69.29-75.16-83.38-100.41,14.09-63.41,27-86.9S1086.45,2815.85,1059.45,2882.2Z" transform="translate(952.49 -112.46)"/><path class="cls-10" d="M1215.63,2882.2c-12.33,23.49-40.51,61.66-27,86.9,1.18,2.35,2.94,4.7,4.11,7.05a48.75,48.75,0,0,0-39.93-20c-28.18,0-43.45,32.88-65.17,17-14.09-10.57-32.29-22.31-42.86-28.77a394.19,394.19,0,0,0,13.5-62.82C1086.45,2815.85,1228.55,2858.72,1215.63,2882.2Z" transform="translate(952.49 -112.46)"/><path class="cls-11" d="M1038.31,1923.36s24.66,59.89,37,76.92,314.72,46.39,347,169.1-159.12,640.6-179.67,689.34-23.49,91.59-92.77,84.55-125.07-51.67-111.56-100.41,66.35-178.5,88.07-334.09,100.41-188.48-40.51-236-253.07-32.3-214.32-163.82S1011.3,1909.27,1038.31,1923.36Z" transform="translate(952.49 -112.46)"/><path class="cls-9" d="M1256.73,2967.93s24.66,88.07,24.66,97.47-15.85,85.14-12.33,107.45,34.06,34.64,74.57,71.63c43.45,40.52,78.68,38.17,132.12,34.06,45.79-3.52,106.86-25.84,113.32-44s-.59-31.12-37-50.49c-32.3-17.62-113.33-107.46-117.44-117.44s-28.77-140.92-29.94-153.25S1242.05,2934.46,1256.73,2967.93Z" transform="translate(952.49 -112.46)"/><path class="cls-10" d="M1430.53,3054.24c-12.33-15.26-29.94-28.18-53.43-14.09-24.66,14.68-27,46.39-39.93,48.15s-14.09-16.44-31.12-21.73a63,63,0,0,1-27.59-16.44c-6.46-27.59-21.73-82.79-21.73-82.79-14.68-33.47,146.79-67.52,147.38-54.6C1405.29,2923.89,1422.9,3019,1430.53,3054.24Z" transform="translate(952.49 -112.46)"/><path class="cls-20" d="M1469.87,3118.24s-30.53-11.74-90.42,18.21" transform="translate(952.49 -112.46)"/><path class="cls-20" d="M1512.15,3155.82s-45.21-11.74-105.1,18.2" transform="translate(952.49 -112.46)"/><path class="cls-11" d="M624.94,1914s-28.18,74-45.21,120.37-38.75,141.5,10,218.42S732.39,2343.19,883.3,2362c149.14,18.21,181.43,30,181.43,30A2673.23,2673.23,0,0,0,1154,2693.14c55.19,149.14,75.74,236,78.09,257.17s13.51,41.69,50.5,50.5,133.28-12.33,139.74-55.19-35.23-173.8-62.24-347.61-39.34-319.41-90.42-386.94-252.48-74.57-252.48-93.94S723,1867,624.94,1914Z" transform="translate(952.49 -112.46)"/><path class="cls-12" d="M1359.49,2598c-27-173.8-39.34-319.41-90.43-386.94s-242.5-86.31-252.48-93.94a212.06,212.06,0,0,0-112.15-31.71" transform="translate(952.49 -112.46)"/><path class="cls-12" d="M1016.58,2117.13s4.7-30.54,0-44.63" transform="translate(952.49 -112.46)"/><path class="cls-12" d="M589.71,2140s98.06-1.77,119.78-108.63" transform="translate(952.49 -112.46)"/><path class="cls-12" d="M1064.14,2391.92a64.62,64.62,0,0,1,22.31-47.56" transform="translate(952.49 -112.46)"/><path class="cls-20" d="M1266.13,3061.88s-12.33-33.47-111-6.46" transform="translate(952.49 -112.46)"/><path class="cls-20" d="M1216.81,3009s-9.4-24.66-88.08,8.81" transform="translate(952.49 -112.46)"/><path class="cls-21" d="M3607.15,857.07l-790.32-32.29c-17-.59-28.77-16.44-26.42-35.82l64.59-475a41.09,41.09,0,0,1,35.81-35.23l790.33-32.29A31.83,31.83,0,0,1,3716,274.91a32.21,32.21,0,0,1-.2,7.91L3651.19,818.9A42.92,42.92,0,0,1,3607.15,857.07Z" transform="translate(952.49 -112.46)"/><path class="cls-14" d="M3593.65,847.09l-790.32-32.3c-17-.58-28.78-16.44-26.43-35.81l64.59-475a41.11,41.11,0,0,1,35.82-35.23l790.32-32.29a31.84,31.84,0,0,1,34.65,36.4l-64.59,536.08A43.34,43.34,0,0,1,3593.65,847.09Z" transform="translate(952.49 -112.46)"/><line class="cls-22" x1="3918.47" y1="428.12" x2="4127.5" y2="428.12"/><path class="cls-22" d="M3152.69,712.63,3040,709.69a28.65,28.65,0,0,1-27.5-29.76,28,28,0,0,1,.49-4.29l35.82-269.51a39.35,39.35,0,0,1,35.82-34.06l112.73-2.93" transform="translate(952.49 -112.46)"/><path class="cls-11" d="M3320.62,400.26l-130.94,2.34A11.75,11.75,0,0,1,3177.8,391a12.06,12.06,0,0,1,.14-1.9l5.28-39.34a16.27,16.27,0,0,1,15.27-14.09l130.94-4.11a12,12,0,0,1,12.41,11.64,12.74,12.74,0,0,1-.08,1.86L3336.47,385A16.93,16.93,0,0,1,3320.62,400.26Z" transform="translate(952.49 -112.46)"/><path class="cls-11" d="M3546.09,575.82l-140.33-.59a12.44,12.44,0,0,1-12.53-12.36,12.05,12.05,0,0,1,.2-2.32l5.28-41.1a16.86,16.86,0,0,1,15.85-14.68l140.34-.59a12.61,12.61,0,0,1,12.92,14.68l-5.29,41.69A16.56,16.56,0,0,1,3546.09,575.82Z" transform="translate(952.49 -112.46)"/><path class="cls-11" d="M3276.58,750.21l-130.94-3.53a12.1,12.1,0,0,1-11.91-12.28,12.31,12.31,0,0,1,.17-1.81l5.28-39.93a15.21,15.21,0,0,1,15.27-13.5l130.94,2.35a12.73,12.73,0,0,1,12.47,13,13.59,13.59,0,0,1-.14,1.68l-5.29,40.51A16.32,16.32,0,0,1,3276.58,750.21Z" transform="translate(952.49 -112.46)"/><line class="cls-22" x1="4269.59" y1="427.54" x2="4348.86" y2="427.54"/><path class="cls-10" d="M3298.89,574.64,3168,574.06a12.1,12.1,0,0,1-11.91-12.28,12.31,12.31,0,0,1,.16-1.82l5.29-39.34a16.26,16.26,0,0,1,15.26-14.09L3307.7,506a12.5,12.5,0,0,1,12.43,12.58,12.76,12.76,0,0,1-.1,1.51l-5.28,40.51A16.86,16.86,0,0,1,3298.89,574.64Z" transform="translate(952.49 -112.46)"/><path class="cls-11" d="M2966,540.59c2.94-21.73-11.16-38.75-31.12-38.75s-38.17,17.61-41.1,38.75,10.57,38.75,30.53,38.75A44.38,44.38,0,0,0,2966,540.59Z" transform="translate(952.49 -112.46)"/><path class="cls-9" d="M3529.65,2285.64v39.93c0,25.84-129.76,47-290.65,47s-290.64-21.13-290.64-47v-39.93h136.8a1683.8,1683.8,0,0,1,307.68,0Z" transform="translate(952.49 -112.46)"/><ellipse class="cls-19" cx="4191.5" cy="2173.18" rx="290.65" ry="46.97"/><path class="cls-9" d="M3239,2807.05h0a13.27,13.27,0,0,1-13.5-13,3.68,3.68,0,0,1,0-.47V2333.2h27.59v460.34a13.8,13.8,0,0,1-14.08,13.51Z" transform="translate(952.49 -112.46)"/><path class="cls-23" d="M3239,2792.37s-159.71,11.74-210.2,118" transform="translate(952.49 -112.46)"/><path class="cls-23" d="M3449.79,2910.39c-51.08-106.28-210.2-118-210.2-118s-26.42,20.55-37.58,142.09" transform="translate(952.49 -112.46)"/><circle class="cls-11" cx="4153.86" cy="2835.15" r="42.86"/><circle class="cls-11" cx="4402" cy="2806.61" r="42.86"/><circle class="cls-12" cx="3981.23" cy="2806.38" r="42.86"/><path class="cls-9" d="M3397.54,1852.9c28.18,67.53,78.09,176.15,77.5,298.28,0,148-179.08,208.45-197.28,231.93s-391.06,49.32-429.22-25.25-35.82-153.25,66.35-341.73c68.11-126.24,59.3-161.47,59.89-163.23,0,0,9.39,10,13.5-29.36S3380.51,1813,3397.54,1852.9Z" transform="translate(952.49 -112.46)"/><path class="cls-10" d="M2937.2,2204.61c-36.41,5.88-97.47,25.25-103.93,122.13s71.05,472.67,72.22,539-5.28,69.29-50.49,109.8-135.05,84.55-127.42,115.67,110.39,57.55,177.91,45.22,82.79-89.25,95.71-95.71,21.14-30.54,22.9-45.8,49.32-554.29,54-633.55C3084.58,2263.33,3044.06,2187.59,2937.2,2204.61Z" transform="translate(952.49 -112.46)"/><path class="cls-9" d="M3028.8,2949.14c-2.35,25.83-4.11,42.28-4.11,45.21-1.76,15.85-10,39.34-22.9,45.8s-27.6,83.38-95.71,95.71-170.87-14.09-177.91-45.21c-5.87-24.08,47.56-56.37,92.77-88.67-1.17,1.18-14.09,14.1,0,17s41.1-8.22,91.6,20,65.17-15.86,75.15-45.8C2996.5,2967.93,3014.12,2976.15,3028.8,2949.14Z" transform="translate(952.49 -112.46)"/><path class="cls-10" d="M3114.52,2222.23c-44,29.36-61.65,65.17-69.87,200.22-11.16,185.55-31.12,477.37-40.51,508.49s-21.14,45.21-32.3,76.33-105.69,120.95-99.82,155,59.89,68.11,93.95,79.27,74.57,15.85,99.23,0,37-115.09,43.45-138.57,13.51-41.1,19.38-82.79,48.73-229.58,66.93-283.6,99.82-316.49,102.17-419.24C3298.31,2214.6,3179.11,2180,3114.52,2222.23Z" transform="translate(952.49 -112.46)"/><path class="cls-24" d="M3114.52,2222.23c-44,29.36-61.65,65.17-69.87,200.22-11.16,185.55-31.12,477.37-40.51,508.49s-21.14,45.21-32.3,76.33" transform="translate(952.49 -112.46)"/><path class="cls-9" d="M3134.49,2983.2a328.09,328.09,0,0,0-6.46,37c-5.29,41.1-12.92,58.71-19.38,82.79s-18.2,123.3-42.86,138.57-65.18,11.15-99.23,0-88.08-45.21-93.95-78.68c-4.11-24.66,44-78.1,75.16-118-1.76,2.35-24.08,35.81,15.85,65.17,34.64,25.84,99.23,41.69,115.67,2.94s25.25-75.16,32.88-86.9A132.46,132.46,0,0,0,3134.49,2983.2Z" transform="translate(952.49 -112.46)"/><ellipse class="cls-25" cx="2987.02" cy="3119.56" rx="24.07" ry="32.29" transform="translate(-18.68 4735.29) rotate(-69.83)"/><path class="cls-25" d="M2886.7,3030.76c-1.76,12.33-17,20-33.47,17.61s-28.77-14.68-27-27,17-20,33.47-17.61S2888.46,3018.43,2886.7,3030.76Z" transform="translate(952.49 -112.46)"/><path class="cls-11" d="M2988.87,1362S2909,1363.21,2855,1482.4s-139.75,287.12-127.42,358.17,176.15,0,253.66-133.28S3051.11,1365.56,2988.87,1362Z" transform="translate(952.49 -112.46)"/><path class="cls-9" d="M3050.52,1124.82s-40.51-2.35-53.43-54.61,40.51-117.43,89.84-133.29,61.65,14.68,93.94,18.21,118.61-5.87,153.25,71-22.9,149.73,21.14,207.27,81,164.41-48.73,210.21-278.91,10-325.29-72.81,42.86-131.53,56.36-174.39C3052.28,1154.18,3058.74,1143.61,3050.52,1124.82Z" transform="translate(952.49 -112.46)"/><path class="cls-11" d="M3182.05,1331.5s-119.78-1.17-185,23.49c-19.38,7-35.82,19.37-40.51,80.44-4.11,55.19-7,54.6-22.32,81.61-24.07,43.45-34.05,93.36,12.33,174.39,29.95,52.85,20.55,152.08,15.86,202s1.17,72.22,98.05,96.88,304.74,0,328.23-23.49,34.05-256,29.36-301.21,82.2-165.58,75.74-213.14S3431,1339.72,3182.05,1331.5Z" transform="translate(952.49 -112.46)"/><path class="cls-25" d="M3116.28,1321.52s-54,2.35-71.63,20.55c-12.33,12.92-2.35,21.14,12.33,32.29,10,7.64-25.25,27.6-7.05,50.5,13.51,17,44-4.11,55.79,11.74,13.5,18.79,15.85,25.84,36.4,26.42,25.84.59,28.18-27,47.56-24.07,23.49,3.52,28.77,11.74,45.8,10,26.42-2.93,27-29.36,23.49-45.21s5.87-16.44,26.42-22.31,24.66-45.8-51.09-57S3116.28,1321.52,3116.28,1321.52Z" transform="translate(952.49 -112.46)"/><path class="cls-10" d="M3250.16,1215.24A626.18,626.18,0,0,0,3239,1338a89.3,89.3,0,0,1-91,57.54c-65.76-3.52-50.49-56.37-50.49-56.37s15.85-58.71,16.44-74S3233.72,1199.39,3250.16,1215.24Z" transform="translate(952.49 -112.46)"/><path class="cls-26" d="M3197.9,1282.18c-28.18,18.79-61.06,29.94-92.18,27.59l-7.64,29.36s-.58,2.94-1.17,7.64C3142.71,1345.59,3183.81,1325,3197.9,1282.18Z" transform="translate(952.49 -112.46)"/><path class="cls-10" d="M3042.89,1066.1a548.25,548.25,0,0,1-6.46,97.47c-8.22,50.5.59,130.35,55.19,149.14,75.75,25.84,154.43-25.83,173.8-101s29.36-167.34-66.93-194.94S3048.17,1029.11,3042.89,1066.1Z" transform="translate(952.49 -112.46)"/><path class="cls-9" d="M3040,1087.24s-4.11-18.2,12.92-21.73a243.58,243.58,0,0,0,48.74-18.2c11.15-5.28,25.24-3.52,36.4,21.14,24.66,52.84,55.78,132.11,120.37,109.8,0,0,24.66,5.28,31.71-35.82s4.11-96.29-67.53-129.76-153.84-10.57-169.1,6.46C3030,1045.55,3040,1087.24,3040,1087.24Z" transform="translate(952.49 -112.46)"/><path class="cls-10" d="M3230.78,1186.47s26.42-36.4,51.09-15.27-9.4,74.57-43.46,72.81" transform="translate(952.49 -112.46)"/><path class="cls-14" d="M3269,1248.12c0-8.22-7-23.48-15.27-23.48s-15.26,15.26-15.26,23.48a15.56,15.56,0,0,0,15.26,15.27,15.16,15.16,0,0,0,15.27-15Z" transform="translate(952.49 -112.46)"/><path class="cls-9" d="M3273.06,1195.86c-2.35-1.17-4.11-2.93-5.87-3.52a3.41,3.41,0,0,0-4.11,0c-.59,0-.59.59-1.18,1.18s-1.17,1.17-1.17,1.76a38.61,38.61,0,0,0-1.18,4.11c-.58,3.52,0,8.22-1.17,13.5a11.76,11.76,0,0,1-5.29,7.64,10,10,0,0,1-8.22,0c2.35-1.18,4.11-2.35,4.7-4.11a11.9,11.9,0,0,0,.59-4.7,91,91,0,0,1-.59-13.51,14.11,14.11,0,0,1,3.52-8.8l3.53-3.53a18.55,18.55,0,0,1,5.28-1.76,9.11,9.11,0,0,1,8.22,4.7A9.24,9.24,0,0,1,3273.06,1195.86Z" transform="translate(952.49 -112.46)"/><path class="cls-9" d="M3062.85,1160.05a28,28,0,0,1,1.18,17,33.36,33.36,0,0,1-7.64,15.85c-1.17,1.76-1.76,1.76-1.76,3.52a13.74,13.74,0,0,0,1.76,5.29,36.17,36.17,0,0,0,4.11,5.87c1.77,1.76,3.53,4.11,5.88,4.7a11.8,11.8,0,0,1-8.81-.59,33.43,33.43,0,0,1-7.63-4.7,15.89,15.89,0,0,1-4.7-9.39v-2.94a26.8,26.8,0,0,1,.58-2.94c.59-1.17.59-1.76,1.18-2.93a8.07,8.07,0,0,1,1.76-2.35A93.13,93.13,0,0,0,3062.85,1160.05Z" transform="translate(952.49 -112.46)"/><path class="cls-12" d="M3089.27,1243.43a52.84,52.84,0,0,0,37.58-10.57" transform="translate(952.49 -112.46)"/><path class="cls-9" d="M3114.52,1115.42a14.51,14.51,0,0,1,2.35-11.15c4.7-5.87,20-6.46,31.71,1.17s16.44,18.2,12.92,19.38c-5.29,1.76-10.57-5.29-22.9-6.46S3116.87,1121.88,3114.52,1115.42Z" transform="translate(952.49 -112.46)"/><path class="cls-9" d="M3054,1113.66a4.58,4.58,0,0,0,5.7-3.09,5,5,0,0,0,.18-1,19.31,19.31,0,0,0-1.18-11.74c-3.52-5.29-12.92.59-15.85,4.7s-1.76,11.15,0,11.15A33.65,33.65,0,0,1,3054,1113.66Z" transform="translate(952.49 -112.46)"/><path class="cls-9" d="M3126.27,1170.62h0a8.06,8.06,0,0,0,8.78-7.24c0-.13,0-.26,0-.4l.59-4.69a8,8,0,0,0-7.23-8.78l-.4,0h0a8,8,0,0,0-8.78,7.23l0,.4-.59,4.7a8.06,8.06,0,0,0,7.24,8.78Z" transform="translate(952.49 -112.46)"/><path class="cls-9" d="M3050.52,1164.75h0a8.06,8.06,0,0,0,8.78-7.24l0-.4.59-4.7a8,8,0,0,0-7.24-8.77,2.6,2.6,0,0,0-.4,0h0a8,8,0,0,0-8.78,7.23c0,.13,0,.27,0,.4l-.59,4.7A8.87,8.87,0,0,0,3050.52,1164.75Z" transform="translate(952.49 -112.46)"/><path class="cls-8" d="M2248.45,2079l34.06,796.2a14.93,14.93,0,0,1-13.29,16.38l-.8.06h0a15.27,15.27,0,0,1-14.09-14.68L2195,2078.37h53.43Z" transform="translate(952.49 -112.46)"/><path class="cls-8" d="M2321.85,1985.6,2354.14,2743a14.32,14.32,0,0,1-12.69,15.79l-.81.07h0a14,14,0,0,1-13.51-13.51l-56.36-759.79Z" transform="translate(952.49 -112.46)"/><path class="cls-8" d="M1714.72,2079.55l-106.86,789.74a15.14,15.14,0,0,0,12.22,17.59l.11,0h0a15.08,15.08,0,0,0,15.26-12.92l132.12-789.73Z" transform="translate(952.49 -112.46)"/><path class="cls-11" d="M2427.54,1234.62s34.64,15.85,4.7,155-85.14,323.53-77.51,532-129.18,294.76-352.88,278.9,127.41-647.64,127.41-647.64S2381.15,1177.66,2427.54,1234.62Z" transform="translate(952.49 -112.46)"/><path class="cls-25" d="M1827.46,1276.89c5.87-25.83,18.2-67.52,64.59-84.55s533.73-8.81,540.19,51.67-121,342.32-120.37,544.3,36.4,369.33-201.4,402.8-492.63-15.85-466.8-96.88,104.52-189.66,128.59-412.19S1805.73,1376.71,1827.46,1276.89Z" transform="translate(952.49 -112.46)"/><path class="cls-9" d="M1717.07,1923.36S1538,2147.66,1532.7,2222.23s294.17,71.63,294.76,56.37,50.49-102.17,74-103.93c15.27-1.18,38.75-2.35,42.86,16.44,5.87,26.42,0,81.62,0,81.62l257.77,120.95,25.25-107.45s43.45-69.87,43.45-185-33.47-284.77-33.47-284.77S1746.43,1868.17,1717.07,1923.36Z" transform="translate(952.49 -112.46)"/><path class="cls-9" d="M1928.45,3004.92s-15.85,10.57-19.38,37-17.61,65.76-27,98.06-37,95.12-22.9,105.69c20,15.85,72.81,27,133.88,32.29s90.42,1.76,99.82-15.85-10.57-118.61-14.1-156.77,0-78.1-7-91.6S1956.63,2968.52,1928.45,3004.92Z" transform="translate(952.49 -112.46)"/><path class="cls-9" d="M1711.79,2970.86a153.28,153.28,0,0,0-14.1,34.65c-7,22.9-69.28,119.19-68.69,149.72s59.89,31.12,82.79,32.3c27.59,1.17,97.47-4.11,120.36-20s23.49-70.45,25.25-88.07c3.53-35.23,2.94-56.37-5.28-109.21-2.35-17-28.19-21.73-42.28-11.75S1722.35,2948,1711.79,2970.86Z" transform="translate(952.49 -112.46)"/><path class="cls-10" d="M1937.84,2935.05s-10.56,76.92-11.74,86.31,15.85,29.95,65.18,40.52c42.27,9.39,67.52-6.46,71.63-12.33s23.49-103.93,30-126.25S1951.35,2908.63,1937.84,2935.05Z" transform="translate(952.49 -112.46)"/><path class="cls-10" d="M1697.69,2918.61s15.86,54,15.86,61.06,27,21.73,64.59,20.55,69.28-21.72,69.28-31.7-11.16-105.69-11.16-105.69S1701.22,2891.6,1697.69,2918.61Z" transform="translate(952.49 -112.46)"/><path class="cls-20" d="M1916.12,3141.73A155.1,155.1,0,0,1,2056.45,3174" transform="translate(952.49 -112.46)"/><path class="cls-20" d="M1934.91,3098.87s71-12.92,116.26,24.07" transform="translate(952.49 -112.46)"/><path class="cls-9" d="M1929,3036a27.08,27.08,0,0,0,25.24,0c13.51-7.05,27.6-20,55.2-14.68,33.47,6.46,39.93,41.1,58.13,25.84,0,0,.58,23.48-45.21,25.83S1929.62,3043.67,1929,3036Z" transform="translate(952.49 -112.46)"/><path class="cls-9" d="M1711.2,2980.85s6.46,7,17-2.94,9.39-21.14,38.16-25.25c18.79-2.35,34.64,11.16,48.74,22.31s28.18-4.11,31.12-17c0,0,9.39,33.47-3.53,49.91-9.39,12.33-45.8,3.52-67.52,4.11s-68.7-10-68.7-10Z" transform="translate(952.49 -112.46)"/><path class="cls-20" d="M1671.27,3067.16s55.19-34.06,130.94,11.74" transform="translate(952.49 -112.46)"/><path class="cls-20" d="M1697.69,3031.93s48.15-34.06,114.5,11.74" transform="translate(952.49 -112.46)"/><path class="cls-9" d="M2013.59,2157.05s-71,10-75.75,187.31-19.37,462.1-39.34,502-12.91,86.9,24.08,105.69,79.85,40.51,133.87,34.64,79.86-37,79.86-99.82,22.9-239,58.13-382.24,58.71-284.78-12.92-335.86S2013.59,2157.05,2013.59,2157.05Z" transform="translate(952.49 -112.46)"/><path class="cls-9" d="M1592.59,2143s-106.86,13.51-46.38,278.32,101,404,91.59,444.48,20,62.24,53.44,69.87,97.46,6.46,133.87-14.09,40.51-53.43,25.83-116.26-18.2-314.13-20-400.44,20-233.11-84.55-275.38S1592.59,2143,1592.59,2143Z" transform="translate(952.49 -112.46)"/><ellipse class="cls-17" cx="2612.02" cy="2121.51" rx="85.14" ry="83.96"/><ellipse class="cls-17" cx="3033.02" cy="2186.1" rx="85.14" ry="83.96"/><path class="cls-9" d="M2276.64,1047.9s34.64-11.16,45.8-36.41,10-101.57-10.57-125.65-78.09-13.5-114.5-24.07-61.65-34.06-129.18-21.14S1938.43,914,1935.5,946.91s16.44,46.38,9.39,67.52-16.44,41.69,16.44,74,20,53.44,44.63,53.44-20-75.16,11.74-139.75S2259,975.09,2276.64,1047.9Z" transform="translate(952.49 -112.46)"/><path class="cls-10" d="M1594.35,1436.6s-77.5,102.17-91,179.09,28.19,126.83,79.86,135,224.88-217.84,233.1-263.64S1619,1400.79,1594.35,1436.6Z" transform="translate(952.49 -112.46)"/><path class="cls-11" d="M1841.55,1237s-39.34-11.16-133.87,70.46c-79.27,68.11-142.1,133.28-142.1,133.28s166.76,151.49,189.66,190.83c0,0,102.75-118.61,111.56-238.39S1856.23,1232.27,1841.55,1237Z" transform="translate(952.49 -112.46)"/><path class="cls-12" d="M1594.35,1413.7s120.37,96.89,185.55,186.13" transform="translate(952.49 -112.46)"/><path class="cls-13" d="M1795.16,1286.88c14.68-32.89,44-57,80.44-58.13,35.23-1.18,88.67-.59,166.17,4.69,166.76,11.75,295.35,59.31,329.4,84s-7.63,177.32-42.86,261.87-73.4,161.47-79.86,190.83,17,167.93,4.7,196.12-143.27,76.91-310,67.52-236-63.41-241.33-83.38,15.86-193.18,25.84-252.48,17-189.65,18.2-208.44C1756.41,1368.49,1779.9,1320.93,1795.16,1286.88Z" transform="translate(952.49 -112.46)"/><path class="cls-10" d="M2523.25,1559.91c-41.69-71.64-186.13,71-182.61,102.75,0,0,25.83,54,25.83,59.89S2340.64,1877,2323,1960.35c-5.28,25.84-21.13,54.61-40.51,82.21a903.9,903.9,0,0,0,139.75,40.51c62.23-108.62,133.87-274.79,145-315.89C2587.84,1690.26,2564.94,1631.54,2523.25,1559.91Z" transform="translate(952.49 -112.46)"/><path class="cls-24" d="M2366.47,1722.55a74.53,74.53,0,0,1,37.58-36.4" transform="translate(952.49 -112.46)"/><path class="cls-11" d="M2371.17,1316.82s47.56,26.42,94.54,105.69S2549.08,1574,2549.08,1574L2342.4,1682s-59.89-98.06-84.55-142.1-27-134.46,7.63-185C2299,1305.08,2354.73,1305.66,2371.17,1316.82Z" transform="translate(952.49 -112.46)"/><path class="cls-12" d="M2323,1650.92s120.37-79.27,209-108.63" transform="translate(952.49 -112.46)"/><path class="cls-10" d="M2311.28,1993.23s-82.79,8.23-101.58,18.79-47,74.57-44.62,80.45,20,0,20,0-2.35,12.33,11.74,12.33,16.44-5.88,16.44-5.88a12.4,12.4,0,0,0,9.71,14.59,12,12,0,0,0,4.39.09c16.44-1.17,50.49-30.53,50.49-30.53s-18.2,32.3-7,39.93,35.23-19.38,38.75-24.66,96.88,51.08,132.7-52.85C2442.22,2045.49,2374.7,1972.1,2311.28,1993.23Z" transform="translate(952.49 -112.46)"/><path class="cls-11" d="M1963.09,1225.22s-28.18,2.94-34,8.22-23.49,51.09,0,98.65,91.59,71,160.88,49.32,98.64-88.08,96.3-108.63-14.68-27-39.93-33.47S1963.09,1225.22,1963.09,1225.22Z" transform="translate(952.49 -112.46)"/><path class="cls-10" d="M1996.56,1077.84s1.76,54-11.74,98.06a249,249,0,0,1-21.14,48.74,81.12,81.12,0,0,0-9.4,27.59c-3.52,24.08-1.76,65.77,42.28,85.73,70.46,31.71,144.44-26.42,154.43-72.81,0,0,4.11-48.15,14.67-67.52S2030.62,1059.64,1996.56,1077.84Z" transform="translate(952.49 -112.46)"/><path class="cls-26" d="M2146.29,1278.66a75.32,75.32,0,0,0,4.7-13.51,191.39,191.39,0,0,1,2.93-21.72,181.48,181.48,0,0,1-118-74.57C2039.42,1226.4,2088.75,1270.43,2146.29,1278.66Z" transform="translate(952.49 -112.46)"/><path class="cls-10" d="M1554.43,1741.34s28.77,32.3,156.77,0,293-121.54,317.66-130.35,34-4.7,60.47-4.7c62.83,1.18,88.66-4.69,96.89-8.8,16.44-8.22,24.07-20.56,21.13-31.12s5.87-13.51,7.64-22.9c2.93-17.62-3.53-20-1.77-21.14s19.38-6.46,22.9-11.16c8.81-13.5,1.77-22.31,1.77-22.31a328,328,0,0,1,48.73-8.22c26.42-2.35,42.28-11.74,34.64-21.14s-59.3-6.46-92.77-6.46-45.21.59-47.56-.58c-12.92-4.11-38.17-11.75-50.5-10.57S2104,1453,2079.94,1466a364.14,364.14,0,0,1-86.32,32.29c-27,7-208.44,21.14-320.59,42.28-15.85,2.94-30.53,5.87-42.86,9.4a204.59,204.59,0,0,0-35.82,12.33C1533.29,1595.14,1479.86,1681.45,1554.43,1741.34Z" transform="translate(952.49 -112.46)"/><path class="cls-24" d="M2237.3,1488.86s-15.27-2.35-20.55-3.52a88.71,88.71,0,0,0-14.09-1.18" transform="translate(952.49 -112.46)"/><path class="cls-24" d="M2213.22,1522.33s-10.56,2.93-14.67,4.7" transform="translate(952.49 -112.46)"/><path class="cls-24" d="M2207.35,1559.91a171,171,0,0,1-15.85,8.22" transform="translate(952.49 -112.46)"/><path class="cls-9" d="M2028.85,1611c-45.21-53.43-22.31-116.26-22.31-116.26l-50.49,9.4c-28.77,71,22.31,130.93,22.31,130.93Z" transform="translate(952.49 -112.46)"/><path class="cls-24" d="M2180.34,1452.46s-31.7.58-37,2.93" transform="translate(952.49 -112.46)"/><path class="cls-24" d="M1673,1540.53c-15.85,2.94-30.53,5.87-42.86,9.4a204.59,204.59,0,0,0-35.82,12.33" transform="translate(952.49 -112.46)"/><path class="cls-25" d="M2005.37,1559.91a30.54,30.54,0,1,0-30.53,30.53A31.47,31.47,0,0,0,2005.37,1559.91Z" transform="translate(952.49 -112.46)"/><path class="cls-10" d="M2283.68,948.08s12.92,38.75-5.28,96.3-30.53,79.26-45.8,125.06-52.26,85.73-115.08,79.27c-65.77-7-117.44-66.94-120.37-141.51s-9.4-190.83,79.27-211.38C2163.9,875.86,2268.42,928.12,2283.68,948.08Z" transform="translate(952.49 -112.46)"/><path class="cls-9" d="M2225.56,1072.56a110.12,110.12,0,0,0,1.17,20c.59,2.94,1.17,6.46,1.76,9.4.59,1.76.59,2.93,1.18,4.7l.58,2.34.59,2.94a24,24,0,0,1,0,12.92,20,20,0,0,1-8.22,10,28.61,28.61,0,0,1-21.73,2.94,60.87,60.87,0,0,0,16.44-9.4,11.74,11.74,0,0,0,2.94-13.5l-.59-1.77-.58-2.93c-.59-1.76-.59-3.52-1.18-5.29a71.6,71.6,0,0,1-.59-11.15A52.86,52.86,0,0,1,2225.56,1072.56Z" transform="translate(952.49 -112.46)"/><path class="cls-9" d="M2012.41,1040.85s19.38-4.69,31.71-55.78c0,0,4.11-11.74,24.66,4.11s54.61,41.69,114.5,13.51,67.52-37.58,75.74-27.6c0,0,8.81,44.63,39.34,30.53s14.1-93.36-86.9-119.19-172.62-17-204.92,39.34S1986.58,1037.33,2012.41,1040.85Z" transform="translate(952.49 -112.46)"/><path class="cls-9" d="M2196.78,1022.06a17.59,17.59,0,0,0,2.35-20c-6.46-10-50.49-17-61.06-8.22s15.85,10,28.18,15.85S2193.26,1026.17,2196.78,1022.06Z" transform="translate(952.49 -112.46)"/><path class="cls-9" d="M2251.39,1047.31a17.14,17.14,0,0,1,8.81-9.39c6.46-2.94,20,10.57,17.61,19.37s-8.8-1.17-14.68-2.34C2257.26,1052.6,2249.63,1050.83,2251.39,1047.31Z" transform="translate(952.49 -112.46)"/><path class="cls-9" d="M2163.32,1056.12a9,9,0,0,0-5.3-11.55,5.62,5.62,0,0,0-.58-.19h0a9,9,0,0,0-11.55,5.29c-.07.19-.13.38-.19.58l-1.17,2.93,17,6.46Z" transform="translate(952.49 -112.46)"/><path class="cls-9" d="M2251.39,1089a9.28,9.28,0,0,0-17.61-5.87h0l-1.18,2.93,17,6.46Z" transform="translate(952.49 -112.46)"/><path class="cls-10" d="M2023,1050.83s-10-39.92-39.34-39.34-42.86,80.45,24.66,92.78" transform="translate(952.49 -112.46)"/><path class="cls-9" d="M1979,1047.9a11.69,11.69,0,0,1,2.93-8.22,7.48,7.48,0,0,1,5.29-2.35,13.94,13.94,0,0,1,5.28,1.17c.59,0,1.76,1.18,2.35,1.77s1.17,1.76,1.76,2.34.59,1.77,1.18,2.35a3.57,3.57,0,0,1,.58,2.35,36.21,36.21,0,0,1,.59,7.63v13.51a9.43,9.43,0,0,0,1.76,5.28,12.71,12.71,0,0,0,5.29,4.11,9.91,9.91,0,0,1-8.22,0,12.65,12.65,0,0,1-6.46-7,37.81,37.81,0,0,1-2.94-15.86c0-4.69-.59-10-.59-10a4.15,4.15,0,0,0-3.52-1.76A48,48,0,0,1,1979,1047.9Z" transform="translate(952.49 -112.46)"/><path class="cls-9" d="M2161.55,1175.9a62.52,62.52,0,0,0,5.88-10,9.26,9.26,0,0,0-5.29-12.92,89.72,89.72,0,0,1-22.31-13.5c-18.2-14.68-26.42-1.76-25.25,14.68C2132.2,1155.94,2148.05,1167.09,2161.55,1175.9Z" transform="translate(952.49 -112.46)"/><path class="cls-27" d="M2114.58,1153.59c1.18,14.09,8.81,31.12,24.07,33.47a23.47,23.47,0,0,0,22.9-11.16C2148.05,1167.09,2132.2,1155.94,2114.58,1153.59Z" transform="translate(952.49 -112.46)"/><path class="cls-8" d="M942,2125.93,855.7,3329.62a17.9,17.9,0,0,0,17,18.77l.61,0h0a17.62,17.62,0,0,0,17.62-15.85l103.93-1206H942Z" transform="translate(952.49 -112.46)"/><path class="cls-8" d="M4425.66,2125.93,4512,3329.62a17.92,17.92,0,0,1-17,18.77l-.61,0h0a17.6,17.6,0,0,1-17.61-15.85l-103.93-1206h52.84Z" transform="translate(952.49 -112.46)"/><polygon class="cls-25" points="5561.94 1988.22 1710.72 1988.22 2151.1 1810.9 5120.98 1810.9 5561.94 1988.22"/><rect class="cls-28" x="1710.72" y="1988.22" width="3851.8" height="44.04"/><path class="cls-14" d="M2289.56,1894h247.19a32.31,32.31,0,0,1,18.79,5.88l224.3,149.72a8.93,8.93,0,0,1-4.7,16.44H2417.56a25.88,25.88,0,0,1-21.14-10.57l-113.91-146.79a9,9,0,0,1,7-14.68Z" transform="translate(952.49 -112.46)"/><line class="cls-28" x1="3394.71" y1="1907.19" x2="3625.47" y2="1907.19"/><path class="cls-9" d="M2609,1975.62l-48.14-36.4a11.24,11.24,0,0,0-7-2.35H2491c-2.34,0-2.93,2.35-1.76,4.11l36.41,35.23a11.71,11.71,0,0,0,8.22,3.52h74C2610.15,1979.73,2610.74,1977.38,2609,1975.62Z" transform="translate(952.49 -112.46)"/><line class="cls-28" x1="3431.12" y1="1867.27" x2="3367.7" y2="1867.27"/><line class="cls-28" x1="3410.57" y1="1843.19" x2="3353.61" y2="1843.19"/><path class="cls-19" d="M3717,2090.12l-70.46,5.28a48.26,48.26,0,0,1-18.2-1.76l-321.76-88.07a17.08,17.08,0,0,1-12.33-16.45h0l547.23-13.5Z" transform="translate(952.49 -112.46)"/><path class="cls-9" d="M3638.27,2070.15l136.23-362.28a32.31,32.31,0,0,1,31.12-21.14l559,10.57a17.61,17.61,0,0,1,15.85,24.66l-129.18,316.49a33.52,33.52,0,0,1-28.18,20.55l-567.2,35.81a19,19,0,0,1-18.49-19.43A19.41,19.41,0,0,1,3638.27,2070.15Z" transform="translate(952.49 -112.46)"/><path class="cls-9" d="M3658.24,2094.81l-11.75.59a48.26,48.26,0,0,1-18.2-1.76l-321.76-88.07a17.61,17.61,0,0,1-12.33-16.45l352.88,84.56Z" transform="translate(952.49 -112.46)"/><path class="cls-19" d="M4110.94,1882.26c-6.46,22.31-29.36,40.51-51.67,40.51s-35.23-18.2-28.77-40.51,29.36-40.51,51.67-40.51S4117.4,1860,4110.94,1882.26Z" transform="translate(952.49 -112.46)"/><path class="cls-29" d="M957.87,1322.11s57.54-15.86,108,74.57,75.75,258.35,91.6,275.38,41.69,29.94,125.07,83.37,88.07,55.2,160.29,64,76.92,33.47,99.23,58.13,38.17,41.69,17,43.45-44-28.77-57.54-20a138.25,138.25,0,0,1-47.56,22.31c-24.66,5.87-17,15.86-39.93,13.51s-67.52-1.18-53.43-13.51,0-15.26,0-15.26-248.37-33.47-328.81-98.65S930.27,1528.2,914.42,1456.57,937.9,1322.11,957.87,1322.11Z" transform="translate(952.49 -112.46)"/><path class="cls-30" d="M1157.5,1672.06a78.79,78.79,0,0,0-38.16,5.87" transform="translate(952.49 -112.46)"/><path class="cls-9" d="M986.05,1036.16s43.45-41.11,26.42-94.54-69.87-58.71-112.73-45.8-160.3-8.8-203.16,56.37-15.86,123.89-42.87,140.92-65.17,29.36-58.71,72.22,121,105.1,85.72,154.43-68.69,163.82,67.53,229,144.44-90.42,153.25-180.85S883.3,1173,922.05,1134.21C961.39,1094.29,993.68,1072.56,986.05,1036.16Z" transform="translate(952.49 -112.46)"/><path class="cls-9" d="M787.59,1301s155.6,3.52,182.61,15.85,39.34,54,47.56,85.73,69.87,69.87,81,139.74-48.74,150.9-51.68,163.82-3.52,144.44,3.53,171.45,19.37,71,18.2,90.43-83.38,57.54-205.51,50.49-250.13-68.7-254.24-82.2,36.4-76.92,25.25-209.62-74.57-275.38-28.19-354.06C652.54,1295.1,764.1,1300.38,787.59,1301Z" transform="translate(952.49 -112.46)"/><path class="cls-29" d="M781.72,1189.41s6.46,68.11,5.28,111.56c0,0,17,36.4,70.46,47,64.59,13.51,77.51-23.49,68.7-39.34,0,0-15.27-56.37-17-95.12C908,1175.9,784.65,1184.12,781.72,1189.41Z" transform="translate(952.49 -112.46)"/><path class="cls-31" d="M834.56,1245.77c24.07,37.58,48.74,52.85,91,55.78-2.35-8.22-5.28-22.89-8.81-38.75C883.3,1266.91,867.44,1255.17,834.56,1245.77Z" transform="translate(952.49 -112.46)"/><path class="cls-29" d="M759.4,1301a288.09,288.09,0,0,1,68.12,70.46c33.46,48.14,76.33,84,106.27,80.44s44-42.86,5.29-141.51C939.08,1310.36,845.13,1295.1,759.4,1301Z" transform="translate(952.49 -112.46)"/><path class="cls-19" d="M1313.1,1856.43l246-15.27c2.94,0,6.46-6.46,7.64-4.11a64.32,64.32,0,0,1,0,10.57,8.22,8.22,0,0,1-1.77,5.28l-185.54,190.24a36,36,0,0,1-29.36,10.57l-241.91-24.07a5.88,5.88,0,0,1-5.28-3.52,112.16,112.16,0,0,1-9.4-18.79c0-1.76,13.51-1.76,15.27-2.94l187.89-141.51A29.33,29.33,0,0,1,1313.1,1856.43Z" transform="translate(952.49 -112.46)"/><path class="cls-9" d="M1310.16,1841.16l249.55-10.57a7.22,7.22,0,0,1,5.28,12.33L1373,2032a35.24,35.24,0,0,1-29.94,10l-244.85-30a7.16,7.16,0,0,1-3.52-12.91L1292.55,1847A30.19,30.19,0,0,1,1310.16,1841.16Z" transform="translate(952.49 -112.46)"/><path class="cls-29" d="M1420.55,1830s-6.46,1.18-6.46,13.51,4.7,45.21-7.63,47.56-17.62-12.33-23.49-25.25-23.48-13.5-34.64-32.29" transform="translate(952.49 -112.46)"/><path class="cls-29" d="M970.78,973.33a341.1,341.1,0,0,1,18.79,96.29c1.76,51.67,19.38,81,9.4,125.66s-45.21,79.26-88.66,81-106.87-37-141.51-83.38-45.21-143.27-24.66-190.24C763.51,956.3,917.35,907.57,970.78,973.33Z" transform="translate(952.49 -112.46)"/><path class="cls-9" d="M990.75,1023.83a44.75,44.75,0,0,1-41.1-22.9s-38.17,88.07-99.82,93.94c-42.28,4.11-50.5-15.85-68.11,0s33.46,107.45,17.61,182-91,95.12-143.85,49.33c-66.35-58.13,5.87-69.29,19.37-151.49s0-144.45,43.45-192,86.32-76.91,155-70.46S970.78,929.29,990.75,1023.83Z" transform="translate(952.49 -112.46)"/><path class="cls-9" d="M809.31,1083.72s-4.11,31.12-2.35,41.1-18.2-11.16-36.4,2.35c-10,7.63-19.38-40.52,0-55.2S800.51,1069.62,809.31,1083.72Z" transform="translate(952.49 -112.46)"/><path class="cls-29" d="M798.16,1125.4s-22.32-28.77-46.39-11.15,7.05,71,43.45,66.94" transform="translate(952.49 -112.46)"/><path class="cls-29" d="M1292,1990.89s33.47,27.59,46.39,37,4.7,17.61-9.4,17.61S1268.48,2008.5,1292,1990.89Z" transform="translate(952.49 -112.46)"/><path class="cls-29" d="M626.7,1348.53a73.23,73.23,0,0,0-32.88,31.12,210.06,210.06,0,0,0-19.37,145c21.72,99.23,72.81,248.37,95.7,283.6S800.51,1914,876.25,1960.94s133.87,72.81,148,83.38,42.27,37.58,95.7,44,71-12.92,87.49-8.81,44,22.9,59.3,21.14,7-13.51,1.18-19.38-40.52-37-40.52-37a451.39,451.39,0,0,1,51.68,27c25.83,15.26,38.16,15.85,45.21,15.26s15.26-2.93,14.09-9.39a11.4,11.4,0,0,0,12.92-1.17c5.87-5.29,7.63-10-6.46-25.84s-49.91-57.54-67.53-75.74-38.16-20-81.61-17.62-104.52-7-106.28-5.28-188.48-196.12-244.85-252.48c0,0-45.21-147.38-58.71-210.8C758.23,1360.86,691.29,1318,626.7,1348.53Z" transform="translate(952.49 -112.46)"/><path class="cls-30" d="M1338.35,2077.79s0-7.05-17.62-19.38-45.21-38.75-54-45.21a115,115,0,0,0-21.13-14.68" transform="translate(952.49 -112.46)"/><path class="cls-30" d="M1227.37,2044.91s-13.5-11.75-20-10" transform="translate(952.49 -112.46)"/><path class="cls-30" d="M844.54,1699.07a64.58,64.58,0,0,0-49.32,19.37" transform="translate(952.49 -112.46)"/><path class="cls-9" d="M967.85,1100.74C972,1106,975.48,1111.31,979,1116a30.6,30.6,0,0,0,5.88,6.46l2.93,2.93,1.76,1.18c.59.59,1.76,1.17,2.35,2.35a19.5,19.5,0,0,1,4.11,12.33,20.64,20.64,0,0,1-3.52,10.57,26.81,26.81,0,0,1-15.85,12.92,48.27,48.27,0,0,0,8.22-16.45,13.45,13.45,0,0,0-1.18-12.91c0-.59-.59-.59-1.17-1.18a8.28,8.28,0,0,0-2.35-1.76,21.93,21.93,0,0,1-3.52-4.11,34.92,34.92,0,0,1-5.29-8.81A59.32,59.32,0,0,1,967.85,1100.74Z" transform="translate(952.49 -112.46)"/><path class="cls-12" d="M949.65,1206.43a33.17,33.17,0,0,1-32.3-10.57" transform="translate(952.49 -112.46)"/><path class="cls-9" d="M909.72,1127.75h0a9.1,9.1,0,0,0,7.8-10.23,9.32,9.32,0,0,0-.17-.92l-1.17-5.29a9.1,9.1,0,0,0-10.24-7.8c-.31,0-.61.1-.92.17h0a9.1,9.1,0,0,0-7.81,10.23c0,.31.1.62.18.93l1.17,5.28A10.38,10.38,0,0,0,909.72,1127.75Z" transform="translate(952.49 -112.46)"/><path class="cls-9" d="M981.35,1116h0a9.1,9.1,0,0,0,7.81-10.23c0-.31-.1-.62-.17-.93l-1.18-5.28a9.1,9.1,0,0,0-10.23-7.81,9.35,9.35,0,0,0-.92.18h0a9.1,9.1,0,0,0-7.81,10.23,9.32,9.32,0,0,0,.17.92l1.18,5.29A9.86,9.86,0,0,0,981.35,1116Z" transform="translate(952.49 -112.46)"/><path class="cls-9" d="M904.43,1066.69a8.22,8.22,0,0,0,8.87-7.52,8.47,8.47,0,0,0-.06-1.88,25.64,25.64,0,0,0-4.11-12.33c-5.28-5.87-25.83-4.11-41.1,7.64s-21.73,27-14.09,27.59,18.79-9.39,31.12-12.33A43.31,43.31,0,0,1,904.43,1066.69Z" transform="translate(952.49 -112.46)"/><path class="cls-9" d="M981.35,1057.88a3.81,3.81,0,0,1-5.3-1,3.75,3.75,0,0,1-.57-1.33c-1.17-4.69-2.35-11.74-.59-13.5,2.94-3.53,11.75-1.18,13.51,4.11s2.35,8.22.59,8.22S984.29,1055.53,981.35,1057.88Z" transform="translate(952.49 -112.46)"/><path class="cls-9" d="M761.17,1140.67a9.32,9.32,0,0,1-.59-11.74,11.75,11.75,0,0,1,4.11-3.53c.59,0,1.17-.58,2.35-.58a9.94,9.94,0,0,1,4.11.58,9.11,9.11,0,0,1,4.11,4.12,39.9,39.9,0,0,1,3.52,7c1.76,4.11,2.35,8.22,3.52,11.16a9.58,9.58,0,0,0,2.35,4.11,8.78,8.78,0,0,0,5.87,1.76,9.75,9.75,0,0,1-7,2.93,10,10,0,0,1-7.64-4.11,54.35,54.35,0,0,1-7-12.33q-.75-2.68-1.76-5.28c0-.59-.59-1.17,0-1.17h0a3.22,3.22,0,0,0-2.94,1.17A9.38,9.38,0,0,0,761.17,1140.67Z" transform="translate(952.49 -112.46)"/><path class="cls-10" d="M2421.08,777.22H2214.4l-21.14,13.5a10.45,10.45,0,0,1-14.36-3.51,10.32,10.32,0,0,1-1.49-4.71V636.3a26.94,26.94,0,0,1,26.89-27h216.19a26.94,26.94,0,0,1,27,26.89v114a26.41,26.41,0,0,1-25.83,27Z" transform="translate(952.49 -112.46)"/><path class="cls-12" d="M2239.06,723.2l20.55-20.55a28,28,0,0,1,39.61-.32c.11.1.21.21.32.32a28,28,0,0,0,39.61.32l.31-.32,39.35-39.34" transform="translate(952.49 -112.46)"/><polygon class="cls-9" points="3337.76 562.59 3344.8 537.34 3319.56 544.38 3337.76 562.59"/><path class="cls-19" d="M4235.42,1459.5l-541.37-63.41a25.08,25.08,0,0,1-22.53-27.38,24.65,24.65,0,0,1,.81-4.33l125.07-571.9a35.86,35.86,0,0,1,29.94-26.42l564.85-59.3a20,20,0,0,1,22.9,24.07l-149.72,706.95A28.48,28.48,0,0,1,4235.42,1459.5Z" transform="translate(952.49 -112.46)"/><path class="cls-9" d="M4213.7,1459.5l-546.07-64a25.42,25.42,0,0,1-23-27.62,24.83,24.83,0,0,1,.71-4.09l126.24-576a34.4,34.4,0,0,1,30.53-26.43l569-59.89a20,20,0,0,1,22.9,24.08l-151.49,712.81A26.89,26.89,0,0,1,4213.7,1459.5Z" transform="translate(952.49 -112.46)"/><path class="cls-11" d="M4012.3,907l-205.51,10a7.81,7.81,0,0,1-8.37-7.21,8,8,0,0,1,.15-2.18L3815,831.24a11.4,11.4,0,0,1,9.4-8.23l207.26-17.61a7.38,7.38,0,0,1,8.22,9.39l-18.2,84.56A10.86,10.86,0,0,1,4012.3,907Z" transform="translate(952.49 -112.46)"/><path class="cls-10" d="M3740.44,1335h0a7.09,7.09,0,0,1-6.65-7.52,6.82,6.82,0,0,1,.19-1.28L3764.51,1183a9.53,9.53,0,0,1,10-7.64h0a6.9,6.9,0,0,1,6.46,8.81L3750.42,1328A9.14,9.14,0,0,1,3740.44,1335Z" transform="translate(952.49 -112.46)"/><path class="cls-14" d="M3813.25,1333.26l36.4-169.1a9.54,9.54,0,0,1,10-7.64h1.17a7.38,7.38,0,0,1,7.05,8.81l-36.41,169.11a10.1,10.1,0,0,1-10.57,7.63h-1.17a6.7,6.7,0,0,1-6.46-8.81Z" transform="translate(952.49 -112.46)"/><path class="cls-11" d="M3892.52,1339.72l41.1-193.18a11.32,11.32,0,0,1,11.15-8.8h0a7.87,7.87,0,0,1,7.93,7.81,8.4,8.4,0,0,1-.29,2.17l-41.1,193.17a11.73,11.73,0,0,1-11.75,8.81h0a7.81,7.81,0,0,1-7.34-8.25A7.38,7.38,0,0,1,3892.52,1339.72Z" transform="translate(952.49 -112.46)"/><path class="cls-11" d="M4186.1,975.09l13.5,28.77c-16.44,18.79-36.4,30.53-55.19,30.53-36.4,0-55.78-44-44-98.64s50.5-101,87.49-103.93c19.38-1.76,34.06,8.22,42.86,25.84l-25.83,30.53a25.14,25.14,0,0,0-25.25-15.85c-22.31,1.76-45.8,29.35-53.43,62.82s4.7,59.89,27,59.31A51.3,51.3,0,0,0,4186.1,975.09Z" transform="translate(952.49 -112.46)"/><path class="cls-14" d="M4236.6,929.29a171.82,171.82,0,0,1-36.41,74l-13.5-28.77a97.19,97.19,0,0,0,21.72-44,67.77,67.77,0,0,0-2.93-42.87l25.83-30.53C4240.12,875.27,4242.47,900.52,4236.6,929.29Z" transform="translate(952.49 -112.46)"/><path class="cls-11" d="M4029.33,1259.87c-11.75,54.6,7.63,98.64,44,98.64,18.79,0,38.76-11.74,55.2-30.53l-13.51-28.77a50.5,50.5,0,0,1-32.88,18.78c-22.31.59-34.05-26.42-27-59.3a97.23,97.23,0,0,1,18.2-39.34l-12.33-27A167,167,0,0,0,4029.33,1259.87Z" transform="translate(952.49 -112.46)"/><path class="cls-14" d="M4108.59,1196.45a25.42,25.42,0,0,1,25.25,15.86l25.84-30.54c-8.81-17.61-24.08-27.59-42.87-25.83-20,1.76-39.92,15.85-56.36,36.4l12.33,27C4083.35,1206.43,4095.68,1197,4108.59,1196.45Z" transform="translate(952.49 -112.46)"/><path class="cls-10" d="M4165,1254.58a171.8,171.8,0,0,1-36.4,74l-13.51-28.77a97.31,97.31,0,0,0,21.73-44,67.84,67.84,0,0,0-2.94-42.87l25.84-30.53C4168.48,1200,4171.42,1225.81,4165,1254.58Z" transform="translate(952.49 -112.46)"/><line class="cls-17" x1="4744.02" y1="855.58" x2="4888.46" y2="850.3"/><line class="cls-17" x1="4735.8" y1="888.46" x2="4942.48" y2="886.11"/><line class="cls-17" x1="4729.34" y1="922.52" x2="4938.37" y2="922.52"/><path class="cls-19" d="M4317,758.43c1.17-4.7-.59-8.22-4.11-8.22a10.87,10.87,0,0,0-7.64,9.39c-1.17,4.7.59,8.22,4.11,8.22A10.85,10.85,0,0,0,4317,758.43Z" transform="translate(952.49 -112.46)"/><path class="cls-19" d="M4351.09,755.49c1.18-4.7-1.17-8.22-4.11-8.22a12.4,12.4,0,0,0-8.22,9.4c-1.17,4.69,1.18,8.22,4.11,8.22A10.68,10.68,0,0,0,4351.09,755.49Z" transform="translate(952.49 -112.46)"/><path class="cls-9" d="M2177.41,2056.06v1.76a10.51,10.51,0,0,1-10.45,10.57h-498a10.52,10.52,0,0,1-10.57-10.45v-.12h0a16.76,16.76,0,0,1,4.11-10l96.3-95.12a23.52,23.52,0,0,1,16.44-7h327a24.43,24.43,0,0,1,20.55,11.75l52.85,91A46.38,46.38,0,0,1,2177.41,2056.06Z" transform="translate(952.49 -112.46)"/><path class="cls-19" d="M1929,2030.81c0,1.76-3.53,3.53-8.22,3.53s-8.22-1.76-8.22-3.53,3.52-3.52,8.22-3.52S1929,2029.05,1929,2030.81Z" transform="translate(952.49 -112.46)"/><path class="cls-11" d="M3908.37,2578.05s-45.21-96.88,68.11-158,270.68-.58,256.59,20.55a695.86,695.86,0,0,1-74.57,96.89C4122.69,2576.88,4019.93,2637.94,3908.37,2578.05Z" transform="translate(952.49 -112.46)"/><path class="cls-12" d="M4213.11,2436.54s-249-55.78-305.33,141.51S3869,2964.41,3869,2964.41" transform="translate(952.49 -112.46)"/><path class="cls-9" d="M3684.07,2800l40.52,477.36c0,18.21,74,32.3,165.58,32.3s165.58-14.68,165.58-32.3L4096.26,2800Z" transform="translate(952.49 -112.46)"/><ellipse class="cls-32" cx="4842.66" cy="2687.54" rx="205.51" ry="31.12"/><path class="cls-11" d="M3837.91,2700.77s-66.35-32.88-109.21,41.1-11.16,185.54,18.2,202,151.49-39.34,151.49-151.49C3898.39,2692.55,3837.91,2700.77,3837.91,2700.77Z" transform="translate(952.49 -112.46)"/><path class="cls-12" d="M3837.91,2700.77s-66.35-4.7-86.31,227.82" transform="translate(952.49 -112.46)"/><path class="cls-11" d="M3787.41,2565.13s-69.87-108.62-209.61-38.75S3442.16,2788.84,3463.89,2800,3812.66,2697.25,3787.41,2565.13Z" transform="translate(952.49 -112.46)"/><path class="cls-12" d="M3898.39,2792.37s-43.45-152.67-111-227.82-277.14,11.15-314.13,192.59" transform="translate(952.49 -112.46)"/><path class="cls-11" d="M3976.48,2626.2s-59.3-20.55-86.31,52.84c-26.42,71.64,4.7,234.87,157.36,284.19a21.13,21.13,0,0,0,22.31-6.46,253.63,253.63,0,0,0,58.13-164.4C4127.38,2673.17,4061.62,2586.86,3976.48,2626.2Z" transform="translate(952.49 -112.46)"/><path class="cls-12" d="M3976.48,2626.2s123.31,60.48,78.09,314.72" transform="translate(952.49 -112.46)"/><path class="cls-11" d="M2727.58,1840.57s2.35,74,109.21,81,313.55-16.44,354.06-27.6,38.17-76.33,12.33-94.53-180.84-26.42-260.11-38.17c-18.2-2.93-39.34-6.45-61.06-8.22a448,448,0,0,0-55.79-2.34C2772.79,1753.08,2728.17,1773.64,2727.58,1840.57Z" transform="translate(952.49 -112.46)"/><path class="cls-12" d="M2726.41,1820s0-15.27,22.9-11.15c49.91,9.39,92.18,116.84,41.1,103.34" transform="translate(952.49 -112.46)"/><path class="cls-12" d="M2942.48,1761.3c-18.2-2.93-39.34-6.45-61.06-8.22a447.93,447.93,0,0,0-55.78-2.34" transform="translate(952.49 -112.46)"/><path class="cls-11" d="M3466.82,1418.4c19.38,6.46,33.47,21.73,58.13,96.3,32.3,97.46,73.4,304.15,52.26,359.93s-63.41,84.55-205.51,91-280.08-4.7-298.28-4.7-48.73-66.94-29.36-111c0,0,120.37-29.36,188.48-47.56s143.27-37.58,174.39-41.11c0,0-50.49-123.89-66.94-167.34s-2.93-117.43,35.82-150.9S3450.38,1413.12,3466.82,1418.4Z" transform="translate(952.49 -112.46)"/><path class="cls-12" d="M3406.34,1761.3s58.13-11.74,92.78,0" transform="translate(952.49 -112.46)"/><path class="cls-12" d="M3583.08,1840.57s-12.33-29.36-62.24,3.52c-39.34,25.84-51.08,103.35-8.22,98.65" transform="translate(952.49 -112.46)"/><path class="cls-10" d="M3055.81,1851.14s-31.12,2.94-62.83,2.94-74.57,5.28-84.55,10-111,105.69-108.63,119.19,21.14,4.7,37.58-6.46,47-41.68,53.43-45.79a371.52,371.52,0,0,0-15.85,47c-7.63,28.18-15.27,56.37-7.63,61.06,10,5.88,19.37-4.11,22.31-10,0,0-.59,14.68,11.15,15.27s22.9-21.73,32.3-40.52a346.52,346.52,0,0,1,29.94-43.45s-9.39,30-12.91,46.39-5.88,35.82,2.93,37.58c13.51,2.93,25.84-37,33.47-52.26s37.58-5.28,59.3-18.79a159.61,159.61,0,0,1,34.06-17.61s14.68-14.68,14.68-46.39S3068.14,1850,3055.81,1851.14Z" transform="translate(952.49 -112.46)"/><path class="cls-24" d="M2888.46,2029.64s28.19-82.2,39.93-98.06,15.86-17,19.38-19.37" transform="translate(952.49 -112.46)"/><path class="cls-24" d="M2889.64,1931.58s4.7-9.39,12.33-23.48a63.91,63.91,0,0,1,12.92-14.1" transform="translate(952.49 -112.46)"/><path class="cls-24" d="M2961.86,1960.35s8.22-20,16.44-22.31" transform="translate(952.49 -112.46)"/><path class="cls-10" d="M3149.17,1791.25a482.64,482.64,0,0,0,45.21-17.61c21.72-10,30.53-14.1,47.56-15.27s70.46-1.76,78.09,2.93,17.62,27,22.9,38.17-11.74,55.19-11.74,55.19,7.63,38.76-1.76,42.87c-5.88,2.35-11.16,1.17-18.79-19.38,0,0,5.28,17.62-5.29,18.79s-22.31-29.36-29.94-42.86a241,241,0,0,0-22.32-30.54s6.46,21.14,7.64,28.19,5.87,25.25,2.93,32.29-13.5-2.35-24.07-26.42-14.09-32.29-20.55-31.71c-36.41,3.53-34.06-4.69-51.67-5.87l-38.75,10C3128,1829.42,3123.92,1805.93,3149.17,1791.25Z" transform="translate(952.49 -112.46)"/><path class="cls-24" d="M3310.64,1877.56s-11.75-38.16-15.86-49.91a244.93,244.93,0,0,0-17.61-32.29" transform="translate(952.49 -112.46)"/><path class="cls-24" d="M3331.19,1854.08s-7.05-41.1-10-51.09a121.4,121.4,0,0,0-7.64-18.2" transform="translate(952.49 -112.46)"/><path class="cls-24" d="M3252.51,1823s-3.53-11.75-5.29-15.27" transform="translate(952.49 -112.46)"/></svg>