<svg xmlns="http://www.w3.org/2000/svg" xmlns:xlink="http://www.w3.org/1999/xlink" viewBox="0 0 506.89 459.39"><defs><style>.cls-1{fill:url(#linear-gradient);}.cls-2{isolation:isolate;}.cls-3{clip-path:url(#clip-path);}.cls-4{mix-blend-mode:overlay;}.cls-5{fill:none;stroke:#fff;stroke-miterlimit:10;stroke-width:2.06px;}.cls-6{fill:url(#linear-gradient-3);}.cls-7{fill:url(#linear-gradient-4);}.cls-8{fill:url(#linear-gradient-5);}.cls-9{fill:url(#linear-gradient-6);}.cls-10{fill:#7c3348;}.cls-11{fill:#ee8640;}.cls-12{fill:#e24e4b;}.cls-13{fill:url(#linear-gradient-7);}.cls-14{fill:url(#linear-gradient-8);}.cls-15{fill:url(#linear-gradient-9);}.cls-16{fill:#e9bf38;}</style><linearGradient id="linear-gradient" x1="223.19" y1="449.68" x2="473.26" y2="449.68" gradientTransform="translate(-176.57 44.53) rotate(-37.36)" gradientUnits="userSpaceOnUse"><stop offset="0" stop-color="#e24e4b"/><stop offset="1" stop-color="#ee8640"/></linearGradient><clipPath id="clip-path" transform="translate(-40.64 -37.99)"><path class="cls-1" d="M231.91,172.61c12.26,21.12,35.43,34.19,47.54,55.39s11.44,47.52,21.13,69.95C314,329,347.45,349.29,381.3,350.5s67.09-15.09,89.94-40.09,35.88-58,40.47-91.53c3.84-28.16.35-60.58-21.58-78.66-26.1-21.54-64.62-13.21-98-18.66-25.28-4.13-44-17.16-63.47-32.7-12.54-10-23.64-18-40.31-16.56C239.89,76.35,206.46,128.76,231.91,172.61Z"/></clipPath><linearGradient id="linear-gradient-3" x1="323.89" y1="356.61" x2="476.51" y2="499.28" gradientUnits="userSpaceOnUse"><stop offset="0" stop-color="#ee8640"/><stop offset="1" stop-color="#e9bf38"/></linearGradient><linearGradient id="linear-gradient-4" x1="320.15" y1="344.65" x2="109.5" y2="171.52" gradientUnits="userSpaceOnUse"><stop offset="0" stop-color="#e9bf38"/><stop offset="1" stop-color="#ee8640"/></linearGradient><linearGradient id="linear-gradient-5" x1="36.45" y1="92.08" x2="90.31" y2="92.08" gradientTransform="translate(26.39 51.09) rotate(9.21)" gradientUnits="userSpaceOnUse"><stop offset="0" stop-color="#e24e4b"/><stop offset="1" stop-color="#7c3348"/></linearGradient><linearGradient id="linear-gradient-6" x1="237.78" y1="51.78" x2="261.41" y2="51.78" gradientTransform="matrix(1, 0, 0, 1, 0, 0)" xlink:href="#linear-gradient"/><linearGradient id="linear-gradient-7" x1="77.03" y1="87.13" x2="91.74" y2="87.13" xlink:href="#linear-gradient-3"/><linearGradient id="linear-gradient-8" x1="-430.12" y1="117.15" x2="-382.9" y2="117.15" gradientTransform="matrix(-0.8, 0.6, -0.6, -0.8, 117.53, 797.26)" xlink:href="#linear-gradient-3"/><linearGradient id="linear-gradient-9" x1="414.58" y1="453.78" x2="424.55" y2="453.78" gradientTransform="matrix(1, 0, 0, 1, 0, 0)" xlink:href="#linear-gradient"/></defs><g class="cls-2"><g id="Layer_1" data-name="Layer 1"><path class="cls-1" d="M231.91,172.61c12.26,21.12,35.43,34.19,47.54,55.39s11.44,47.52,21.13,69.95C314,329,347.45,349.29,381.3,350.5s67.09-15.09,89.94-40.09,35.88-58,40.47-91.53c3.84-28.16.35-60.58-21.58-78.66-26.1-21.54-64.62-13.21-98-18.66-25.28-4.13-44-17.16-63.47-32.7-12.54-10-23.64-18-40.31-16.56C239.89,76.35,206.46,128.76,231.91,172.61Z" transform="translate(-40.64 -37.99)"/><g class="cls-3"><g class="cls-4"><line class="cls-5" x1="182.31" y1="2.18" x2="139.99" y2="317.49"/><line class="cls-5" x1="190.4" y1="3.27" x2="148.08" y2="318.57"/><line class="cls-5" x1="198.49" y1="4.35" x2="156.17" y2="319.66"/><line class="cls-5" x1="206.58" y1="5.44" x2="164.26" y2="320.75"/><line class="cls-5" x1="214.67" y1="6.52" x2="172.35" y2="321.83"/><line class="cls-5" x1="222.76" y1="7.61" x2="180.44" y2="322.92"/><line class="cls-5" x1="230.85" y1="8.69" x2="188.53" y2="324"/><line class="cls-5" x1="238.94" y1="9.78" x2="196.62" y2="325.09"/><line class="cls-5" x1="247.03" y1="10.87" x2="204.7" y2="326.17"/><line class="cls-5" x1="255.12" y1="11.95" x2="212.79" y2="327.26"/><line class="cls-5" x1="263.2" y1="13.04" x2="220.88" y2="328.34"/><line class="cls-5" x1="271.29" y1="14.12" x2="228.97" y2="329.43"/><line class="cls-5" x1="279.38" y1="15.21" x2="237.06" y2="330.52"/><line class="cls-5" x1="287.47" y1="16.3" x2="245.15" y2="331.6"/><line class="cls-5" x1="295.56" y1="17.38" x2="253.24" y2="332.69"/><line class="cls-5" x1="303.65" y1="18.47" x2="261.33" y2="333.77"/><line class="cls-5" x1="311.74" y1="19.55" x2="269.42" y2="334.86"/><line class="cls-5" x1="319.83" y1="20.64" x2="277.5" y2="335.95"/><line class="cls-5" x1="327.92" y1="21.72" x2="285.59" y2="337.03"/><line class="cls-5" x1="336.01" y1="22.81" x2="293.68" y2="338.12"/><line class="cls-5" x1="344.09" y1="23.9" x2="301.77" y2="339.2"/><line class="cls-5" x1="352.18" y1="24.98" x2="309.86" y2="340.29"/><line class="cls-5" x1="360.27" y1="26.07" x2="317.95" y2="341.37"/><line class="cls-5" x1="368.36" y1="27.15" x2="326.04" y2="342.46"/><line class="cls-5" x1="376.45" y1="28.24" x2="334.13" y2="343.55"/><line class="cls-5" x1="384.54" y1="29.33" x2="342.22" y2="344.63"/><line class="cls-5" x1="392.63" y1="30.41" x2="350.31" y2="345.72"/><line class="cls-5" x1="400.72" y1="31.5" x2="358.39" y2="346.8"/><line class="cls-5" x1="408.8" y1="32.58" x2="366.48" y2="347.89"/><line class="cls-5" x1="416.9" y1="33.67" x2="374.57" y2="348.98"/><line class="cls-5" x1="424.98" y1="34.75" x2="382.66" y2="350.06"/><line class="cls-5" x1="433.07" y1="35.84" x2="390.75" y2="351.15"/><line class="cls-5" x1="441.16" y1="36.93" x2="398.84" y2="352.23"/><line class="cls-5" x1="449.25" y1="38.01" x2="406.93" y2="353.32"/><line class="cls-5" x1="457.34" y1="39.1" x2="415.02" y2="354.4"/><line class="cls-5" x1="465.43" y1="40.18" x2="423.1" y2="355.49"/><line class="cls-5" x1="473.52" y1="41.27" x2="431.19" y2="356.58"/><line class="cls-5" x1="481.61" y1="42.35" x2="439.28" y2="357.66"/><line class="cls-5" x1="489.69" y1="43.44" x2="447.37" y2="358.75"/><line class="cls-5" x1="497.78" y1="44.52" x2="455.46" y2="359.83"/><line class="cls-5" x1="505.87" y1="45.61" x2="463.55" y2="360.92"/></g></g><path class="cls-6" d="M191.2,339c-8,35.15,5.26,74.29,33,97.33s68.65,28.9,101.73,14.58c17.32-7.49,32.89-20.1,51.59-22.59,26.48-3.53,51.09,14,77.58,17.39,22.49,2.88,69.53,127.27,60-24.3-1.42-22.63,12.49-46.49-3.64-62.43-18-17.77-47.34-16.67-69.32-29.21-20.78-11.85-32.76-34.46-50.38-50.63C332.25,224.45,209.43,258.87,191.2,339Z" transform="translate(-40.64 -37.99)"/><path class="cls-7" d="M234.41,72c-19.48-18.33-47.18-29.56-73.34-24s-48.32,31-45.13,57.53c2.88,23.92,24.15,45.59,17.77,68.83-6.81,24.79-38.47,30.78-59.39,45.73C48.77,238.4,38.85,272.57,40.91,303.9c4.14,63,53.88,120.31,115.71,133.24S287,417.51,316,361.41c5.92-11.44,10.56-24,19.89-32.88,16.67-15.87,42.83-15.38,63.5-25.49,29.36-14.36,44.33-50.86,37.84-82.9s-31.61-58.47-61.69-71.27c-16.25-6.92-33.81-10.17-51.41-10.63-11.89-.32-32.16,6.88-42.94,1.88s-13.78-20.93-19.06-30.7C254.75,95.7,245.81,82.77,234.41,72Z" transform="translate(-40.64 -37.99)"/><path class="cls-8" d="M99.91,154.27c.54,9.77-1.54,19.94-7.34,27.83s-15.66,13.08-25.36,11.84-18.42-9.76-18.48-19.55c0-7.86,5-14.94,5.73-22.77,1.39-14.11-12.69-45.37,13.85-43.32C87.63,109.78,99,138.26,99.91,154.27Z" transform="translate(-40.64 -37.99)"/><path class="cls-9" d="M249.6,63.6a11.82,11.82,0,1,1,11.81-11.82A11.84,11.84,0,0,1,249.6,63.6Zm0-20.56a8.74,8.74,0,1,0,8.73,8.74A8.75,8.75,0,0,0,249.6,43Z" transform="translate(-40.64 -37.99)"/><path class="cls-10" d="M310.08,497.38a8.35,8.35,0,1,1,8.34-8.34A8.35,8.35,0,0,1,310.08,497.38Zm0-14.51a6.17,6.17,0,1,0,6.16,6.17A6.18,6.18,0,0,0,310.08,482.87Z" transform="translate(-40.64 -37.99)"/><path class="cls-11" d="M220.6,478.88a1.9,1.9,0,0,1-1.34-.56l-13.87-13.87a1.89,1.89,0,0,1,2.67-2.67l13.87,13.88a1.89,1.89,0,0,1-1.33,3.22Z" transform="translate(-40.64 -37.99)"/><path class="cls-11" d="M206.72,478.88a1.89,1.89,0,0,1-1.33-3.22l13.87-13.88a1.89,1.89,0,0,1,2.67,2.67l-13.87,13.87A1.89,1.89,0,0,1,206.72,478.88Z" transform="translate(-40.64 -37.99)"/><path class="cls-11" d="M310.17,55.89a1.52,1.52,0,0,1-.43-1V39.47a1.48,1.48,0,1,1,3,0V54.84a1.48,1.48,0,0,1-2.53,1Z" transform="translate(-40.64 -37.99)"/><path class="cls-11" d="M302.49,48.2a1.48,1.48,0,0,1,1-2.52h15.38a1.48,1.48,0,0,1,0,3H303.53A1.47,1.47,0,0,1,302.49,48.2Z" transform="translate(-40.64 -37.99)"/><path class="cls-12" d="M278.45,451.36a1.76,1.76,0,0,1,.64,1.66l-2.38,14.9a1.79,1.79,0,0,1-2.89,1.1l-11.7-9.51a1.78,1.78,0,0,1,.48-3.05l14.09-5.39A1.78,1.78,0,0,1,278.45,451.36Zm-4.77,12.95,1.4-8.81-8.32,3.19Z" transform="translate(-40.64 -37.99)"/><path class="cls-13" d="M87.66,79.17a9.35,9.35,0,0,0-9,3.44,8.33,8.33,0,0,0-.25,9.5,7.5,7.5,0,0,0,9,2.51,8,8,0,0,0,4.34-7.1,11,11,0,0,0-3.43-7.82" transform="translate(-40.64 -37.99)"/><path class="cls-14" d="M387.59,464.93c3.44-3.56,6.28-8.12,6.28-13.08s-3.71-10.09-8.67-10.3c-3.82-.16-7.19,2.45-9.78,5.28s-4.89,6.07-8.26,7.89c-4.67,2.53-10.94,2.06-14.62,5.89-6.38,6.63,1.32,14.82,8.37,15.86C370.1,477.83,381.51,471.2,387.59,464.93Z" transform="translate(-40.64 -37.99)"/><path class="cls-15" d="M420.35,449.07a5.16,5.16,0,0,0-3.51.27,4.6,4.6,0,0,0-1.89,5.8,6.28,6.28,0,0,0,5.34,3.52,4.08,4.08,0,0,0,3.5-1.22,4.83,4.83,0,0,0,.75-3.22C424.43,451.09,423.48,449.82,420.35,449.07Z" transform="translate(-40.64 -37.99)"/><path class="cls-16" d="M376.81,92.79h-13.9V78.89h13.9ZM365.69,90H374V81.67h-8.34Z" transform="translate(-40.64 -37.99)"/></g></g></svg>