<?xml version="1.0" encoding="utf-8"?>
<!-- Generator: Adobe Illustrator 26.0.3, SVG Export Plug-In . SVG Version: 6.00 Build 0)  -->
<svg version="1.1" id="Слой_1" xmlns="http://www.w3.org/2000/svg" xmlns:xlink="http://www.w3.org/1999/xlink" x="0px" y="0px"
	 viewBox="0 0 3656.4 2851.9" style="enable-background:new 0 0 3656.4 2851.9;" xml:space="preserve">
<style type="text/css">
	.st0{fill:#F7F2E1;}
	.st1{fill:#F5EFD9;}
	.st2{fill:#EDE0C4;}
	.st3{fill:none;stroke:#D9AF00;stroke-width:3.74;stroke-linecap:round;stroke-miterlimit:10;}
	.st4{fill:#FFFFFF;}
	.st5{fill:none;stroke:#D9AF00;stroke-width:2.14;stroke-linecap:round;stroke-miterlimit:10;}
	.st6{fill:#D9AF00;}
	.st7{fill:#A83D0C;}
	.st8{fill:#FBCC45;}
	.st9{fill:#B4702F;}
	.st10{fill:#56303C;}
	.st11{fill:none;stroke:#56303C;stroke-width:5.17;stroke-linecap:round;stroke-miterlimit:10;}
	.st12{fill:none;stroke:#56303C;stroke-width:4.13;stroke-linecap:round;stroke-miterlimit:10;}
	.st13{fill:none;stroke:#56303C;stroke-width:3.98;stroke-linecap:round;stroke-miterlimit:10;}
	.st14{fill:none;stroke:#56303C;stroke-width:3.98;stroke-miterlimit:10;}
	.st15{fill:none;stroke:#FFFFFF;stroke-width:4.13;stroke-linecap:round;stroke-miterlimit:10;}
	.st16{fill:none;stroke:#56303C;stroke-width:5.68;stroke-linecap:round;stroke-miterlimit:10;}
	.st17{fill:none;stroke:#FFFFFF;stroke-width:5.17;stroke-linecap:round;stroke-miterlimit:10;}
	.st18{fill:none;stroke:#FFFFFF;stroke-width:5.17;stroke-linecap:round;stroke-linejoin:round;}
	.st19{fill:#A0D6FF;}
	.st20{fill:none;stroke:#FFFFFF;stroke-width:5.42;stroke-linecap:round;stroke-linejoin:round;}
	.st21{fill:#8BC2EB;}
	.st22{fill:none;stroke:#56303C;stroke-width:4.74;stroke-linecap:round;stroke-miterlimit:10;}
</style>
<g id="CLOUDS">
	<path class="st0" d="M3252.2,494.1h-394.3c0-43.4,52.6-78.7,117.5-78.7c21.5-0.2,42.8,3.9,62.6,12.1c36.7-53.4,109.9-67,163.3-30.2
		C3233.2,419.2,3252.2,455.4,3252.2,494.1L3252.2,494.1z"/>
	<path class="st0" d="M965.3,595.6H440.5c0-46.8,47.8-84.8,106.8-84.8c12.9,0,25.6,1.8,37.9,5.5c19.6-28.8,49.6-47.3,83.2-47.3
		c50.5,0,92.9,41.6,103.9,97.5c19.4-13.8,50.8-24.6,86.1-24.6C917.5,542,965.3,572.2,965.3,595.6z"/>
</g>
<g id="PLANTS">
	<ellipse class="st1" cx="877.8" cy="2178.8" rx="306.9" ry="458.1"/>
	<path class="st2" d="M3262.8,2636.9c0-286.2-160.6-518.1-358.8-518.1c-198.2,0-358.8,232-358.8,518.1H3262.8z"/>
	<path class="st2" d="M916.2,2636.9c0-177-145.9-320.6-326-320.6s-326,143.5-326,320.6H916.2z"/>
	<path class="st1" d="M1626.3,2636.9H947.9c64-117,191.9-196.8,339.2-196.8S1562.3,2519.9,1626.3,2636.9z"/>
	<path class="st1" d="M3026.9,2636.9h-610.6c57.6-117,172.7-196.8,305.3-196.8C2854.2,2440.2,2969.3,2519.9,3026.9,2636.9z"/>
	<line class="st3" x1="848.1" y1="2363.4" x2="848.1" y2="2636.9"/>
	<line class="st3" x1="894.2" y1="2458" x2="848.1" y2="2517.8"/>
	<line class="st3" x1="848.1" y1="2636.9" x2="764" y2="2555.9"/>
	<circle class="st4" cx="848.1" cy="2299.8" r="46.1"/>
	<line class="st5" x1="848.1" y1="2253.8" x2="848.1" y2="2345.9"/>
	<line class="st5" x1="802" y1="2299.8" x2="894.2" y2="2299.8"/>
	<line class="st5" x1="815.5" y1="2267.2" x2="880.7" y2="2332.4"/>
	<line class="st5" x1="815.5" y1="2332.4" x2="880.7" y2="2267.2"/>
	<circle class="st4" cx="848.1" cy="2299.9" r="17.1"/>
	<circle class="st6" cx="848.1" cy="2299.8" r="9.2"/>
	<circle class="st4" cx="933.2" cy="2415.6" r="46.1"/>
	<line class="st5" x1="933.2" y1="2369.5" x2="933.2" y2="2461.7"/>
	<line class="st5" x1="887.1" y1="2415.6" x2="979.3" y2="2415.6"/>
	<line class="st5" x1="900.6" y1="2383" x2="965.8" y2="2448.2"/>
	<line class="st5" x1="900.6" y1="2448.2" x2="965.8" y2="2383"/>
	<circle class="st4" cx="933.1" cy="2415.4" r="17.1"/>
	<circle class="st6" cx="933.2" cy="2415.6" r="9.2"/>
	<circle class="st4" cx="720" cy="2511.4" r="46.1"/>
	<line class="st5" x1="720" y1="2465.3" x2="720" y2="2557.5"/>
	<line class="st5" x1="673.9" y1="2511.4" x2="766.1" y2="2511.4"/>
	<line class="st5" x1="687.4" y1="2478.8" x2="752.6" y2="2544"/>
	<line class="st5" x1="687.4" y1="2544" x2="752.6" y2="2478.8"/>
	<circle class="st4" cx="720" cy="2511.3" r="17.1"/>
	<circle class="st6" cx="720" cy="2511.4" r="9.2"/>
	<line class="st3" x1="2953" y1="2455.6" x2="2953" y2="2633.2"/>
	<line class="st3" x1="2999.1" y1="2526.7" x2="2953" y2="2586.5"/>
	<circle class="st4" cx="2953" cy="2392.1" r="46.1"/>
	<line class="st5" x1="2953" y1="2346" x2="2953" y2="2438.2"/>
	<line class="st5" x1="2906.9" y1="2392.1" x2="2999.1" y2="2392.1"/>
	<line class="st5" x1="2920.4" y1="2359.5" x2="2985.6" y2="2424.7"/>
	<line class="st5" x1="2920.4" y1="2424.7" x2="2985.6" y2="2359.5"/>
	<circle class="st4" cx="2952.8" cy="2391.9" r="17.1"/>
	<circle class="st6" cx="2953" cy="2392.1" r="9.2"/>
	<circle class="st4" cx="3038.2" cy="2484.4" r="46.1"/>
	<line class="st5" x1="3038" y1="2438.2" x2="3038" y2="2530.4"/>
	<line class="st5" x1="2991.9" y1="2484.3" x2="3084.1" y2="2484.3"/>
	<line class="st5" x1="3005.4" y1="2451.7" x2="3070.6" y2="2516.9"/>
	<line class="st5" x1="3005.4" y1="2516.9" x2="3070.6" y2="2451.7"/>
	
		<ellipse transform="matrix(0.9239 -0.3827 0.3827 0.9239 -719.4378 1351.7026)" class="st4" cx="3038" cy="2484.3" rx="17.1" ry="17.1"/>
	<circle class="st6" cx="3038" cy="2484.3" r="9.2"/>
	<path class="st1" d="M3410.4,2636.9h-394.3c0-43.4,52.6-78.7,117.4-78.7c21.5-0.2,42.8,3.9,62.6,12.1
		c36.8-53.4,109.9-66.9,163.3-30.2C3391.4,2562.1,3410.4,2598.2,3410.4,2636.9L3410.4,2636.9z"/>
</g>
<path id="MAN_S_CLOAK" class="st7" d="M1907.2,2235.7l-776.8-749.8l794-822.6c207-214.5,548.8-220.6,763.3-13.5l0,0
	c214.5,207.1,220.6,548.8,13.5,763.3L1907.2,2235.7z"/>
<g id="WOMAN">
	<path id="CLOAK" class="st8" d="M1905.8,2235.7l243.6-252.3c279.6-289.8,271.4-751.2-18.2-1030.8L1833,664.9
		c-214.4-207.1-556.3-201-763.3,13.5l0,0c-207,214.5-201,556.3,13.5,763.3L1905.8,2235.7z"/>
	<g id="LEGS">
		<path class="st9" d="M1036.1,2541.9l31.3,65.3c1.8,3.7,6.2,5.2,9.9,3.5c1.3-0.6,2.4-1.6,3.1-2.8l34.8-57.2
			c4.8-7.9,13.4-12.8,22.7-12.8h1l85.8-323.1l-152.2-15.8l-33,324.6C1038.9,2529.8,1037.8,2535.9,1036.1,2541.9z"/>
		<polygon class="st10" points="1072.5,2199 1224.7,2214.7 1212.9,2259.4 1071.2,2212.6 		"/>
		<path class="st8" d="M954.5,2631.9h118c5.4,0,10.4-2.7,13.3-7.2l21.9-37.5c3-4.8,9.4-6.3,14.3-3.3c2.1,1.3,3.6,3.3,4.3,5.6
			l14.5,42.4h14.6l10.1-53.5c0-17.6-10.5-33.5-26.6-40.5h-1c-9.3,0-17.9,4.8-22.7,12.8l-34.8,57.2c-2.1,3.5-6.7,4.6-10.2,2.5
			c-1.2-0.7-2.2-1.8-2.8-3.1l-31.3-65.3c-8.4,30.2-29.5,55.3-57.8,68.8l-25.9,12.3c-2.3,1.1-3.3,3.9-2.1,6.2
			C951.1,2630.9,952.7,2631.9,954.5,2631.9z"/>
		<line class="st11" x1="1081.7" y1="2631.9" x2="947.5" y2="2631.9"/>
		<line class="st11" x1="1155.4" y1="2631.9" x2="1140.8" y2="2631.9"/>
		<line class="st11" x1="1137.9" y1="2535.3" x2="1034.9" y2="2535.3"/>
		<path class="st9" d="M1648.6,2541.9l-31.3,65.3c-1.8,3.7-6.2,5.2-9.9,3.5c-1.3-0.6-2.4-1.6-3.1-2.8l-34.8-57.2
			c-4.8-7.9-13.4-12.8-22.7-12.8h-1l-85.8-323.1l152.2-15.8l33,324.6C1645.8,2529.8,1647,2535.9,1648.6,2541.9z"/>
		<polygon class="st10" points="1612.2,2199 1460,2214.7 1471.8,2259.4 1613.6,2213.2 		"/>
		<path class="st8" d="M1730.2,2631.9h-118c-5.4,0-10.4-2.7-13.3-7.2l-21.9-37.5c-3-4.8-9.4-6.3-14.3-3.3c-2.1,1.3-3.6,3.3-4.3,5.6
			l-14.5,42.4h-14.6l-10.1-53.5c0-17.6,10.5-33.5,26.6-40.5h1c9.3,0,17.9,4.8,22.7,12.8l34.8,57.2c2.1,3.5,6.7,4.6,10.2,2.5
			c1.2-0.7,2.2-1.8,2.8-3.1l31.3-65.3c8.4,30.2,29.5,55.3,57.8,68.8l25.9,12.3c2.3,1.1,3.2,3.9,2.1,6.2
			C1733.6,2630.9,1732,2631.9,1730.2,2631.9z"/>
		<line class="st11" x1="1601.4" y1="2631.9" x2="1738" y2="2631.9"/>
		<line class="st11" x1="1529.3" y1="2631.9" x2="1543.9" y2="2631.9"/>
		<line class="st11" x1="1545.8" y1="2535.3" x2="1648.6" y2="2535.3"/>
	</g>
	<g id="PANTS">
		<path class="st6" d="M1675.2,2188.5c-90.3,16.6-181.8,26.3-273.6,29l-66-533.5l-59.5,533.5c-167.3-5.2-280.2-29-280.2-29
			l173.4-1035.5c8.8-52.8,54.6-91.5,108.1-91.4l133.5,0.3c54,0.1,99.9,39.6,107.9,93.1L1675.2,2188.5z"/>
		<path class="st12" d="M1486.9,1094.7c-19.3,22.3-73.9,36.2-143.3,36.2c-68.4,0-123.3-14.9-143.7-37.3"/>
		<path class="st12" d="M1517.4,1204.4c-44.1,0-80.4-34.9-82.1-79"/>
		<path class="st12" d="M1167.7,1204.4c44.1,0,80.4-34.9,82.1-79"/>
		<path class="st12" d="M1395.8,2170.8c0,0,150.1-9.6,272.3-29"/>
		<path class="st12" d="M1281.3,2168.3c0,0-182.8-2.9-276.8-30.9"/>
	</g>
	<g id="BODY">
		<path class="st2" d="M1175,887.9c-27.7-31.7-41.1-63.4-37.1-105.3l2.8-28.5L986.2,884.8l144.4,131.1
			c30.2,26.6,33.1,72.6,6.5,102.7c-26.6,30.2-72.6,33.1-102.7,6.5l0,0L848.8,966.2c-42.6-36.4-47.6-100.5-11.2-143.1
			c1.5-1.8,3.2-3.6,4.8-5.3l203.4-196.5c48.3-49,104-76.7,172.8-76.9l231.4-0.6c77.1-0.2,141.4,24.1,188.8,97.5l52.6-0.6
			c53.9-0.6,82.2,48.3,72.1,101.3l-33.3,239.9c-7.5,39.2-45.4,65-84.6,57.5c-27.5-5.3-49.5-25.9-56.5-53.1L1533.5,841
			c-1.2-3.2-4.8-4.9-8.1-3.7c-2.2,0.8-3.7,2.8-4,5.1l-27.1,201c0,32.8-63.8,54.7-150.8,54.7s-152.3-24.1-152.3-57L1175,887.9z"/>
		<path class="st12" d="M1597.2,858.8V690.2c0-27.9,22.6-50.6,50.5-50.6c0.5,0,1.1,0,1.6,0"/>
		<path class="st4" d="M1448.4,795.7l-35-35.1c-8.2-8.4-8.1-21.8,0.2-30s21.8-8.1,30,0.2c2.1,2.1,3.7,4.6,4.7,7.4
			c1.8-4.8,5.2-8.8,9.7-11.2c10.2-5.7,23.2-2,28.9,8.2c4.6,8.3,3.2,18.6-3.5,25.3L1448.4,795.7z"/>
		<line class="st12" x1="991.2" y1="884.8" x2="962.5" y2="860.7"/>
	</g>
	<g id="HEAD">
		<ellipse class="st10" cx="1463.4" cy="320.9" rx="61.9" ry="48.2"/>
		<ellipse class="st10" cx="1371.6" cy="371.4" rx="107.4" ry="98.6"/>
		
			<ellipse transform="matrix(0.7071 -0.7071 0.7071 0.7071 95.0452 955.3235)" class="st10" cx="1200.7" cy="362.9" rx="76.8" ry="76.8"/>
		
			<ellipse transform="matrix(0.7071 -0.7071 0.7071 0.7071 65.6652 874.6987)" class="st10" cx="1088.7" cy="358.1" rx="77.1" ry="77.1"/>
		<path class="st10" d="M1007.4,343.9l14.2,14.2l0,0l-14.3,14.3c-9.7,9.7-25.3,9.7-35,0l0,0l-14.2-14.2l0,0l14.3-14.3
			C982.1,334.2,997.8,334.2,1007.4,343.9C1007.4,343.9,1007.4,343.9,1007.4,343.9z"/>
		<path class="st9" d="M1479.4,383.6c0.8,9.4,6.8,17.5,15.5,20.9c2.6,1.5,3.5,4.9,1.9,7.5c-0.4,0.7-1,1.3-1.7,1.8l-15.5,10.3
			l0.4,39.3c0.2,10.5-8.2,19.1-18.6,19.3c-0.1,0-0.2,0-0.3,0h-27.9v81.9l-80.6,97.3l-99.8-97.3l72.8-125.9
			c-13.6,0-24.6-11-24.6-24.7v-3.3c0-16.5,13.3-30,29.9-30c12.9,0,24.4,8.3,28.5,20.5l1,3c0,0,39.2-10.1,53.8-47.1
			c4.8-11.7,5.8-24.5,2.7-36.8l14.5,1.4c26.9,2.6,47.5,25.1,47.8,52.1L1479.4,383.6z"/>
		<ellipse class="st10" cx="1448.1" cy="392.3" rx="5.2" ry="7.7"/>
		<path class="st13" d="M1432,375.5c0,0,11-7.2,22.1-6.8"/>
		<path class="st13" d="M1345.3,413.5c0,0-4.4-16.8-21.9-12"/>
		<line class="st13" x1="1330" y1="412.6" x2="1336.6" y2="403.9"/>
		<path class="st14" d="M1479.6,440.9c0,0-15,0.4-19.4-11.1"/>
		<path class="st10" d="M1433.1,482.6c0,0-24.7-2.2-40.3-19l40.3,52.2V482.6z"/>
	</g>
	<g id="HAND">
		<path class="st9" d="M1261,1113.6l-22.8,28.2c-5.1,6.3-14.3,7.5-20.8,2.6l-7.3-5.5c-10.2-7.5-24.1-7.5-34.3,0l-8.2,6
			c-14.8,11.8-47.3,0.3-52.9-20.5c-3.2-12.1-2.9-24.4,4.6-40.1c7.8-16.2,16.2-22.8,34.2-23.2l28.5-3.2c6-0.7,12.1,0.7,17.1,4
			l59.5,38.5c4.2,2.7,5.4,8.4,2.6,12.6C1261.4,1113.1,1261.2,1113.3,1261,1113.6z"/>
		<line class="st12" x1="1215.3" y1="1099.6" x2="1250.1" y2="1122.7"/>
		<line class="st12" x1="1224.6" y1="1088.1" x2="1259.4" y2="1111.2"/>
		<line class="st12" x1="1202.8" y1="1112.7" x2="1239.2" y2="1135.5"/>
	</g>
	<g id="CLOAK-2">
		<path class="st7" d="M1280.9,515.8L1280.9,515.8c-42.5,0-140.4,28.2-166.5,51.1l12.1-2.5c44-9,89.8,0.7,126.4,26.6l99.7,70.7
			l-68.6-66.8c-18.4-17.9-22.3-46.1-9.4-68.3L1280.9,515.8z"/>
		<path class="st7" d="M1352.5,661.7l58.9-71.1c14-16.9,21.7-38.3,21.7-60.3v-14.6l139.7,41.4l-7.6-0.9
			c-42.7-5.1-85.6,6.8-119.6,33.1L1352.5,661.7z"/>
		<path class="st12" d="M1126.5,564.4c44-9,89.7,0.7,126.4,26.6l99.7,70.7"/>
		<path class="st12" d="M1530.6,555.9c-30.9,2.9-60.3,14.6-84.8,33.6l-93.1,72.3"/>
		<circle class="st6" cx="1352.5" cy="670.8" r="25.4"/>
		<path class="st15" d="M1336.7,672.7c0.1-9.4,7.8-17,17.2-16.9c0,0,0,0,0.1,0"/>
	</g>
	<g id="HAND-2">
		<g id="SIGN">
			<line class="st16" x1="1729.7" y1="605.6" x2="1698.4" y2="283.5"/>
			
				<rect x="1544.3" y="116.1" transform="matrix(0.9953 -9.671437e-02 9.671437e-02 0.9953 -12.8738 164.7789)" class="st2" width="298.1" height="198.1"/>
			<path class="st4" d="M1625.8,215.4l26.1,26c7.5,6.1,12.4,17.5,13.3,27.1l2.4,25.1l-53.6,5.2l-1.7-19.5l-31.6-36.3
				c-3-4.9-3.5-11-1.4-16.3c6.5-16,18.4-43.8,22.1-52.9c0.4-1.1,1.6-1.6,2.7-1.1c0.1,0,0.2,0.1,0.3,0.2h0.1c4.4,2.7,6.8,7.8,6,13
				l-3.4,28.7c-0.2,1.6,0.1,3.3,1.1,4.6l3,4.4l5.2-7.5c2-2.7,5.7-3.3,8.5-1.3C1625.3,214.8,1625.6,215.1,1625.8,215.4z"/>
			<path class="st2" d="M1629.3,252.7c-1.1,0-2.2-0.6-2.7-1.6l-18.6-33.4c-0.8-1.5-0.2-3.4,1.4-4.2c1.5-0.7,3.2-0.2,4.1,1.2
				l18.6,33.4c0.8,1.5,0.3,3.4-1.2,4.2C1630.4,252.6,1629.8,252.7,1629.3,252.7z"/>
			<path class="st4" d="M1756.5,202.7l-20.7,30.6c-6.1,7.5-8.8,19.5-7.9,29.1l2.4,25.1l53.6-5.2l-2.1-19.6l24.1-41.7
				c2-5.4,1.4-11.4-1.7-16.3c-9.4-14.5-26.5-39.4-31.8-47.7c-0.6-1-1.9-1.2-2.9-0.6c-0.1,0.1-0.2,0.1-0.3,0.2l-0.1,0.1
				c-3.8,3.5-5.2,9-3.4,13.9l9,27.5c0.6,1.5,0.5,3.2-0.2,4.7l-2.1,4.9l-6.6-6.3c-2.4-2.3-6.2-2.3-8.5,0.1
				C1757.1,201.9,1756.8,202.3,1756.5,202.7z"/>
			<path class="st2" d="M1759.6,240c-0.3,0-0.7-0.1-1-0.2c-1.6-0.5-2.5-2.3-2-3.9l11.8-36.4c0.5-1.7,2.2-2.6,3.9-2.1
				c1.7,0.5,2.6,2.2,2.1,3.9c0,0.1,0,0.1-0.1,0.2l-11.8,36.4C1762.2,239.2,1761,240,1759.6,240z"/>
			<path class="st7" d="M1694.3,242l-50.2-41.4c-11.9-9.8-13.5-27.4-3.7-39.2c9.8-11.9,27.4-13.5,39.2-3.7c3.1,2.5,5.6,5.7,7.3,9.3
				c1.7-6.5,5.7-12.1,11.2-15.9c12.7-8.7,30-5.5,38.8,7.2c7,10.2,6.4,23.8-1.4,33.4L1694.3,242z"/>
		</g>
		<g id="HAND-3">
			<path class="st9" d="M1767.1,600.5c2.5,15.4-6.9,30.3-21.9,34.7l-18.4,5.4l7.5,19.2c1.7,11.2-7.7,24.5-33.7,28.4
				s-48.4-2.2-50-13.4l-6.5-79.6c-3.1-22.3,10.6-43.5,32.2-49.8l47.9-14c14.8-4.3,30.3,4.2,34.6,19c0.3,1.1,0.6,2.2,0.7,3.3
				L1767.1,600.5z"/>
			<path class="st12" d="M1679.3,604.3c0,0,22.9-11.6,13.3-35.8c0,0,32.3-15,29.3-34.8"/>
			<path class="st12" d="M1702.1,564.1l6.3,34.7c2.6,14.4,15,25,29.7,25.3l17,0.3"/>
			<line class="st12" x1="1713.9" y1="605.6" x2="1757.3" y2="595.6"/>
			<line class="st12" x1="1708.1" y1="585.7" x2="1751.5" y2="575.6"/>
			<line class="st12" x1="1702.3" y1="565.7" x2="1745.7" y2="555.7"/>
		</g>
	</g>
</g>
<g id="MAN">
	<g id="SHOES">
		<path class="st7" d="M2243.5,2631.9h-236.2c-10.9,0-13.1-15.4-2.6-18.5l40.2-11.7c34.2-10,61.8-35.5,74.5-68.8l2.8-7.3l1.9-5.2
			l93.6,3.1l13.6,24l30.3,53.2c5.7,10,2.3,22.7-7.7,28.4C2250.7,2630.9,2247.1,2631.9,2243.5,2631.9z"/>
		<line class="st11" x1="1997.2" y1="2631.9" x2="2271.2" y2="2631.9"/>
		<path class="st11" d="M2128.6,2571.8l-11-11.1c-4.7-4.8-12.3-4.8-17.1-0.2c-0.4,0.3-0.7,0.7-1,1.1l-4.1,5.2
			c-2.9,3.6-8.1,4.2-11.8,1.3c-0.5-0.4-0.9-0.8-1.3-1.3"/>
		<path class="st9" d="M2231.3,2547.6c0,0-50.2,21.7-109.2-22l1.9-5.2l93.6,3.1L2231.3,2547.6z"/>
		<path class="st7" d="M2855.9,2631.9h-218.4c-12.8,0-23.2-10.4-23.2-23.2c0-2.6,0.4-5.1,1.2-7.5l19.4-56.8l7.9-23.2l95.5-3.2
			c1.6,3.4,3.3,6.7,5.2,10c18.9,33.6,49,59.4,85,73l30.8,11.6c5.2,1.9,7.8,7.6,5.9,12.8C2863.9,2629.3,2860.1,2631.9,2855.9,2631.9z
			"/>
		<line class="st11" x1="2607.1" y1="2631.9" x2="2871.9" y2="2631.9"/>
		<path class="st11" d="M2787.7,2571.8l-11-11.1c-4.7-4.8-12.3-4.8-17.1-0.2c-0.4,0.3-0.7,0.7-1,1.1l-4.1,5.2
			c-2.9,3.6-8.2,4.2-11.8,1.3c-0.5-0.4-0.9-0.8-1.3-1.3"/>
		<path class="st9" d="M2743.8,2528.1c0,0-79.1,42.3-108.7,16.2l7.9-23.2l95.5-3.2l5.2,10L2743.8,2528.1z"/>
	</g>
	<g id="LEGS-2">
		<path class="st10" d="M2762.3,2492.3c1.7,12-6.6,23.1-18.6,24.8c-0.7,0.1-1.4,0.2-2.1,0.2l-103.5,4.4
			c-30.6,1.2-49.9-20.4-55.4-50.5l-188.3-1035.4l-117.6,1049.6c-2.6,22.7-22.1,39.6-45,38.8l-130.2-4.6
			c-16.2-0.6-28.8-14.1-28.3-30.3c0-0.8,0.1-1.6,0.2-2.4l155-1328.3c1.1-9.2,8.8-16.1,18-16.1h322.5L2762.3,2492.3z"/>
		<path class="st17" d="M2437.8,1698.8l-46.8-284.9l-20.7-11.6c-6.2-2.8-10.9-8.1-13-14.6"/>
		<circle class="st15" cx="2374" cy="1169.5" r="11.2"/>
		<line class="st15" x1="2296.2" y1="1208.6" x2="2584" y2="1208.6"/>
	</g>
	<g id="BODY-2">
		<path class="st2" d="M2957.9,975.5c-0.1,56.5-46.1,102.3-102.6,102.2c-39-0.1-74.5-22.3-91.7-57.3l-84.3-198
			c-6.9-8.3-19.3-9.4-27.6-2.5c-3.4,2.8-5.7,6.7-6.6,11.1l-35.1,278.7c-2.4,18.7-18.3,32.8-37.2,32.8h-312.6
			c-30.6,0-56.5-22.8-60.4-53.2l-34-264.4c-2.5-10.5-13.1-17-23.6-14.5c-2.8,0.7-5.5,2-7.8,3.8l-170.3,135l234.3,219l-81.4,84.9
			l-233.2-157.5c-80.1-60-96.5-173.6-36.5-253.7c3-4.1,6.3-8,9.6-11.8l176.3-198.3c47-53,114-84,184.8-85.7l340-8.3
			c58.2-1.4,115.2,17.1,161.5,52.5c26.2,20.2,46.5,47,58.8,77.6l27.4,67.5l19.2-165l89.1,33l42.9,359.7
			C2957.6,967.3,2957.9,971.4,2957.9,975.5z"/>
		<polyline class="st18" points="1941.7,924.7 1963.5,946.8 1937.5,949.3 		"/>
		<path class="st4" d="M2534.4,800.8l-35-35.1c-8.3-8.3-8.2-21.8,0.1-30.1c8.3-8.3,21.8-8.2,30.1,0.1c2.1,2.1,3.8,4.7,4.8,7.5
			c1.8-4.8,5.2-8.8,9.7-11.2c3.2-1.8,6.7-2.7,10.3-2.7c11.7,0,21.2,9.5,21.2,21.3c0,5.6-2.2,11-6.2,15L2534.4,800.8z"/>
		<polygon class="st19" points="2189.8,1158.9 2152.7,1125.6 2110.5,1248.9 		"/>
		<line class="st20" x1="2803.2" y1="719.2" x2="2781.3" y2="912.6"/>
	</g>
	<g id="HAND-4">
		<g id="SIGN-2">
			<line class="st16" x1="2926.5" y1="610.5" x2="2947.2" y2="285.8"/>
			
				<rect x="2850" y="63.4" transform="matrix(8.559082e-02 -0.9963 0.9963 8.559082e-02 2485.7861 3143.1123)" class="st2" width="210.6" height="307.8"/>
			
				<ellipse transform="matrix(0.7071 -0.7071 0.7071 0.7071 728.86 2146.1924)" class="st8" cx="2955.1" cy="193.3" rx="56.5" ry="56.5"/>
			<path class="st21" d="M2949.7,160.9l-6-0.5c-2-0.2-3.8,1.2-4.2,3.1l-2.4,11.4c-0.5,2.5-2.5,4.3-5,4.7l-12.7,2.1
				c-2.4,0.4-4.2,2.3-4.5,4.7l-0.5,3.8c-0.3,2.3,1.2,4.5,3.4,5.2l3.4,1c1.3,0.4,2.3,1.3,2.8,2.6l0.9,2.7l0.6,1.8l-1.2-1.5l-1.7-2.1
				c-0.6-0.8-1.5-1.3-2.5-1.5l-9.3-1.7c-1.3-0.2-2.4-1.1-3-2.2l-7.8-15.1c4.6-18.3,18.1-33.1,35.8-39.4l-4.5,7.9
				c-0.6,1.1-0.2,2.5,0.9,3.2c0.3,0.2,0.6,0.3,1,0.3l9.9,0.5c0.9,0,1.8,0.4,2.5,1l5.2,4.8c0.9,0.4,1.3,1.4,0.9,2.3
				S2950.6,161.3,2949.7,160.9L2949.7,160.9z"/>
			<path class="st21" d="M2958.7,217.9l-0.5,6.1c-0.1,1-0.5,1.9-1.2,2.5l-7.1,6.4c-0.9,0.8-2.3,1.1-3.4,0.6l-2.7-1.1
				c-0.7-0.3-1.5,0-1.7,0.7c0,0.1-0.1,0.2-0.1,0.4l-1,8.4c-0.1,1.3,0.3,2.5,1.2,3.4l3.8,3.8c-3.7-0.6-7.4-1.6-11-2.9l0,0l-5.6-5.8
				c-0.6-0.6-1-1.5-1-2.4l-0.3-9.1l-10-6.1c-1.8-1.1-2.8-3.1-2.6-5.2l0.7-8.4c0.1-1.6,1-3,2.4-3.8l5.8-3.4l0.6-0.3l6-3.4
				c1.2-0.7,2.7-0.6,3.8,0.3l7.7,6.2c0.9,0.7,1.4,1.7,1.5,2.8l0.3,3.3c0.1,0.9,0.8,1.6,1.7,1.7l8.8,0.8c2.2,0.2,3.9,2.1,3.7,4.3
				C2958.7,217.8,2958.7,217.8,2958.7,217.9z"/>
			<path class="st21" d="M2984.7,145.1l-3.9,0.9c-0.4,0.1-0.9,0.1-1.3,0.1l-8.1-0.7c-0.8-0.1-1.5,0.1-2.2,0.5l-9.3,5.3
				c-1.4,0.8-3.2,0.3-3.9-1.1c0,0,0-0.1-0.1-0.1l-1.7-3.4c-0.6-1.2-0.5-2.6,0.2-3.6l0.8-1.2c0.6-0.9,0.4-2.1-0.5-2.7c0,0,0,0-0.1,0
				l-3.1-2.1c2.8-0.2,5.6-0.1,8.3,0.1C2968.7,137.7,2977.2,140.5,2984.7,145.1z"/>
			<path class="st21" d="M3011.5,198.1c-1.4,16.6-10.2,31.8-23.8,41.4l3.1-10l0.3-6.8c0.1-2.4-1.7-4.5-4.2-4.7l-7.2-0.6
				c-1.3-0.1-2.5-0.8-3.3-1.8l-3.9-5.2c-0.7-0.9-1-2-0.9-3.2l0.9-10.2c0.2-2.8,2.3-5.2,5.1-5.9l17.2-4.1c1.2-0.3,2.5-0.1,3.6,0.5
				l11,6.4C3010.8,194.8,3011.7,196.4,3011.5,198.1L3011.5,198.1z"/>
			<path class="st4" d="M2887.3,216l21,30.4c6.2,7.4,9,19.4,8.2,29l-2.2,25.1l-53.7-4.6l1.8-19.5L2838,235c-2-5.4-1.4-11.4,1.7-16.3
				c9.3-14.6,26.1-39.7,31.3-48c0.6-1,1.9-1.3,2.9-0.6c0.1,0.1,0.2,0.1,0.3,0.2l0.1,0.1c3.8,3.5,5.3,8.9,3.6,13.8l-8.6,27.6
				c-0.5,1.5-0.5,3.2,0.2,4.7l2.2,4.8l6.5-6.4c2.4-2.3,6.2-2.2,8.5,0.2C2886.9,215.4,2887.1,215.7,2887.3,216z"/>
			<path class="st2" d="M2884.5,253.4c-1.3,0-2.5-0.9-2.9-2.1l-12.2-36.2c-0.5-1.6,0.3-3.4,2-3.9c1.6-0.5,3.4,0.3,3.9,2l12.2,36.2
				c0.6,1.6-0.3,3.4-1.9,3.9c0,0,0,0,0,0C2885.2,253.4,2884.9,253.5,2884.5,253.4z"/>
			<path class="st4" d="M3018.1,227.3l-25.9,26.3c-7.4,6.2-12.2,17.6-13,27.2l-2.2,25.1l53.7,4.6l1.5-19.6l31.3-36.7
				c3-5,3.4-11,1.2-16.4c-6.6-15.9-18.9-43.6-22.7-52.6c-0.4-1.1-1.7-1.6-2.7-1.1c-0.1,0-0.2,0.1-0.3,0.2h-0.1
				c-4.4,2.8-6.7,7.9-5.9,13.1l3.8,28.7c0.3,1.6-0.1,3.3-1,4.6l-3,4.4l-5.3-7.4c-2-2.7-5.8-3.3-8.4-1.3
				C3018.7,226.7,3018.4,227,3018.1,227.3z"/>
			<path class="st2" d="M3015,264.6c-0.5,0-1-0.1-1.5-0.4c-1.5-0.8-2.1-2.7-1.3-4.2l18.2-33.5c0.7-1.6,2.6-2.2,4.2-1.5
				c1.6,0.7,2.2,2.6,1.5,4.2c0,0.1-0.1,0.2-0.2,0.3l-18.2,33.6C3017.1,264.1,3016.1,264.7,3015,264.6z"/>
		</g>
		<g id="HAND-5">
			<path class="st9" d="M2968,564c-0.9,18-15.1,32.4-33,33.6l-20.7,1.4l1.2,15.4c-0.9,13-25.2,20.5-55.2,18.5
				c-30-2-41.1-14.1-41.1-14.1l12.1-90.9c1.9-25.8,22.5-46.3,48.3-48.1l57.2-4c17.7-1.1,32.9,12.3,34,29.9c0.1,1.2,0.1,2.4,0,3.7
				L2968,564z"/>
			<path class="st22" d="M2868.7,546.9c0,0,28.5-7.4,23.6-36.9c0,0,39.9-9,41.4-31.8"/>
			<path class="st22" d="M2904.1,507.4l-1.4,40.4c-0.6,16.8,10.8,31.7,27.1,35.6l19,4.5"/>
			<line class="st22" x1="2907.2" y1="556.8" x2="2958.3" y2="556.1"/>
			<line class="st22" x1="2905.5" y1="533" x2="2956.6" y2="532.3"/>
			<line class="st22" x1="2903.9" y1="509.2" x2="2955" y2="508.6"/>
		</g>
	</g>
	<g id="HEAD-2">
		<path class="st6" d="M2280.2,327.7l-30.3-31.5c-16.7-17.6-16.7-45.3,0-62.9l0,0c15.9-16.7,42.4-17.4,59.1-1.5c0.5,0.5,1,1,1.5,1.5
			l8.4,8.7l8.5-8.7c15.9-16.7,42.3-17.4,59.1-1.5c0.5,0.5,1,1,1.5,1.5l8.4,8.7l8.4-8.7c15.9-16.7,42.3-17.4,59.1-1.6
			c0.5,0.5,1.1,1,1.6,1.6l0,0c18.2,19.2,23,47.6,12,71.7l-44.8,98.1L2280.2,327.7z"/>
		<path class="st9" d="M2507.9,538.8c-89.7,18.1-98.8,93.5-98.8,93.5c-34-90.3-108.2-88.4-108.2-88.4V437.2l-4.1-0.2
			c-20.1-1.1-35.5-18.4-34.3-38.5c0-0.5,0.1-0.9,0.1-1.4l9-94.1c1.6-16.5,15.4-29,31.9-29h23c16,0,31.3,6.7,42.2,18.5l0,0l8.5,43.6
			c2.5,13,14,22.4,27.2,22.4l0.4-1.7c4.2-16.5,19.1-28.1,36.1-28.1h1.6c20.6,0,37.2,16.7,37.2,37.2c0,20.6-16.7,37.2-37.2,37.2h-5
			L2507.9,538.8z"/>
		<path class="st10" d="M2300.8,437.2c0,0,45.8,1.1,73-11.3l-73,60V437.2z"/>
		<path class="st10" d="M2339.8,356.4c0,4.2-2.5,7.5-5.6,7.5c-3.1,0-5.6-3.4-5.6-7.5s2.5-7.5,5.6-7.5
			C2337.3,348.9,2339.8,352.2,2339.8,356.4z"/>
		<path class="st10" d="M2283.6,356.4c0,3.7-2.2,6.7-5,6.7c-2.8,0-5-3-5-6.7s2.2-6.7,5-6.7C2281.4,349.7,2283.6,352.7,2283.6,356.4z
			"/>
		<path class="st12" d="M2295.3,337v34c0,3.4,2.3,6.4,5.6,7.3l3.6,1"/>
		<path class="st12" d="M2297.8,397.5c0,0,17.2,2.2,25.4-9"/>
		<path class="st6" d="M2316.4,320.2h25.3c7.9,0,14.2,6.4,14.2,14.2c0,0,0,0,0,0v2.6l0,0h-26.8c-7,0-12.7-5.7-12.7-12.7
			L2316.4,320.2L2316.4,320.2z"/>
		<path class="st6" d="M2298.9,337h-24c-6.7,0-12.2-5.5-12.2-12.2c0,0,0,0,0,0v-4.7h19.4C2291.3,320.2,2298.9,327.7,2298.9,337
			L2298.9,337L2298.9,337z"/>
		<path class="st12" d="M2449,354.5c0,0-18-1.6-19.4,17.2"/>
		<line class="st12" x1="2446.6" y1="371.7" x2="2436.6" y2="359.6"/>
	</g>
	<g id="CLOAK-3">
		<path class="st8" d="M2399.7,610l4.3,22.3l-19.5-18.4c-40.6-38.4-103.8-65.5-161.7-68.1l78.1-47.2l53.7,39.8
			C2378,555.7,2394.1,581.3,2399.7,610z"/>
		<path class="st12" d="M2384.5,613.9c-40.6-38.4-106.3-68.1-164.3-70.7"/>
		<path class="st8" d="M2404.6,609.9l-2.5,22.4l19.5-18.4c40.6-38.4,93-61.8,148.6-66.4l56.1-0.4l-113.3-40.2
			c-16.4-5.8-34.7-2.3-47.8,9.2l-21.6,19C2421.7,554.2,2407.8,580.9,2404.6,609.9z"/>
		<path class="st12" d="M2421.6,613.9c40.6-38.4,93-61.8,148.6-66.4"/>
		<circle class="st6" cx="2401.5" cy="637.9" r="25.4"/>
		<path class="st15" d="M2385.6,639.8c0.1-9.4,7.8-17,17.2-16.9c0,0,0,0,0.1,0"/>
	</g>
	<g id="HAND-6">
		<path class="st9" d="M2110.5,1248.9l79.3-90c12-14,32.4-16.9,47.8-6.9l43.6,28.3c5.2,3.4,6.6,10.3,3.3,15.4
			c-0.3,0.4-0.6,0.8-0.9,1.2l-31.9,36.8l-49.2-1.7l-7.3,12.4c-7.9,17.6-42.8,28-59.2,17.9L2110.5,1248.9z"/>
		<line class="st12" x1="2260.9" y1="1225.5" x2="2208.2" y2="1203.7"/>
		<line class="st12" x1="2273" y1="1211.2" x2="2218.3" y2="1188.5"/>
		<line class="st12" x1="2284.6" y1="1197.7" x2="2225.9" y2="1173.4"/>
	</g>
</g>
</svg>
