<svg id="Layer_1" data-name="Layer 1" xmlns="http://www.w3.org/2000/svg" viewBox="0 0 1315.19 121.94"><defs><style>.cls-1{fill:none;}.cls-2{fill:#ffead8;}</style></defs><line class="cls-1" x1="89.53" y1="44.75" x2="195.17" y2="65.35"/><path class="cls-2" d="M1300.43,170c0-.3,0-.6,0-.91.25-6.84.56-12.73-.71-19.63a63,63,0,0,0-3.86-11.89c-.76-1.94-1.52-3.87-2.11-5.87-.06-.22-.14-.59-.21-1s0-.81,0-.94c.43-14.4-15.87-28.78-30.38-23.14l-5.38,2.06c-.49-.14-1-.28-1.5-.38a71.54,71.54,0,0,0-19.37-1.4l-1.37-.07c-2-.57-4-1.13-6-1.55-9.1-1.92-17.87-.76-26.49,1.69h-.93c-16,.25-31.81,3.21-47.79,1.41a16,16,0,0,0-6.39.78,84.33,84.33,0,0,0-19.28-3.93,64.47,64.47,0,0,0-12.88.36c-2,.26-4,.55-6.06.83l-1.7.17c-2.13,0-4.25.08-6.38,0a83.87,83.87,0,0,0-30.09,4.78,19.88,19.88,0,0,0-10.46-2.19l-3.11.19a23.11,23.11,0,0,0-13.18-4,23.45,23.45,0,0,0-10.35,2.49,23,23,0,0,0-22-.93,23.19,23.19,0,0,0-11-2.76,23.55,23.55,0,0,0-11,2.82,23.16,23.16,0,0,0-12.52-3.61c-.41,0-.83,0-1.25,0s-1,0-1.53,0a24,24,0,0,0-13.28,4.19c-5.52-1.29-11-2.55-16.6-3.69-23.11-4.75-46.49-7-70-5.09a29.4,29.4,0,0,0-4.66.76c-6.05-2.54-12.22-2.47-18.64-2.13l-38.87,2.1a25.57,25.57,0,0,0-9.08-2q-47.82-1.59-95.64.23a81.81,81.81,0,0,0-14.07.28,25.49,25.49,0,0,0-18.21-2.51c-7.76,1.7-15.56,3-23.41,4.25l-.49.08q-.34,0-.66.06-2.84.34-5.67.65-6.62.72-13.26,1.22c-15.86,1.21-31.76,1.61-47.66,1.72-32.47.22-64.91-.52-97.35.85-9.79.41-19.94.37-29.67,1.74l-.06,0c-9.28-4.9-18.34-3.75-25.69,1.5l-2,0q-8.23-.2-16.47-.43c-11.3-.29-22.6-.47-33.89-1-21.91-1-43.77-6.33-65.73-4.93A27.54,27.54,0,0,0,301.68,105c-14.63-3.86-30.1-3.87-45.15-3.76-11,.07-22.43.84-32.55,5.08l-23.78-.93c-4.26-.17-8.52-.35-12.78-.5-2.08-.18-4.17-.35-6.25-.51-8.58-.66-17.19-1.14-25.8-1.32-6.93-.15-15-1.11-21.54,1.63a5.08,5.08,0,0,0-2.41,1.16l-.18.14c-.65.39-1.29.82-1.91,1.26-19.91-3-40.17-2.64-60.32-2.53-11.81.07-23.56-.75-35.35-.91-4.35-.06-9.1.36-13,2.5A15.77,15.77,0,0,0,17,109.17c-1.16-.87-2.32-1.73-3.5-2.55a4.94,4.94,0,0,0-5.4.22c-2.68-1.28-6.71-.18-7.19,3.07a235.75,235.75,0,0,0-2.39,47.63A4.86,4.86,0,0,0,1.84,162a31.61,31.61,0,0,0-9.9,2.55c-2.63,1.14-2.82,4.64-1.79,6.84a14.92,14.92,0,0,0,5.54,6.34c-4.09,5.75.45,15.46,2,21.79,1,4,5.6,4.45,8.36,2.2.2-.16.39-.33.58-.5a4.59,4.59,0,0,0,2.35.66,78.42,78.42,0,0,0,20.77-3c7.13,3.82,15.19,4.64,23.23,4.27a303.33,303.33,0,0,0,30.79-3.47l1.71-.26A4.5,4.5,0,0,0,88.9,203a16.81,16.81,0,0,0,7.29.27c16.78.17,33.5-.64,50.26-1.53,19-1,37.9-.51,56.9-.9.87,0,1.74-.06,2.61-.1a4,4,0,0,0,2.52,2.73c16.36,7,33.2,3.11,50.21,1.34s34.24-2.07,51.4-2.15A23,23,0,0,0,329,212.24q37-.48,74-1A253.8,253.8,0,0,1,436.35,213c13.14,1.56,26.45.61,38.13-6.1,45.49,8.9,92.79.87,139,2.08,28.37.75,56.49,5.55,84.89,5.84,28.56.29,57-3,85.58-3.65,32.93-.73,65.86.54,98.76,1.81a20.81,20.81,0,0,0,6.73-.85,19.46,19.46,0,0,0,5.74.47A1148.31,1148.31,0,0,1,1083,216.11c8.73.88,17.2-5.26,21.36-13.14l3.32,0,34.92.15,69.85.31a23.67,23.67,0,0,0,12.72-3.82c2.25.2,4.5.39,6.74.61q5.71.57,11.41,1.26c1.26.15,7.14.16,1.21.13a41,41,0,0,1,5.68.84q12.29,1.89,24.39,4.71c10,2.33,22-1.45,27.11-11A25,25,0,0,0,1300.43,170ZM15.52,152.61l0-.68a4.46,4.46,0,0,0,.82,0A6.3,6.3,0,0,0,15.52,152.61Zm5.91-2.7,1.91-1,.06.28Zm14.28,16.87-.59-.12c0-.22,0-.43-.08-.65.3.06.59.14.89.19C35.84,166.39,35.78,166.59,35.71,166.78Zm7.8-13c1-.23,1.94-.44,2.91-.66a5.15,5.15,0,0,0,0,.88C45.47,153.91,44.49,153.83,43.51,153.77Zm15.34,39c-1.46.13-2.93.24-4.4.34l.13-.14h0q8.28-.74,16.52-1.89l.77.08c0,.06,0,.11,0,.17C67.59,191.88,63.23,192.39,58.85,192.76ZM90,188.68l-1.34.21-5.1.79c.68-.24,1.37-.51,2.06-.81l4.44-.58A2.63,2.63,0,0,0,90,188.68Z" transform="translate(10.43 -94.25)"/><path d="M1280,103.85c-15.89.06-31.78,0-47.66-.31a5.11,5.11,0,0,0-.76.07,6.31,6.31,0,0,0-1.14-.07c-66.79,2.15-133.63,2-200.43.41-61.74-1.52-123.3-5.84-185-8.24-35.4-1.37-70.8-1.66-106.2-1.33-106.19,1-212.37,7.58-318.58,7.26-39.07-.11-78.11-1.56-117.17-2q-8.37-.09-16.74-.11c-41.84-.08-83.67.51-125.49,1.24-53.57.94-107.23,2.85-160.84,3.07V109c71.41-.1,142.88-2.79,214.29-3.9q9.47-.13,18.92-.25t18.93-.16q11.64-.06,23.28,0c54.32.26,108.6,2.22,162.92,2h0c62-.22,123.91-2.59,185.85-4.58l26.54-.81c51-1.5,101.95-2.42,152.93-1.58,45.57.76,91,4.08,136.52,6.2,83.66,3.9,167.5,5.39,251.25,3.63q17.94-.37,35.88-.95a4.85,4.85,0,0,0,.8-.12,6.36,6.36,0,0,0,1.1.12q25.38.48,50.79.41Z" transform="translate(10.43 -94.25)"/></svg>