<?xml version="1.0" encoding="utf-8"?>
<!-- Generator: Adobe Illustrator 26.0.3, SVG Export Plug-In . SVG Version: 6.00 Build 0)  -->
<svg version="1.1" id="Слой_1" xmlns="http://www.w3.org/2000/svg" xmlns:xlink="http://www.w3.org/1999/xlink" x="0px" y="0px"
	 viewBox="0 0 3656.4 2851.9" style="enable-background:new 0 0 3656.4 2851.9;" xml:space="preserve">
<style type="text/css">
	
		.st0{clip-path:url(#SVGID_00000152252257834013868080000013381273728514801564_);fill:none;stroke:#D1E8F7;stroke-width:1.9165;stroke-miterlimit:10;}
	.st1{clip-path:url(#SVGID_00000152252257834013868080000013381273728514801564_);fill:#FEBB94;}
	.st2{clip-path:url(#SVGID_00000152252257834013868080000013381273728514801564_);fill:#5F0101;}
	
		.st3{clip-path:url(#SVGID_00000152252257834013868080000013381273728514801564_);fill:none;stroke:#D1E8F7;stroke-width:1.4297;stroke-miterlimit:10;}
	.st4{clip-path:url(#SVGID_00000152252257834013868080000013381273728514801564_);fill:#1C85E8;}
	
		.st5{clip-path:url(#SVGID_00000152252257834013868080000013381273728514801564_);fill:url(#SVGID_00000041267624893737762600000017009443797208898474_);}
	.st6{clip-path:url(#SVGID_00000152252257834013868080000013381273728514801564_);fill:#FFFFFF;}
	
		.st7{clip-path:url(#SVGID_00000152252257834013868080000013381273728514801564_);fill:url(#SVGID_00000100355570064579230420000000568277631234483108_);}
	
		.st8{clip-path:url(#SVGID_00000152252257834013868080000013381273728514801564_);fill:url(#SVGID_00000134931004503398483100000000779823152243191998_);}
	
		.st9{clip-path:url(#SVGID_00000152252257834013868080000013381273728514801564_);fill:none;stroke:#EF6A77;stroke-width:11.6898;stroke-miterlimit:10;}
	
		.st10{clip-path:url(#SVGID_00000152252257834013868080000013381273728514801564_);fill:none;stroke:#FFFFFF;stroke-width:11.6898;stroke-linecap:round;stroke-miterlimit:10;}
	
		.st11{clip-path:url(#SVGID_00000152252257834013868080000013381273728514801564_);fill:none;stroke:#FFFFFF;stroke-width:5.9837;stroke-linecap:round;stroke-miterlimit:10;}
	
		.st12{opacity:0.4;clip-path:url(#SVGID_00000152252257834013868080000013381273728514801564_);fill:none;stroke:#FFFFFF;stroke-width:5.9837;stroke-linecap:round;stroke-miterlimit:10;enable-background:new    ;}
	.st13{clip-path:url(#SVGID_00000152252257834013868080000013381273728514801564_);fill:#FBCC45;}
	
		.st14{clip-path:url(#SVGID_00000152252257834013868080000013381273728514801564_);fill:url(#SVGID_00000026147189574579237050000005551021205858695576_);}
	.st15{clip-path:url(#SVGID_00000152252257834013868080000013381273728514801564_);fill:#FFCCB3;}
	.st16{clip-path:url(#SVGID_00000152252257834013868080000013381273728514801564_);fill:#FCBA9F;}
	
		.st17{clip-path:url(#SVGID_00000152252257834013868080000013381273728514801564_);fill:none;stroke:#FFFFFF;stroke-width:7.5651;stroke-linecap:round;stroke-miterlimit:10;}
	
		.st18{clip-path:url(#SVGID_00000152252257834013868080000013381273728514801564_);fill:none;stroke:#FFFFFF;stroke-width:11.9991;stroke-linecap:round;stroke-miterlimit:10;}
	
		.st19{opacity:0.4;clip-path:url(#SVGID_00000152252257834013868080000013381273728514801564_);fill:none;stroke:#FFFFFF;stroke-width:11.9991;stroke-linecap:round;stroke-miterlimit:10;enable-background:new    ;}
	
		.st20{clip-path:url(#SVGID_00000152252257834013868080000013381273728514801564_);fill:none;stroke:#FF967C;stroke-width:3;stroke-linecap:round;}
	
		.st21{clip-path:url(#SVGID_00000152252257834013868080000013381273728514801564_);fill:url(#SVGID_00000144340123863830763090000007353333637666395548_);}
	
		.st22{clip-path:url(#SVGID_00000152252257834013868080000013381273728514801564_);fill:none;stroke:#FFFFFF;stroke-width:12;stroke-linecap:round;stroke-miterlimit:10;}
	
		.st23{opacity:0.4;clip-path:url(#SVGID_00000152252257834013868080000013381273728514801564_);fill:none;stroke:#FFFFFF;stroke-width:12;stroke-linecap:round;stroke-miterlimit:10;enable-background:new    ;}
	
		.st24{clip-path:url(#SVGID_00000152252257834013868080000013381273728514801564_);fill:none;stroke:#EF6A77;stroke-width:11.6898;stroke-linecap:round;stroke-miterlimit:10;}
</style>
<g>
	<defs>
		<rect id="SVGID_1_" x="511.9" y="60" width="2753.2" height="2731.9"/>
	</defs>
	<clipPath id="SVGID_00000053529083038081916620000003585752609759556228_">
		<use xlink:href="#SVGID_1_"  style="overflow:visible;"/>
	</clipPath>
	
		<path style="clip-path:url(#SVGID_00000053529083038081916620000003585752609759556228_);fill:none;stroke:#D1E8F7;stroke-width:1.9165;stroke-miterlimit:10;" d="
		M1937.3,2496.9c646.5,0,1170.6-524.1,1170.6-1170.6c0-646.5-524.1-1170.6-1170.6-1170.6S766.7,679.8,766.7,1326.3
		C766.7,1972.8,1290.8,2496.9,1937.3,2496.9z"/>
	<path style="clip-path:url(#SVGID_00000053529083038081916620000003585752609759556228_);fill:#FEBB94;" d="M984.9,680.2
		c22.8,0,41.2-18.5,41.2-41.2c0-22.8-18.5-41.2-41.2-41.2c-22.8,0-41.2,18.5-41.2,41.2C943.7,661.7,962.2,680.2,984.9,680.2z"/>
	<path style="clip-path:url(#SVGID_00000053529083038081916620000003585752609759556228_);fill:#5F0101;" d="M3107.9,1412.1
		c22.8,0,41.3-18.5,41.3-41.2c0-22.8-18.5-41.2-41.3-41.2c-22.7,0-41.2,18.5-41.2,41.2C3066.6,1393.6,3085.1,1412.1,3107.9,1412.1z"
		/>
	<path style="clip-path:url(#SVGID_00000053529083038081916620000003585752609759556228_);fill:#5F0101;" d="M1985.3,2538.1
		c22.8,0,41.2-18.5,41.2-41.2c0-22.8-18.5-41.2-41.2-41.2c-22.8,0-41.2,18.5-41.2,41.2C1944,2519.7,1962.5,2538.1,1985.3,2538.1z"/>
	
		<path style="clip-path:url(#SVGID_00000053529083038081916620000003585752609759556228_);fill:none;stroke:#D1E8F7;stroke-width:1.4297;stroke-miterlimit:10;" d="
		M1964.4,2207.2c482.3,0,873.2-391,873.2-873.2c0-482.3-391-873.2-873.2-873.2c-482.3,0-873.2,391-873.2,873.2
		C1091.1,1816.3,1482.1,2207.2,1964.4,2207.2z"/>
	<path style="clip-path:url(#SVGID_00000053529083038081916620000003585752609759556228_);fill:#FEBB94;" d="M2822.7,1540.6
		c17,0,30.8-13.8,30.8-30.8c0-17-13.8-30.8-30.8-30.8c-17,0-30.8,13.8-30.8,30.8C2791.9,1526.9,2805.7,1540.6,2822.7,1540.6z"/>
	<path style="clip-path:url(#SVGID_00000053529083038081916620000003585752609759556228_);fill:#5F0101;" d="M1154.5,1692.9
		c17,0,30.8-13.8,30.8-30.8c0-17-13.8-30.8-30.8-30.8c-17,0-30.8,13.8-30.8,30.8C1123.7,1679.1,1137.5,1692.9,1154.5,1692.9z"/>
	<path style="clip-path:url(#SVGID_00000053529083038081916620000003585752609759556228_);fill:#1C85E8;" d="M1573.2,583.2
		c17,0,30.8-13.8,30.8-30.8c0-17-13.8-30.8-30.8-30.8c-17,0-30.8,13.8-30.8,30.8C1542.5,569.4,1556.2,583.2,1573.2,583.2z"/>
	<path style="clip-path:url(#SVGID_00000053529083038081916620000003585752609759556228_);fill:#5F0101;" d="M2418.9,2301H1410.4
		c-43.8,0-75.8-35.5-71.6-79.2L1511,430.9c4.2-43.8,43.1-79.2,86.8-79.2h1008.5c43.8,0,75.8,35.5,71.6,79.2l-172.2,1790.9
		C2501.5,2265.5,2462.6,2301,2418.9,2301z"/>
	
		<linearGradient id="SVGID_00000145763075049002062630000017453486554957256624_" gradientUnits="userSpaceOnUse" x1="1267.3684" y1="1326.3372" x2="2607.1602" y2="1326.3372">
		<stop  offset="0" style="stop-color:#FFFFFF"/>
		<stop  offset="1" style="stop-color:#FFE779"/>
		<stop  offset="1" style="stop-color:#000000"/>
	</linearGradient>
	
		<path style="clip-path:url(#SVGID_00000053529083038081916620000003585752609759556228_);fill:url(#SVGID_00000145763075049002062630000017453486554957256624_);" d="
		M2347.8,2301H1339.3c-43.7,0-75.8-35.5-71.6-79.2l172.2-1790.9c4.2-43.8,43.1-79.2,86.8-79.2h1008.5c43.7,0,75.8,35.5,71.6,79.2
		l-172.2,1790.9C2430.4,2265.5,2391.6,2301,2347.8,2301z"/>
	<path style="clip-path:url(#SVGID_00000053529083038081916620000003585752609759556228_);fill:#FFFFFF;" d="M2309.6,2241.5H1389
		c-40.5,0-70.3-32.9-66.4-73.4l161.8-1683.4c3.9-40.5,39.9-73.4,80.5-73.4h920.6c40.5,0,70.3,32.9,66.4,73.4L2390.1,2168
		C2386.2,2208.6,2350.1,2241.5,2309.6,2241.5z"/>
	
		<linearGradient id="SVGID_00000105398812197690485320000013587681898162894271_" gradientUnits="userSpaceOnUse" x1="1366.7284" y1="849.7625" x2="2471.4116" y2="849.7625">
		<stop  offset="0.1482" style="stop-color:#FFE66C"/>
		<stop  offset="1" style="stop-color:#FFFFFF"/>
	</linearGradient>
	
		<path style="clip-path:url(#SVGID_00000053529083038081916620000003585752609759556228_);fill:url(#SVGID_00000105398812197690485320000013587681898162894271_);" d="
		M2383.4,1177l-987.5-0.9c-4,0.1-8-0.6-11.8-2.2c-3.7-1.6-7.1-3.9-9.8-6.9c-2.7-3-4.8-6.5-6.1-10.3c-1.3-3.8-1.7-7.9-1.3-11.9
		l53.2-591.2c1-8.5,5-16.4,11.4-22.2c6.4-5.8,14.6-9,23.2-9l987.5,0.9c4-0.1,8,0.6,11.8,2.2c3.7,1.6,7.1,3.9,9.8,6.9
		c2.7,3,4.8,6.5,6.1,10.3c1.3,3.8,1.7,7.9,1.3,11.9l-53.2,591.2c-1,8.5-5,16.4-11.4,22.2C2400.3,1173.7,2392,1176.9,2383.4,1177z"/>
	
		<linearGradient id="SVGID_00000008129992848741753910000004654449194226352780_" gradientUnits="userSpaceOnUse" x1="1912.9838" y1="1526.3215" x2="2429.5664" y2="1526.3215">
		<stop  offset="0" style="stop-color:#FFFFFF"/>
		<stop  offset="1" style="stop-color:#FFE779"/>
		<stop  offset="1" style="stop-color:#000000"/>
	</linearGradient>
	
		<path style="clip-path:url(#SVGID_00000053529083038081916620000003585752609759556228_);fill:url(#SVGID_00000008129992848741753910000004654449194226352780_);" d="
		M2352.3,1814h-417.4c-3.1,0.1-6.1-0.5-9-1.8c-2.8-1.2-5.4-3-7.4-5.3c-2.1-2.3-3.6-5-4.5-7.9c-0.9-2.9-1.2-6-0.9-9.1l50.7-527.2
		c0.7-6.5,3.8-12.6,8.7-17c4.9-4.4,11.2-6.9,17.7-7.1h417.4c3.1-0.1,6.1,0.5,9,1.8c2.8,1.2,5.4,3,7.4,5.3c2.1,2.3,3.6,5,4.5,7.9
		c0.9,2.9,1.2,6,0.8,9.1l-50.7,527.2c-0.7,6.5-3.8,12.6-8.7,17C2365.2,1811.4,2358.9,1813.9,2352.3,1814z"/>
	
		<path style="clip-path:url(#SVGID_00000053529083038081916620000003585752609759556228_);fill:none;stroke:#EF6A77;stroke-width:11.6898;stroke-miterlimit:10;" d="
		M2252.8,1523.2c47.1-44.9,52.2-115.9,11.4-158.7c-40.8-42.8-112-41.1-159,3.8c-47.1,44.9-52.2,115.9-11.4,158.7
		C2134.5,1569.8,2205.7,1568,2252.8,1523.2z"/>
	
		<path style="clip-path:url(#SVGID_00000053529083038081916620000003585752609759556228_);fill:none;stroke:#FFFFFF;stroke-width:11.6898;stroke-linecap:round;stroke-miterlimit:10;" d="
		M2126.1,1549.5c-39-16.9-63.8-56.9-59.3-103.7c6-62,61-112.2,123-112.2"/>
	
		<path style="clip-path:url(#SVGID_00000053529083038081916620000003585752609759556228_);fill:none;stroke:#FFFFFF;stroke-width:5.9837;stroke-linecap:round;stroke-miterlimit:10;" d="
		M2116.8,1645.9h85.9"/>
	
		<path style="clip-path:url(#SVGID_00000053529083038081916620000003585752609759556228_);fill:none;stroke:#FFFFFF;stroke-width:5.9837;stroke-linecap:round;stroke-miterlimit:10;" d="
		M2107.5,1743.2h85.9"/>
	
		<path style="opacity:0.4;clip-path:url(#SVGID_00000053529083038081916620000003585752609759556228_);fill:none;stroke:#FFFFFF;stroke-width:5.9837;stroke-linecap:round;stroke-miterlimit:10;enable-background:new    ;" d="
		M2066.4,1694h177.5"/>
	<path style="clip-path:url(#SVGID_00000053529083038081916620000003585752609759556228_);fill:#FBCC45;" d="M1841.9,1814h-417.4
		c-3.1,0.1-6.1-0.5-9-1.8c-2.8-1.2-5.4-3-7.4-5.3c-2.1-2.3-3.6-5-4.5-7.9c-0.9-2.9-1.2-6-0.9-9.1l50.7-527.2
		c0.7-6.5,3.8-12.6,8.7-17c4.9-4.4,11.2-6.9,17.7-7.1h417.4c3.1-0.1,6.1,0.5,9,1.8c2.8,1.2,5.4,3,7.4,5.3c2.1,2.3,3.6,5,4.5,7.9
		c0.9,2.9,1.2,6,0.8,9.1l-50.7,527.2c-0.7,6.5-3.8,12.6-8.7,17C1854.7,1811.4,1848.4,1813.9,1841.9,1814z"/>
	
		<path style="clip-path:url(#SVGID_00000053529083038081916620000003585752609759556228_);fill:none;stroke:#EF6A77;stroke-width:11.6898;stroke-miterlimit:10;" d="
		M1742.4,1523.2c47.1-44.9,52.2-115.9,11.4-158.7c-40.8-42.8-112-41.1-159,3.8c-47.1,44.9-52.2,115.9-11.4,158.7
		C1624.1,1569.8,1695.3,1568,1742.4,1523.2z"/>
	
		<path style="clip-path:url(#SVGID_00000053529083038081916620000003585752609759556228_);fill:none;stroke:#FFFFFF;stroke-width:11.6898;stroke-linecap:round;stroke-miterlimit:10;" d="
		M1780.8,1445.8c-6,62-61,112.2-123,112.2c-62,0-107.4-50.2-101.4-112.2c6-62,61-112.2,123-112.2"/>
	
		<path style="clip-path:url(#SVGID_00000053529083038081916620000003585752609759556228_);fill:none;stroke:#FFFFFF;stroke-width:5.9837;stroke-linecap:round;stroke-miterlimit:10;" d="
		M1606.4,1645.9h85.9"/>
	
		<path style="clip-path:url(#SVGID_00000053529083038081916620000003585752609759556228_);fill:none;stroke:#FFFFFF;stroke-width:5.9837;stroke-linecap:round;stroke-miterlimit:10;" d="
		M1597,1743.2h85.9"/>
	
		<path style="opacity:0.4;clip-path:url(#SVGID_00000053529083038081916620000003585752609759556228_);fill:none;stroke:#FFFFFF;stroke-width:5.9837;stroke-linecap:round;stroke-miterlimit:10;enable-background:new    ;" d="
		M1556,1694h177.5"/>
	
		<linearGradient id="SVGID_00000049909762421271566210000007252163266159944614_" gradientUnits="userSpaceOnUse" x1="1366.1666" y1="2023.889" x2="2370.2683" y2="2023.889">
		<stop  offset="0" style="stop-color:#FFFFFF"/>
		<stop  offset="1" style="stop-color:#FFE779"/>
		<stop  offset="1" style="stop-color:#000000"/>
	</linearGradient>
	
		<path style="clip-path:url(#SVGID_00000053529083038081916620000003585752609759556228_);fill:url(#SVGID_00000049909762421271566210000007252163266159944614_);" d="
		M2317.3,2191.1H1387c-2.9,0.1-5.8-0.5-8.5-1.7c-2.7-1.2-5.1-2.9-7-5c-2-2.2-3.4-4.7-4.3-7.5c-0.9-2.8-1.2-5.7-0.8-8.6l27.8-288.8
		c0.7-6.2,3.6-11.9,8.2-16.1c4.6-4.2,10.6-6.6,16.8-6.7h930.4c2.9-0.1,5.8,0.5,8.5,1.7c2.7,1.2,5.1,2.9,7,5c2,2.2,3.4,4.7,4.3,7.5
		c0.9,2.8,1.2,5.7,0.8,8.6l-27.8,288.8c-0.7,6.2-3.6,11.9-8.2,16.1C2329.5,2188.6,2323.6,2191,2317.3,2191.1z"/>
	
		<path style="clip-path:url(#SVGID_00000053529083038081916620000003585752609759556228_);fill:none;stroke:#FFFFFF;stroke-width:11.6898;stroke-linecap:round;stroke-miterlimit:10;" d="
		M1451.7,2124.2l13.1-136.5"/>
	
		<path style="clip-path:url(#SVGID_00000053529083038081916620000003585752609759556228_);fill:none;stroke:#FFFFFF;stroke-width:11.6898;stroke-linecap:round;stroke-miterlimit:10;" d="
		M1548,2028.5l-9.2,95.6"/>
	
		<path style="clip-path:url(#SVGID_00000053529083038081916620000003585752609759556228_);fill:none;stroke:#FFFFFF;stroke-width:11.6898;stroke-linecap:round;stroke-miterlimit:10;" d="
		M1632,2061.2l-6.1,63"/>
	
		<path style="clip-path:url(#SVGID_00000053529083038081916620000003585752609759556228_);fill:none;stroke:#FFFFFF;stroke-width:11.6898;stroke-linecap:round;stroke-miterlimit:10;" d="
		M1729.6,1952.1l-16.5,172"/>
	
		<path style="clip-path:url(#SVGID_00000053529083038081916620000003585752609759556228_);fill:none;stroke:#FFFFFF;stroke-width:11.6898;stroke-linecap:round;stroke-miterlimit:10;" d="
		M1806.2,2061.2l-6.1,63"/>
	
		<path style="clip-path:url(#SVGID_00000053529083038081916620000003585752609759556228_);fill:none;stroke:#FFFFFF;stroke-width:11.6898;stroke-linecap:round;stroke-miterlimit:10;" d="
		M1903.1,1959.7l-15.8,164.4"/>
	
		<path style="clip-path:url(#SVGID_00000053529083038081916620000003585752609759556228_);fill:none;stroke:#FFFFFF;stroke-width:11.6898;stroke-linecap:round;stroke-miterlimit:10;" d="
		M1980.9,2055.9l-6.6,68.3"/>
	
		<path style="clip-path:url(#SVGID_00000053529083038081916620000003585752609759556228_);fill:none;stroke:#FFFFFF;stroke-width:11.6898;stroke-linecap:round;stroke-miterlimit:10;" d="
		M2065,2087.8l-3.5,36.4"/>
	
		<path style="clip-path:url(#SVGID_00000053529083038081916620000003585752609759556228_);fill:none;stroke:#FFFFFF;stroke-width:11.6898;stroke-linecap:round;stroke-miterlimit:10;" d="
		M2161.7,1987.6l-13.1,136.5"/>
	
		<path style="clip-path:url(#SVGID_00000053529083038081916620000003585752609759556228_);fill:none;stroke:#FFFFFF;stroke-width:11.6898;stroke-linecap:round;stroke-miterlimit:10;" d="
		M2253.8,1935.6l-18.1,188.5"/>
	<path style="clip-path:url(#SVGID_00000053529083038081916620000003585752609759556228_);fill:#FFCCB3;" d="M1475.9,1086.4
		l52.3,81.9c2.4,3.7,3.2,8.2,2.2,12.5c-0.9,4.3-3.5,8-7.2,10.4l-8.5,5.5c-14.1,9.2-31.1,12.9-47.8,10.5c-16.7-2.4-32-10.8-42.9-23.6
		l-69.4-80.9L1475.9,1086.4z"/>
	<path style="clip-path:url(#SVGID_00000053529083038081916620000003585752609759556228_);fill:#FCBA9F;" d="M1436,1117.9
		c0,0,19.4,66.5,58.3,87.8c10.1-3.9,19.8-8.8,29-14.5l-43.6-73.3"/>
	<path style="clip-path:url(#SVGID_00000053529083038081916620000003585752609759556228_);fill:#FFCCB3;" d="M541.4,1416.8
		l205.4-98.4c19.4-9.3,35.7-23.8,47.2-41.9l198.4-312.1c12.4-19.4,30.3-34.7,51.4-43.8l285.8-123.1l-61.2,462.6l-1.1,17.1
		c0,0-75.6,195.8-260.8,266.9l-296.2,181.2L541.4,1416.8z"/>
	<path style="clip-path:url(#SVGID_00000053529083038081916620000003585752609759556228_);fill:#FCBA9F;" d="M764.9,1307.6
		c0,0,97.2,242.5,241.6,236.5l-92.2,56.4c0,0-313-58.1-195.8-269L764.9,1307.6z"/>
	<path style="clip-path:url(#SVGID_00000053529083038081916620000003585752609759556228_);fill:#FCBA9F;" d="M1285.4,883.1
		c0,0-101,61.2-95.7,203.2l121.3-45.3L1285.4,883.1z"/>
	<path style="clip-path:url(#SVGID_00000053529083038081916620000003585752609759556228_);fill:#FFCCB3;" d="M1539.2,1086.4
		l52.3,81.9c2.4,3.7,3.2,8.2,2.2,12.5c-0.9,4.3-3.5,8-7.2,10.4l-8.5,5.5c-14.1,9.2-31.1,12.9-47.8,10.5c-16.7-2.4-32-10.8-42.9-23.6
		l-69.4-80.9L1539.2,1086.4z"/>
	<path style="clip-path:url(#SVGID_00000053529083038081916620000003585752609759556228_);fill:#5F0101;" d="M2312.2,1118.7
		l-987.5-0.9c-4,0.1-8-0.6-11.8-2.2c-3.7-1.6-7.1-3.9-9.8-6.9c-2.7-3-4.8-6.5-6.1-10.3s-1.7-7.9-1.3-11.9l53.2-591.2
		c1-8.5,5-16.4,11.4-22.2c6.4-5.7,14.6-9,23.2-9l987.5,0.9c4-0.1,8,0.6,11.8,2.2c3.7,1.6,7.1,3.9,9.8,6.9c2.7,3,4.8,6.5,6.1,10.3
		c1.3,3.8,1.7,7.9,1.3,11.9l-53.2,591.2c-1,8.5-5,16.4-11.4,22.2C2329,1115.4,2320.8,1118.6,2312.2,1118.7z"/>
	
		<path style="clip-path:url(#SVGID_00000053529083038081916620000003585752609759556228_);fill:none;stroke:#FFFFFF;stroke-width:7.5651;stroke-linecap:round;stroke-miterlimit:10;" d="
		M1390,814.9c0,0,88.6-17.9,112.5,23.7c23.9,41.6,44.4,119.7,107.9,109.6c63.5-10.1,112.1-214.3,174.5-212.4
		c62.4,1.9,40.4,135.6,108.3,137.5c67.9,1.9,55.8-74.7,101.1-72.6c54.9,2.6,34.4,161.3,106,163.1c71.6,1.9,83.3-209.6,191.5-205.9"
		/>
	
		<path style="clip-path:url(#SVGID_00000053529083038081916620000003585752609759556228_);fill:none;stroke:#FFFFFF;stroke-width:11.9991;stroke-linecap:round;stroke-miterlimit:10;" d="
		M1440.4,563.2l173.7,0.2"/>
	
		<path style="opacity:0.4;clip-path:url(#SVGID_00000053529083038081916620000003585752609759556228_);fill:none;stroke:#FFFFFF;stroke-width:11.9991;stroke-linecap:round;stroke-miterlimit:10;enable-background:new    ;" d="
		M1433.3,642.8l359.1,0.3"/>
	<path style="clip-path:url(#SVGID_00000053529083038081916620000003585752609759556228_);fill:#FFCCB3;" d="M1097.1,1115.7
		l126.7-55.8l129.6-88.4c34.1-23.3,105.2-33.7,130.8-1.4c26.1,32.9-3.2,97.9-34.8,125.5l-119.7,104.6l-62.3,77.1L1097.1,1115.7z"/>
	
		<path style="clip-path:url(#SVGID_00000053529083038081916620000003585752609759556228_);fill:none;stroke:#FF967C;stroke-width:3;stroke-linecap:round;" d="
		M1354.6,1005.1c0,0,17.1,65.9,61.4,77.4l47-39.7c4.8-3.6,8.8-8,11.7-13.2c3-5.1,4.9-10.8,5.6-16.7c0.7-5.9,0.2-11.9-1.5-17.6
		c-1.7-5.7-4.5-11-8.3-15.6l0,0c-6.6-8-15.9-13.4-26.1-15.2c-10.2-1.8-20.8,0.1-29.7,5.4L1354.6,1005.1z"/>
	<path style="clip-path:url(#SVGID_00000053529083038081916620000003585752609759556228_);fill:#5F0101;" d="M754.6,1310.3
		c0,0-24.6,175.6,189.1,276.1c0,0-153.5,140.8-212.6,164.5c-59.2,23.7-281.5-218.2-202.4-355.5
		C550.8,1356.8,754.6,1310.3,754.6,1310.3z"/>
	<path style="clip-path:url(#SVGID_00000053529083038081916620000003585752609759556228_);fill:#FCBA9F;" d="M1564.1,1125.4
		c0,0-83.3,1.7-112.3,16.9l-20.9-24.4l128.4,0L1564.1,1125.4z"/>
	<path style="clip-path:url(#SVGID_00000053529083038081916620000003585752609759556228_);fill:#FBCC45;" d="M3097.4,1118.7h-592.1
		c-44.6,0-77.6-36.2-73.6-80.8l79.4-897.1c3.9-44.6,43.3-80.8,87.9-80.8h592.1c44.6,0,77.5,36.2,73.6,80.8l-79.4,897.1
		C3181.3,1082.5,3141.9,1118.7,3097.4,1118.7z"/>
	<path style="clip-path:url(#SVGID_00000053529083038081916620000003585752609759556228_);fill:#FFFFFF;" d="M3012.6,566.6
		c93.8-89.7,103.2-232,21.1-317.8c-82.1-85.8-224.6-82.7-318.4,7c-93.8,89.7-103.2,232-21.1,317.8
		C2776.3,659.4,2918.8,656.3,3012.6,566.6z"/>
	
		<linearGradient id="SVGID_00000181794712648819310390000011240370390344489405_" gradientUnits="userSpaceOnUse" x1="2969.928" y1="2434.2688" x2="2992.0049" y2="2145.1699" gradientTransform="matrix(1 0 0 -1 0 2852)">
		<stop  offset="0" style="stop-color:#FFFFFF"/>
		<stop  offset="1" style="stop-color:#94B9FF"/>
	</linearGradient>
	
		<path style="clip-path:url(#SVGID_00000053529083038081916620000003585752609759556228_);fill:url(#SVGID_00000181794712648819310390000011240370390344489405_);" d="
		M2876.5,418.2l148.6,135.6c0,0,33.8-36.3,43.9-62.3L2876.5,418.2z"/>
	<path style="clip-path:url(#SVGID_00000053529083038081916620000003585752609759556228_);fill:#5F0101;" d="M2886.4,157.8
		l-21.1,238.5c-0.5,4.3,0.3,8.7,2.3,12.6c2,3.9,5.1,7.1,8.9,9.3l201.7,112.3C3078.2,530.5,3197.9,196.4,2886.4,157.8z"/>
	
		<path style="clip-path:url(#SVGID_00000053529083038081916620000003585752609759556228_);fill:none;stroke:#FFFFFF;stroke-width:12;stroke-linecap:round;stroke-miterlimit:10;" d="
		M2570.7,801.1H2816"/>
	
		<path style="clip-path:url(#SVGID_00000053529083038081916620000003585752609759556228_);fill:none;stroke:#FFFFFF;stroke-width:12;stroke-linecap:round;stroke-miterlimit:10;" d="
		M2552.8,1003.9h245.3"/>
	
		<path style="opacity:0.4;clip-path:url(#SVGID_00000053529083038081916620000003585752609759556228_);fill:none;stroke:#FFFFFF;stroke-width:12;stroke-linecap:round;stroke-miterlimit:10;enable-background:new    ;" d="
		M2561.9,901.4h506.9"/>
	<path style="clip-path:url(#SVGID_00000053529083038081916620000003585752609759556228_);fill:#FFCCB3;" d="M2369.2,1779.6
		c0,0,79.1-21.1,121.1,24.2c0,0,75.6-13.7,106.4,28.3c0,0,67.1,3.9,86.5,31.2c16.1,2.2,31.4,8.7,44.3,18.7
		c12.8,10,22.8,23.3,28.8,38.5c18.3,43.2,2.8,293.1-15.4,382.6c-4.6,22.4-3,45.6,4.5,67.2l46.4,133.2L2471,2637.7l-76.2-198.6
		c0,0-92.7-149-105.9-175.5c-13.2-26.5,9.2-246.2-36-383.5L2369.2,1779.6z"/>
	<path style="clip-path:url(#SVGID_00000053529083038081916620000003585752609759556228_);fill:#FCBA9F;" d="M2436.2,2547l-9.3-24.1
		c0,0,166.4-10.6,318.4-152.5l14.5,41.8c0,0-18.8,86.3-104.2,127C2570.2,2579.8,2436.2,2547,2436.2,2547z"/>
	<path style="clip-path:url(#SVGID_00000053529083038081916620000003585752609759556228_);fill:#5F0101;" d="M2436.2,2547
		c0,0,201.5,18.3,323.7-134.8c0,0,45.1,23.7,114.4,196.9c21.3,53.2-334.2,242.7-391.6,163.9C2482.7,2773,2433.1,2668,2436.2,2547z"
		/>
	<path style="clip-path:url(#SVGID_00000053529083038081916620000003585752609759556228_);fill:#FFCCB3;" d="M2272.6,1963
		c0,0-6.9,36.9-39.8,36.9c-21.4,0-114.4-28.1-176.4-47.6c-16.9-5.3-35-5.3-51.8,0c-16.9,5.3-31.7,15.7-42.5,29.7l-3.8,4.9
		c-1.9,2.4-3.2,5.2-4,8.2c-0.8,3-0.9,6.1-0.5,9.1c0.5,3,1.5,5.9,3.2,8.5c1.6,2.6,3.8,4.8,6.3,6.6c52.5,36.7,194.3,136.1,212.4,154.3
		c22.3,22.3,146.6,147.4,146.6,147.4L2272.6,1963z"/>
	<path style="clip-path:url(#SVGID_00000053529083038081916620000003585752609759556228_);fill:#FCBA9F;" d="M2265.1,1926
		c0,0,67.2,90.9,57.2,110.8c-9.9,19.9-114.1-40.9-114.1-40.9S2292.2,2017.5,2265.1,1926z"/>
	<path style="clip-path:url(#SVGID_00000053529083038081916620000003585752609759556228_);fill:#FFCCB3;" d="M2252.9,1880.1
		l-113-343.2c-3.9-11.8-5.3-24.2-4.3-36.6c1-12.4,4.5-24.4,10.3-35.4c5.8-11,13.6-20.7,23.2-28.6c9.6-7.9,20.6-13.7,32.5-17.3
		c9.7-2.9,20.2-2.1,29.4,2.2c9.2,4.3,16.5,11.8,20.5,21.1l158.5,364.4L2252.9,1880.1z"/>
	
		<path style="clip-path:url(#SVGID_00000053529083038081916620000003585752609759556228_);fill:none;stroke:#FF967C;stroke-width:3;stroke-linecap:round;" d="
		M2203.9,1731.3c3.2,5.3,7.5,9.8,12.5,13.3c5,3.5,10.8,6,16.8,7.2"/>
	
		<path style="clip-path:url(#SVGID_00000053529083038081916620000003585752609759556228_);fill:none;stroke:#FF967C;stroke-width:3;stroke-linecap:round;" d="
		M2244.5,1555.6c13.8-6.1,28.9-14.6,35.4-24.5l-42.1-99.9c-0.9-2.2-2.2-4.1-4-5.7c-1.7-1.6-3.7-2.8-5.9-3.6c-2.2-0.8-4.6-1-6.9-0.8
		c-2.3,0.2-4.6,0.9-6.6,2.1c-15,8.6-34.7,24.2-35.5,46.6l28.5,70.8c1.4,3.5,3.5,6.6,6.1,9.2c2.6,2.6,5.8,4.7,9.2,6.1
		c3.5,1.4,7.2,2.1,10.9,2C2237.5,1557.9,2241.1,1557.1,2244.5,1555.6z"/>
	
		<path style="clip-path:url(#SVGID_00000053529083038081916620000003585752609759556228_);fill:none;stroke:#FF967C;stroke-width:3;stroke-linecap:round;" d="
		M2397.2,1777.6l39,85.8"/>
	
		<path style="clip-path:url(#SVGID_00000053529083038081916620000003585752609759556228_);fill:none;stroke:#FF967C;stroke-width:3;stroke-linecap:round;" d="
		M2491.9,1805.6c19.8,28.4,30.4,62.2,30.4,96.8"/>
	
		<path style="clip-path:url(#SVGID_00000053529083038081916620000003585752609759556228_);fill:none;stroke:#FF967C;stroke-width:3;stroke-linecap:round;" d="
		M2598.6,1833.8c0,0,19.6,45,21.2,80.5"/>
	
		<path style="clip-path:url(#SVGID_00000053529083038081916620000003585752609759556228_);fill:none;stroke:#FF967C;stroke-width:3;stroke-linecap:round;" d="
		M2686,1866.1c7.7,19,10.7,39.6,8.7,60"/>
	
		<path style="clip-path:url(#SVGID_00000053529083038081916620000003585752609759556228_);fill:none;stroke:#FF967C;stroke-width:3;stroke-linecap:round;" d="
		M2046.2,2061.2c0,0,23.2-29.5,15.2-44.3s-43.4-35.7-63.8-33.4c-9.8,1.5-19.2,4.7-27.8,9.5c-1.6,0.8-2.9,2-3.8,3.5
		c-1,1.5-1.5,3.2-1.6,5c-0.1,1.8,0.3,3.5,1.1,5.1c0.8,1.6,2,2.9,3.5,3.9L2046.2,2061.2z"/>
	<path style="clip-path:url(#SVGID_00000053529083038081916620000003585752609759556228_);fill:#FBCC45;" d="M1647.2,2420.5h-707
		c-2.9,0.1-5.8-0.5-8.5-1.7c-2.7-1.2-5.1-2.9-7-5c-2-2.2-3.4-4.7-4.3-7.5c-0.9-2.8-1.2-5.7-0.8-8.6l27.8-288.8
		c0.7-6.2,3.6-11.9,8.2-16.1s10.6-6.6,16.8-6.7h707c2.9-0.1,5.8,0.5,8.5,1.7c2.7,1.2,5.1,2.9,7,5c2,2.2,3.4,4.7,4.3,7.5
		c0.9,2.8,1.2,5.7,0.8,8.6l-27.8,288.8c-0.7,6.2-3.6,11.9-8.2,16.1C1659.4,2418,1653.4,2420.4,1647.2,2420.5z"/>
	
		<path style="clip-path:url(#SVGID_00000053529083038081916620000003585752609759556228_);fill:none;stroke:#EF6A77;stroke-width:11.6898;stroke-linecap:round;stroke-miterlimit:10;" d="
		M1006.5,2161.4h436.3"/>
	
		<path style="clip-path:url(#SVGID_00000053529083038081916620000003585752609759556228_);fill:none;stroke:#FFFFFF;stroke-width:11.6898;stroke-linecap:round;stroke-miterlimit:10;" d="
		M1006.5,2161.4h303.2"/>
	
		<path style="clip-path:url(#SVGID_00000053529083038081916620000003585752609759556228_);fill:none;stroke:#EF6A77;stroke-width:11.6898;stroke-linecap:round;stroke-miterlimit:10;" d="
		M1000,2253.3h436.3"/>
	
		<path style="clip-path:url(#SVGID_00000053529083038081916620000003585752609759556228_);fill:none;stroke:#FFFFFF;stroke-width:11.6898;stroke-linecap:round;stroke-miterlimit:10;" d="
		M1000,2253.3h181.3"/>
	
		<path style="clip-path:url(#SVGID_00000053529083038081916620000003585752609759556228_);fill:none;stroke:#EF6A77;stroke-width:11.6898;stroke-linecap:round;stroke-miterlimit:10;" d="
		M985.7,2345.2h436.3"/>
	
		<path style="clip-path:url(#SVGID_00000053529083038081916620000003585752609759556228_);fill:none;stroke:#FFFFFF;stroke-width:11.6898;stroke-linecap:round;stroke-miterlimit:10;" d="
		M985.7,2345.2h110.9"/>
	<path style="clip-path:url(#SVGID_00000053529083038081916620000003585752609759556228_);fill:#FFFFFF;" d="M1597.3,2187.5
		c14.4,0,26.1-11.7,26.1-26.1c0-14.4-11.7-26.1-26.1-26.1c-14.4,0-26.1,11.7-26.1,26.1C1571.2,2175.8,1582.9,2187.5,1597.3,2187.5z"
		/>
	<path style="clip-path:url(#SVGID_00000053529083038081916620000003585752609759556228_);fill:#FFFFFF;" d="M1588.9,2275.4
		c14.4,0,26.1-11.7,26.1-26.1c0-14.4-11.7-26.1-26.1-26.1c-14.4,0-26.1,11.7-26.1,26.1C1562.8,2263.7,1574.5,2275.4,1588.9,2275.4z"
		/>
	<path style="clip-path:url(#SVGID_00000053529083038081916620000003585752609759556228_);fill:#FFFFFF;" d="M1579.4,2371.3
		c14.4,0,26.1-11.7,26.1-26.1c0-14.4-11.7-26.1-26.1-26.1c-14.4,0-26.1,11.7-26.1,26.1C1553.3,2359.6,1565,2371.3,1579.4,2371.3z"/>
</g>
</svg>
