<svg id="Слой_1" data-name="Слой 1" xmlns="http://www.w3.org/2000/svg" viewBox="0 0 3656.43 2851.9"><defs><style>.cls-1{fill:#fbcc45;}.cls-10,.cls-14,.cls-15,.cls-18,.cls-2,.cls-20,.cls-22,.cls-23,.cls-26,.cls-29,.cls-8{fill:none;}.cls-10,.cls-2,.cls-7{stroke:#ffcf2d;}.cls-10,.cls-11,.cls-13,.cls-14,.cls-18,.cls-19,.cls-2,.cls-20,.cls-22,.cls-23,.cls-24,.cls-26,.cls-27,.cls-28,.cls-29,.cls-3,.cls-4,.cls-7,.cls-8{stroke-miterlimit:10;}.cls-10,.cls-11,.cls-13,.cls-14,.cls-15,.cls-19,.cls-2,.cls-20,.cls-22,.cls-23,.cls-24,.cls-27,.cls-28,.cls-29,.cls-3,.cls-4,.cls-7,.cls-8{stroke-width:6px;}.cls-3,.cls-9{fill:#ffcf2d;}.cls-23,.cls-24,.cls-29,.cls-3{stroke:#fff;}.cls-21,.cls-4{fill:#5f0101;}.cls-11,.cls-15,.cls-22,.cls-26,.cls-4,.cls-8{stroke:#9a3b82;}.cls-10,.cls-11,.cls-15,.cls-26,.cls-29,.cls-4,.cls-8{stroke-linecap:round;}.cls-28,.cls-5{fill:#22272e;}.cls-6{fill:#9a3b82;}.cls-11,.cls-13,.cls-16,.cls-19,.cls-27,.cls-7{fill:#fff;}.cls-12{fill:#fe5244;}.cls-13,.cls-14{stroke:#3fb1b5;}.cls-15{stroke-linejoin:round;}.cls-17{fill:#ffe779;}.cls-18,.cls-19,.cls-20{stroke:#fe5244;}.cls-18,.cls-26{stroke-width:5px;}.cls-24{fill:#a83d0c;}.cls-25{fill:#e57281;}.cls-27,.cls-28{stroke:#22272e;}</style></defs><g id="LAMP"><polygon class="cls-1" points="2879.6 2847 334.6 2847 1374.6 377.6 1839.6 377.6 2879.6 2847"/><polyline class="cls-2" points="1563 191.8 1607.1 147.7 1651.2 191.8"/><line class="cls-2" x1="1607.1" y1="147.7" x2="1607.1"/><circle class="cls-3" cx="1607.1" cy="383.6" r="71"/><path class="cls-4" d="M2597.1,701.6H2132.2l6.2-28.3c20.4-93.2,115.5-160.8,226.3-160.8,55.4,0,106.9,16.9,147,45.4s69,68.7,79.2,115.3Z" transform="translate(-757.5 -324)"/></g><g id="BOOKSHELF"><rect class="cls-5" x="2276.4" y="1970.2" width="47.2" height="298"/><path class="cls-6" d="M3938.2,2592.2H3669.5a16,16,0,0,1-16-18l37.4-315.7a16.18,16.18,0,0,1,16-14.2h268.7a16,16,0,0,1,16,18L3954.2,2578A16.18,16.18,0,0,1,3938.2,2592.2Z" transform="translate(-757.5 -324)"/><path class="cls-7" d="M3791.8,2592.2H3579.6a21.79,21.79,0,0,1-21.6-24.3l27.2-229.9a21.82,21.82,0,0,1,21.6-19.2h217.3Z" transform="translate(-757.5 -324)"/><path class="cls-7" d="M3815.6,2592.2H3613.1a21.79,21.79,0,0,1-21.6-24.3l27.2-229.9a21.82,21.82,0,0,1,21.6-19.2h205.1a10.89,10.89,0,0,1,10.8,12.2l-29.8,251.5A10.84,10.84,0,0,1,3815.6,2592.2Z" transform="translate(-757.5 -324)"/><rect class="cls-8" x="2326.6" y="2015" width="81.9" height="253.2"/><rect class="cls-8" x="2380" y="2015" width="115.3" height="253.2"/><polygon class="cls-8" points="2635 2268.2 2603.1 2268.2 2484.4 1987.2 2516.3 1987.2 2635 2268.2"/><polygon class="cls-8" points="2695.8 2268.2 2636.4 2268.2 2534.2 2029.9 2593.6 2029.9 2695.8 2268.2"/><rect class="cls-8" x="2190.8" y="2015" width="82.6" height="253.2"/><rect class="cls-8" x="2190.8" y="1820.9" width="384.2" height="49.4"/><rect class="cls-5" x="2190.8" y="1783.1" width="486.7" height="39.8"/><rect class="cls-9" x="2190.8" y="1725.7" width="328.5" height="56.4"/><rect class="cls-8" x="2190.8" y="1682.6" width="384.2" height="42.1"/><path class="cls-7" d="M3995.4,1895.6l-.3,1.7-45.4,297H3528.5l45.4-297,.6-4.2c7.2-14.6,51.2-25.9,104.5-25.9,58.3,0,105.5,13.5,105.5,30.1,0-16.6,47.2-30.1,105.5-30.1C3946.3,1867.3,3992.2,1879.8,3995.4,1895.6Z" transform="translate(-757.5 -324)"/><line class="cls-2" x1="2982.1" y1="1870.4" x2="3027.1" y2="1573.4"/><path class="cls-9" d="M3739.6,2194.4c0-16.6-47.2-30.1-105.5-30.1s-105.5,13.5-105.5,30.1Z" transform="translate(-757.5 -324)"/><path class="cls-9" d="M3950.6,2194.4c0-16.6-47.2-30.1-105.5-30.1s-105.5,13.5-105.5,30.1Z" transform="translate(-757.5 -324)"/><path class="cls-10" d="M3741.2,2188.1c-.6-16.6,46.1-31.7,104.4-33.8,36.4-1.3,72.3,3.8,91.2,11.1l45-282.9" transform="translate(-757.5 -324)"/><path class="cls-11" d="M3961.8,1796.5H3583.6v-84.2a15,15,0,0,1,15-15h348.3a15,15,0,0,1,15,15v84.2Z" transform="translate(-757.5 -324)"/><path class="cls-9" d="M3992,1693.3H3666.1a9.07,9.07,0,0,1-9.1-9.1v-33.5a9.07,9.07,0,0,1,9.1-9.1H3992a9.07,9.07,0,0,1,9.1,9.1v33.5A9.13,9.13,0,0,1,3992,1693.3Z" transform="translate(-757.5 -324)"/><rect class="cls-12" x="2860.6" y="1286.2" width="386.6" height="31.4"/><path class="cls-11" d="M3997.7,1610.2H3702.6a7,7,0,0,1-7-7v-25.3a7,7,0,0,1,7-7h295.1a7,7,0,0,1,7,7v25.3A7,7,0,0,1,3997.7,1610.2Z" transform="translate(-757.5 -324)"/><rect class="cls-8" x="2314.9" y="1163.6" width="113.5" height="308.9"/><rect class="cls-11" x="2269.1" y="1163.6" width="45.8" height="308.9"/><rect class="cls-11" x="2192.1" y="1163.6" width="77" height="308.9"/><rect class="cls-8" x="2443.4" y="1219.4" width="99.5" height="253.2"/><path class="cls-11" d="M3208.1,1796.5h-39.2a7,7,0,0,1-7-7V1550.2a7,7,0,0,1,7-7h39.2a7,7,0,0,1,7,7v239.3A7.09,7.09,0,0,1,3208.1,1796.5Z" transform="translate(-757.5 -324)"/><polygon class="cls-6" points="2542.9 1219.4 2542.9 1358.2 2489 1219.4 2542.9 1219.4"/><path class="cls-7" d="M3530.8,1796.5H3371.6a8.49,8.49,0,0,1-7.9-5.4l-103.4-266.2a8.47,8.47,0,0,1,7.9-11.6h159.2a8.49,8.49,0,0,1,7.9,5.4l103.4,266.2A8.47,8.47,0,0,1,3530.8,1796.5Z" transform="translate(-757.5 -324)"/><path class="cls-7" d="M3556.8,1796.5H3397.6a8.49,8.49,0,0,1-7.9-5.4l-103.4-266.2a8.47,8.47,0,0,1,7.9-11.6h159.2a8.49,8.49,0,0,1,7.9,5.4l103.4,266.2A8.47,8.47,0,0,1,3556.8,1796.5Z" transform="translate(-757.5 -324)"/><path class="cls-2" d="M3836.4,1331.1a171.44,171.44,0,0,1-94.5-329.6Z" transform="translate(-757.5 -324)"/><line class="cls-2" x1="3032" y1="1013.6" x2="3032" y2="1074.7"/><circle class="cls-13" cx="3032" cy="842.2" r="145.2"/><polygon class="cls-7" points="3092.7 1074.3 2971.8 1074.3 3031.8 1044.2 3092.7 1074.3"/><path class="cls-8" d="M4004.7,1398.7V3171H3950V3042a52,52,0,0,0-52-52H3054.4a52,52,0,0,0-52,52v129h-54.1V1398.7Z" transform="translate(-757.5 -324)"/><path class="cls-14" d="M3928.8,2940.9H3022.2a20.89,20.89,0,0,1-20.9-20.9V2659.1a20.89,20.89,0,0,1,20.9-20.9h906.6a20.89,20.89,0,0,1,20.9,20.9V2920A20.89,20.89,0,0,1,3928.8,2940.9Z" transform="translate(-757.5 -324)"/><polygon class="cls-6" points="2765.8 831.3 2765.8 1074.7 2680.6 1074.7 2765.8 831.3"/><path class="cls-7" d="M3523.3,1155.3l-.6,1.8-84.1,241.6h-391l84.1-241.6,2.7-7.7h0c12.6-18.1,47.5-31.3,89.1-32h4c48.6,0,91.9,16.9,99.8,39.1,7.8-22.2,49.2-39.1,97.8-39.1C3472.7,1117.4,3514.4,1133.7,3523.3,1155.3Z" transform="translate(-757.5 -324)"/><line class="cls-10" x1="2569.7" y1="832.5" x2="2484.8" y2="1069.7"/><path class="cls-9" d="M3242.1,1395.7H3047.6c7.2-22.5,47.6-39.8,96.2-39.8C3192.6,1355.9,3234.9,1373.2,3242.1,1395.7Z" transform="translate(-757.5 -324)"/><path class="cls-9" d="M3438.1,1395.7H3243.6c7.2-22.5,47.6-39.8,96.2-39.8C3388.6,1355.9,3430.9,1373.2,3438.1,1395.7Z" transform="translate(-757.5 -324)"/><path class="cls-8" d="M3410.4,2715.5a14.19,14.19,0,0,1,14.2-14.2h106.1a14.19,14.19,0,0,1,14.2,14.2" transform="translate(-757.5 -324)"/><line class="cls-8" x1="2190.8" y1="1870.4" x2="3247.2" y2="1870.4"/><line class="cls-8" x1="2190.8" y1="1472.5" x2="3247.2" y2="1472.5"/><line class="cls-8" x1="2190.8" y1="2268.2" x2="3247.2" y2="2268.2"/><polyline class="cls-15" points="2320.8 703.1 2190.8 1074.7 3247.2 1074.7 3377.2 703.1"/></g><g id="PLANT"><path class="cls-12" d="M4253.3,3075.6a161,161,0,0,1-10.5,57.3,67.12,67.12,0,0,1-62.9,43H3968.2c-27.8,0-53-17-62.8-43a161,161,0,0,1-10.5-57.3c0-58,30.7-109.2,77.6-139.8V2902c0,14.8,45.5,26.8,101.5,26.8s101.5-12,101.5-26.8v33.9C4222.6,2966.4,4253.3,3017.6,4253.3,3075.6Z" transform="translate(-757.5 -324)"/><path class="cls-16" d="M4175.7,2926.6v9c-16.1,12.8-59.9,19.6-101.5,19.6s-85.4-6.8-101.5-19.6v-9c1.9,4.3,10,9.9,28,14.6,19.6,5.2,45.7,8,73.5,8s53.9-2.8,73.5-8C4165.7,2936.4,4173.7,2930.8,4175.7,2926.6Z" transform="translate(-757.5 -324)"/><path class="cls-5" d="M4175.7,2902c0,14.8-45.5,26.8-101.5,26.8s-101.5-12-101.5-26.8a8.83,8.83,0,0,1,2.1-5.5c9.6-12.1,50.4-21.3,99.4-21.3s89.8,9.1,99.4,21.3A9.46,9.46,0,0,1,4175.7,2902Z" transform="translate(-757.5 -324)"/><circle class="cls-2" cx="3180.8" cy="2696.3" r="12.8"/><circle class="cls-2" cx="3224.2" cy="2727.8" r="12.8"/><circle class="cls-2" cx="3278.2" cy="2690.4" r="12.8"/><circle class="cls-2" cx="3270.6" cy="2775.4" r="12.8"/><circle class="cls-2" cx="3222.6" cy="2812.7" r="12.8"/><circle class="cls-2" cx="3174.2" cy="2775.4" r="12.8"/><circle class="cls-2" cx="3231.2" cy="2648.8" r="12.8"/><path class="cls-2" d="M4090.6,2969.7a12.8,12.8,0,1,1-12.8,12.8A12.8,12.8,0,0,1,4090.6,2969.7Z" transform="translate(-757.5 -324)"/><circle class="cls-2" cx="3322.4" cy="2736.1" r="12.8"/><circle class="cls-2" cx="3359.4" cy="2787.1" r="12.8"/><circle class="cls-2" cx="3311.4" cy="2825.5" r="12.8"/><circle class="cls-2" cx="3373.1" cy="2705.5" r="12.8"/><circle class="cls-2" cx="3410.2" cy="2653" r="12.8"/><circle class="cls-2" cx="3452.4" cy="2695.5" r="12.8"/><circle class="cls-2" cx="3404.1" cy="2737.4" r="12.8"/><circle class="cls-2" cx="3461.9" cy="2764.2" r="12.8"/><circle class="cls-2" cx="3423" cy="2813.4" r="12.8"/><path class="cls-7" d="M4298.4,2746.2s95-51.3,110.7,38.3c18.2,103.5-105.4,194.6-105.4,194.6s-26.6-65.9-97.9-122.7C4144.1,2807.3,4195.3,2677.1,4298.4,2746.2Z" transform="translate(-757.5 -324)"/><path class="cls-9" d="M4111.9,2632.1c45.1.4,109.9-91.2,48.7-191.7-73.9-121.4-86.6-191.7-86.6-191.7s-108.7,143.8-90.2,254.1C4004.1,2623.6,4111.9,2632.1,4111.9,2632.1Z" transform="translate(-757.5 -324)"/><path class="cls-7" d="M4119.7,2571.1c65.9,17.4,128.5-22.7,129.8-114.1,2.3-161.6,32.9-214.2,32.9-214.2s-205.3,73.9-236.4,188.7C4016.4,2540.9,4119.7,2571.1,4119.7,2571.1Z" transform="translate(-757.5 -324)"/><path class="cls-9" d="M3844.3,2677.5c-2.4.2-4.9.4-7.6.6-141.8,10.6-182.6,140.4-182.6,140.4s-8.7-9.4-6.9-41.9c3.4-83.8,80.5-170.4,168.5-115.4C3825.5,2667.4,3835.1,2672.7,3844.3,2677.5Z" transform="translate(-757.5 -324)"/><path class="cls-7" d="M4005.1,2709.4c-25,1.6-82.1,8.5-160.8-31.9-9.2-4.7-18.8-10.1-28.6-16.3-88-55-163.1,31.6-166.5,115.4-.2,4.1.8,8.2,1,12.2-8.3-72.8-8.1-254,212.2-247.9C4013.8,2545.3,4005.1,2709.4,4005.1,2709.4Z" transform="translate(-757.5 -324)"/><path class="cls-2" d="M4041.1,2896.7s26.1-363.7-326.6-316.2" transform="translate(-757.5 -324)"/><path class="cls-2" d="M4282.4,2242.8c-222.2,227-180.8,653.9-180.8,653.9-23.4-163.3,120.2-325.6,196.7-154.8,22.8,50.8,5.3,237.1,5.3,237.1" transform="translate(-757.5 -324)"/></g><g id="CHAIR_TABLE" data-name="CHAIR &amp; TABLE"><g id="CHAIR"><path class="cls-17" d="M990,2610.8l-29.8,26.1a110,110,0,0,1-12.8-18.9L761.6,2271.8a21.7,21.7,0,0,1,19.1-32h26a56.18,56.18,0,0,1,49.6,29.7l146.1,272.2A56,56,0,0,1,990,2610.8Z" transform="translate(-757.5 -324)"/><path class="cls-17" d="M1495.8,2618.4h0l-432.3,88.8v-9a90.78,90.78,0,0,1,72.5-88.9l278.5-57.2A67.71,67.71,0,0,1,1495.8,2618.4Z" transform="translate(-757.5 -324)"/><path class="cls-8" d="M1446.8,3171V2737.9a56.66,56.66,0,0,0-68.1-55.5l-271.5,55.7a96.32,96.32,0,0,0-70.7,60L893.2,3171" transform="translate(-757.5 -324)"/><path class="cls-8" d="M760.5,2269.9l211.1,393.3a86.43,86.43,0,0,0,93.6,43.8l431.6-88.6" transform="translate(-757.5 -324)"/></g><g id="BOOKS"><rect class="cls-5" x="526.3" y="1973.2" width="365.3" height="48.8"/><path class="cls-5" d="M1582.5,2244.2c4.4,4.1,7.1,11.5,7.1,17.7,0,12.4-10.8,25.1-24.2,25.1H1232.2a10.5,10.5,0,0,0,10.5,10.5h402.1a40.29,40.29,0,0,0,27.6-10.6,34.58,34.58,0,0,0,11.4-25.6c0-20-17.5-36.1-39-36.1H1242.7a10.5,10.5,0,0,0-10.5,10.5v1.9h333.2A25.89,25.89,0,0,1,1582.5,2244.2Z" transform="translate(-757.5 -324)"/><path class="cls-12" d="M1256.3,2237.7v48.4h-24v4h334.3a28,28,0,0,0,10.5-2h0a27.52,27.52,0,0,0,9.4-6.2,28.21,28.21,0,0,0-19.9-48.2H1232.3v4Z" transform="translate(-757.5 -324)"/><path class="cls-16" d="M1247,2237.7v48.4h318.4a24.2,24.2,0,0,0,0-48.4Z" transform="translate(-757.5 -324)"/><line class="cls-18" x1="489.5" y1="1913.7" x2="489.5" y2="1962.1"/><path class="cls-9" d="M1520.9,2272v40.4h27.9v-35.2A15.19,15.19,0,0,1,1564,2262h12.4v-5.2H1536A15.24,15.24,0,0,0,1520.9,2272Z" transform="translate(-757.5 -324)"/></g><g id="TABLE"><path class="cls-8" d="M1078.7,2387.8a38.62,38.62,0,0,1,38.6-38.6h759a38.62,38.62,0,0,1,38.6,38.6" transform="translate(-757.5 -324)"/><path class="cls-8" d="M1915.5,3171l-214.3-746.4c-9.5-33-42.2-56-79.6-56H1371.9c-37.4,0-70.1,23-79.6,56L1078.1,3171" transform="translate(-757.5 -324)"/></g></g><g id="CHARACTER"><g id="SHOES"><path class="cls-19" d="M2095.4,3041.8v108.8a20.36,20.36,0,0,0,20.4,20.4h272s1.6-50.5-39.8-64.6c-70.3-23.9-103.1-64.6-103.1-64.6Z" transform="translate(-757.5 -324)"/><path class="cls-20" d="M2246.7,3097.5c11.1-3.1,51.1-25.2,37.4-38.9-6.5-6.5-22.1,0-22.1,0" transform="translate(-757.5 -324)"/><path class="cls-20" d="M2287.7,3112.5c11.1-3.1,49.5-27.8,34.4-39.9-11.4-9.2-28.5,8.6-28.5,8.6" transform="translate(-757.5 -324)"/><path class="cls-12" d="M2253.3,3050.6l-157.9,49.1v-57.9H2245A101.7,101.7,0,0,0,2253.3,3050.6Z" transform="translate(-757.5 -324)"/><path class="cls-19" d="M2436.4,3041.8v108.8a20.36,20.36,0,0,0,20.4,20.4h272s1.6-50.5-39.8-64.6c-70.3-23.9-103.1-64.6-103.1-64.6Z" transform="translate(-757.5 -324)"/><path class="cls-20" d="M2587.7,3097.5c11.1-3.1,51.1-25.2,37.4-38.9-6.5-6.5-22.1,0-22.1,0" transform="translate(-757.5 -324)"/><path class="cls-20" d="M2628.7,3112.5c11.1-3.1,49.5-27.8,34.4-39.9-11.4-9.2-28.5,8.6-28.5,8.6" transform="translate(-757.5 -324)"/><path class="cls-12" d="M2594.3,3050.6l-157.9,49.1v-57.9H2586A101.7,101.7,0,0,0,2594.3,3050.6Z" transform="translate(-757.5 -324)"/></g><g id="LEGS"><polygon class="cls-21" points="1411.4 1634.8 1312.9 2666 1518.9 2666 1622.4 2166.3 1664.7 2272.8 1664.7 2666 1879.2 2666 1879.2 2225.1 1764.8 1634.8 1411.4 1634.8"/><line class="cls-22" x1="1518.7" y1="1882.5" x2="1422.9" y2="2666"/><polyline class="cls-22" points="1768.2 2666 1768.2 2225.1 1633.8 1684.8"/><path class="cls-23" d="M2419.2,2596.8l-128.4-372.9a31.8,31.8,0,0,0-30.1-21.4" transform="translate(-757.5 -324)"/><polygon class="cls-6" points="1395.1 1805.3 1411.4 1634.8 1764.8 1634.8 1774.9 1687.2 1395.1 1805.3"/><path class="cls-6" d="M2637.1,3041.8H2421.4a14.72,14.72,0,0,1-14.7-14.7v-22.4a14.72,14.72,0,0,1,14.7-14.7h215.7a14.72,14.72,0,0,1,14.7,14.7v22.4A14.79,14.79,0,0,1,2637.1,3041.8Z" transform="translate(-757.5 -324)"/><path class="cls-6" d="M2280.1,3041.8H2064.4a14.72,14.72,0,0,1-14.7-14.7v-22.4a14.72,14.72,0,0,1,14.7-14.7h215.7a14.72,14.72,0,0,1,14.7,14.7v22.4A14.79,14.79,0,0,1,2280.1,3041.8Z" transform="translate(-757.5 -324)"/></g><g id="BOOK"><path class="cls-5" d="M2855.8,1989l67.6,252.9-337,90.1-67.7-253.1a29.5,29.5,0,1,0-57,15.2l67.7,253.1-7.4,2-67.6-252.9a38.39,38.39,0,0,1,26-46.7l1.2-.3,327.2-87.5A38.53,38.53,0,0,1,2855.8,1989Z" transform="translate(-757.5 -324)"/><path class="cls-6" d="M2526.2,2077.2l67.6,252.9-7.4,2L2518.7,2079a29.5,29.5,0,1,0-57,15.2l67.7,253.1-7.4,2-67.6-252.9a37.18,37.18,0,1,1,71.8-19.2Z" transform="translate(-757.5 -324)"/><path class="cls-16" d="M2518.7,2078.9l63.5,237.6-57,15.2-63.5-237.6a29.5,29.5,0,0,1,57-15.2Z" transform="translate(-757.5 -324)"/></g><g id="SHIRT"><path class="cls-24" d="M2856.8,2123l-153.3,52.8-121-217h-469c-79.7,0-139.3-73.3-123-151.3l48.8-234.4a158.29,158.29,0,0,1,154.9-126h320.7a158.17,158.17,0,0,1,156.2,133.1l48.3,228.2Z" transform="translate(-757.5 -324)"/><path class="cls-16" d="M2088.5,1956.3a126,126,0,0,1-100.4-113.5,61,61,0,0,1,13.9-7.2c36.3-13.4,77.8,8.6,92.9,49.1C2104.2,1910.1,2101,1936.7,2088.5,1956.3Z" transform="translate(-757.5 -324)"/></g><g id="HEAD"><polygon id="NECK" class="cls-25" points="1680.2 982.5 1680.2 1123.2 1524.9 1123.2 1560.7 1029.6 1680.2 982.5"/><path id="HAIR" class="cls-6" d="M2473.4,1247.3c-.1,0-.3.1-.4.1h0l-46.1,12.2a50.35,50.35,0,0,0-34.6,32h-17.7a20.31,20.31,0,0,0-20.3,20.3v.3a20.25,20.25,0,0,0,18.5,20.2l-.1.1s-8.2,39-56.1,25.9c0,0,1.9-102.6,3.9-134.5,1.7-26.3,141.2-76.1,154.1-54.9,11.4,18.8-1.8,27.6-13,31.5,19.8-4.2,57.2-9.8,61,6.9C2527,1226.8,2487.5,1243.6,2473.4,1247.3Z" transform="translate(-757.5 -324)"/><g id="HEAD-2" data-name="HEAD"><path class="cls-25" d="M2482.4,1319.2h-4.9l1.4,24a30.14,30.14,0,0,1-30,31.8h-21.6a37.73,37.73,0,0,1-37.7-37.7v-4.7h-14.9a20.31,20.31,0,0,1-20.3-20.3v-.3a20.31,20.31,0,0,1,20.3-20.3h17.7a50.14,50.14,0,0,1,34.6-32l46.1-12.2h0l15.8,63.3C2490.5,1314.8,2486.7,1319.2,2482.4,1319.2Z" transform="translate(-757.5 -324)"/><path class="cls-26" d="M2394.3,1339.2c-2.1,22,19.9,37.7,40.7,37.7" transform="translate(-757.5 -324)"/><path class="cls-26" d="M2386.2,1315.7a14.08,14.08,0,0,0-14.1-14.1" transform="translate(-757.5 -324)"/><ellipse class="cls-6" cx="1707.9" cy="969.7" rx="3.7" ry="7.7"/><path class="cls-26" d="M2449.4,1277.5a53.39,53.39,0,0,1,29.9-9.4" transform="translate(-757.5 -324)"/></g></g><g id="BACKPACK"><path class="cls-27" d="M2401.8,2022.9s122.5,5.3,165.6-93l-22.8-41.7-68.1,26.2Z" transform="translate(-757.5 -324)"/><path class="cls-28" d="M2499.9,1421.4a24.56,24.56,0,0,0-22.5,24.4v492.7a85.1,85.1,0,0,1-85.1,85.1H2203.4a85.09,85.09,0,0,1-84.6-94.2v-.1l68-467.7a47,47,0,0,1,46.5-40.2Z" transform="translate(-757.5 -324)"/><path class="cls-27" d="M2480.9,1421.4a24.6,24.6,0,0,0-15.3,7.1,24,24,0,0,0-6.9,13.9c-.1,1.1-.2,2.2-.2,3.3l-4,37.7-48,455a85.1,85.1,0,0,1-85.1,85.1H2203.5a85.09,85.09,0,0,1-84.6-94.2v-.1l30.7-211.4,37.3-256.3a51.76,51.76,0,0,1,1.4-6.6,46.92,46.92,0,0,1,45-33.6h247.6Z" transform="translate(-757.5 -324)"/><path class="cls-9" d="M2438.8,1519.5l-17.9,134.3c-5.9,27.5-27.3,42.2-58.3,47.2l-212,30.8,30.9-212.4h257.3Z" transform="translate(-757.5 -324)"/><path class="cls-28" d="M2473.3,1421.4H2468a20.14,20.14,0,0,0-19.9,16.2l-31.2,201.3a59.7,59.7,0,0,1-58.3,47.2H2163.5a36.94,36.94,0,0,1-36.1-44.9l37.6-170.8a62.48,62.48,0,0,1,61-49Z" transform="translate(-757.5 -324)"/><path class="cls-27" d="M2312.5,1742.1l49.7-303.9a12.76,12.76,0,0,1,12.5-10.7h0a12.68,12.68,0,0,1,12.5,14.8l-49.7,303.9a12.76,12.76,0,0,1-12.5,10.7h0A12.68,12.68,0,0,1,2312.5,1742.1Z" transform="translate(-757.5 -324)"/><path class="cls-27" d="M2201.4,1742.1l49.7-303.9a12.76,12.76,0,0,1,12.5-10.7h0a12.68,12.68,0,0,1,12.5,14.8l-49.7,303.9a12.76,12.76,0,0,1-12.5,10.7h0A12.68,12.68,0,0,1,2201.4,1742.1Z" transform="translate(-757.5 -324)"/><path class="cls-27" d="M2526.4,1447.3l-48.9.2v-1.7a24,24,0,0,1,7.2-17.3,24.36,24.36,0,0,1,15.3-7.1h4C2516.3,1422.4,2526,1432.8,2526.4,1447.3Z" transform="translate(-757.5 -324)"/></g><g id="HAND"><path class="cls-25" d="M2838.5,2129.3l41.2,106.3a31,31,0,0,1-20.6,41l-90.5,24.8a17,17,0,0,1-15.6-3.5l-9.2-8,18.8-5a18.21,18.21,0,0,0,13.5-18.5l-2.1-21.2a18.2,18.2,0,0,0-17.6-17.4h1c-11.5-.4-22.7-7.5-27.2-18.1l-14.4-38.3Z" transform="translate(-757.5 -324)"/><path class="cls-29" d="M2745.7,2292l14.8-4c8.3-2.2,13.9-8.9,13.5-17.5l-1.1-23.2a18.2,18.2,0,0,0-17.6-17.4h0a29.64,29.64,0,0,1-26.2-18.1l-15.4-36.3" transform="translate(-757.5 -324)"/><path class="cls-29" d="M2794.1,2291.8a23.27,23.27,0,0,0,17.3-23.6l-1.4-29.6" transform="translate(-757.5 -324)"/><path class="cls-29" d="M2832.4,2281.9a23.27,23.27,0,0,0,17.3-23.6l-1.4-29.6" transform="translate(-757.5 -324)"/><path class="cls-23" d="M2489.8,1686.1l24.2,126.6a205.82,205.82,0,0,0,22.4,61.7l167,301.4,153.3-52.8" transform="translate(-757.5 -324)"/><path class="cls-16" d="M2591.1,1973.2l-54.7-98.8a211,211,0,0,1-20.5-53,72.61,72.61,0,0,1,16.3-3.4c43.2-3.8,81.5,32.5,85.6,81C2620.2,1928.4,2609.5,1955.5,2591.1,1973.2Z" transform="translate(-757.5 -324)"/></g></g></svg>