<?xml version="1.0" encoding="utf-8"?>
<!-- Generator: Adobe Illustrator 26.0.3, SVG Export Plug-In . SVG Version: 6.00 Build 0)  -->
<svg version="1.1" id="Слой_1" xmlns="http://www.w3.org/2000/svg" xmlns:xlink="http://www.w3.org/1999/xlink" x="0px" y="0px"
	 viewBox="0 0 3656.4 2851.9" style="enable-background:new 0 0 3656.4 2851.9;" xml:space="preserve">
<style type="text/css">
	.st0{fill:#F8AB5D;}
	.st1{fill:#FFFFFF;stroke:#F8AB5D;stroke-width:6;stroke-miterlimit:10;}
	.st2{fill:#A83D0C;stroke:#F8AB5D;stroke-miterlimit:10;}
	.st3{fill:#FFE779;stroke:#F8AB5D;stroke-width:6;stroke-miterlimit:10;}
	.st4{fill:none;stroke:#F8AB5D;stroke-width:6;stroke-miterlimit:10;}
	.st5{fill:#FFCF2D;stroke:#F8AB5D;stroke-miterlimit:10;}
	.st6{fill:#FFFFFF;stroke:#F8AB5D;stroke-miterlimit:10;}
	.st7{fill:#FFFFFF;stroke:#F8AB5D;stroke-width:4;stroke-miterlimit:10;}
	.st8{fill:none;stroke:#F8AB5D;stroke-width:4;stroke-linecap:round;stroke-miterlimit:10;}
	.st9{fill:#66B0F0;stroke:#F8AB5D;stroke-miterlimit:10;}
	.st10{fill:#E57281;stroke:#F8AB5D;stroke-miterlimit:10;}
	.st11{fill:#FFCF2D;}
	.st12{fill:#9A3B82;}
	.st13{fill:#A83D0C;}
	.st14{fill:#E6E6E6;}
	.st15{fill:#66B0F0;}
	.st16{fill:none;stroke:#FFFFFF;stroke-width:6;stroke-linecap:round;stroke-miterlimit:10;}
	.st17{fill:none;stroke:#FFFFFF;stroke-width:6;stroke-miterlimit:10;}
	.st18{fill:#E57281;}
	.st19{fill:#FFFFFF;stroke:#FFCF2D;stroke-width:6;stroke-miterlimit:10;}
	.st20{fill:none;stroke:#FFCF2D;stroke-width:6;stroke-linecap:round;stroke-miterlimit:10;}
	.st21{fill:#FFFFFF;stroke:#FE5244;stroke-width:6;stroke-miterlimit:10;}
	.st22{fill:none;stroke:#FE5244;stroke-width:6;stroke-miterlimit:10;}
	.st23{fill:#FFCF2D;stroke:#FE5244;stroke-width:6;stroke-linejoin:round;stroke-miterlimit:10;}
	.st24{fill:none;stroke:#9A3B82;stroke-width:5;stroke-linecap:round;stroke-miterlimit:10;}
	.st25{fill:#FFFFFF;}
	.st26{fill:#FE5244;}
	.st27{fill:#FFFFFF;stroke:#F8AB5D;stroke-width:5;stroke-miterlimit:10;}
	.st28{fill:none;stroke:#F8AB5D;stroke-width:5;stroke-miterlimit:10;}
	.st29{fill:#FE5244;stroke:#F8AB5D;stroke-miterlimit:10;}
	.st30{fill:#A0505A;stroke:#F8AB5D;stroke-miterlimit:10;}
	.st31{fill:#73325A;stroke:#F8AB5D;stroke-miterlimit:10;}
	.st32{fill:#FBCC45;stroke:#F8AB5D;stroke-miterlimit:10;}
	.st33{fill:none;stroke:#F8AB5D;stroke-width:6;stroke-linecap:round;stroke-miterlimit:10;}
	.st34{fill:#FFFFFF;stroke:#F8AB5D;stroke-width:6;stroke-linecap:round;stroke-miterlimit:10;}
	.st35{fill:none;stroke:#F8AB5D;stroke-width:5;stroke-linecap:round;stroke-miterlimit:10;}
</style>
<polygon id="FLOOR" class="st0" points="3573,2580.8 101.2,2580.8 724.4,2221.3 2959.3,2221.3 "/>
<g id="LAPTOP">
	<g>
		<path class="st1" d="M2091.7,823.3h-624.6V470.5c0-23.9,19.8-43.3,44.3-43.3h536c24.5,0,44.3,19.4,44.3,43.3V823.3z"/>
		<path class="st2" d="M2044.6,800.3h-527.7c-13.9,0-25.2-11-25.2-24.6V473.3c0-13.6,11.3-24.6,25.2-24.6h527.7
			c13.9,0,25.2,11,25.2,24.6v302.5C2069.8,789.3,2058.5,800.3,2044.6,800.3z"/>
		<path class="st3" d="M2201.2,906.1c23.9,15.2,18.3,45-9.9,45h-850.9c-23.8,0-32-31.4-8.6-45.8L2201.2,906.1z"/>
		<path class="st1" d="M2191.3,930.3h-850.9c-15.2,0-21.2-17.5-8.6-25.1l135.5-82H2090l111.2,82.8
			C2212.2,914.3,2205.7,930.3,2191.3,930.3z"/>
		<g>
			<path class="st1" d="M2093.1,905.6h-654.5c-11.7,0-16.3-13.5-6.7-19.3l94.1-63.1h489.1l85.5,63.7
				C2109.2,893.3,2104.2,905.6,2093.1,905.6z"/>
			<g>
				<line class="st4" x1="1972.8" y1="823.3" x2="2058.4" y2="905.6"/>
				<line class="st4" x1="1927.4" y1="823.3" x2="2002.8" y2="905.6"/>
				<line class="st4" x1="1885" y1="823.3" x2="1950.4" y2="905.6"/>
				<line class="st4" x1="1837.5" y1="823.3" x2="1892.8" y2="905.6"/>
				<line class="st4" x1="1798.2" y1="823.3" x2="1825.1" y2="905.6"/>
			</g>
			<g>
				<line class="st4" x1="1565.8" y1="823.3" x2="1480.2" y2="905.6"/>
				<line class="st4" x1="1611.2" y1="823.3" x2="1535.8" y2="905.6"/>
				<line class="st4" x1="1653.6" y1="823.3" x2="1588.2" y2="905.6"/>
				<line class="st4" x1="1701" y1="823.3" x2="1645.7" y2="905.6"/>
				<line class="st4" x1="1740.4" y1="823.3" x2="1713.4" y2="905.6"/>
			</g>
			<line class="st4" x1="1767.1" y1="906.6" x2="1767.1" y2="823.3"/>
			<line class="st4" x1="1480.2" y1="854" x2="2056.5" y2="854"/>
		</g>
	</g>
	<g>
		<g id="SHIRT">
			<path class="st5" d="M2000.7,800.3h-468.6l8.4-58.4c5.2-35.9,31.6-65.4,67.2-75.4l114.2-23.2h88.8l114.2,23.2
				c35.8,9.9,62.2,39.5,67.2,75.4L2000.7,800.3z"/>
			<g>
				<g>
					<path class="st6" d="M1798,710.1l-33.8-33.4c-0.7-0.7-0.7-1.9,0-2.5c0.7-0.7,1.9-0.7,2.6,0l31,30.7l48.2-53.3
						c0.6-0.7,1.9-0.8,2.6-0.2c0.7,0.6,0.8,1.8,0.2,2.5L1798,710.1z"/>
				</g>
				<g>
					<path class="st6" d="M1735.2,710.1l-50.8-56.2c-0.6-0.7-0.6-1.9,0.2-2.5c0.7-0.6,1.9-0.6,2.6,0.2l48.2,53.3l31-30.7
						c0.7-0.7,1.9-0.7,2.6,0s0.7,1.8,0,2.5L1735.2,710.1z"/>
				</g>
				<g>
					<path class="st6" d="M1767.1,731.9c-4.4,0-8.1-3.5-8.1-7.9s3.6-7.9,8.1-7.9s8.1,3.5,8.1,7.9S1771.6,731.9,1767.1,731.9z
						 M1767.1,719.7c-2.4,0-4.4,1.9-4.4,4.3c0,2.4,1.9,4.3,4.4,4.3c2.4,0,4.4-1.9,4.4-4.3C1771.5,721.6,1769.6,719.7,1767.1,719.7z"
						/>
				</g>
				<g>
					<path class="st6" d="M1767.1,776.2c-4.4,0-8.1-3.5-8.1-7.9s3.6-7.9,8.1-7.9s8.1,3.5,8.1,7.9S1771.6,776.2,1767.1,776.2z
						 M1767.1,764.1c-2.4,0-4.4,1.9-4.4,4.3s1.9,4.3,4.4,4.3c2.4,0,4.4-1.9,4.4-4.3C1771.5,766,1769.6,764.1,1767.1,764.1z"/>
				</g>
			</g>
		</g>
		<g id="HAND_1_">
			<polygon class="st7" points="1721.4,798.4 1570,798.4 1529.6,681.3 1681,638.9 			"/>
			<g>
				<path class="st6" d="M1577.9,696.5h-2.9c-7.3,0-13.2-5.8-13.2-12.9v-40.6c0-2.9,2.4-5.2,5.4-5.2h12.5c3,0,5.4,2.4,5.4,5.2v46.5
					C1585.1,693.3,1581.9,696.5,1577.9,696.5z"/>
				<path class="st8" d="M1577.9,696.5h-2.9c-7.3,0-13.2-5.8-13.2-12.9v-40.6c0-2.9,2.4-5.2,5.4-5.2h12.5c3,0,5.4,2.4,5.4,5.2v46.5
					C1585.1,693.3,1581.9,696.5,1577.9,696.5z"/>
				<path class="st6" d="M1638.9,696.5h2.9c7.3,0,13.2-5.8,13.2-12.9v-40.6c0-2.9-2.4-5.2-5.4-5.2H1637c-3,0-5.4,2.4-5.4,5.2v46.5
					C1631.6,693.3,1634.9,696.5,1638.9,696.5z"/>
				<path class="st6" d="M1601.2,701.2h-6.7c-5.2,0-9.4-4.1-9.4-9.1v-49c0-2.9,2.4-5.2,5.4-5.2h12.5c3,0,5.4,2.4,5.4,5.2v51.1
					C1608.4,698,1605.1,701.2,1601.2,701.2z"/>
				<path class="st6" d="M1624.5,703h-5.6c-5.8,0-10.6-4.6-10.6-10.3v-49.8c0-2.9,2.4-5.2,5.4-5.2h12.5c3,0,5.4,2.4,5.4,5.2v53
					C1631.6,699.8,1628.4,703,1624.5,703z"/>
				<path class="st8" d="M1638.9,696.5h2.9c7.3,0,13.2-5.8,13.2-12.9v-40.6c0-2.9-2.4-5.2-5.4-5.2H1637c-3,0-5.4,2.4-5.4,5.2v46.5
					C1631.6,693.3,1634.9,696.5,1638.9,696.5z"/>
				<path class="st8" d="M1601.2,701.2h-6.7c-5.2,0-9.4-4.1-9.4-9.1v-49c0-2.9,2.4-5.2,5.4-5.2h12.5c3,0,5.4,2.4,5.4,5.2v51.1
					C1608.4,698,1605.1,701.2,1601.2,701.2z"/>
				<path class="st8" d="M1624.5,703h-5.6c-5.8,0-10.6-4.6-10.6-10.3v-49.8c0-2.9,2.4-5.2,5.4-5.2h12.5c3,0,5.4,2.4,5.4,5.2v53
					C1631.6,699.8,1628.4,703,1624.5,703z"/>
			</g>
		</g>
		<g id="HEAD_5_">
			<g id="NECK_2_">
				<path class="st6" d="M1810.9,590.2v66.1c0,11.4-19.9,20.7-44.5,20.7s-44.5-9.3-44.5-20.7v-66.1H1810.9z"/>
				<path class="st9" d="M1810.9,590.2c0,49.9-32.7,64.7-64.1,62.1c-0.1,0-0.2,0-0.3,0c-13.9-1.3-24.5-12.8-24.5-26.4v-35.6
					L1810.9,590.2L1810.9,590.2z"/>
			</g>
			<path id="HEAD_4_" class="st6" d="M1831.5,573.2v3.3c0,7.4-6.1,13.4-13.7,13.4h-7l0.1,1.5c0,21.4-17.7,38.6-39.6,38.6h-9.7
				c-21.9,0-39.6-17.3-39.6-38.6l0.1-1.5h-7c-7.6,0-13.7-6-13.7-13.4v-3.3c0-7.4,6.1-13.4,13.7-13.4h9l1-16.4c0-2.5,0.4-5,1.1-7.2
				c26.5,6.4,57.5-10.2,65.9-15.2c9.3,3.4,15.8,12.1,15.8,22.4l1,16.4h9C1825.4,559.8,1831.5,565.7,1831.5,573.2z"/>
			<path id="HAIR_2_" class="st10" d="M1818.5,559.8h-9.6l-1-16.4c0-10.2-6.6-18.9-15.8-22.4c-8.3,4.9-39.4,21.5-65.9,15.2
				c-0.7,2.3-1.1,4.7-1.1,7.2l-1,16.4h-6c0,0-12.3-58.3-0.2-69c9-7.9,91.2,9.3,100.3,21.5C1823.2,519.4,1818.5,559.8,1818.5,559.8z"
				/>
			<g id="FACE">
				<g>
					<path class="st9" d="M1795.3,556.2c-0.3,0-0.6-0.1-0.9-0.4l0,0c-0.1-0.1-6.1-4.9-15.7-4.9c-0.7,0-1.4-0.6-1.4-1.4
						s0.6-1.4,1.4-1.4c10.7,0,17.2,5.2,17.5,5.5c0.6,0.5,0.6,1.4,0.2,1.9C1796.1,556.1,1795.7,556.2,1795.3,556.2z"/>
				</g>
				<g>
					<path class="st9" d="M1760.1,584.3c-0.2,0-0.4,0-0.5-0.1c-0.7-0.3-1.1-1.1-0.8-1.7c2.6-6.7,1.9-15.1-1.7-22.5
						c-2.1-4.5-5.2-7.8-7.9-8.7c-5.9-2-14.3,0.8-14.4,0.8c-0.7,0.3-1.5-0.1-1.8-0.8c-0.3-0.7,0.1-1.4,0.8-1.7
						c0.4-0.1,9.3-3.1,16.1-0.8c3.4,1.2,6.9,4.9,9.4,10.1c3.9,8.1,4.5,17.3,1.8,24.7C1761.2,583.9,1760.7,584.3,1760.1,584.3z"/>
				</g>
				<g>
					<path class="st9" d="M1778.4,598.7c0.1,0.7-0.6,1.4-1.3,1.4h-0.1c-0.7,0-1.3-0.5-1.4-1.3c-0.1-0.9-0.3-1.8-0.6-2.6
						c-4,1.9-7.6,2.5-10.6,2.5c-5.8,0-9.4-2.4-9.5-2.5c-0.6-0.5-0.7-1.3-0.4-1.9c0.5-0.6,1.3-0.7,1.9-0.4c0.2,0.1,3.1,2.1,8,2.1
						c2.6,0,5.7-0.5,9.4-2.3c-0.6-0.9-1.1-1.4-1.1-1.4c-0.6-0.5-0.5-1.4,0.1-1.9c0.6-0.5,1.5-0.5,1.9,0.1
						C1774.9,590.8,1778.1,594.2,1778.4,598.7z"/>
				</g>
				
					<ellipse transform="matrix(0.9979 -6.470717e-02 6.470717e-02 0.9979 -33.0362 116.5682)" class="st9" cx="1783.1" cy="568.3" rx="2.3" ry="4.5"/>
				
					<ellipse transform="matrix(0.9979 -6.470724e-02 6.470724e-02 0.9979 -33.1153 114.1228)" class="st9" cx="1745.3" cy="568.3" rx="2.1" ry="4.2"/>
				<path class="st9" d="M1719.6,577.5c-0.7,0-1.4-0.6-1.4-1.4c0-4-3.3-7.1-7.3-7.1c-0.7,0-1.4-0.6-1.4-1.4s0.6-1.4,1.4-1.4
					c5.6,0,10.1,4.4,10.1,9.9C1721,577,1720.4,577.5,1719.6,577.5z"/>
				<path class="st9" d="M1812.8,577.5c-0.7,0-1.4-0.6-1.4-1.4c0-5.4,4.5-9.9,10.1-9.9c0.7,0,1.4,0.6,1.4,1.4s-0.6,1.4-1.4,1.4
					c-4.1,0-7.3,3.3-7.3,7.1C1814.2,577,1813.6,577.5,1812.8,577.5z"/>
			</g>
		</g>
	</g>
</g>
<g id="TABLE">
	<path class="st4" d="M3489.6,2580.8l-396.7-1281.5c-7.9-25.5-32.1-43-59.4-43H625.6c-27.6,0-51.9,17.8-59.6,43.8L187.4,2580.8"/>
	<line class="st4" x1="1285.2" y1="823.3" x2="2338.4" y2="823.3"/>
</g>
<g id="BOY">
	<path id="PAPER_1_" class="st11" d="M1650.7,1018h248.8v208.8h-248.8C1650.7,1226.7,1650.7,1010.1,1650.7,1018z"/>
	<g id="BOY_1_">
		<g id="LEGS_1_">
			<g>
				<polygon class="st12" points="2581.1,1987.9 2465.4,1706.5 2651.7,1706.5 				"/>
				<path class="st12" d="M2263.6,1330.9L2263.6,1330.9c24.8-45.9,73.6-74.6,126.7-74.6h143.3l97.4,74.6H2263.6z"/>
			</g>
			<g>
				<g>
					<path class="st13" d="M2806.9,1660.3h-361l135.9,322.2c-9.4-15-66,0.6-126,36.6c-59.2,35.5-99.2,78.2-91.1,93.7L2071.9,1615
						c-76-125.6,16.7-284.1,166-284.1h808.9l1.8,5.4C3101.4,1496.5,2979.1,1660.3,2806.9,1660.3z"/>
					<path class="st14" d="M3060.8,1423.3c-1.3,29.4-8,57.8-19.3,84.2L2617.3,1331h421.1l9.8,28.1
						C3055.1,1375.9,3058.9,1399.5,3060.8,1423.3z"/>
					<path class="st15" d="M2581.9,1982.6c9.4,15-31.9,56-91.7,91.9c-59.9,35.9-115.6,53.9-125.1,38.9c-9.4-15,30.8-57.5,90.8-93.4
						C2515.8,1984.1,2572.4,1967.6,2581.9,1982.6z"/>
					<g>
						<path class="st16" d="M2449,2020.2l-263.4-455c-20.7-36,5.9-80.5,48.3-80.5h513.1c69.1,0,120.7-62.2,106.4-128.2"/>
						<path class="st16" d="M2362.1,2114.4c-9.4-15,31.4-62.8,93.8-98.4c70.1-39.9,115.5-51.8,129-30.6"/>
						<line class="st16" x1="2587" y1="1987.5" x2="2414.9" y2="1586.6"/>
						<line class="st17" x1="2227.8" y1="1327.9" x2="2647.7" y2="1327.9"/>
					</g>
				</g>
				<g>
					<path class="st18" d="M2465.3,2134.1l-25-33.3l-34.5-45.8c14.1-11.6,31-23.6,50-35c37.8-22.6,74.2-37.6,98.4-41.8l16.8,32.7
						l20.9,40.7C2577.1,2103.1,2465.3,2134.1,2465.3,2134.1z"/>
					<path class="st12" d="M2571.1,2010.9c-15.6,18.5-44.8,42-80.9,63.6c-17.3,10.4-34.3,19.3-49.8,26.3l-34.5-45.8
						c14.1-11.6,31-23.6,50-35c37.8-22.6,74.2-37.6,98.4-41.8L2571.1,2010.9z"/>
				</g>
				<g>
					<path class="st19" d="M2706.4,2231l-254.2,178.3c-21.6,14.7-55.1,26.9-50.7-26.2c6.2-73.1,22.8-181.9,63.7-249.2l0,0
						c1.8-0.5,111.8-31.5,126.6-82.5l115.9,80.4C2741.1,2157.3,2740.4,2206.7,2706.4,2231z"/>
					<path class="st20" d="M2453.5,2157.7c20.2,3.7,133.6-35.6,151.2-96.1"/>
					<path class="st11" d="M2426.2,2391c0,0,165.9-225.1,283.9-212.5C2838.6,2192.2,2321.2,2522.3,2426.2,2391z"/>
					<path class="st20" d="M2421.5,2421.7c-12.9,0.8-26.5-13.8-7.7-37.4c0,0,172.7-233.5,295.6-220.2c19,2,25.4,17.1,20.9,30.1"/>
				</g>
			</g>
		</g>
		<g id="T-SHIRT">
			<path class="st21" d="M3061.7,1441.6c-58.7-13.6-204.9-49.3-371.6-87c-78.4-17.6-143.9-69.8-177.8-141.1l-151.8-320.9l91.9-142.2
				c28.3-43.8,76.4-71.7,129.3-74.8l90.4-5.4c91.1-5.4,164.3,50.1,192.1,135.1l183.9,525.5
				C3068.3,1380.1,3061.7,1441.6,3061.7,1441.6z"/>
			<path class="st22" d="M2440.5,910.8c0,0,48.4,74.2,158.5,90.6"/>
			<g>
				<path class="st23" d="M2505.7,775.8L2505.7,775.8c-5-5.2-13.8-3.8-16.9,2.6l0,0c-3.4,7.2,2.8,15.3,10.8,14.1l0,0
					C2507.9,791.3,2511.3,781.6,2505.7,775.8z"/>
				<path class="st23" d="M2736.4,930.4L2736.4,930.4c-5-5.2-13.8-3.8-16.9,2.6l0,0c-3.4,7.2,2.8,15.3,10.8,14.1l0,0
					C2738.6,946,2742.1,936.3,2736.4,930.4z"/>
				<path class="st23" d="M2809.5,993.7L2809.5,993.7c-5-5.2-13.8-3.8-16.9,2.6l0,0c-3.4,7.2,2.8,15.3,10.8,14.1l0,0
					C2811.6,1009.4,2815.1,999.7,2809.5,993.7z"/>
				<path class="st23" d="M2949.7,1352.2L2949.7,1352.2c-5-5.2-13.8-3.8-16.9,2.6l0,0c-3.4,7.2,2.8,15.3,10.8,14.1l0,0
					C2951.8,1367.7,2955.2,1358.1,2949.7,1352.2z"/>
				<path class="st23" d="M2871.2,1180.9L2871.2,1180.9c-5-5.2-13.8-3.8-16.9,2.6l0,0c-3.4,7.2,2.8,15.3,10.8,14.1l0,0
					C2873.4,1196.4,2876.9,1186.7,2871.2,1180.9z"/>
				<path class="st23" d="M2903.7,1057.6L2903.7,1057.6c-7.2,0.9-11.2,8.8-7.6,14.9l0,0c4.1,7,14.4,6.7,18.1-0.5l0,0
					C2918,1064.9,2911.9,1056.5,2903.7,1057.6z"/>
				<path class="st23" d="M2962.9,1240.4L2962.9,1240.4c-7.2,0.9-11.2,8.8-7.6,14.9l0,0c4.1,7,14.4,6.7,18.1-0.5l0,0
					C2977.2,1247.6,2971.1,1239.3,2962.9,1240.4z"/>
				<path class="st23" d="M2717.4,1043.2L2717.4,1043.2c-5-5.2-13.8-3.8-16.9,2.6l0,0c-3.4,7.2,2.8,15.3,10.8,14.1l0,0
					C2719.6,1058.8,2723,1049.2,2717.4,1043.2z"/>
				<path class="st23" d="M2666.4,1145.8L2666.4,1145.8c-5-5.2-13.8-3.8-16.9,2.6l0,0c-3.4,7.2,2.8,15.3,10.8,14.1l0,0
					C2668.6,1161.3,2672,1151.6,2666.4,1145.8z"/>
				<path class="st23" d="M2575.1,1109.9L2575.1,1109.9c5.4-4.9,3.9-13.5-2.7-16.5l0,0c-7.4-3.3-15.7,2.7-14.5,10.6l0,0
					C2559.1,1112,2568.9,1115.4,2575.1,1109.9z"/>
				<path class="st23" d="M2656.1,1286.4L2656.1,1286.4c5.4-4.9,3.9-13.5-2.7-16.5l0,0c-7.4-3.3-15.7,2.7-14.5,10.6l0,0
					C2640.2,1288.5,2650.1,1291.9,2656.1,1286.4z"/>
				<path class="st23" d="M2792.6,1135L2792.6,1135c5.4-4.9,3.9-13.5-2.7-16.5l0,0c-7.4-3.3-15.7,2.7-14.5,10.6l0,0
					C2776.6,1137.1,2786.5,1140.5,2792.6,1135z"/>
				<path class="st23" d="M2839.2,1324.5L2839.2,1324.5c5.4-4.9,3.9-13.5-2.7-16.5l0,0c-7.4-3.3-15.7,2.7-14.5,10.6l0,0
					C2823.1,1326.6,2833,1330,2839.2,1324.5z"/>
				<path class="st23" d="M2559.8,940.7L2559.8,940.7c-5-5.2-13.8-3.8-16.9,2.6l0,0c-3.4,7.2,2.8,15.3,10.8,14.1l0,0
					C2562,956.3,2565.4,946.6,2559.8,940.7z"/>
				<path class="st23" d="M2576.4,706L2576.4,706c-5-5.2-13.8-3.8-16.9,2.6l0,0c-3.4,7.2,2.8,15.3,10.8,14.1l0,0
					C2578.6,721.6,2582,711.9,2576.4,706z"/>
				<path class="st23" d="M2736.4,706L2736.4,706c-5-5.2-13.8-3.8-16.9,2.6l0,0c-3.4,7.2,2.8,15.3,10.8,14.1l0,0
					C2738.6,721.6,2742.1,711.9,2736.4,706z"/>
				<path class="st23" d="M2736.7,807.3L2736.7,807.3c-6.8,2.6-8.7,11.1-3.6,16.3l0,0c5.7,5.7,15.6,3.1,17.4-4.7l0,0
					C2752.4,811,2744.4,804.3,2736.7,807.3z"/>
				<path class="st23" d="M2645.7,749.6L2645.7,749.6c-7,2-9.7,10.2-5.3,15.8l0,0c5.1,6.2,15.2,4.5,17.8-3l0,0
					C2660.9,754.8,2653.6,747.3,2645.7,749.6z"/>
				<path class="st23" d="M2632.3,1000.3L2632.3,1000.3c-7.2,0.8-11.3,8.6-7.8,14.8l0,0c4,7,14.3,6.9,18.1-0.2l0,0
					C2646.5,1007.8,2640.6,999.3,2632.3,1000.3z"/>
				<path class="st23" d="M2552.9,1188.7L2552.9,1188.7c-7.2,0.8-11.3,8.6-7.8,14.8l0,0c4,7,14.3,6.9,18.1-0.2l0,0
					C2567.1,1196.2,2561.2,1187.8,2552.9,1188.7z"/>
				<path class="st23" d="M2579.6,824.3L2579.6,824.3c-7,2-9.7,10.2-5.3,15.8l0,0c5.1,6.2,15.2,4.5,17.8-3l0,0
					C2594.8,829.6,2587.6,822.2,2579.6,824.3z"/>
				<path class="st23" d="M2656.3,875L2656.3,875c-7,2-9.7,10.2-5.3,15.8l0,0c5.1,6.2,15.2,4.5,17.8-3l0,0
					C2671.5,880.2,2664.3,872.8,2656.3,875z"/>
				<path class="st23" d="M2490.2,872.8L2490.2,872.8c4.6-5.5,2.1-13.8-4.9-15.9l0,0c-7.8-2.4-15.2,4.7-12.9,12.3l0,0
					C2474.7,877,2484.9,879.1,2490.2,872.8z"/>
				<path class="st23" d="M2841.4,873.1L2841.4,873.1c4.6-5.5,2.1-13.8-4.9-15.9l0,0c-7.8-2.4-15.2,4.7-12.9,12.3l0,0
					C2825.8,877.3,2836.1,879.4,2841.4,873.1z"/>
				<path class="st23" d="M2752.3,1240L2752.3,1240c4.6-5.5,2.1-13.8-4.9-15.9l0,0c-7.8-2.4-15.2,4.7-12.9,12.3l0,0
					C2736.7,1244,2747,1246.1,2752.3,1240z"/>
			</g>
		</g>
		<g id="HEAD_2_">
			<g id="NECK_1_">
				<path class="st18" d="M2678.3,667.3c-2,0.1-4.1,0.2-6.2,0.3l-90.4,5.4c-23.1,1.4-45.1,7.4-65.1,17.5l-27.8-81.3l123.8-88.7
					L2678.3,667.3z"/>
				<path class="st12" d="M2516.2,689.2L2516.2,689.2c25.8-11.4,46.3-31.7,58-56.8l45-97.3l-6.6-14.7l-123.8,88.7L2516.2,689.2z"/>
			</g>
			<g id="HEAD_3_">
				<path class="st18" d="M2620.6,528.6c0,8.4-3.5,16-9.2,21.5c-5.7,5.5-13.4,9-22,9h-27.2c-10.7,40.8-52.3,68.8-97.1,61.1
					l-20.5-3.5c-22.4-3.9-37.7-24.3-34.6-46.3l24-117.4c4.2-25.1,30.6-40.4,55.1-31.8l39.7,15.6c21.5,7.2,35.9,27,35.9,49.1v11.3
					l24.5,0.9C2606.6,498.1,2620.6,511.8,2620.6,528.6z"/>
				<g>
					<path class="st24" d="M2574.5,534.5c0-11.7,9.6-21.1,21.6-21.1"/>
					<path class="st24" d="M2447.4,477.7c0,0,19.5,0,33.3,18.2"/>
					
						<ellipse transform="matrix(0.1853 -0.9827 0.9827 0.1853 1498.8612 2829.3833)" class="st12" cx="2455.8" cy="510.8" rx="9.7" ry="4.6"/>
				</g>
			</g>
			<g id="HAIR_1_">
				<path class="st11" d="M2589.4,498.1c17.2,0,31.2,13.7,31.2,30.5c0,0.1,0,0.3,0,0.5c13.9-20.9,48-74.1,48-92.1
					c0-24.2-30.8-48.3-62.8-37.3c2.1-1.5,4.4-3.2,6.7-4.9c12.3-9.4,18.8-16.5,19.8-21.5c0.4-1.8,0.1-3.4-0.8-4.7
					c-3.7-5.2-7.8-7.4-12.1-6.7c-6.4,1-13,8.7-19.5,22.8c-3,6.4-5.3,12.8-6.6,16.6c-2.6-15.1-15.1-65.2-68.8-57.5
					c-18.5,2.6-27.2,10.1-29.6,18.4c-15.4-11.8-35.9-21-53-12.2c-29.5,15.1-25.8,39.9-8.8,57.5c-16.1-0.3-27.4,4.3-27.4,17.6
					c0,12.2,12.9,18.1,30.6,20.4s40.4,1.1,60-1.1c14-1.5,26.6-3.4,34.6-4.8c-5.4,10.8-7.5,20-7,27.8c0.8,16.1,12.8,25.6,29.6,29
					c3.6,0.7,7.5,1.2,11.5,1.4L2589.4,498.1z M2619.9,365.5c0.3-0.1,0.6-0.1,0.9-0.1c2.6,0,5.1,1.8,7.6,5.2c0.2,0.4,0.5,0.9,0.3,1.9
					c-1.5,7.3-20.5,21.3-31.5,28.6C2601.6,388.7,2610.7,367,2619.9,365.5z"/>
				<g>
					<path class="st25" d="M2515.5,392.3c-6.4,0-12.9-3.3-17.6-9.2c-5.3-6.5-7-14.6-4.8-21.5c0.3-0.9,1.2-1.4,2.1-1.3
						c0.4,0,0.7,0.1,1,0.4c14,9.8,25.2,23.7,23.5,29.2c-0.4,1.4-1.6,2.4-3.1,2.4C2516.2,392.3,2515.9,392.3,2515.5,392.3z
						 M2496,364.9c-0.8,5.2,0.8,11,4.7,15.8c4.2,5.2,9.9,8.1,15.5,7.8C2516.4,386.2,2510.2,375.4,2496,364.9z"/>
				</g>
			</g>
		</g>
		<g id="HANDS">
			<g id="LEFT_1_">
				<path class="st18" d="M2332.7,1191.3h-592.8c-14.6,0-23.4-15.7-15.7-27.8l78.9-121.1c10.3-15.7,28-25.2,47.1-25.2h401.3
					L2332.7,1191.3z"/>
				<path class="st26" d="M1863.2,1017.3l47.2-76c2.8-4.5,7.9-7.3,13.2-7.3l0,0c12.1,0,19.5,12.9,13.2,23.1l-37.5,60.3H1863.2z"/>
				<path class="st12" d="M2332.7,1191.3h-133.3c-0.3-0.3-0.6-0.6-0.9-0.9c-32.4-32.6-46.2-82-28-129.6l19-43.6h62L2332.7,1191.3z"
					/>
				<path class="st18" d="M1823.6,1110h-74.3c-5,0-9.6,2.6-12.1,6.9l-7.9,13.4c-5.3,9,1.4,20.4,12.1,20.4h59.7
					c10.4,0,20-5.2,25.5-13.9l6.4-10.2C1837.5,1119.2,1832.2,1110,1823.6,1110z"/>
				<path class="st18" d="M1804.4,1150.6h-74.3c-5,0-9.6,2.6-12.1,6.9l-7.9,13.4c-5.3,9,1.4,20.4,12.1,20.4h59.7
					c10.4,0,20-5.2,25.5-13.9l6.4-10.2C1818.4,1159.9,1813,1150.6,1804.4,1150.6z"/>
				<path class="st18" d="M1844.8,1068.8h-74.3c-5,0-9.6,2.6-12.1,6.9l-7.9,13.4c-5.3,9,1.4,20.4,12.1,20.4h59.7
					c10.4,0,20-5.2,25.5-13.9l6.4-10.2C1858.8,1078.1,1853.4,1068.8,1844.8,1068.8z"/>
				<path class="st24" d="M1823.6,1110h-74.3c-5,0-9.6,2.6-12.1,6.9l-7.9,13.4c-5.3,9,1.4,20.4,12.1,20.4h59.7
					c10.4,0,20-5.2,25.5-13.9l6.4-10.2C1837.5,1119.2,1832.2,1110,1823.6,1110z"/>
				<path class="st24" d="M1804.4,1150.6h-74.3c-5,0-9.6,2.6-12.1,6.9l-7.9,13.4c-5.3,9,1.4,20.4,12.1,20.4h59.7
					c10.4,0,20-5.2,25.5-13.9l6.4-10.2C1818.4,1159.9,1813,1150.6,1804.4,1150.6z"/>
				<path class="st24" d="M1844.8,1068.8h-74.3c-5,0-9.6,2.6-12.1,6.9l-7.9,13.4c-5.3,9,1.4,20.4,12.1,20.4h59.7
					c10.4,0,20-5.2,25.5-13.9l6.4-10.2C1858.8,1078.1,1853.4,1068.8,1844.8,1068.8z"/>
				<path class="st18" d="M1952.3,1129.4c-22.3,0-43.8-7.9-60.7-22.3l-28.2-24.1h-25.9l-6.7,7c-11.9,12.5-26.7,19.6-44.2,19.6h-12.4
					c-6.5,0-10.5-7.1-6.9-12.4l31.2-47.8h153.9L1952.3,1129.4L1952.3,1129.4z"/>
				<path class="st24" d="M1798.5,1049.5l-31.2,47.8c-3.5,5.3,0.5,12.4,6.9,12.4h12.4c17.5,0,32.2-7.1,44.2-19.6l6.7-7h25.9
					l28.2,24.1c16.8,14.3,38.3,22.3,60.7,22.3"/>
			</g>
			<g id="RIGHT_1_">
				<path class="st18" d="M2577.7,1022.1l-141.4,154.4c-29.7,32.5-72.3,51-116.9,51l0,0c-88.2,0-149.2-86-118.3-166.7l168-385.7
					l-56.8-31c-8.1-6.2-11.9-16.2-10.2-26l9.6-63.4c3-14.1,17.7-25.2,32.1-28.4l66.5-14.7c5.7-1.3,10.8,3.4,9.9,9l-9.6,49
					c-3.8,23.9,12.7,44.5,37.1,48.6l0,0c20,3.3,34.1,23,32.2,42.7l-45.3,276C2434.6,937,2481,1007.7,2577.7,1022.1z"/>
				<line class="st24" x1="2469.3" y1="726.4" x2="2414.6" y2="1073.1"/>
				<path class="st24" d="M2356,559.3l-0.7,22.4c-0.3,9.2,5.4,17.4,13.5,19.6l85.1,16.8"/>
				<path class="st24" d="M2511.8,625.5l-68.1-8.9c-22.4-3.9-37.7-24.3-34.6-46.3l8.8-49.1c0.8-4.6-3.4-8.5-8.1-7.4l-69.5,15.8"/>
				<line class="st22" x1="2474.2" y1="1134.8" x2="2658.3" y2="934.6"/>
				<line class="st24" x1="2371.1" y1="675.2" x2="2403.6" y2="675.2"/>
				<path class="st24" d="M2356.1,565.3v7.2c0,8.6,6.4,15.7,14.3,15.7h10.2c4.4,0,8-3.9,8-8.8l0.6-47.2c0.1-7.3-7.9-11.9-14.4-10.3"
					/>
				<path class="st24" d="M2389.2,565.3v7.2c0,8.6,6.4,15.7,14.3,15.7h6.5"/>
			</g>
		</g>
	</g>
	<g id="CHAIR_1_">
		<line class="st4" x1="3004.3" y1="1706.5" x2="3111.9" y2="2580.8"/>
		<line class="st4" x1="2538.2" y1="1706.5" x2="2430.7" y2="2580.8"/>
		<line class="st4" x1="2467.5" y1="2280.5" x2="3074.9" y2="2280.5"/>
		<path class="st19" d="M2476.2,1709.2h584.5c7.8,0,14.1-6.2,14.1-13.8v-18.6c0-7.6-6.3-13.8-14.1-13.8h-584.5
			c-7.8,0-14.1,6.2-14.1,13.8v18.6C2462.1,1703.1,2468.4,1709.2,2476.2,1709.2z"/>
	</g>
</g>
<g id="GIRL">
	<g id="PAPER">
		<polygon class="st27" points="1503.6,1047.6 1414.1,1227.5 1143.7,1227.5 1252.4,1047.6 		"/>
		<path class="st28" d="M1444.3,1091.5c0,0-11.8-19.6-40-14.6c-21.1,3.7-46.1,20.7-61.5,11.6c-15.4-9.1-29-20.5-48.9-15.1
			s-34.6,15.8-34.6,15.8"/>
		<path class="st28" d="M1435.1,1119.5c0,0-11.8-19.6-40-14.6c-21.1,3.7-46.1,20.7-61.5,11.6c-15.4-9.1-29-20.5-48.9-15.1
			s-34.6,15.8-34.6,15.8"/>
	</g>
	<g id="GIRL_1_">
		<g id="LEGS">
			<g id="LEFT">
				<path class="st29" d="M1605.3,1854.9c0,24.2-68.6,43.7-154.6,43.7c-86,0-152.6-19.5-152.6-43.7c0-24.2,66.6-43.7,152.6-43.7
					C1536.7,1811.2,1605.3,1830.8,1605.3,1854.9z"/>
				<g>
					<path class="st30" d="M1565.8,1825.5v312.2l-9.7-45.1c-10.5-48.5-54.3-83.2-105-83.2c-15.3,0-30.3,3.2-43.9,9.1
						c-0.5,0.2-0.9,0.5-1.5,0.6l-35.7-127l-19.8-70.7c27.1-6.4,62.2-10.3,100.6-10.3C1496.3,1811.2,1537.3,1816.7,1565.8,1825.5z"/>
					<path class="st31" d="M1565.8,1825.5v58.8c-28.4,8.8-69.5,14.3-115,14.3c-29.5,0-57.2-2.4-80.8-6.3l-19.8-70.7
						c27.1-6.4,62.2-10.3,100.6-10.3C1496.3,1811.2,1537.3,1816.7,1565.8,1825.5z"/>
				</g>
				<g>
					<g>
						<g>
							<path class="st5" d="M1558.9,2128.5c2.5,0.7,26,7.1,46.9,7.1c11.3,0,21.8-1.9,27.7-7.7c5.1-5,6.3-12.2,3.6-21.4
								c-2.4-8.1-7-13.2-13.8-15c-12.4-3.3-29.6,5.8-43.3,15.3c21.2-25.2,42.1-57.1,34.4-78c-2.8-7.4-9.1-12.4-17-13.3
								c-6.6-0.7-12.7,1.5-15.6,5.8c-13.3,19.8-24.3,101.2-24.7,104.6L1558.9,2128.5z M1585.8,2023.9c1.7-2.4,5.2-3.9,9.3-3.9
								c0.6,0,1.3,0,1.9,0.1c3,0.4,10.1,2,13.2,10.3c2,5.5,2.8,15.7-5.5,32.7c-7.8,16.1-21.9,35-41.9,56.5
								C1565.8,2098.9,1575.2,2039.6,1585.8,2023.9z M1630.2,2124.8c-6.1,6-20,7.8-40.3,5.2c-10.7-1.4-20.6-3.5-25.8-4.9
								c4-3.4,11.4-9.7,20-15.5c16.5-11.1,29.6-15.9,38.1-13.7c5.1,1.4,8.5,5.2,10.6,11.9C1635,2115.5,1634.1,2121,1630.2,2124.8z"
								/>
						</g>
					</g>
					<path class="st27" d="M1370.9,2044.6l-21.4,23.4c-24.3,26.6-28.3,65.3-9.8,96.1l94.2,157.8c18.4,30.9,52.2,49.8,88.7,49.8h39
						c28.3,0,49.3-25.3,43.4-52.3l-49.1-226.7c-10.5-48.5-54.3-83.2-105-83.2l0,0C1420.4,2009.4,1391.3,2022.2,1370.9,2044.6z"/>
					<path class="st32" d="M1443.8,2112.8l121.6,230.2c5.7,10.4,12.9,17.1,21,21.4c-7,4.6-15.6,7.4-24.8,7.4h-39
						c-36.6,0-70.4-19-88.7-49.8l-94.2-157.9c-3.8-6.4-6.7-13.1-8.6-20.1c-13.3-48.4,43.1-86.4,85.4-58
						C1426.1,2092.4,1435.5,2101.1,1443.8,2112.8z"/>
					<g>
						<g>
							<path class="st6" d="M1444.1,2113.3h-112.3c0.6-1.7,1.2-3.3,1.9-4.9h106.7c1.1,1.4,2.2,2.9,3.3,4.4L1444.1,2113.3z"/>
						</g>
						<g>
							<path class="st6" d="M1460.5,2144.5h-129.3c0-0.2-0.1-0.4-0.1-0.5c-0.4-1.4-0.7-3-1-4.4H1458L1460.5,2144.5z"/>
						</g>
						<g>
							<polygon class="st6" points="1477,2175.7 1346.6,2175.7 1343.6,2170.7 1474.4,2170.7 							"/>
						</g>
						<g>
							<polygon class="st6" points="1493.5,2206.9 1365.2,2206.9 1362.3,2201.9 1490.9,2201.9 							"/>
						</g>
						<g>
							<polygon class="st6" points="1510,2238 1383.8,2238 1380.9,2233.1 1507.4,2233.1 							"/>
						</g>
						<g>
							<polygon class="st6" points="1526.5,2269.2 1402.5,2269.2 1399.5,2264.3 1523.8,2264.3 							"/>
						</g>
						<g>
							<polygon class="st6" points="1543,2300.5 1421.1,2300.5 1418.1,2295.5 1540.3,2295.5 							"/>
						</g>
						<g>
							<path class="st6" d="M1559.4,2331.6h-118.9c-1.2-1.6-2.4-3.3-3.5-4.9h119.9L1559.4,2331.6z"/>
						</g>
						<g>
							<path class="st6" d="M1583.7,2362.8h-103.4c-3.3-1.4-6.6-3.1-9.7-4.9h106.4C1579.2,2359.7,1581.4,2361.3,1583.7,2362.8z"/>
						</g>
					</g>
				</g>
			</g>
			<g id="RIGHT">
				<path class="st31" d="M1225.9,1848.5c-0.8,23.9-70.2,43.3-155.6,43.3c-85.4,0-154.8-19.3-155.6-43.3v-188.1h311.2V1848.5z"/>
				<g>
					<path class="st30" d="M1205.3,1879.7l-0.5,22.4l-4.4,218.2v-6.3c0-56-46.5-101.4-103.8-101.4h-6.3c-29.3,0-55.7,11.1-75.2,29
						l-13.6-89.9l-8.4-55.6c22.8,3.7,49.2,5.8,77.3,5.8C1128,1901.6,1178.3,1892.7,1205.3,1879.7z"/>
					<path class="st31" d="M1205.3,1879.7l-0.5,22.4c-34.5,23.9-140.9,53.3-203.3,49.4l-8.4-55.6c22.8,3.6,49.2,5.8,77.3,5.8
						C1128,1901.6,1178.3,1892.7,1205.3,1879.7z"/>
				</g>
				<g>
					<path class="st27" d="M1101.2,2374.6h17.2c45.2,0,81.9-35.8,81.9-80v-180.8c0-56-46.5-101.4-103.8-101.4h-6.3
						c-66.7,0-118.1,57.5-109.1,122.1l21.8,156.4C1009.6,2338.8,1051.6,2374.6,1101.2,2374.6z"/>
					<path class="st32" d="M1174.6,2352.8c-14.6,13.5-34.5,21.8-56.1,21.8h-17.2c-49.6,0-91.6-35.8-98.3-83.8l-21.8-156.4
						c-0.4-3-0.7-6-0.8-8.9c5.6-34.7,36.2-61.2,73.3-61.2c18.2,0,35.1,6.5,48.2,17.4c13.1,10.9,22.2,26.2,25.1,43.8l28.6,190.8
						C1157.6,2330.7,1164.5,2343.3,1174.6,2352.8z"/>
					<g>
						<g>
							<path class="st6" d="M1118.3,2101.5H988.9c0.9-1.7,2-3.3,3.1-4.9h123.2C1116.3,2098.1,1117.3,2099.8,1118.3,2101.5z"/>
						</g>
						<g>
							<path class="st6" d="M1127.9,2132.6h-147c-0.2-1.6-0.4-3.3-0.5-4.9h146.7L1127.9,2132.6z"/>
						</g>
						<g>
							<polygon class="st6" points="1132.6,2163.8 985.3,2163.8 984.5,2158.9 1131.9,2158.9 							"/>
						</g>
						<g>
							<polygon class="st6" points="1137.3,2195 989.6,2195 988.9,2190.1 1136.5,2190.1 							"/>
						</g>
						<g>
							<polygon class="st6" points="1142,2226.2 994,2226.2 993.2,2221.3 1141.2,2221.3 							"/>
						</g>
						<g>
							<polygon class="st6" points="1146.6,2257.4 998.2,2257.4 997.6,2252.5 1145.9,2252.5 							"/>
						</g>
						<g>
							<polygon class="st6" points="1151.3,2288.6 1002.6,2288.6 1001.9,2283.6 1150.6,2283.6 							"/>
						</g>
						<g>
							<path class="st6" d="M1156.1,2319.7h-144.3c-0.8-1.6-1.6-3.3-2.2-4.9h145.7l0.3,1.6
								C1155.7,2317.6,1155.9,2318.6,1156.1,2319.7z"/>
						</g>
						<g>
							<path class="st6" d="M1172.6,2350.9h-136.4c-1.9-1.5-3.7-3.3-5.4-4.9h137.6C1169.7,2347.8,1171.2,2349.4,1172.6,2350.9z"/>
						</g>
					</g>
				</g>
			</g>
		</g>
		<g id="CLOTHES">
			<g>
				<path class="st5" d="M1293.3,870.7v152.4c-6.8-17.3-60.3-14.8-119.2,7c-50.5,18.7-88.4,44.4-93.9,62.3V877.8
					c0-63.8,34.9-120.8,88.6-151.9C1238.3,737.8,1293.3,797,1293.3,870.7z"/>
				<path class="st5" d="M1076,732.8c-47.4,32.2-77.6,85.7-77.6,145v176.9H734.7l36.4-153.1c15.5-65.2,63.8-117.3,126.8-139.4
					L1076,732.8z"/>
			</g>
			<g>
				<path class="st29" d="M1609.4,1490v355.2c0-24.2-72.7-43.7-158.7-43.7c-86,0-155.6,19.5-155.6,43.7v-170.2
					c0-8-6.7-14.5-14.8-14.5H807.5c-142.2,0-247.3-129.3-215.2-264.6l114.1-480.3c18.2-76.6,81.7-135,161.1-148.2l30.4-5.1
					c-63,22.2-111.3,74.2-126.8,139.4l-36.4,153.1h263.7v-177c0-59.4,30.3-112.9,77.6-145l0,0l41.7-6.9c8.6-1.4,17-2.1,25.5-2.1
					c1.1,0,2.1,0,3.2,0c1,0,2,0.1,3,0.1c0.2,0,0.4,0,0.6,0c0.7,0,1.6,0.1,2.3,0.1c0.1,0,0.3,0,0.4,0c0.5,0,0.9,0.1,1.3,0.1
					c0.8,0.1,1.6,0.1,2.4,0.2c0.9,0.1,1.9,0.2,2.9,0.3s1.8,0.2,2.7,0.3c0.2,0,0.4,0.1,0.6,0.1c0.9,0.1,1.9,0.3,2.9,0.4
					c0.1,0,0.2,0,0.2,0c1,0.2,2,0.3,3.1,0.5c-53.6,31.1-88.6,88.1-88.6,151.9v434.8h347.7C1528.1,1312.6,1609.4,1392,1609.4,1490z"
					/>
				<path class="st33" d="M1082.1,728.8c-47.4,32.2-83.7,89.7-83.7,149v176.9H734.6L771,901.6c15.5-65.2,59.7-118.3,122.8-140.4"/>
				<path class="st33" d="M1295.1,1620.4c0-50.4,18.2-99.2,51.5-137.6"/>
				<g>
					<path class="st6" d="M909.9,1602.3c-0.5,0-0.9-0.1-1.3-0.4l-12.2-6.5c-1.4-0.7-1.9-2.4-1.1-3.7s2.4-1.8,3.8-1.1l12.2,6.5
						c1.4,0.7,1.9,2.4,1.1,3.7C911.8,1601.8,910.9,1602.3,909.9,1602.3z M922.1,1599.3c-1,0-1.9-0.5-2.4-1.4c-0.7-1.4-0.3-3,1.1-3.7
						l12.2-6.5c1.4-0.7,3.1-0.2,3.8,1.1c0.7,1.4,0.3,3-1.1,3.7l-12.2,6.5C923,1599.1,922.5,1599.3,922.1,1599.3z M885.4,1589.4
						c-0.5,0-0.9-0.1-1.3-0.4l-12.2-6.5c-1.4-0.7-1.9-2.4-1.1-3.7c0.7-1.4,2.4-1.8,3.8-1.1l12.2,6.5c1.4,0.7,1.9,2.4,1.1,3.7
						C887.3,1588.9,886.4,1589.4,885.4,1589.4z M946.4,1586.2c-1,0-1.9-0.5-2.4-1.4c-0.7-1.4-0.3-3,1.1-3.7l12.2-6.5
						c2.1-1.1,4.1-2.4,6-3.7c1.2-0.9,3-0.6,3.9,0.5c0.9,1.2,0.6,2.9-0.6,3.8c-2.1,1.5-4.4,2.9-6.7,4.2l-12.2,6.5
						C947.4,1586.2,946.9,1586.2,946.4,1586.2z M861.2,1576c-0.6,0-1.1-0.2-1.7-0.5c-3.9-2.8-7.5-6.1-10.6-9.8
						c-1-1.2-0.8-2.9,0.4-3.8c1.2-1,3-0.8,3.9,0.4c2.8,3.3,6,6.2,9.5,8.8c1.2,0.9,1.5,2.6,0.6,3.8C863,1575.7,862.2,1576,861.2,1576
						z M975.1,1566.5c-0.6,0-1.2-0.2-1.8-0.6c-1.2-0.9-1.4-2.6-0.4-3.8c2.8-3.3,5.1-7,6.9-10.9c0.6-1.4,2.3-2,3.7-1.4
						c1.4,0.6,2,2.3,1.4,3.6c-2,4.3-4.6,8.4-7.7,12C976.6,1566.2,975.9,1566.5,975.1,1566.5z M843.8,1555.3c-1,0-2-0.5-2.5-1.5
						c-2-4.3-3.5-8.9-4.4-13.6c-0.3-1.4,0.7-2.9,2.2-3.2s3,0.7,3.2,2.2c0.8,4.3,2.1,8.3,4,12.2c0.6,1.4,0,3-1.4,3.6
						C844.6,1555.2,844.2,1555.3,843.8,1555.3z M986.6,1542.1c-0.2,0-0.4,0-0.5,0c-1.5-0.3-2.5-1.7-2.2-3.2c0.6-3,0.8-6,0.8-9v-4.1
						c0-1.5,1.2-2.7,2.8-2.7c1.6,0,2.8,1.2,2.8,2.7v4.1c0,3.3-0.3,6.7-0.9,10C989.1,1541.2,987.9,1542.1,986.6,1542.1z
						 M838.7,1528.9c-1.6,0-2.8-1.2-2.8-2.7v-13.6c0-1.5,1.2-2.7,2.8-2.7c1.6,0,2.8,1.2,2.8,2.7v13.6
						C841.5,1527.6,840.2,1528.9,838.7,1528.9z M987.4,1515c-1.6,0-2.8-1.2-2.8-2.7v-13.6c0-1.5,1.2-2.7,2.8-2.7
						c1.6,0,2.8,1.2,2.8,2.7v13.6C990.2,1513.9,989,1515,987.4,1515z M838.7,1501.7c-1.6,0-2.8-1.2-2.8-2.7v-13.6
						c0-1.5,1.2-2.7,2.8-2.7c1.6,0,2.8,1.2,2.8,2.7v13.6C841.5,1500.5,840.2,1501.7,838.7,1501.7z M987.4,1487.9
						c-1.6,0-2.8-1.2-2.8-2.7v-13.6c0-1.5,1.2-2.7,2.8-2.7c1.6,0,2.8,1.2,2.8,2.7v13.6C990.2,1486.7,989,1487.9,987.4,1487.9z
						 M838.7,1474.6c-1.6,0-2.8-1.2-2.8-2.7v-13.6c0-1.5,1.2-2.7,2.8-2.7c1.6,0,2.8,1.2,2.8,2.7v13.6
						C841.5,1473.3,840.2,1474.6,838.7,1474.6z M987.4,1460.7c-1.6,0-2.8-1.2-2.8-2.7v-13.6c0-1.5,1.2-2.7,2.8-2.7
						c1.6,0,2.8,1.2,2.8,2.7v13.6C990.2,1459.6,989,1460.7,987.4,1460.7z M838.7,1447.4c-1.6,0-2.8-1.2-2.8-2.7V1433h7.5
						c1.6,0,2.8,1.2,2.8,2.7c0,1.5-1.2,2.7-2.8,2.7h-1.9v6.2C841.5,1446.2,840.2,1447.4,838.7,1447.4z M982.4,1438.5h-13.9
						c-1.6,0-2.8-1.2-2.8-2.7c0-1.5,1.2-2.7,2.8-2.7h13.9c1.6,0,2.8,1.2,2.8,2.7C985.2,1437.3,984,1438.5,982.4,1438.5z
						 M954.6,1438.5h-13.9c-1.6,0-2.8-1.2-2.8-2.7c0-1.5,1.2-2.7,2.8-2.7h13.9c1.6,0,2.8,1.2,2.8,2.7
						C957.4,1437.3,956.2,1438.5,954.6,1438.5z M926.8,1438.5h-13.9c-1.6,0-2.8-1.2-2.8-2.7c0-1.5,1.2-2.7,2.8-2.7h13.9
						c1.6,0,2.8,1.2,2.8,2.7C929.6,1437.3,928.4,1438.5,926.8,1438.5z M899,1438.5h-13.9c-1.6,0-2.8-1.2-2.8-2.7
						c0-1.5,1.2-2.7,2.8-2.7H899c1.6,0,2.8,1.2,2.8,2.7C901.8,1437.3,900.6,1438.5,899,1438.5z M871.2,1438.5h-13.9
						c-1.6,0-2.8-1.2-2.8-2.7c0-1.5,1.2-2.7,2.8-2.7h13.9c1.6,0,2.8,1.2,2.8,2.7C874,1437.3,872.8,1438.5,871.2,1438.5z"/>
				</g>
				<g>
					<path class="st6" d="M647.7,1587.3c-1,0-1.9-0.5-2.4-1.4c-0.7-1.4-0.3-3,1.1-3.7l11.3-6.1c0.3-0.2,0.6-0.3,0.8-0.5
						c1.3-0.7,3.1-0.3,3.8,1c0.7,1.3,0.3,3-1,3.7c-0.3,0.2-0.6,0.4-0.9,0.5l-11.3,6.1C648.6,1587.2,648.2,1587.3,647.7,1587.3z
						 M671.2,1572.8c-0.7,0-1.5-0.3-2-0.9c-1-1.1-0.9-2.8,0.2-3.8c3.2-2.9,6.1-6.2,8.6-9.8c0.8-1.3,2.6-1.5,3.9-0.7
						c1.3,0.8,1.6,2.5,0.7,3.8c-2.7,3.9-5.9,7.5-9.4,10.8C672.4,1572.7,671.8,1572.8,671.2,1572.8z M686.6,1550.6
						c-0.4,0-0.6-0.1-1-0.2c-1.4-0.5-2.1-2.1-1.6-3.5c1.6-4.1,2.7-8.2,3.3-12.5c0.2-1.4,1.6-2.5,3.1-2.4c1.5,0.2,2.6,1.5,2.4,3.1
						c-0.6,4.7-1.9,9.3-3.6,13.8C688.7,1550,687.7,1550.6,686.6,1550.6z M690.6,1524c-1.6,0-2.8-1.2-2.8-2.7v-13.6
						c0-1.5,1.2-2.7,2.8-2.7c1.6,0,2.8,1.2,2.8,2.7v13.6C693.4,1522.7,692.2,1524,690.6,1524z M690.6,1496.8c-1.6,0-2.8-1.2-2.8-2.7
						v-13.6c0-1.5,1.2-2.7,2.8-2.7c1.6,0,2.8,1.2,2.8,2.7v13.6C693.4,1495.6,692.2,1496.8,690.6,1496.8z M690.6,1469.7
						c-1.6,0-2.8-1.2-2.8-2.7v-13.6c0-1.5,1.2-2.7,2.8-2.7c1.6,0,2.8,1.2,2.8,2.7v13.6C693.4,1468.4,692.2,1469.7,690.6,1469.7z
						 M690.6,1442.5c-1.6,0-2.8-1.2-2.8-2.7v-1.4h-6.9c-1.6,0-2.8-1.2-2.8-2.7c0-1.5,1.2-2.7,2.8-2.7h12.5v6.8
						C693.4,1441.3,692.2,1442.5,690.6,1442.5z M667,1438.5h-13.9c-1.6,0-2.8-1.2-2.8-2.7c0-1.5,1.2-2.7,2.8-2.7H667
						c1.6,0,2.8,1.2,2.8,2.7C669.8,1437.3,668.5,1438.5,667,1438.5z M639.2,1438.5h-13.9c-1.6,0-2.8-1.2-2.8-2.7
						c0-1.5,1.2-2.7,2.8-2.7h13.9c1.6,0,2.8,1.2,2.8,2.7C642,1437.3,640.7,1438.5,639.2,1438.5z M611.4,1438.5h-13.9
						c-1.6,0-2.8-1.2-2.8-2.7c0-1.5,1.2-2.7,2.8-2.7h13.9c1.6,0,2.8,1.2,2.8,2.7C614.2,1437.3,612.9,1438.5,611.4,1438.5z"/>
				</g>
			</g>
		</g>
		<g id="HAND">
			<path class="st29" d="M1293.3,1023.1c6.8,17.3-36,48-94.9,69.8s-111.5,25.2-118.3,7.8c-6.8-17.4,35-48.7,93.9-70.5
				C1232.9,1008.3,1286.5,1005.7,1293.3,1023.1z"/>
			<path class="st31" d="M1326.1,1584.4v9.6c-3.1-0.7-6.3-1.1-9.5-1.1h-11.9c-17.7,0-32.8-11-38.5-26.4l33.9-4.4
				C1313.8,1560.3,1326.1,1570.8,1326.1,1584.4z"/>
			<path class="st30" d="M1357.4,1632.8v73.7c0,17.2-14.3,31.1-31.9,31.1h-35.5c-8.8,0-16.8-3.4-22.5-9.1c-5.7-5.6-9.4-13.4-9.4-22
				h23.1c7.6,0,13.7-6,13.7-13.4v-19.3c0-7.4-6.1-13.4-13.7-13.4h-117.9c-46,0-83.4-36.5-83.4-81.4v-486.6
				c5.6-17.8,43.4-43.6,93.9-62.3c34.5-12.8,67.2-18.9,89.7-18.4V1553c0,22.1,18.3,40,40.9,40h11.9
				C1339.1,1592.9,1357.4,1610.8,1357.4,1632.8z"/>
			<path class="st31" d="M1263.6,1011.7v49.2c-16.8,11-39.5,22.4-65.3,31.9c-58.9,21.8-111.5,25.2-118.3,7.8v-8.2
				c5.6-17.8,43.4-43.6,93.9-62.3C1208.5,1017.3,1241.1,1011.1,1263.6,1011.7z"/>
		</g>
		<g id="HEAD_1_">
			<g id="NECK">
				<polygon class="st30" points="1109.6,645.1 1074.7,732.8 895.2,764.2 942.1,645.1 				"/>
				<polygon class="st31" points="1109.6,645.1 1090.8,692.5 912.7,719.7 942.1,645.1 				"/>
			</g>
			<g id="HAIR">
				<path class="st34" d="M1214.8,466.7c0,11.9-21,25-45.3,36c-33.1,15.1-72.1,26.6-72.1,26.6l-26.3,48.4
					c35.8,18.5,49.7,51.8,55.3,75.1c3.5,14.8,3.5,25.4,3.5,25.4H877.8c0,0-66.2-209.6,93.4-259.7
					C1068.8,387.8,1214.8,438.5,1214.8,466.7z"/>
				<ellipse class="st34" cx="947.8" cy="387.1" rx="62.7" ry="61.3"/>
			</g>
			<g id="HEAD">
				<path class="st30" d="M1126.3,652.8c-5.2-22-18.2-53.3-50.1-72.2h-8.2c-7.6,0-14.5-3-19.5-7.9c-5-4.9-8.1-11.7-8.1-19.1
					c0-14.9,12.3-27,27.6-27l34.9,0.7l0,0h0.9c0.6-0.2,1.3-0.5,2-0.6c9.4-2,39.4-9,64.2-21.2l2.9,16.7l9.3,53.7
					C1188.5,612.8,1162.6,646.7,1126.3,652.8z"/>
				<path class="st31" d="M1172.8,522.2c-30.4,12-70,5.1-70,5.1s37.3-7.2,67.2-21.8L1172.8,522.2z"/>
				<path class="st35" d="M1089.5,558.8c0-10.3-8.5-18.6-19.1-18.6"/>
			</g>
		</g>
	</g>
	<g id="CHAIR">
		<line class="st4" x1="1187.6" y1="1706.5" x2="1295.1" y2="2580.8"/>
		<line class="st4" x1="721.4" y1="1706.5" x2="613.9" y2="2580.8"/>
		<line class="st4" x1="650.8" y1="2280.5" x2="1258.1" y2="2280.5"/>
		<path class="st1" d="M627.9,1706.5H1281c7.8,0,14.1-6.2,14.1-13.8v-18.6c0-7.6-6.3-13.8-14.1-13.8H627.9
			c-7.8,0-14.1,6.2-14.1,13.8v18.6C613.9,1700.3,620.2,1706.5,627.9,1706.5z"/>
	</g>
</g>
</svg>
