<svg id="Layer_1" data-name="Layer 1" xmlns="http://www.w3.org/2000/svg" viewBox="0 0 457.8 26.61"><defs><style>.cls-1{fill:#5E0000;stroke:#5E0000;stroke-miterlimit:10;}</style></defs><path class="cls-1" d="M172.52,299.56h.12v-.07l0,0Zm202.09,9.68v.07h.06l0,0Zm-36.37.86,0,0h.06l0,0Zm163-4.32-.82-.26.15-.61-1.11-.16c.12-.52.22-.95.31-1.36-.85-.5-.86-.49-1.49-.51s-1.09,0-1.63-.09c-1.11-.12-2.22-.4-3.34-.41-4.33,0-8.65,0-13-.33-.89-.06-1.79,0-2.68,0-2.09-.15-4.16-.37-6.25-.52-1.44-.1-2.89-.05-4.33-.18-2.5-.22-5,0-7.5-.32a39.15,39.15,0,0,0-4.47,0c-1.5,0-3,.14-4.52,0-.47,0-1,.27-1.43.17a3.7,3.7,0,0,0-1.72,0,10.56,10.56,0,0,1-1.73-.15c-.77,0-1.55.18-2.33.17s-1.75-.17-2.63-.2a32.69,32.69,0,0,0-3.57,0c-1.2.1-2.39,0-3.59.2-1.42.18-2.88,0-4.31.07a8.77,8.77,0,0,1-2.31.14,12.7,12.7,0,0,0-2.75-.05c-.63,0-1.27.13-1.9.12s-1.26-.15-1.89-.19a56.26,56.26,0,0,1-6.22-.26,8.76,8.76,0,0,0-1.89.15,17.42,17.42,0,0,1-1.77,0c-.49,0-1-.17-1.46-.17q-6.71,0-13.4,0a36.32,36.32,0,0,0-4.29.19,8.43,8.43,0,0,1-3.53-.12,3.89,3.89,0,0,0-1.18,0c-1.2.05-2.4.16-3.6.14-2,0-4-.13-6-.2-3-.12-6,.08-9.05-.25-2.55-.27-5.13-.23-7.69-.35-1,0-2.06-.17-3.09-.23a5.62,5.62,0,0,0-1.48.05,3.51,3.51,0,0,1-1,0c-1-.07-2.06,0-3.1,0-.33,0-.67.08-1,.06-.73,0-1.46-.14-2.19-.2l-1.77-.1a14.72,14.72,0,0,0-1.75-.13,7,7,0,0,1-1.12,0c-1.57-.14-3.14-.25-4.71-.27-4.07-.05-8.15,0-12.22-.07-3,0-6.06-.15-9.09-.22a41.58,41.58,0,0,1-4.61-.09c-1.53-.2-3,.09-4.57-.16a17.11,17.11,0,0,0-2,0c-2.17-.1-4.34-.27-6.51-.35-1.89-.07-3.79-.17-5.69-.25-2.51-.11-5-.11-7.55-.3s-5.23-.23-7.85-.34h-.15c-2.25-.17-4.51-.35-6.76-.5s-4.44,0-6.67-.25a66.92,66.92,0,0,0-7.09-.33,11.07,11.07,0,0,0-3.2,0,55.77,55.77,0,0,0-6.83-.52c-2.07-.11-4.13,0-6.21-.22-1.75-.23-3.54-.15-5.31-.28-3.28-.24-6.57-.23-9.86-.33-.6,0-1.19,0-1.79,0-2.8-.17-5.6-.39-8.4-.53-2.64-.13-5.28-.07-7.93-.22-3.76-.22-7.54-.29-11.3-.59-1.87-.15-3.75-.12-5.62-.24-3.12-.19-6.26-.15-9.39-.31-3-.15-6-.07-8.94,0-1.16,0-2.33-.08-3.48-.11a11.61,11.61,0,0,0-3.33.06,1.68,1.68,0,0,1-.59,0c-.93-.07-1.86-.18-2.79-.21-1.19,0-2.38,0-3.57,0h-3.43c-1.15,0-2.29.1-3.46,0-1.42-.11-2.87,0-4.31,0-1,0-2.09,0-3.13,0a14.59,14.59,0,0,1-3.18-.11,21.92,21.92,0,0,0-3.05.12,48.64,48.64,0,0,0-5-.06c-1.07.05-2.15-.18-3.23-.19-3.23,0-6.46-.09-9.68,0a85.32,85.32,0,0,0-8.9.23,23.11,23.11,0,0,1-4.16,0c-1.42-.09-2.82.5-4.23.05a.76.76,0,0,0-.3,0c-1.65.17-3.31.38-5,.49-2.36.15-4.73.22-7.1.32-.1,0-.2,0-.3,0a47.48,47.48,0,0,1-6.53.49c-2.86.15-5.72.23-8.59.34h-.44c-2.06.17-4.11.39-6.17.51-2.61.14-5.23.21-7.85.31a1.51,1.51,0,0,0-.3,0,59.06,59.06,0,0,1-7.28.47,40.77,40.77,0,0,0-8.57.8,1.63,1.63,0,0,0-.25,2.11,4.19,4.19,0,0,1,.33,1.19A5.4,5.4,0,0,0,46.6,302a3.32,3.32,0,0,1,.31.59A10.67,10.67,0,0,1,46,304.1c-.54.67-.35,1.19.24,1.69-.84,1.15-.48,2.51-.78,3.75a1.64,1.64,0,0,0,.47,2,.9.9,0,0,0,.27,1.1c1.09,0,2.18,0,3.27,0a5.91,5.91,0,0,1,1.15-.14.93.93,0,0,0,1-.37c.35-.48.75-.32,1.16-.18s.59.38.9.4a8.75,8.75,0,0,0,2.23,0,4.28,4.28,0,0,0,2.29-.75c-.15-.45-.92-.73-.39-1.32-.24-.56.16-.6.57-.58a8.81,8.81,0,0,0,1.13.11c.59-.08.35-.7.63-1a2,2,0,0,1,.63-.29l.14.17-.57.86,3,0a1.44,1.44,0,0,0,.59,0,6,6,0,0,1,2.48-.25,5.09,5.09,0,0,0,1,0c.14,0,.22-.29.32-.47.75.35,1.54-.17,2.33.05l-.66.89-3.14.17a3.38,3.38,0,0,0-.6.17,12,12,0,0,0,4.55-.09c.19,0,.44.17.76.3l1.53-.41a.71.71,0,0,0,.58-.79,2.24,2.24,0,0,1-2.34-.19l1.37-.22a2.19,2.19,0,0,0-2-.18c0-.47.06-.77.08-.92.9-.74,1.15.66,1.86.28s1.42.44,2-.2c.5.28-.09,1,.81,1.08a5.86,5.86,0,0,1,.07-1c.1-.42.22-.86.89-.55a.65.65,0,0,0,.51-.28,4,4,0,0,0,0-1l-1,.32-.8-.88a11.63,11.63,0,0,0,1.71,0,6.2,6.2,0,0,0,1.22-.44c0,.14-.06.26-.11.47l1.1-.1c-.06.55-.46.62-.93.7s-.77.46-.7,1c0,.19,0,.38.06.76.73-.91,1.65-.71,2.52-.7.19,0,.37.2.57.29a.5.5,0,0,0,.26,0c.13-.39.36-.3.68-.18a3.3,3.3,0,0,0,.85.11c.65-.58.23-1.62,1-2.17l.38.52c.22-.36.42-.68.68-1.12-1.4,0-2.63,0-3.86,0a24.11,24.11,0,0,0-4.65.19s-.08-.1-.13-.18l-.89,0c-.17-.32-.33-.57-.86-.44a15.57,15.57,0,0,1-2.14.29,1.09,1.09,0,0,1,1.23-.79,1.48,1.48,0,0,0,.67-.1,5.14,5.14,0,0,1,2.61-.27,8.48,8.48,0,0,0,2.26-.07,4.14,4.14,0,0,1,1.82,0,5.82,5.82,0,0,0,1.6-.07c-1.08-.49-.56-1.35-1.29-1.76.76-.36,1.47-.84,2.15-.58a4.26,4.26,0,0,0,3-.18,7.56,7.56,0,0,1,1.14-.18c-.11.34-.18.54-.34,1l1.51-1.13c.36.06.6.41,1.06.27s1,.07,1,0c.31-.81.44.55.8,0,.15-.22.72-.19,1.1-.27l1.14-.24c-.09-.3-.17-.56-.24-.81l.65-.42-.94-.05c.34-.41.87-.31,1.36-.59-.19.72-.33,1.28-.52,2,.52-.29.85.1,1.37.08.77,0,1.71-.43,2.42.37.11.13.7-.08,1-.18a2.89,2.89,0,0,0,.6-.32l.44.6c0-.44.07-.8.11-1.15,0-.05.1-.09.13-.11l.58.67,1-.24c.28.59.61,0,.91,0,.47.49,1,.3,1.52.08a3.32,3.32,0,0,1,2-.23c.8.15,1.59-.23,2.35.12.73-.51,1.45-.16,2.18,0,0-.15.07-.31.1-.48l1.38.54-.67.69,1.22-.2-.74.81c.41.09.82.16.81-.4a4.35,4.35,0,0,0-.25-1l1.4-1a5.24,5.24,0,0,0,1.22.5,7.22,7.22,0,0,0,1.46-.07c.32,0,.68.53,1-.06,0-.06.2-.1.26-.07.9.57,1.87,0,2.82.12.31.05.65-.22,1.08,0,.27.13.69,0,1,0,0,.13,0,.25-.08.39.44.05.87.08,1.29.17,1.09.24,1.08.25,1.77-.62.33.05.73.22,1,.1.84-.46,1.07.21,1.34.53.45-.05.78-.07,1.11-.13s.74-.18,1.12-.25c.59-.12-.1.51.32.5a2.93,2.93,0,0,1,2.8-.6,2.23,2.23,0,0,0,2.13-.36l.75.83c.36-.29.64-.65,1-.75a5.21,5.21,0,0,0,.71-.32c.16-.07.38.22.22.5.19.05.51.2.56.14a3.32,3.32,0,0,0,.37-.73,2.07,2.07,0,0,0,.59.42,1.88,1.88,0,0,0,.85,0c.14,0,.24-.25.43-.45.06.44.1.73.17,1.22.2-.69.29-1.21,1.05-1.07,0,.22,0,.44.05.66a13.6,13.6,0,0,0,2.78.49c.11,0,.29-.22.44-.34l-.16-.11c-.23-.09-.5-.19-.27-.47a.55.55,0,0,1,.47.08,5.52,5.52,0,0,1,.49.88l1.61-.51h0c.14.09.31.24.39.2a2.06,2.06,0,0,1,2.33.18,1.32,1.32,0,0,0,1,.07c.64-.15,1.25-.41,1.91-.63.09.51.43.46.8.39a6.72,6.72,0,0,1,1.26-.12c.48,0,1,.16,1.44.18.93,0,1.87,0,2.81,0,.39.45.83.24,1.28.08s1-.44,1.22-.3a3.91,3.91,0,0,0,2.81.2,1.6,1.6,0,0,1,.86.12c.18.07.28.3.59.66-2.19,0-4.13.5-6.12-.08a4.93,4.93,0,0,1-3.29.38c-.63-.19-1.55-.61-2.22.2-.11.14-.51,0-.69.15a3,3,0,0,0-.59.63,2.1,2.1,0,0,0,.62.43,1.62,1.62,0,0,0,.66-.07c.09-.29.15-.51.25-.85.79.31,1.65-.2,2.32.37a3.6,3.6,0,0,0,2.81.54,10.61,10.61,0,0,1,2.69.24l-1,.17a4.25,4.25,0,0,0,1.61.18c.19,0,.48,0,.54-.13.38-.64,1-.66,1.65-.69s.88-.8,1.65-.61c.4.1.68-.24.62-.82a3.33,3.33,0,0,1-.7.25,2.83,2.83,0,0,1-.65,0c-.1-1,1-.61,1.26-1.2a.42.42,0,0,1,.37-.05c.73.55,1.21,0,1.65-.39.38.27.62.33,1.67.42.05-.18.09-.35.17-.64a1.17,1.17,0,0,0,1.41.3c.4-.19.58.11.59.46a2.24,2.24,0,0,0,.55-.51c.24-.39.4-.82.61-1.23,0-.05.15-.06.26-.1l.56.57c-.13.19-.35.37-.32.49a2.35,2.35,0,0,0,.43.81c.42.53,1-.11,1.5.14.09.05.38-.24.51-.33.9,0,1,.76,1.57,1.28-.44-.74.28-1,.57-1.4a2.5,2.5,0,0,0-2.71-.83c-.21.07-.54-.18-.81-.29a4.2,4.2,0,0,1,1.82-.22,10.88,10.88,0,0,1,1.38.28c-.09.89.81.37,1.14.68l-.67.46,1.12.56c.45-.39,1-.65.74-1.33l-.87-.23.93-.66a.84.84,0,0,0,.63.81h0c.57.5-.49.79-.19,1.33h1.52l1.22-1.21-.77-.64a4.12,4.12,0,0,0,2.28,0,5.63,5.63,0,0,1,2.55,0,18.81,18.81,0,0,0,2.48.18,1.76,1.76,0,0,1,1.51.54c-.9,0-1.74,0-2.57,0s-1.67-.16-2.5-.17-1.57.06-2.5.11L183.53,300c.89-.07,1.66-.33,2.38.09a.56.56,0,0,0,.42,0,2.54,2.54,0,0,1,1.74,0,1.49,1.49,0,0,0,.7-.14c.32-.13.17.62.57.26a.76.76,0,0,1,.74-.17,28.45,28.45,0,0,0,2.9.2l.23-1c.6,1.3.6,1.3,1.79,1a8.06,8.06,0,0,1,.76.92c.1.16.06.4.11.76a8,8,0,0,0-1.26-.23,6.2,6.2,0,0,0-1.19.25c2.66,1.07,2.66,1.07,3.38.71l-.63-.17a1.48,1.48,0,0,0,0-.21l1-.25L196,301a3.45,3.45,0,0,1,1.12-.27c1,.15,2-.1,3-.05.34,0,.7,0,1,0s.84.23,1.27.27a2.24,2.24,0,0,0,1.29-.11c.56-.42.67.24,1.05.24,1.47,0,3-.08,4.43,0a1.29,1.29,0,0,0,1.22-.47l.43-.46.15.08c-.08.28-.16.56-.25.84l3,.39c.57.07.8-.34,1.06-.72.32.9.32.89,1.25.78a5.59,5.59,0,0,1,.7.09c1.2,0,2.41.49,3.56-.23.15-.1.45,0,.67,0,1.79.21,3.58.45,5.38.63a12.43,12.43,0,0,0,1.93,0c.59,0,1.2-.35,1.72.18a16.77,16.77,0,0,1,5.1,0,20.18,20.18,0,0,1,3,.19,3.87,3.87,0,0,0,2.9-.27c.07.26.11.43.17.64a3.81,3.81,0,0,1,2.89,0,3,3,0,0,0,1.89,0,3.11,3.11,0,0,1,1.86,0c.51.16,1.08.16,1.33-.45.81.14.47.87.76,1.38.11-.42.19-.75.27-1.08a4.74,4.74,0,0,1,1.07.27c.15.07.2.31.29.5.53-.19.92-.89,1.67-.33.11.08.57-.24,1-.43.4.78,1.21.77,2.09.77,1.19,0,2.39-.44,3.59,0a2,2,0,0,0,.73-.05c.17,0,.41-.12.5-.05a4.11,4.11,0,0,0,2.29.39,6.11,6.11,0,0,1,1.4.35c.09,0,.09.27.12.45a2.79,2.79,0,0,0-.76-.24c-1.19,0-2.37,0-3.56,0-.22,0-.44.22-.8.42.9,0,1.61,0,2.31.12.45.06,1,.13,1.14.69,0,.12.34.25.53.25l6.36.15c.64,0,1.27.06,1.86.09.36.88.37.9,1.28.48v0c.86-.51,1.82-.21,2.74-.27.47,0,.94.14,1.26-.44.16-.31.64-.18,1.08,0l-.78.28,0,.2,3.65.36c.1-.27.17-.46.22-.61,1-.08,1.45,1,2.49.65,0-.18,0-.4.08-.52a9.91,9.91,0,0,1,.93-.85,6.4,6.4,0,0,1-1.9,0,5.78,5.78,0,0,0-1.88-.21c-.94,0-1.89.05-2.83,0a25.16,25.16,0,0,1-2.75,0,25.59,25.59,0,0,0-4.86-.49,24.39,24.39,0,0,0-5.27.28c.12-.41.13-.7.29-.87a.74.74,0,0,1,.63-.22c.87.46,1.8.06,2.68.22a9.56,9.56,0,0,0,2.61.16,5.56,5.56,0,0,1,1.58,0,6.74,6.74,0,0,0,1.54-.09.75.75,0,0,1,.3,0c2.2.84,4.59.21,6.82.78,1.1-.46,2.19.23,3.3,0a.75.75,0,0,1,.88.58c.15.51.29,1,.39,1.41,1.18,0,2.33,0,3.46.12a11.46,11.46,0,0,1,1.94.57c.15-.12.33-.38.56-.44a1.89,1.89,0,0,1,1,0c.83.29,1.69-.12,2.53.2.45.17.68-.22.84-.6,0-.09.22-.12.35-.19.15.3.28.56.43.88l.93-.58a2.87,2.87,0,0,0,.76.5,6.42,6.42,0,0,0,1.57.24,10.13,10.13,0,0,0,1.63-.22c.05,0,.08-.11.14-.21l-1.3-.16,1.38-.53-.69-.91c1.11.29,2.27-.71,3.24.5a4.36,4.36,0,0,1-.91.49c-.64.15-.43.45-.22.88.53-.53,1.44.17,1.88-.6-.55-.51-.55-.51-.39-1.12.68,0,1.37,0,2.06,0,.13,0,.26.16.38.27a2,2,0,0,1-.76.22c-.37,0-.78-.26-.94.25a.89.89,0,0,0,.45,1.18,2.07,2.07,0,0,1,.38.28l-.07,0h.11l0,0,0,0c.42-.07.64-.49,1.26-.37s1.51-.19,2.28.07c.17.06.44-.14.66-.22.38.48,1.07.16,1.53.47,0,0,.33-.29.53-.47h0a12.69,12.69,0,0,0,3.42.44s.08-.14.16-.32l-1.22-.28c1.17-.55,1.58-.38,2.77,1,.18-.21.49-.41.49-.61,0-.64-.73-.45-1.09-.72v-.82c.53-.11.93-.44,1.52-.13a9.2,9.2,0,0,0,1.95.46c-1,.14-1.86.13-2,1.11.57.25.84,1,1.63.92l1.46-.06a.46.46,0,0,0,0-.09l-.25-.13a.22.22,0,0,1-.09-.1s0-.06,0-.13a2.76,2.76,0,0,0,1.13-.11c.58-.34.71.41,1.25.28l1.24-.68a1.82,1.82,0,0,0,2,.51,6,6,0,0,1,2.73-.2c.62.11,1.21-.13,1.66,0a3.37,3.37,0,0,0,1.68-.09,6,6,0,0,1,.85,0c.1.3.18.51.29.86l1.34-.29c.18.39.59.3.85.21a7.86,7.86,0,0,1,2.32-.12,31.59,31.59,0,0,1,3.4-.17V306.8h.27l.46,1c1.32.42,2.6.94,4,.37.23-.1.57,0,.86.09s.49.19.69.14c1-.29,2,.09,3,0a1.58,1.58,0,0,1,1.57.57l.25-.79c.36.27,1.09.25.6,1.06a4.6,4.6,0,0,1-1.22-.12,4.5,4.5,0,0,0-2-.07,12.7,12.7,0,0,1-2,.15c-1.18-.07-2.36-.2-3.54-.19-.46,0-1,.25-1.37.09-.59-.27-.76.27-1,.31-.34-.19-.56-.41-.8-.43a27.07,27.07,0,0,1-4.4-.26c-.28-.06-.62.13-.94.2a5.06,5.06,0,0,0,.31,1c.05.1.29.11.47.14l-.17-.44,1.16-.42.15.2-.76.68a10.17,10.17,0,0,1,1.23.2,4.44,4.44,0,0,0,2.45-.26s0-.06.05-.09l-.24-.15-.11-.08s0-.06,0-.11c.4,0,.82-.21,1.11.34a1,1,0,0,0,.88.38c.84-.34,1.61.07,2.41.07a47,47,0,0,1,5.93.11c.3,0,1,.14,1.16-.5l.84.37-.15-.76.16-.08.47.73,1.07-.3-.3-1.08c.45-.39,1.13-.56,1.24-1.33l-1.47.77-1.11-.73,1.29.17.67-.72c-.66,0-1.15,0-1.63,0s-.94-.13-1.27.43c-.11.17-.82,0-1.3,0a1.75,1.75,0,0,1,1.79-.92c1.1.17,2.22.18,3.46.27l.23,1.52c.33.08.83.06.95.25.34.56.68.37,1.1.16a9.17,9.17,0,0,1,1.18-.32c-.52-.3-.84-.39-1-.59-.34-.51-.69-.76-1.32-.38-.06,0-.29-.16-.44-.24.08-.14.11-.24.18-.28,1-.59,2.07,0,3.11-.08a7.32,7.32,0,0,1,1.73.22c-.75.54-1.9-.29-2.39.77.15.27.28.51.41.72.34-.1.78-.1,1-.3.58-.69,1.15-.47,1.79-.13a4.92,4.92,0,0,0,3.16.81,1.65,1.65,0,0,1,.45.08c.08.34.15.68.28,1.24l1.22-1.43c.36.31,2,.47,2.15,0l-.78-.65c.64-.24.94-1.18,1.93-.84-.28.34-.51.63-.72.9l2.73-.21a3.11,3.11,0,0,0,.12.61,3.15,3.15,0,0,0,.3.5l.18-1.3c.47.08.76.24.62.72-.06.2-.11.41-.16.61l1.47-.29.79.9a4.23,4.23,0,0,1,1.1-.47,4,4,0,0,1,1.2.37l-1.52.12.77,1.48a4.63,4.63,0,0,1,1.18-.13,22.13,22.13,0,0,0,4.07,0,.5.5,0,0,1,.27.07c.06.05.08.15.17.34l-1.16.27.59.37a8.73,8.73,0,0,1-1.92.25c-.33,0-.58-.16-.92,0a.94.94,0,0,1-.69-.06,2.38,2.38,0,0,0-1.27-.06,20.14,20.14,0,0,1-4,.1,4.71,4.71,0,0,0-2.12.28,1.32,1.32,0,0,0,.9.29,7,7,0,0,1,3.76,0,1.55,1.55,0,0,0,.88,0A9,9,0,0,1,382,313c.8,0,1.61.09,2.41.16a5.18,5.18,0,0,1,.7.18L384,314.6a2.62,2.62,0,0,0-1.93-.05c-.59.12-1.25-.44-2-.06,2.49.65,4.74.59,6.6-1.12l2,.66a1.3,1.3,0,0,1-.53.28c-.57,0-1.14,0-1.72,0a5.83,5.83,0,0,0,2.06.25h4.16a7,7,0,0,0,2.06-.07c.63-.2,1.4.36,1.87-.37l3,.27c.08.23.15.44.22.66.9-1,2.12-.75,3.24-.73s1.27.09,1.87.78l-1.54.11c1.22.22,2.42.39,3.63.49.84.06,1.68,0,2.52,0a11.8,11.8,0,0,0,2.59,0,3,3,0,0,1,.88.07,15.22,15.22,0,0,0,1.9.16c2.09-.05,4.19-.15,6.29-.24s4.33-.19,6.49-.32c1-.05,1.93-.19,3-.3-.85-.75-2,.38-2.61-.64l1.61-.48a1.21,1.21,0,0,1-.05-.18l-1.95-.1a2.84,2.84,0,0,0,1.19-1.19c-1.3-.44-2.8.27-4.3-.72H427c-.09-.65-.13-1.19.36-1.6a.68.68,0,0,0,.05.32c.24.45.95.53,1,1.19,0,.17.54.21.74-.15a1.51,1.51,0,0,0,.65.08c.65-.19.73.15.82.68l-1.72.12c.56.18.84.2,1,.33a1.67,1.67,0,0,1,.29.6l.7-.16-.4,1a3.5,3.5,0,0,0,3,1c2-.08,4.07,0,6.1,0a2.79,2.79,0,0,1,2.06.58.73.73,0,0,0,.52.17,9.91,9.91,0,0,1,3.72-.21,2.59,2.59,0,0,0,1-.23c.17-.05.35-.21.5-.19.66.14,1.3.35,2,.47,1.27.22,2.49.75,3.87.34a2.34,2.34,0,0,1,2.14.16,3.84,3.84,0,0,0,3.1.82.59.59,0,0,1,.3,0c.88.49,1.84.19,2.77.28s1.85.23,2.78.26c2.42.07,4.84,0,7.26.2,3.5.22,7,0,10.53.32,1.53.12,3.08,0,4.6.19a4.78,4.78,0,0,0,4.1-1c.41-.36.76-.78,1.16-1.15.62-.57,1.27-1.13,1.9-1.68-.16-.34-.89,0-.75-.72l1.9-.08a5,5,0,0,0,.37-1.09c0-.41.28-.94-.41-1.19-.13-.05,0-1.06.14-1.17.48-.35.52.19.75.34.7-.34,1.57-.26,2.21-.75h0a5.88,5.88,0,0,1,1-.77,1.28,1.28,0,0,0,.82-1.18c.06-.5.6-.93.28-1.51ZM47.06,300.56,47,300.5l.09,0Zm3.26,10.62V311l.08.08Zm.46-6.07c.49-.76.77-.22,1.34-.08Zm29.82,0a6.68,6.68,0,0,1,1,0l0,.18-1.49.42C80.4,305.38,80.48,305.16,80.6,305.14Zm-10.22-3.37-1.35.76C69.05,301.75,69.39,301.57,70.38,301.77Zm-2.47,0c-.1.86-.1.86-.74.44Zm-1.4.36a.64.64,0,0,1,.28.09c-.08.05-.13.12-.19.12a.75.75,0,0,1-.23-.07C66.42,302.17,66.46,302.08,66.51,302.08Zm-1,.3.08.08-.09.06s-.07,0-.06-.07S65.5,302.4,65.52,302.38Zm-1.49.28.07.08H64Zm-3.36,0h.46v.11h-.46Zm-.5-6.15.07.08-.09.07C60.16,296.63,60.16,296.58,60.17,296.53Zm-6.83,5.33v.1l-.09-.06ZM53,306.72v-.15l.07.08Zm.55,4.41.06-.09,0,.1ZM54,308l.33-.92C54.59,307.42,54.57,307.44,54,308Zm.32-1a2.59,2.59,0,0,1-.52-.19c.06-.48.4-.35.74-.29C54.47,306.74,54.41,306.89,54.34,307Zm1.08,4.44a4.26,4.26,0,0,1-.62.26,2.12,2.12,0,0,1-.11-.21,4.23,4.23,0,0,1,.57-.27.71.71,0,0,1,.25,0C55.49,311.34,55.48,311.44,55.42,311.47Zm.73-5c-.25.36-.51.71-.79,1.12C55,306.87,55.57,306.61,56.15,306.46Zm.74,5.05c-.44-.08-.88-.18-1.31-.27l.66-.51c.36.24.67.44,1,.68C57.11,311.45,57,311.53,56.89,311.51Zm.25-1.2c0-.07-.09-.15-.08-.22s.1-.09.15-.13a2.14,2.14,0,0,0,.1.22Zm-.31-2.72-.55-.78h1.27Zm1.39-.95,1.2-.53C59,307.16,59,307.16,58.22,306.64Zm3,2.22.09-.07.08.09Zm1.1.14c-.41-.22-.34-.49,0-.87l.52.5,1.82-.19C64,309,63.26,309.46,62.36,309Zm1-2.36s.06-.07.09-.07a.29.29,0,0,1,.07.08s-.06.06-.08.06S63.37,306.66,63.35,306.64Zm1.83,0a2.47,2.47,0,0,0-.1-.29l.78-.14a.74.74,0,0,1,0,.14ZM64,305.36a3.49,3.49,0,0,1-1.33,0c-1.35-.11-1.65,0-2.08,1.1a1.15,1.15,0,0,1-.25.51l-.09-1c-.86-.1-1.72-.17-2.57-.32s-1.74.17-2.32-.45l-2.9.94c.13-.28.25-.69.31-.69.65.09.62-.53,1-.74a12,12,0,0,0,2.74,0c1.3-.2,2.61-.64,4-.16.09,0,.23.05.29,0,1-.74,2.27.14,3.41-.69l-.19.62c.32,0,.71.12,1,0a5.28,5.28,0,0,1,2.57-.47c.74,0,1.48-.17,2.23-.22.12,0,.26.14.4.23l0,0,.05,0h0l0,0,.9.31-.57.53a12.38,12.38,0,0,1-3.79.33A9.27,9.27,0,0,0,64,305.36Zm6.46-2.79a.31.31,0,0,1,.26-.19c.09,0,.18.13.33.26-.18.09-.3.2-.38.18S70.49,302.65,70.5,302.57Zm-4.06,5.78s-.14-.08-.15-.13.06-.14.09-.21l.15.13Zm1.29.36-.76,0,.76-.47Zm0-.55v-.43c.47.1.92.32,1.37,0,.07-.06.44.18.62.47Zm1.62-1.89-.72,1.16-.45-.58-1.85.3,1.4-.93-.1-.16-1.37.34c0-.19,0-.37,0-.61l2-.29c.53.75,1.6-.38,2.09.53C70.25,306.84,69.69,306.15,69.39,306.27Zm1.25-1a1.18,1.18,0,0,1-.18-.21.4.4,0,0,1,0-.19,1.24,1.24,0,0,1,.25.18S70.66,305.19,70.64,305.27Zm3.64-.7c0,.22-.31.4-.06.69.11.12,0,.43-.33.69-.15-.41-.31-.83-.53-1.38Zm-1.6.82a.63.63,0,0,1,.69.7c-1.27-.1-1.46,0-1.68.72a4.11,4.11,0,0,0-.52-.25c-.31-.11-.57-.28-.41-.61a.89.89,0,0,1,.53-.39A6.52,6.52,0,0,1,72.68,305.39Zm1.09-2.85-1-.25c-.23.29-.42.55-.63.83-.15-.1-.31-.15-.35-.25-.1-.3-.15-.61-.21-.86l-1.12-.25.4-.59,1.29.53.55-.71c.07.37.14.68.22,1.09l1.33-.76Zm1.69-1h1.18C76.3,302.16,76,302.09,75.46,301.57Zm1.94,1c-.56-.6-.37-1.05-.39-1.53l.87.35C77.13,301.42,77.44,302,77.4,302.54Zm1.94-1.14-1,.61C78.42,301.43,78.79,301.28,79.34,301.4Zm.25,1.11h-.44v-.11h.44Zm.52-2.48s-.06,0-.09-.08.07-.07.1-.07.06.05.09.08S80.14,300,80.11,300Zm2.32-1.48.08-.07.06.08Zm1.81-2.22a2,2,0,0,1,0-.24s.06-.07.09-.1l.11.23Zm2.13,3.13s-.05,0-.08-.07.06-.06.09-.06.05.05.07.07S86.39,299.46,86.37,299.46Zm1.47-.38s.08-.08.11-.07a1.29,1.29,0,0,1,.26.08c-.07.05-.13.12-.2.12S87.9,299.13,87.84,299.08Zm.42,1c-.32-.08-.1-.22,0-.33a3.37,3.37,0,0,1,.54-.2C88.49,299.83,88.34,300.06,88.26,300Zm1.57-.57c-.08,0-.25-.12-.25-.2a.32.32,0,0,1,.2-.25c.09,0,.2.09.38.18C90,299.33,89.93,299.46,89.83,299.47Zm2-.3-.1-.1.16-.06Zm3.72.1,1.34-.5c.09.34.18.67.3,1.08Zm3.08-.92,0-.1h.11Zm2.4-.16.09.09h-.19Zm-.14,1.59c0-.25,0-.5,0-.88C101.16,299.33,101.25,299.6,100.84,299.78Zm.91,0,0-.4.2.08Zm1.9-5.71s0,0,.08.07-.06.06-.09.06,0,0-.07-.07S103.63,294,103.65,294Zm-.19,4.73c-.06-.24-.11-.49-.16-.73l1.31-.46C104.77,298.66,103.44,298.16,103.46,298.75Zm2.29.71c-.3-.16-.61-.33-.28-.68a.52.52,0,0,1,.5,0C106.35,299.08,106,299.26,105.75,299.46Zm1.48-1.11s-.07-.06-.07-.08.06-.07.08-.07a.2.2,0,0,1,.08.08Zm.29.83-.09-.08s.07-.06.1-.06a.2.2,0,0,1,.08.08Zm2.18-1.6c.46.05.46.05.68.87Zm2.14.52c-.07,0-.14-.07-.21-.11.08,0,.15-.11.23-.11s.13.08.2.12S111.92,298.11,111.84,298.1Zm3.26.52c-.09,0-.15-.16-.23-.24.1-.07.2-.19.29-.19s.18.14.33.27C115.31,298.54,115.19,298.64,115.1,298.62Zm2.31-.26-.2-.1.33-.63.28.15Zm1.46-4.52a.44.44,0,0,1-.12-.19s.09-.09.13-.13.08.07.08.09A2.18,2.18,0,0,1,118.87,293.84Zm1.76,4s0-.05-.08-.08.06-.06.09-.06,0,.05.08.08S120.65,297.79,120.63,297.79Zm.59-.27s0-.1,0-.15l.07.08Zm.35.84-.19-.1.33-.62.27.15Zm.85-.84s-.07-.06-.06-.08,0-.05.07-.08l.07.09Zm1.29-.26s-.09-.09-.13-.13a.55.55,0,0,1,.23-.07c.06,0,.11.07.18.13A1.26,1.26,0,0,1,123.71,297.26Zm2.09.29a1.63,1.63,0,0,0-.11-.17,1.24,1.24,0,0,1,.27,0s.06.06.09.1Zm1.38,1.09c0-.05,0-.1,0-.15l.07.08Zm-.68-.92c.62-.78,1.45-.29,2.27-.47C128.31,297.82,128.31,297.82,126.5,297.72Zm2.17,1.19s-.06-.05-.09-.08.07-.07.1-.07.06.06.09.08S128.7,298.91,128.67,298.91Zm.91.06c-.07-1-.07-1,1-1.09Zm1.48-.34s-.05-.05-.07-.07l.08-.07.08.08S131.08,298.64,131.06,298.63Zm-.43-.79c-.06-.25-.11-.49-.16-.76.6-.14.38.5.79.71Zm2.8.83-.06-.2.43,0Zm.48-.31c0-.88-.89-.69-1.59-.92l1.6-.33.53.61Zm.75-.78c.68-.49,1.2,0,1.71,0a2.69,2.69,0,0,1,1.74.3C136.91,297.72,135.83,298.37,134.66,297.58Zm4.37.26c.57-.18,1.17-.56,1.66,0Zm1.82.21a1.11,1.11,0,0,1-.07-.16l.17.06Zm.84-.19c.09-.08.18-.22.26-.22s.21.14.26.24,0,.15,0,.24a.67.67,0,0,1-.25,0A1.32,1.32,0,0,1,141.69,297.86Zm.2,1.23.35-.93C142.8,298.49,142.35,298.68,141.89,299.09Zm1.68.1-.08-.08s.06-.07.09-.07,0,0,.08.08Zm.27-1.11c-.24-.45-.11-.74.39-1,0,.2.05.36.07.53Zm.88-.26-.36-.25.6-.23Zm.66,1.13a1,1,0,0,1,0-.16l.62-.08a1.1,1.1,0,0,0,0,.18Zm.86-1.06,0-.27h.65a.59.59,0,0,0,0,.14Zm2.2-.06c-.05,0-.1-.1-.15-.16a.68.68,0,0,1,.27-.07c.05,0,.09.1.14.15A.87.87,0,0,1,148.44,297.83Zm1.39,1.65c-.05-.07-.12-.14-.12-.21s.08-.14.13-.21.12.14.12.21S149.87,299.41,149.83,299.48Zm-.31-1.68,0-.13.62-.1,0,.23Zm1.5.83s-.06-.06-.09-.08.07-.08.1-.08.06.06.08.09S151.05,298.63,151,298.63Zm3.39-.59-.9.1-.16-.15a2.25,2.25,0,0,1,.62-.31c.14,0,.32.11.49.17A1.8,1.8,0,0,0,154.41,298Zm.37-.36,1.18-.09C155.6,298.17,155.25,298.26,154.78,297.68Zm3.08,1.23s-.07-.06-.06-.08,0-.05.08-.07l.07.08Zm.76.6-.25-.53a3,3,0,0,1,.72.06c.15,0,.25.22.5.47Zm4.1-1.53a5.77,5.77,0,0,0-1.71,0,6.88,6.88,0,0,1-2.75,0,11.41,11.41,0,0,0-1.57-.2l0-.19c.58,0,1.16,0,1.74,0,1.4,0,2.8-.39,4.21,0,.2.05.45-.09.77-.16C163.34,297.83,163.28,298.05,162.72,298Zm1.6-.16c-.07,0-.15-.05-.22-.07l.13-.14.24.08C164.42,297.74,164.38,297.82,164.32,297.82Zm-6.07,3.36.91.05C158.92,301.77,158.68,301.8,158.25,301.18Zm4.32.72.08-.07.07.08Zm6-5.35.11.23-.17.09a.85.85,0,0,1,0-.23S168.57,296.58,168.61,296.55Zm-.88,1.25-.59.27-.14-.33.66-.11s.08,0,.12.06S167.75,297.79,167.73,297.8Zm5,.32c-.67-.06-1.34-.19-2-.19s-1.35.13-2,.17a4.8,4.8,0,0,1-.83-.18,3.72,3.72,0,0,1,1.89-.33,8.75,8.75,0,0,0,1.29-.37l1.75.78S172.73,298.12,172.7,298.12Zm1-.88s-.07-.06-.06-.08,0-.05.07-.07.07.05.07.08S173.68,297.22,173.65,297.24Zm5,.86.06-.15.1.1Zm2.59-.54a.41.41,0,0,1-.22,0c0-.07,0-.16.1-.17a1,1,0,0,1,.35,0A.76.76,0,0,1,181.21,297.56Zm1.1,1.65c0-.07,0-.13,0-.2l.09.11Zm.34-.81h-1.07c0-.16,0-.32.08-.57l1,.43Zm7.38,1.06-.07-.08s.06-.06.09-.05,0,0,.08.07Zm1.18,0-.44-.16a2.09,2.09,0,0,1,.3-.3c.05,0,.23.06.23.1A1.58,1.58,0,0,1,191.21,299.5Zm1.18.19c0-.07-.08-.14-.07-.21s.1-.08.15-.12l.09.22Zm.53-1.05a.55.55,0,0,1-.24-.07s.1-.12.15-.13a.75.75,0,0,1,.24.08C193,298.57,193,298.64,192.92,298.64Zm-.23-.6c0-.08-.08-.18,0-.23a1.16,1.16,0,0,1,.26-.23,1.79,1.79,0,0,1,.16.19Zm1.53,1.72s-.08-.06-.08-.09.06-.06.09-.08l.08.09Zm3-2.13s.07,0,.1,0v.1l-.2,0A.43.43,0,0,1,197.18,297.63Zm-2.12,1.15a1.53,1.53,0,0,1,1.55-.3c.57.18,1.09.48,1.48-.23,0-.05.25-.06.26,0,.16.51.64.45,1.1.42A9.08,9.08,0,0,1,195.06,298.78Zm4.83.18c.26-.44.26-.44.81,0Zm2.67,1.35s-.06-.06-.06-.08.05-.05.07-.08l.06.09Zm1.41-1.1c-.59,0-1.29.28-1.95-.53l4.09.4A6.8,6.8,0,0,1,204,299.21Zm2.63,0a3,3,0,0,1-.28-.24c.06,0,.15-.15.16-.14a2.56,2.56,0,0,1,.34.26C206.73,299.13,206.63,299.22,206.6,299.2Zm.85,1.51c.45-.76,1-.59,1.65-.52Zm.52-1.25c1-.4,1-.4,3.27,0Zm7.58.15c-.48.45-.72-.26-1-.33h1.23A1.28,1.28,0,0,1,215.55,299.61Zm.25,1c.1-.24.16-.36.22-.49l.36.22Zm.77-1.33s.05.05.07.08l-.09.06-.07-.08S216.54,299.31,216.57,299.31Zm-.07,1.08a3.45,3.45,0,0,1,1.73.17C217.4,301,217.38,301,216.5,300.39Zm2-.88c.18-.39.47-.27,1,0Zm1.85.23a2.41,2.41,0,0,1,1.91,0Zm2.33-.08.1-.08.11.09Zm1.39.4a1.62,1.62,0,0,1-.56-.06l.78-.4a1.84,1.84,0,0,1,.17.22A1.78,1.78,0,0,1,224.11,300.06Zm1.09-.07s-.09-.06-.09-.1a1.23,1.23,0,0,1,0-.25c.06.05.16.1.15.14S225.24,299.92,225.2,300Zm4.56,1.19s-.09-.09-.13-.14a.55.55,0,0,1,.24-.07s.08.09.13.14A.9.9,0,0,1,229.76,301.18Zm1.21-1.12-.12-.16a1.24,1.24,0,0,1,.27,0s.07.06.1.09Zm.76,1.6v-.1l.1.06Zm.33-1.65-.05-.09h.11Zm2.1,1.11-.09-.05.11,0Zm.75-.84a.34.34,0,0,1-.28-.17c0-.08.1-.19.19-.33.13.11.28.18.29.26A.33.33,0,0,1,234.91,300.28Zm3.48,0h-.75v-.12h.75Zm4.18.27a6,6,0,0,0-.61-.11,4.34,4.34,0,0,0-.68.08,1,1,0,0,1,1.29-.3Zm1.42.06v-.15h.95v.11Zm1.49,1.05c0-.06-.12-.12-.12-.18s.09-.11.14-.16.09.07.08.1A1.22,1.22,0,0,1,245.48,301.67Zm5.68.53q-.3-.06-.6-.15s-.05-.08-.1-.17c.11-.06.16-.1.19-.09a4.1,4.1,0,0,1,.59.2A1.8,1.8,0,0,1,251.16,302.2Zm.52-1.34a4.85,4.85,0,0,1-.63-.16,2,2,0,0,1,.06-.23l.59.2s.05.08.08.12S251.7,300.87,251.68,300.86Zm3.55,2.23V303H256v.14Zm1.25-.25c0-.07,0-.13,0-.2a.47.47,0,0,0,.1.1Zm2.5-.27-.12-.15a1.24,1.24,0,0,1,.27,0s.07.05.11.09Zm2.27-1.17,0-.09h.11Zm3.83,3.34-.06-.15.17.06Zm15.28,1v.09l-.1-.06Zm-7.42.23a1.22,1.22,0,0,1,.36.27s0,.14,0,.22-.19,0-.24,0a1.57,1.57,0,0,1-.3-.33S272.92,306,272.94,306Zm-5.72-.83.08.08h-.17Zm2.95-3.51v-.08l.1.05Zm1.21,1.16v-.15l.08.08Zm1.27.12a3.36,3.36,0,0,1-.28-.46c.36.23.63.34.63.42C273,303.18,272.79,303.09,272.65,302.94Zm6.16.75a1.09,1.09,0,0,1-.08-.15l.43-.26a1.63,1.63,0,0,1,.09.23A2.39,2.39,0,0,1,278.81,303.69Zm6.31.2c-.05,0-.14-.08-.15-.13s.06-.14.09-.21l.15.13Zm12.52,1v.1l-.11-.06Zm-9.26-1.41s.05.05.07.08-.06.05-.09.05-.05,0-.07-.07S288.35,303.51,288.38,303.51Zm2.64,3.17c-.06,0-.3-.34-.53-.61l2.12.24C292.28,307.19,291.53,306.48,291,306.68Zm2.7.08c0-.06,0-.11,0-.17l.67,0a1,1,0,0,1,0,.17Zm1.58,0-.15-.15a.59.59,0,0,1,.24-.07c.06,0,.1.08.15.13Zm3.21-.59c-.43-.07-.86-.16-1.29-.19a4.11,4.11,0,0,0-1.75,0c-.68.3-.92-.33-1.42-.32-1.82,0-3.64,0-5.48,0,.3.9.89.3,1.55.18-.9.74-1.43.85-1.74.32s-.46-.55-1-.35c-.15.06-.46-.23-1-.5a16.26,16.26,0,0,1,2-.24c2.69.08,5.39.18,8.08.31,1.07.05,2.14.19,3.25.29C299.49,306.32,299,306.26,298.51,306.17Zm1.68.84c0-.24,0-.42,0-.69l.38.12c.14.05.26.12.45.2Zm.34-1.28.77-.05C301.15,306.12,300.8,305.81,300.53,305.73Zm1.14-.38.06-.15.1.09ZM305,304.2l0-.09h.1Zm2.1,2.79s-.07-.05-.07-.08.06-.07.08-.06.05,0,.08.07Zm1.8-1.83.08.09-.1.08Zm-.73.79c.79-.32.8-.31,1.51.09C309.13,306.25,308.66,306.41,308.21,306ZM310,304.4l.09-.06.09.08Zm.77,2.31-.19-.06.22-.34Zm2.09-2.26-1,.09C312.21,304.37,312.5,303.8,312.89,304.45Zm-1.39,2.85.06-.15.1.1Zm3.37,0s-.07-.06-.07-.09.06-.07.09-.07.05.06.08.09Zm-1.7-1c.14.43.24.74.35,1.05a1.9,1.9,0,0,1-1.48-.52,4.5,4.5,0,0,0-1.14-.57,1.66,1.66,0,0,1,.53-.27c.94-.13,1.94.22,2.85-.24.85.53,2-.15,2.77.49Zm4-1.65c-.13-.17.09-.27.32-.13.07,0,.1.14.25.37C317.45,304.74,317.26,304.72,317.17,304.62Zm7.24-.07a1.49,1.49,0,0,1,0,.21h-1v-.15Zm-4.46.77s-.07-.06-.07-.08.05-.05.08-.07.07.05.07.08S320,305.3,320,305.32Zm.13-.54c-.06,0-.35-.22-.6-.38a5.14,5.14,0,0,1,2.92.38,3.91,3.91,0,0,1-.83,0C321.07,304.76,320.61,304.44,320.08,304.78Zm.68,2.7c.6-.43.6-.43,1.15.24A.75.75,0,0,1,320.76,307.48Zm1.94-1.34h-.44V306h.44Zm.23-.81s-.07-.06-.07-.08.05-.05.08-.08l.07.09Zm4.21,1.16H326c-.61,0-1.14,0-1.47.64-.19.38-.56.27-.83-.17-.17-.29-.38-.56-.67-1,1.48,0,2.85-.28,4.15.17C327.15,306.27,327.15,306.38,327.14,306.49Zm.26-1.7h-2.63a2.92,2.92,0,0,1,.57-.29,4.73,4.73,0,0,1,.53,0,8.23,8.23,0,0,1,1-.11,2.15,2.15,0,0,1,.63.22A1.87,1.87,0,0,1,327.4,304.79Zm1.7-.15h.44v.13l-.44,0Zm.95,2.23c-.33.13-.6.31-.95,0s-.57-.39-.89-.61c1-.78,1.9.32,2.84-.14l0,.46A7.17,7.17,0,0,0,330.05,306.87Zm1.22-2.1s-.06,0-.09-.08.07-.07.1-.07.06.06.09.09S331.3,304.78,331.27,304.77Zm.34,1.65c1.27-.4,1.27-.4,1.61,0Zm2.1.7c-.11-.25-.18-.33-.18-.42a3.13,3.13,0,0,1,.07-.43h1.29l.07.17ZM339,304.9l0,.1H339Zm-2.55-.58c.07,0,.13.08.2.12s-.08.08-.11.08a1.53,1.53,0,0,1-.26-.08C336.36,304.4,336.42,304.32,336.47,304.32ZM335.38,307c-.11-.54.25-.45.53-.46h0l.9.47Zm1.53-1.88-.07-.19.66-.31.14.35Zm1.32,2.19c-.06,0-.11-.07-.17-.12a1.28,1.28,0,0,1,.26-.07c.05,0,.09.09.14.13A.71.71,0,0,1,338.23,307.29Zm-.46-1h2.63C339.54,307.19,338.79,306.73,337.77,306.28Zm1.76.91.09-.08.08.09Zm.64.09v-.14h.66v.14Zm.93-1.95a1,1,0,0,1,0-.17l.07.09Zm1,1.29c-.09.06-.35-.13-.49-.37a6.06,6.06,0,0,1,1.13,0c.11,0,.17.3.24.48C342.72,306.69,342.49,306.39,342.12,306.62Zm3.4.13c-.72,0-1.43,0-2.15,0a3.14,3.14,0,0,1,.18-.31c.06-.07.2-.17.23-.15.72.45,1.49-.49,2.29.17C345.86,306.58,345.69,306.74,345.52,306.75Zm.09-1.72.62-.64c0,.38,0,.55.06.7Zm.79.11.45,0-.09.19Zm.21,1.49,1.46.8C346.9,307.66,346.9,307.66,346.61,306.63Zm3.75-1.18.07.08-.09.07C350.35,305.55,350.35,305.5,350.36,305.45Zm-.38,1.62a11.44,11.44,0,0,0-1.16.24c-.2-.48-.09-.68.3-.86.19-.09.22-.47.35-.77.09.26.15.47.24.78l1.27.08C350.83,307.12,350.37,307,350,307.07Zm1.48.12.08-.07.07.08Zm2.06,2.83s.1,0,0,0Zm1-4.43s-.05,0-.07-.07.06-.07.09-.06.05,0,.07.07S354.53,305.59,354.5,305.59Zm1.45,0v-.13l1-.05v.18Zm4.56,0-1.09-.31c.58-.57.85-.11,1.19,0C360.58,305.39,360.55,305.48,360.51,305.57Zm1.88.06c-.05,0-.11-.08-.16-.13s.08-.07.11-.07a1.84,1.84,0,0,1,.25.09C362.52,305.56,362.46,305.63,362.39,305.63Zm1.69,1.9c-.25-.06-.49-.14-.73-.22l.16-.28c.22.09.44.18.65.29A1.31,1.31,0,0,1,364.08,307.53Zm.57-1.81.08.09s-.06.07-.09.07-.06-.05-.09-.08Zm1.07,2.71c-.08,0-.17-.07-.28-.12l.88-.3c-.45-.72-1.22-.18-1.76-.51.48-.7,1.1,0,1.64-.15s1,.52,1.65.73Zm2.77-.8-.67-.25a1.42,1.42,0,0,1,.07-.22c.24,0,.47.12.71.19C368.56,307.44,368.52,307.54,368.49,307.63Zm.54-.07c.26-.58.49-.49.8,0Zm1.27-1.68-.05-.1h.11Zm1.19.29V306l.08.08Zm2.8.27c-.05,0-.2-.11-.19-.14s.1-.25.19-.27.21.09.41.2A1.75,1.75,0,0,1,374.29,306.44Zm1.07-.27V306l.08.09Zm1.28,1.92h-.45V308h.45Zm3.63,1.82.48-.94.4.6Zm-3.11-4.05c.93.15,1.59.24,2.23.38s1.15-.53,1.81-.07A4.57,4.57,0,0,1,377.16,305.86Zm4.26,3.95c-.09-.05-.14-.15-.21-.23a.49.49,0,0,1,.21,0,1.25,1.25,0,0,1,.24.16C381.58,309.77,381.46,309.84,381.42,309.81Zm.2-3.39v-.15l.1.09Zm2.8-.53c-.53.54-.53.54-1.33.38Zm-.67,2.66,0,.1-.09-.06Zm-1.6-1.59s.06,0,.09-.07l.09.24-.18.07A1.92,1.92,0,0,1,382.15,307Zm-.23,2c0-.05,0-.1,0-.15l.07.09Zm.69,1.69c-.05,0-.09-.08-.14-.13a1.09,1.09,0,0,1,.24-.07c.06,0,.11.08.18.13A.94.94,0,0,1,382.61,310.64Zm-.57-1.23c1-.32,1.76.23,2.58.31C383.77,309.74,382.88,310.11,382,309.41Zm3.84,4h-.45v-.11h.45Zm1.23-3.6c-.09,0-.18-.14-.33-.27.19-.08.31-.17.39-.15s.15.16.23.24C387.3,309.67,387.2,309.78,387.11,309.78Zm24.61-8,.08.09s-.06.07-.09.07,0-.05-.08-.08Zm-9.16,4.11h-1.35A1,1,0,0,1,402.56,305.93ZM397,309.84l0,0-.6.23c0-.26,0-.51-.46-.51-.71,0-1.43,0-2.25-.06.55-.77,1.3-.55,1.84-.46a16.16,16.16,0,0,0,4.23-.08,14.23,14.23,0,0,0,2.26,0,6.48,6.48,0,0,1,2.11.06c.1,0,.19.15.31.25-1.33.38-1.33.38-1.75.84-.19-.19-.36-.38-.56-.59-1.58.07-3.21-.2-4.74.52-.07,0-.24-.12-.38-.22l.11-.22Zm-.06,2.33-.11.19-.66-.35.11-.18Zm-1.52-.75a.92.92,0,0,1-.26.07c-.05,0-.09-.09-.13-.14a.71.71,0,0,1,.24-.06S395.32,311.37,395.37,311.42Zm4.64-3.1s.06-.07.09-.07.06.05.09.08-.07.07-.1.07A.2.2,0,0,1,400,308.32Zm1.81-.27.07-.09,0,.1Zm-1.06-.12a2,2,0,0,1,.26.09.57.57,0,0,1-.21.12c-.05,0-.11-.09-.16-.13S400.73,307.93,400.76,307.93Zm-1.28-2.46,1,.69h-1.38Zm-.13,2.63c-.14.11-.33.34-.4.31a4.44,4.44,0,0,0-1.63-.15C397.92,307.72,398.6,308,399.35,308.1Zm-2-1.15.06-.08.05.09Zm-.61-.94h1.32v.13h-1.32Zm-3.41,2a6.67,6.67,0,0,1,3.31-.31C395.77,308.26,395.54,308.28,393.34,308.05Zm1.62-.86.11,0v.1Zm1.27-1.24a5,5,0,0,1-3.5.31l-.54.57c-.32-.56-1.07-.09-1.45-.6C392.56,305.78,394.4,306.05,396.23,306ZM392.94,307v-.15l.08.08Zm.08,2.36v.13h-.74v-.13Zm-1.18.08s-.07.06-.09.06-.06-.05-.08-.07.06-.06.09-.06S391.81,309.42,391.84,309.44Zm-1.17-3.23h-.52C390.36,305.9,390.47,305.9,390.67,306.21Zm-.28,2a2.38,2.38,0,0,1-.31.17s-.09-.09-.14-.13l.29-.26ZM388.65,314c0-.24,0-.5.05-1l.59.59Zm-.35-7.48c.61-.86,1.2-.56,1.79-.3C389.6,306.81,389,306.33,388.3,306.52Zm1.29,2.84h1.32v.14h-1.32Zm2.81,4.46H394C393.42,314.46,392.9,313.86,392.4,313.82Zm3.77-.53-.26.82c-.09-.36-.14-.55-.2-.75a12.65,12.65,0,0,1-2.3.05l0-.33,1-.39-1.24-.65s-.09.24-.19.54l-.58-.41-2.18.25-.15-1.18a3.44,3.44,0,0,0,1.85,0,3.06,3.06,0,0,1,1.73.19,15.45,15.45,0,0,0,1.94.62l-.61.37c.59.61,1.4.42,2.47.56Zm4.21-1.27-.08-.08.1-.08.08.09S400.41,312,400.38,312Zm1,.55-.3-.13c.07-.17.14-.35.2-.53.08,0,.24.11.23.14A3,3,0,0,1,401.41,312.57Zm5.83.83,0-.1h.1Zm.26-1.36a1.65,1.65,0,0,0-1.62.19c-.31.26-.9-.36-1,.33a3.07,3.07,0,0,1-1.1-.25c-.38-.29-1.26.27-1.23-.64-.58-.13-1.12-.48-1.78-.25-.45.16-.94.25-1.39.42a1.59,1.59,0,0,1-1.89-.19c-.2-.18-.63-.14-1.21-.26.55-.11.87-.19,1.21-.23a8.81,8.81,0,0,1,.89,0c0-.16-.07-.28-.16-.59,1.74.63,3.47.23,5.13.8a3.6,3.6,0,0,0,2.93,0,4.6,4.6,0,0,1,1.63-.15C408,311.79,408,312.19,407.5,312Zm-1.57-2.91c.43,0,.86-.09,1.29-.13-.73.83-1.6.44-2.44.55,0-.12,0-.24,0-.35Zm-1.15-1.36.08-.13.48.23-.18.24Zm1.24-.83.19-.12.16.14a2.33,2.33,0,0,1-.25.07S406.05,307,406,306.94Zm.84,1.13,0-.13.8.12a2.81,2.81,0,0,0-.1.31Zm1.55,1.67a.78.78,0,0,1-.09-.24s.07-.07.1-.1l.14.19Zm-2.17-3.54a3.48,3.48,0,0,1-2.6-.59l2,.22a4.26,4.26,0,0,0,.86.09,3.82,3.82,0,0,1,2.35.17A8.83,8.83,0,0,1,406.24,306.2Zm2.94.63a1.22,1.22,0,0,1,.29.23l-.2.16a3.83,3.83,0,0,1-.28-.29C409.05,306.9,409.15,306.81,409.18,306.83Zm1.81,5.34a3.62,3.62,0,0,0-1.34.22c-.15-.41-.64-.67-.09-1.05a10.12,10.12,0,0,0,1.28.43,12,12,0,0,0,1.57.1C412,312.54,411.53,312.31,411,312.17Zm-1.49-2.12.23-.22.32.39-.16.16Zm2.36-.24-2.69-.59,2.49-.39c.58.92,2,0,2.62,1.12C413.42,310,412.66,309.25,411.86,309.81ZM410.39,308l.21-.06,0,.41Zm.36-.83.1,0v.09Zm.48.8c.65-.14,1.11-.18,1.31.46Zm5,4.23a4.64,4.64,0,0,1-.65,0,1.93,1.93,0,0,1,0-.32l.64,0s.07.05.15.11S416.26,312.21,416.24,312.22Zm-.73-5v-.12H416v.13Zm2.21,2.11v.11h-.44v-.11Zm-.11-1.32.06-.07.05.09Zm-.1,3.93c.53-.26.92-.64,1.44,0Zm1.27-4.81.09-.06.07.08Zm.29,1.41.09-.06.09.07Zm.39,3.43s0,0-.08-.08.06-.06.09-.06,0,.05.08.08S419.48,312,419.46,312Zm1.09.3a1,1,0,0,1-.23-.07l.14-.14.23.08C420.64,312.23,420.6,312.31,420.55,312.32Zm.07-2a.65.65,0,0,1-.09-.23s.1-.09.16-.13.09.15.09.23S420.68,310.25,420.62,310.29Zm-.06-3.1s.06-.07.09-.06.06.05.09.07l-.1.07Zm-1.21-.67a17.7,17.7,0,0,1-2.16.2c-.66,0-1.31-.47-1.95-.44-1.16.05-2.31-.12-3.47-.06-.53,0-1.06,0-1.6,0V306c.32,0,.64-.06,1-.06.89,0,1.78,0,2.67,0a17.86,17.86,0,0,0,2.54-.16c.45-.07.56.64,1.16.23s1.26.14,1.95,0a3.13,3.13,0,0,1,1.83.43C420.64,306.47,420,306.47,419.35,306.52Zm2.4,1.89a.85.85,0,0,1-.25-.05l.31-.36.31.28A1.63,1.63,0,0,1,421.75,308.41Zm1.77-2.19a.41.41,0,0,1,.28-.2c.07,0,.21.15.22.23s-.1.23-.21.46C423.62,306.4,423.5,306.29,423.52,306.22Zm.54,5.76-.36.37-.15-.13.37-.36Zm-1,.06c-.2.08-.4.14-.61.21,0-.09-.05-.17-.07-.25l.64-.15s.08,0,.12.08S423.07,312,423,312Zm3.14,2.59c.06,0,.13.07.19.11s-.08.09-.11.08a1.38,1.38,0,0,1-.27-.08C426,314.7,426.11,314.63,426.17,314.63Zm-1-.06a2.87,2.87,0,0,0-.05.31c-.52-.19-1.17.28-1.76-.51Zm2.95-8.19-1.31-.17C427.2,305.83,427.58,305.87,428.12,306.38Zm.42,2-2.31.24C426.87,307.52,426.87,307.52,428.54,308.34Zm-1.82-2.12-1.08.74-.69-.55C425.59,305.73,426.15,306,426.72,306.22ZM425.07,308h.73v.13h-.74Zm3.19,1.85-.92.28c-.47-.5-1.11-.36-1.74-.28a.78.78,0,0,1,.88-.75c.77.43,1.51-.27,2.23,0,0,0,.06.06.15.15l-.6.58Zm.51.07-.07.19-.37-.22Zm-.39,1c.72,0,.75.27.75.61Zm12.44-9.29h.45a.71.71,0,0,1,0,.14l-.45,0Zm-.5,6.11.08.08-.09.07Zm-.75-2.24a.72.72,0,0,1,.27.25.36.36,0,0,1,0,.23c-.09,0-.2,0-.24,0a2.6,2.6,0,0,1-.27-.38C439.42,305.52,439.53,305.43,439.57,305.45Zm-.44-3.9.07.09-.08.06s-.07-.05-.07-.08S439.11,301.57,439.13,301.55Zm-.54,4.18v.15H437v-.15Zm-1.45,2a2.36,2.36,0,0,1-2.68,0C435.45,307.55,436.27,307.23,437.14,307.78Zm-.11-1.07v-.15l.09.08Zm-2.16-1a5.26,5.26,0,0,1,1.31.09,2.65,2.65,0,0,1-1.88,0A3.72,3.72,0,0,1,434.87,305.67Zm-.6,3.26c.62-.42,1.29-.11,2.1-.17-.67.67-1.58.07-2.15.66C434.23,309.25,434.18,309,434.27,308.93Zm-.39-.82h-1.59C432.76,308.07,433.32,307.2,433.88,308.11Zm-.15,1.71h-1.24C433.13,309.41,433.13,309.41,433.73,309.82Zm-1.44,1.45c.82.14,1.7-.47,2.49.22.16.14.58,0,.87,0a9.42,9.42,0,0,1,1.15.37c-1.14.2-1.9.34-2.66.44a4.5,4.5,0,0,1-.72-.07c-.42,0-.85,0-1.26-.07-.2,0-.52-.15-.54-.25a.9.9,0,0,1,.26-.56A.49.49,0,0,1,432.29,311.27Zm.68,1.52-.11.08-.08-.09s.07-.07.09-.07S432.94,312.76,433,312.79Zm-1.3-6.82v.16l-.67,0V306Zm.15,1.75c-.34.46-.34.46-1.16,0ZM430,306a2.67,2.67,0,0,1,.26.09c-.07,0-.14.11-.21.11s-.11-.08-.17-.12S429.94,306,430,306Zm-.67.6s.05.05.08.08l-.1.07-.07-.08S429.27,306.57,429.3,306.57Zm-.06,3.57c1-.4.25-.9.59-1.29.61.15.56.71.85,1.19Zm1.51-1a.8.8,0,0,1,.24-.07c.05,0,.09.09.13.14a.55.55,0,0,1-.23.07C430.84,309.26,430.8,309.17,430.75,309.12Zm.14,5c.15-.2.25-.51.45-.59a1.23,1.23,0,0,1,.79.11,6.82,6.82,0,0,1,.94.62C432.31,315,432.31,315,430.89,314.14Zm3.61-1.05c-.17.62-.66.32-1.2.36C433.68,312.93,434,312.77,434.5,313.09Zm-1,1.44s-.06,0-.09-.08.07-.07.1-.07,0,.05.08.08S433.48,314.53,433.46,314.53Zm3,.05c-.33.05-.61-.33-1,.06s-.79-.11-1.45-.25c.88-.57,1.71-.1,2.25-.6l.6.66A1.37,1.37,0,0,1,436.46,314.58Zm1.33-3.09c.27,0,.53-.24.79-.37l.71.95-2.33-.36C437.15,311.21,437.48,311.5,437.79,311.49Zm-.8-1.73v-.12h1v.12Zm2.5,4.71-.74-.14.12-.28a5.25,5.25,0,0,1,.65.18S439.5,314.38,439.49,314.47Zm.23-2.73s-.05,0-.08-.07.06-.06.09-.06,0,.05.07.08S439.74,311.75,439.72,311.74Zm-3-3h3.42C439,309.63,437.84,309.19,436.73,308.78Zm3.58,5.73s-.12-.15-.1-.2c.16-.43.45-.32.87-.08C440.77,314.35,440.54,314.44,440.31,314.51Zm.89-2.5v-.15l.1.08Zm-.68-6c.49-.51.49-.51,1.13-.13Zm1.28,3.54s-.06-.05-.09-.08.07-.07.1-.07.05.05.08.08S441.83,309.51,441.8,309.51Zm43.24-6s.09.07.08.1a2.18,2.18,0,0,1-.09.23c0-.07-.12-.13-.13-.19S485,303.59,485,303.55Zm-23.27-1.18.09.1h-.19Zm-3.28,0,.08.09h-.16Zm-.29-.82.07.09s-.06.07-.09.07-.05-.06-.08-.08Zm-6.86,0s.05.05.08.08-.07.07-.09.06-.06-.05-.08-.07S451.31,301.55,451.34,301.55Zm-8,6.12s.06.06.09.09l-.1.09s-.09-.07-.09-.1S443.27,307.67,443.3,307.67ZM442,306c.24-.08.48-.16.72-.22a1.43,1.43,0,0,1,.08.22c-.22.11-.45.2-.68.3Zm1.87,5.77,0-.1h.1Zm-1.22-2.27a2.94,2.94,0,0,1,2.24,0A1.83,1.83,0,0,1,442.66,309.46Zm1.2-2h1.22C444.58,307.93,444.58,307.93,443.86,307.41Zm2.62,1.59c0-.3.22-.14.34,0a3.24,3.24,0,0,1,.23.46C446.72,309.19,446.47,309.08,446.48,309Zm1.78.25a.86.86,0,0,1-.29-.19s0-.15,0-.22l.45.24C448.37,309.17,448.29,309.26,448.26,309.25Zm3.11,5-.11,0,.12,0Zm-3.54-6a1.09,1.09,0,0,1,1.17-.85,7.66,7.66,0,0,0,2.39.05C450.37,308.25,449.09,307.73,447.83,308.24Zm2.22-1.6s.06-.06.1-.09l.09.1-.1.08S450.05,306.67,450.05,306.64Zm2.57,2.61c-.1-.05-.16-.16-.23-.24l.18-.18.3.37C452.78,309.22,452.67,309.28,452.62,309.25Zm.15-1.56h1.73C453.86,308.32,453.31,307.75,452.77,307.69Zm2.64,1.4c-.13-.15.1-.28.32-.14.07,0,.1.15.25.37C455.69,309.21,455.5,309.19,455.41,309.09Zm1.35-1.14c-.56.61-1.12-.49-1.79.36.1-.53.13-.7.19-1,1.15.64,2.31.09,3.72.12A1.7,1.7,0,0,1,456.76,308ZM460,309.8l-.28-.42c-.42.05-.78.9-1.31,0,1-.61,2.06-.34,3.32-.39C461.06,309.53,460.22,308.92,460,309.8Zm-1-2.2.55.48C459.06,308.19,458.92,308.09,459,307.6Zm0-.69.08-.07.07.08Zm3.47.11c-.05,0-.1-.08-.14-.13a.63.63,0,0,1,.23-.08c.06,0,.11.08.19.13A1.12,1.12,0,0,1,462.48,307Zm.77,1.37-.09-.09s.07-.07.1-.06.06.05.09.08Zm1.29.6,1.16.64C464.85,309.92,464.67,309.45,464.54,309Zm1-.53-.25-.16.29-.29c.05,0,.16.11.15.14A2.16,2.16,0,0,1,465.54,308.46Zm2.73,1.57a1.1,1.1,0,0,1-1.5-.39c-.13-.22-.77,0-.92-.66,1.43.64,3,.18,4.29,1A3.14,3.14,0,0,0,468.27,310Zm-1.49-1.44s.08-.08.11-.08a1.32,1.32,0,0,1,.26.05c0,.05-.1.14-.14.14A.8.8,0,0,1,466.78,308.59Zm1.49-.64a1.71,1.71,0,0,1,.49,0c.28.1.55.25.88.4l-.55.43Zm1.64,4.09c-.05,0-.09-.08-.14-.13a.55.55,0,0,1,.24-.07c.05,0,.09.09.13.13A.48.48,0,0,1,469.91,312Zm2.18-1.65s-.16,0-.25-.07a.84.84,0,0,1,.24-.19.61.61,0,0,1,.23,0A1.07,1.07,0,0,1,472.09,310.39Zm.28-.28c.14-.4.46-.28,1-.08Zm2.86-1.33-.16-.29.72-.21a1,1,0,0,1,.09.21Zm1.37.11.07-.1,0,.11Zm.52,1.06c.42-.08.74-.59,1.13.06C477.89,310.12,477.56,310.62,477.12,310Zm1.92,5.12,0-.09h.1Zm.18-4.43a.18.18,0,0,1-.13,0,1.2,1.2,0,0,1,0-.19l.28.06A.66.66,0,0,1,479.22,310.64Zm-1.4-2.11a8.29,8.29,0,0,1,2.58,0C479.81,309.17,479.1,309.17,477.82,308.53Zm2.95,1.9c.83-.59.83-.59,2-.48C482.24,310.66,481.51,310.3,480.77,310.43Zm.29-1.37.43,0-.36.21Zm.54-.06v-.37c1.8-.09,1.8-.09,2.39.37Zm3-.41.09-.06a.6.6,0,0,0,.08.08Zm1.86.63-.07-.08s.06-.07.08-.06.05.05.08.07Zm-.6-2.13a3.35,3.35,0,0,0-.75.39.77.77,0,0,1-.95-.08c-.57-.52-1.06-.42-1.69,0a5.27,5.27,0,0,1-1.65.45c0-.44,0-.44.65-.65-.08,0-.14-.13-.2-.13-1.69,0-3.38-.07-5.06,0a5,5,0,0,1-2.07-.18,2.52,2.52,0,0,0-1-.16c-1.34.17-2.65-.27-4-.12-.06,0-.15-.22-.25-.37l-.78.62-2.49-.89c-.41.82-1.26.58-1.8.43a4.65,4.65,0,0,0-2.64-.08,7.48,7.48,0,0,1-2.1-.07c-.69,0-1.38-.05-2.07,0-.38,0-.77.09-1.15.13s-.59.12-.69,0c-.46-.48-1-.26-1.45-.12-.66.19-1.24-.21-1.85-.07s-1.2-.21-1.86,0a8.15,8.15,0,0,1-1.92,0h-1.94a2.5,2.5,0,0,1-1.56-.29.41.41,0,0,1-.66.23c-.16-.11-.15-.43-.24-.74l.63.26c.19-.09.38-.26.56-.25s.58.26.83.21c1.25-.22,2.51,0,3.77-.15.45-.06,1,.23,1.4.11s.91-.32,1.37,0c.7-.45,1.5.18,2.24-.21.26-.14.7,0,1-.05s.82.51,1.09-.13c.42.1.77.37,1.28.2a4,4,0,0,1,1.25,0c.45,0,.9,0,1.34,0,.93.06,1.85.18,2.78.22a10.3,10.3,0,0,0,1.44-.18,3,3,0,0,1,.73,0c1.16.14,2.31.32,3.47.47a24,24,0,0,0,2.91.31c1.31,0,2.6.13,3.92.1a20.74,20.74,0,0,1,5.1.14,3.73,3.73,0,0,0,1-.09c1.15-.09,2.28.24,3.43.18.61,0,.62,0,1.51.71A2.66,2.66,0,0,0,485.89,307.09Zm4.48,2.13-.05-.09h.11Zm.2-2.19a.55.55,0,0,1-.23-.07c.05,0,.09-.14.14-.14a.55.55,0,0,1,.23.07C490.66,306.94,490.62,307,490.57,307Zm.57.21c.58-.05,1-.7,1.72-.31C492.16,307.68,492.16,307.68,491.14,307.24Zm2.44-.11h1s0,.08,0,.12h-1Zm1,4.89-.44,0,.36-.22A1.42,1.42,0,0,0,494.62,312Zm-.52.09.4.77C493.82,312.46,493.81,312.45,494.1,312.11Zm.44,1.29s-.05,0-.08-.07l.09-.07.08.08S494.57,313.41,494.54,313.4Zm.4-5.85c.86-.54,1.58-.73,2.27,0Zm.07,1.67,2.51.08c.4,0,.43.25.43.51C497,309.37,495.91,309.78,495,309.22Zm4.39-1.37h-1.35l1.35-1.21Zm-247.8-4.39-.8-.17c-.15.32-.31.63-.49,1-.53-.71-1.43.3-1.82-.52l-1,.42-.26-.64c-1.71-.14-3.33-.39-4.94-.38-2.79,0-5.57-.07-8.36-.28a1.16,1.16,0,0,0-1.37.82l2.67.37c-.1.23-.21.47-.32.7a11.52,11.52,0,0,1,4.3-.13c.49,0,.13.49.32.7.31-.18.65-.54.92-.5a23.23,23.23,0,0,0,3-.07c2.81.13,5.62.23,8.43.28.62,0,1,.4,1.44.57.17-.39.55-.27.86-.25a31.26,31.26,0,0,0,4.83-.31c.17,0,.32-.18.48-.27-.22-.46-.22-.46-1.33-.93l.13.89a3.66,3.66,0,0,0-2.81-.78c-.23,0-.47-.13-.71-.15a4.75,4.75,0,0,0-1.13,0,3.25,3.25,0,0,1-2.09-.4v0h0Zm-5.58.78c0-.05,0-.09,0-.13a2.62,2.62,0,0,1,.38-.09,2.41,2.41,0,0,1,.52.13Zm10.78.65.07.09-.09.07Zm-1.15-.29.27,0s0,.09,0,.09l-.27,0C255.64,304.72,255.65,304.66,255.65,304.6Zm-2.51-.09c.07.05.1.13.31.45-.37-.23-.63-.32-.63-.4C252.83,304.23,253,304.41,253.14,304.51ZM275.93,308c1.45.25,1.52.22,2.35-.6-1.68-.16-3.37.15-5-.3-.19,0-.45.14-.68.17a3.63,3.63,0,0,1-.87,0c-.48,0-1-.17-1.43-.19-1,0-2.08,0-3.12,0-.44,0-.88-.12-1.31-.14a6,6,0,0,1-1.4,0,3.4,3.4,0,0,0-2.62.07,3.79,3.79,0,0,1-1,.16v.65h3.42c0-.14,0-.26-.1-.58.65.54,1.5.17,2,.79a.44.44,0,0,0,.27-.13c.21-.42.6-.2.92-.24.05,0,.12.08.19.12l-.75.57c1.2-.07,2.13.38,3-.1.84.44,1.72-.34,2.59.07.31.14.51-.09.4-.45,0,0,.13-.16.21-.17s.21.11.2.15c-.06.39-.14.77-.22,1.15l3.38-.39Zm-8-.58h1.47C268.56,308.06,268.49,308.06,267.93,307.41Zm-14.54-1.73v0h0s0,0,0,0Zm-2.74.79c-.58-.34.53-.85-.37-1-.18.45-.34.88-.59,1.51-.3-.78-.6-1.2-1.31-.81l-.15-.57L247,306c-.21.07-.41.16-.62.25.62,0,.42.42.3.87,1.32-.2,2.57.39,3.89,0a3.93,3.93,0,0,1,1.3.1,12.65,12.65,0,0,0,1.61.14c.25,0,.5-.27.71-.4.3.23.67.69.86.63.85-.27,1.69.23,2.52-.08a2,2,0,0,1,.69-.11,5.29,5.29,0,0,1,.77.11c-.29-.41-.61-.9-1.13-.53s-.63-.73-1.18-.32c-.05,0-.16,0-.21,0l-.32-.69a2.42,2.42,0,0,1-2.5-.27.53.53,0,0,0-.25,0c.07.33.15.66.29,1.26C252.64,305.69,251.5,306.52,250.65,306.47Zm-3.33.32-.15-.23.63-.35.12.18Zm-1.12-.57,0,0,.1,0h-.13Zm35.1,3.92c-1.57-.12-3.14-.19-4.71-.31a9,9,0,0,1-2.15-.33c-.29-.1-.32-.42-.72,0s-.68,0-.71-.44l-3.3.42-1.14-.42c0,.16-.05.32-.09.52l-1.3-.74c-.11.57-.62.43-1,.49l0,0h0v0a1.91,1.91,0,0,1-.52.25,6.55,6.55,0,0,1-.89,0,1,1,0,0,0,.38.24c.91.16,1.86-.11,2.74,0,1.8.32,3.6.07,5.39.23a2.54,2.54,0,0,0,1.73-.19c.12-.08.49-.07.54,0,.41.69,1.11.43,1.7.46a16,16,0,0,1,3.38.26,6.67,6.67,0,0,0,1.55,0A1.22,1.22,0,0,0,281.3,310.14ZM273,309h0v0H273v0h0Zm69.6,2.53c.77.59.77.59,2,.55a15.55,15.55,0,0,0,2.62-.23,8.58,8.58,0,0,1,2.56.31,26.76,26.76,0,0,0,5.07.11.9.9,0,0,0-1.17-.47c-.89.31-1.68-.13-2.48-.06-.28-.24,0-.91-.7-.69l.26.53a3.66,3.66,0,0,1-1.22.16c-.27-.06-1,0-.67-.69-.4,0-.8,0-1.2-.05-.12,0-.22-.17-.36-.28a1.11,1.11,0,0,1-1.19.8c-.62,0-1.24,0-2.08,0l.78-.5c-.68.09-1.41-.64-1.95.12l-.35-.4-.7.75.4.56Zm-.8,0h0l0,0h0l0,0ZM316,311.25c-1-.06-2,.15-2.88-.45-.08-.06-.33.15-.5.15a39.15,39.15,0,0,1-6.93-.21l-.82.85c1-.14,2.06.43,2.93-.31a.55.55,0,0,1,.44,0,8.39,8.39,0,0,0,3.27.27c1.55,0,3.11.1,4.89.15C316.13,311.37,316.08,311.25,316,311.25Zm45.08,2.53c-.56-.43-1.09-.9-1.64-1.35.1.57-.73.47-.84.91l1.6.48a1,1,0,0,1-.91.14,1.36,1.36,0,0,0-1.24,0,2.61,2.61,0,0,1-1.12-.11c-.26,0-.25,0-.63.4,1.55.22,3.14-.13,4.69.3a16.51,16.51,0,0,0,4.71-.19c-1.44-.11-2.7-.19-4-.3A1.28,1.28,0,0,1,361.1,313.78ZM180.29,301.21c-1.25,0-2.55-.22-3.68.55-.05,0-.18-.05-.4-.1l.29-1c-.8.4-1,1.38-2,1.31.72.09,1.41.06,2.09.1a5.06,5.06,0,0,1,2.12.24l-.69.53h1.37c-.12-.37-.52-.73.06-1,.09,0,.32.24.49.36.5-.27,1.31-.14,1.51-1Zm54.63,5h-.06v0Zm.27.22c.37-.08.74-.2.9-.25l.42-.69.13.08a5.13,5.13,0,0,0,0,.52,6.21,6.21,0,0,0,.12.66,38.72,38.72,0,0,0,4.6-.1v-.49l-2.12-.24c-.74-.08-1.43.63-2.2.14.33-.53.29-1-.39-1.25a1.22,1.22,0,0,1-.36.18c-.71.08-1.19.36-1.23,1.1,0,0-.1.08-.18.12C235,306.3,235.12,306.46,235.19,306.44Zm-131.71-5.72-2.59.12-.31.35c-.46.47-.38,1,.22,1.07a3,3,0,0,0,2.68-.49Zm-2.4,1s-.09-.08-.13-.13a.88.88,0,0,1,.23-.07s.11.07.18.12A.76.76,0,0,1,101.08,301.72ZM345,312.92a18.36,18.36,0,0,0-4.69-.21c.72.37,1.47-.07,1.85.78h-2.83a1.48,1.48,0,0,1,0,.21l5.46.25.22-.31-.83-.23Zm-2.38.51v-.14l.64-.08v.22ZM88.82,301.58a4.28,4.28,0,0,0-2.94.23l-.61-1c-.23.79-.35.84-1.26.69-.71,1-.71,1-.64,2l.77-1.24.36.49c.89-.32,1.76-.67,2.65-1,.46-.14.55.19.58.52C88.1,302.08,88.62,302.05,88.82,301.58Zm270.51,9.06c.27-.05.49-.3,1-.64l-4-.68c-.35.46-.21.88.27,1A6.64,6.64,0,0,0,359.33,310.64Zm-8.13,2.56h2.48a9.69,9.69,0,0,0-3.27-.33,15.35,15.35,0,0,1-3,.06,1.56,1.56,0,0,0-1.46.66,1.18,1.18,0,0,0,1.42-.12c.19-.16.62-.3.78-.2.75.41,1.53.15,2.3.2C350.61,313.13,350.93,313.2,351.2,313.2ZM248.7,308c.07,1,.1,1,.78,1s1.26.15,1.89.15a2.5,2.5,0,0,0,.79-.28c0-.1,0-.19,0-.29-.73-.15-1.55.07-2.22-.46h2.45a5.36,5.36,0,0,0-1.83-.46A10.63,10.63,0,0,0,248.7,308Zm-141.77-5.5-1.44.85,1.35.66a1.53,1.53,0,0,1,2-.27c.64.37,1,0,1.5-.53A6.24,6.24,0,0,1,106.93,302.47Zm177.57,6.07a2.86,2.86,0,0,0-.64.16,1.75,1.75,0,0,1-.72,0c-.11,0-.13-.31-.21-.55l-2.11.12c0-.18.08-.38.13-.63a3.88,3.88,0,0,1-1.14.22,3,3,0,0,1-.91-.47l-.67,1a3.93,3.93,0,0,1,2.52.27.49.49,0,0,0,.43,0c.57-.4.93,0,1.43.19A1.43,1.43,0,0,0,284.5,308.54Zm-40-3c-.2.6-.86.27-1.12.44v.84h2.79v-.62a5.13,5.13,0,0,0-.89-.66C245.09,305.46,244.55,305.48,244.53,305.56ZM338.11,312c.84-.37,1.72.48,2.5-.14.55.34.9.07,1.22-.3l-.43-.61a1.26,1.26,0,0,1-1.46.57,6.07,6.07,0,0,1-1.21-.81l-1.54.09,1.69.45c0,.07,0,.14-.05.21l-1.81.17C337.5,311.79,337.9,312.07,338.11,312ZM80,308.5a1,1,0,0,0-1.18-.61c-.51.05-1.11-.14-1.47.38.11.32.22.63.31.86a8.15,8.15,0,0,1,1-.91c.11-.07.43.12.78.23-.5.42-1.14.48-1.18,1.19l1-.58c0,.23,0,.36.06.48l1.64-.47C80.58,308.83,80.14,308.74,80,308.5Zm192,3.28a7.71,7.71,0,0,1-1.56-.22,5.58,5.58,0,0,0-3.5.24,15.32,15.32,0,0,1,2.91,0A23,23,0,0,0,275,312,19.45,19.45,0,0,0,272,311.78Zm-107.85-8.86c-.13.29-.26.55-.43.91l-.71-.75-.49.84h3.76l-.38-1c-.1.25-.17.46-.29.77-.12-.3-.21-.52-.3-.77Zm.25.46v-.13l.62-.1,0,.23ZM354.3,313.52a14.44,14.44,0,0,1-3.83,0l0,0h0l-1.18.44c.22.12.45.36.61.32a11.25,11.25,0,0,1,4.21-.06c.24,0,.51-.15.94-.28C354.7,313.71,354.47,313.5,354.3,313.52Zm-21.73-4.69c-1.19-.08-2.37-.22-3.56-.23s-2.26.15-3.39.23a13.2,13.2,0,0,0,3.54.15c1.16-.14,2.25.56,3.39.2C332.55,309.06,332.56,308.94,332.57,308.83Zm-113.9-5.17c-.09-.44-.16-.82-.28-1.42l-2.61.4,1.18.77.83-.25c0,.22,0,.36,0,.5Zm30.28,7c-.83.06-1.34-.21-1.33-1l-2.25.26.83.73,1.1-.45.22.67h3A3.85,3.85,0,0,0,249,310.7Zm-51.78-6.56-.43.44a1,1,0,0,0-1.47-.43c.86.14,1.24.86,2.13,1s1.37-.77,2.23-.64l-.2-.45C198.67,304.24,197.92,304.68,197.17,304.14ZM229.43,303a2.47,2.47,0,0,0-2.34.27l1,1.17,1.33-.32Zm-1.35.89c.3-.46.63-.64,1.21-.21C228.91,304.14,228.53,304.05,228.08,303.89ZM304,311.48c.36,0,.67-.19.59-.76l-4.33.31v.1c.75.12,1.51.28,2.27.37A7.22,7.22,0,0,0,304,311.48Zm66.81,1.2c-1.11-.7-2.15-.05-3.21.17H372l-.51-.73Zm-136.64-4.95a1.7,1.7,0,0,0,1.58.57,1.13,1.13,0,0,1,1.18.18c.43.32.55,0,.65-.33C236.52,307.24,235.26,308.05,234.13,307.73Zm-72.85-2.89-1.48-.13c-.47,1.08-.25,1.24,1.48,1.05Zm202.38,8c1.21.23,2.3-.26,3.42,0-1-.67-2.09-.41-3.12-.6C363.86,312.43,363.78,312.59,363.66,312.84ZM167.5,305.47a5.6,5.6,0,0,0,3.61.29v-.6l-.57.49A5.79,5.79,0,0,0,167.5,305.47Zm.54-5.07c-.47.49-.47.49.05,1.38.35-.24.58-.52.85-.56a3,3,0,0,1,1,.26C169.5,300.62,168.69,300.65,168,300.4Zm166.77,10.48-1,.81c.79.1,1.46.22,2.13.26.4,0,.6-.19.47-.55Zm24.58,1.46,0,0,0,.05a.28.28,0,0,0,0-.09Zm-2.84,0h2.84c-.14-.35-.29-.7-.52-1.23C358.32,312.08,357.32,311.89,356.55,312.34ZM192,306.72h3.91l-1.78-.64Zm34.8.7c-1,.41-2.17-.07-3.4.64C224.78,308.23,225.86,308.25,226.76,307.42Zm28.57,1.4c-.77.25-1.5-.16-2.24-.06-.13,0-.24.19-.55.45h3.55C255.74,309,255.48,308.77,255.33,308.82ZM95.05,302c.89-.33,2,.45,2.73-.62C96.87,301.68,95.79,301.22,95.05,302Zm230.8,9.35s0,.16,0,.32a5,5,0,0,0,2.8-.4A6.64,6.64,0,0,0,325.85,311.39Zm-169.3-6.28,0,0v.05l0,0Zm0,0-.9.54-.74-.72c0,.42-.06.64-.09.88h2.29c0-.17,0-.3,0-.42l-.53.2Zm-43,.3h-3.35C112.27,305.86,113.09,306,113.54,305.44ZM198,302.05h0l0,0-.11.24.14-.2c.36.46.75.76,1.37.3.06,0,.19,0,.28,0,.34,0,.34,0,.36-.47-.3,0-.6,0-.89-.08S198.23,301.49,198,302.05Zm40.5,5.87c-.38.07-.61.26-.56.69.8.1,1.61.22,2.42.31.06,0,.14-.19.27-.4-.48,0-.86-.06-1.24-.06A.86.86,0,0,1,238.47,307.92Zm0,0h0l.12-.23-.15.2h0l0,0h0Zm-10.3-.22c-.28-.17-.71-.17-1.26.41h2.54C229.25,307.26,228.57,307.94,228.16,307.68Zm-121.69-7.15h-2.64c.8.64,1.75.16,2.6.58C106.45,300.88,106.46,300.7,106.47,300.53Zm68.1,5c-.37.44-.86-.19-1.33-.12v.47a2.6,2.6,0,0,0,2.54-.73C175.29,305.16,174.93,305.1,174.57,305.52Zm117.82,5.18,0,0h-.11l.08,0,.07,0h0Zm.06,0a2.37,2.37,0,0,0,2.49-.18A4.88,4.88,0,0,0,292.45,310.68Zm-70.39-3.3h-2.45C220.73,308.08,221.22,308.07,222.06,307.38Zm-45.21-3.74c-1.17-.66-2.21-.06-3.26,0Zm-29.53,1.58,2.22.19A1.71,1.71,0,0,0,147.32,305.22Zm17.66-.41-1.62.73,1.81.36c.06,0,.13-.07.19-.11C164.92,305.47,164.92,305.47,165,304.81Zm165.42,6.7c.43-.05,1,.28,1.33-.38l-2.92.26C329.56,312.11,330,311.55,330.4,311.51ZM72,310.73c-.13,0-.26.17-.46.31.92.45,1.59,0,2.32-.32C73.25,310.72,72.63,310.7,72,310.73Zm175.15-1.92L248,308c-1.41.35-1.8.52-2.26,1ZM74,308.84l-.69.56.55,1,.71-.61Zm303.07,1.68a6.54,6.54,0,0,1-.22-.79c-.18,1.77-.1,1.84,1.58,1.58l-1-.1C377.26,310.93,377.14,310.73,377.06,310.52Zm-62.34-1.14-.78-1.09c-.4.22-.55.55-.3.91A.67.67,0,0,0,314.72,309.38ZM162,305a2.09,2.09,0,0,1-.08.36c0,.17-.13.33-.25.64a5.24,5.24,0,0,0,.91-.27.53.53,0,0,0,.21-.46C162.71,304.75,162.36,304.85,162,305Zm7.56-1,.06-.19-1.31-.52c-.23.25-.41.46-.62.71Zm-12.05.8c-.52-.32-.76,0-.95.37l.56.27v0l0,0h0v0h1.48C158,305,157.76,304.9,157.5,304.74Zm58.16-1.09a10.11,10.11,0,0,0-.48-1.1c-.05-.1-.26-.13-.58-.27.2.59.34,1,.49,1.4Zm105,7.73c.08.16.16.38.19.37.71-.1,1.41-.23,2.11-.36A4.83,4.83,0,0,0,320.68,311.38Zm-.56-.08h-2.47A2.26,2.26,0,0,0,320.12,311.3ZM372,309.35l1.32-.6C372.24,308.48,372.24,308.48,372,309.35Zm-248.76-3.82c1.23.16,1.25.16,1.93-.14A2.19,2.19,0,0,0,123.27,305.53Zm98.7-1.74c0-.33.07-.54.12-.9l-1.39.23Zm-113.61-1.74,1.57-.15C109,301.38,109,301.38,108.36,302.05ZM378.54,313.8c.91.27.91.27,1.36-.53a3.19,3.19,0,0,1-.6.38C379.06,313.75,378.68,313.18,378.54,313.8ZM283,310.29a2.28,2.28,0,0,0,1.76-.15C284,309.58,283.51,310.29,283,310.29Zm-233.88,3H47.53C48.11,314.11,48.62,313.29,49.12,313.3Zm255.65-1.25-1.35.12C303.93,312.73,304.36,312.72,304.77,312.05Zm-25-.59h2.14A3.48,3.48,0,0,0,279.73,311.46Zm-219-.13v.13h2.14l-.05-.13ZM363.81,310l-2-.32C362.43,310.44,363.14,310.06,363.81,310Zm-67.69-.63c.58.26.94.31,1.41-.1A1.18,1.18,0,0,0,296.12,309.32Zm-220.6.25c.48.26,1,0,1.51.18,0-.33-.08-.5-.13-.85C76.56,309.59,75.79,309,75.52,309.57ZM244.1,308.5h-1.83C243,309,243.51,309.1,244.1,308.5Zm.68-.53c.73.19.73.19,1.09-.17C245.17,307.65,245.17,307.65,244.78,308ZM86,306.64c1.14.06,1.14.06.89-.74Zm153-1.48-1.44-.07c0,.37.06.58.08.78C237.82,305.07,238.83,305.9,239,305.16Zm-4.13-.3h0l0-.06-.07,0S234.88,304.84,234.88,304.86Zm-.82,1.35h.8c-.18-.34-.36-.67,0-1,.06-.05,0-.21,0-.33C234.13,305.05,234.35,305.7,234.06,306.21ZM89.44,304.59a4.2,4.2,0,0,1,.8-.24,3.16,3.16,0,0,1,.68.08v-.33A1.19,1.19,0,0,0,89.44,304.59Zm66.6-.69a1.57,1.57,0,0,0,1.38-.39C156.83,303.44,156.33,303.28,156,303.9Zm56.71-1.46c.76,1.17.81,1.19,1.45.92ZM107,301.32l-1.79.63C106.59,302,106.59,302,107,301.32Zm38.8-.13,0,0h0l0,0-.05,0Zm-.87.6.87-.6c-.21-.19-.42-.38-.76-.66C145,301,145,301.3,144.91,301.79ZM108,301.12c.82,0,.82,0,.7-1.1ZM81.4,308.71c.21-.37.43-.74.61-1.12,0,0-.16-.14-.26-.22l-.62,1.21Zm.35-1.34,0-.05h0l0,0Zm30.94-6.89a3.08,3.08,0,0,0,.58-1.44C112.62,299.83,112.62,299.83,112.69,300.48Zm153.05,5.77h-1l-.84.06,0,.15h1.8A1.48,1.48,0,0,1,265.74,306.25ZM118,301h-1.84v.15H118Zm122.69,7,1-.13C241,307.2,241,307.22,240.69,308Zm1-.13,0,0,0,0,0-.05ZM89.48,306.42v-.71l-1.33.82ZM179,305.33c.61-.18.5,1.05,1.48.38C179.72,305.87,179.76,304.77,179,305.33ZM309.8,312l-1.3.22C308.92,312.67,309.27,312.64,309.8,312Zm-6.42.13h-2.27A3.42,3.42,0,0,0,303.38,312.15Zm-141.5-8a3.13,3.13,0,0,0,.23-.56,1.89,1.89,0,0,0-.61.13c-.12.07-.13.28-.31.7C161.64,304.21,161.82,304.2,161.88,304.11Zm-74.79-.62,0,0,0,0h0Zm0,0-1.3,1.09C87,304.17,87,304.15,87.09,303.49Zm17.94-.35-1.52.21C104.22,303.8,104.56,303.79,105,303.14Zm247.88,8.19c.08-.07.1-.18.18-.33h-1.24C352.16,311.18,352.43,311.78,352.91,311.33Zm-93.72-1.13h-1.85A2.38,2.38,0,0,0,259.19,310.2Zm109.31-.12h1.8C369.7,310,369.08,309.7,368.5,310.08Zm-250.08-10c0,.38-.17.85.52.94C119.1,300.55,118.84,300.29,118.42,300.12Zm0,0,0,0h-.11l.07.05h0v-.05Zm-20.87,6.09a7.09,7.09,0,0,0,1,0c.08,0,.13-.2.19-.31-.12-.05-.27-.17-.35-.14A6.42,6.42,0,0,0,97.53,306.18ZM227,305.55h1.31v-.29l-1.33.22ZM102.81,306c1-.16,1-.16.76-.78Zm262.85,7.3h-1.15C364.93,313.82,365.25,313.81,365.66,313.26Zm-313.87.14h1.57v-.12H51.82Zm367.07,3.07h1.54v-.13h-1.51ZM192.7,304.21h1.82C193.46,304,193.46,304,192.7,304.21ZM67.31,311H65.75A2,2,0,0,0,67.31,311Zm206.1-.29c0,.13,0,.25-.05.38l1,.09,0-.2ZM62,310.34l-.08-.24-1.24.38a2.09,2.09,0,0,1,.08.23Zm-3.86-.3c.4.59.7.76,1.42.42Zm167.38-6.38.52-1c-.88.05-.64.51-.67.83C225.37,303.51,225.45,303.57,225.52,303.66Zm-138.94-1,.53.75c.44-.15.25-.51.28-.79Zm173.15,6.71v.14h1.55a.78.78,0,0,0-.05-.14Zm-100-6.75c-.46,0-.76-.56-1.4-.12l1.29.42C159.64,302.82,159.68,302.72,159.72,302.62Zm104.92,6.93,0,0h.08l-.05,0Zm-1.49,0h1.49C264.24,309,263.78,309,263.15,309.55Zm-1.34,0h1.26C262.23,309.07,262.23,309.07,261.81,309.53Zm-158.28-7.77v0l0,0h0Zm.76.82c-.11-.4-.19-.72-.28-1l-.48.22a4.42,4.42,0,0,0,.36.68C103.94,302.51,104.11,302.52,104.29,302.58Zm208.4,6-1.41-.37C311.74,308.73,312,309.13,312.69,308.59ZM77,308.24H75.52A1,1,0,0,0,77,308.24Zm291.09,6.32.95.32.11-.24-1-.29Zm-30.56-1-.07.13h1.29v-.13Zm25.91-.12s0-.07,0-.1-.08-.08-.12-.07l-.63.14.13.34Zm-37-1H325C325.42,312.53,325.85,312.8,326.43,312.41Zm2.7-.36c-.12.23-.29.4-.25.51s.28.18.43.2.24-.22.21-.29S329.3,312.23,329.13,312.05Zm33.73-.16s-.11,0-.12.06-.18.36-.27.54l.37.09c0-.2.08-.4.1-.6C363,312,362.89,311.92,362.86,311.89Zm-86.07.14-1-.2C276.12,312,276.36,312.42,276.79,312Zm55.34-.68s0,.09,0,.1l.6.28.11-.24c-.2-.07-.4-.15-.61-.21C332.22,311.27,332.17,311.32,332.13,311.35Zm-59.54-.58h-1.27v.11h1.27Zm92.3-.85v.13h1.22s0-.09,0-.13Zm-146.24-1.27h1.25v-.12h-1.23Zm-145-.32s-.21-.11-.23-.09a1.14,1.14,0,0,0-.28.38.87.87,0,0,0,0,.36.93.93,0,0,0,.33-.17A1.4,1.4,0,0,0,73.64,308.33Zm-.51.65,0,0s0,0,0,.05l0,0Zm14.41-1v.13h1.27V308Zm131.82-.49-1.07-.3C218.55,307.67,218.91,307.68,219.36,307.49Zm-73.64-1.89-.7-.69C144.81,305.65,145.16,305.69,145.72,305.6Zm-32-.69V305H115a.41.41,0,0,1,0-.11Zm6.83-.17a3,3,0,0,0,0,.6A2.28,2.28,0,0,0,121,305c.05-.05,0-.22-.08-.34C120.79,304.65,120.58,304.67,120.56,304.74Zm112.9-.4.41.72.45-.82ZM172,303.22a1.79,1.79,0,0,0-.54.23,2.26,2.26,0,0,0,.44.22c.11,0,.25-.07.37-.11C172.18,303.44,172.08,303.21,172,303.22Zm51.17.36c.11-.19.21-.38.41-.75C222.7,303.23,222.7,303.23,223.17,303.58Zm-137.31-.46-.13-.27c-.22.08-.44.16-.65.26a.9.9,0,0,0,.08.21Zm60-1.92,1,.3C146.45,300.82,146.18,300.72,145.84,301.2Zm29.5-.78a3.25,3.25,0,0,1-.43.15c-.13,0-.27.06-.41.09l-.51.22C174.63,300.85,175.1,301.14,175.34,300.42Zm-53.9-.35s.07.15.1.23l.65-.32c0-.07-.07-.13-.1-.2Zm17-.56.64.3a2.49,2.49,0,0,0,.11-.29c-.2-.07-.4-.16-.61-.22C138.53,299.3,138.46,299.44,138.41,299.51Zm32.74.51a2.08,2.08,0,0,0,.32-.3l-.44-.15a1.65,1.65,0,0,0-.11.36S171.1,300,171.15,300Zm-31.27.63c0,.29.05.51.07.77C140.59,301.09,140.28,300.91,139.88,300.65ZM81.56,302l.23.09.27-.69-.18-.06Zm84.45-.26s-.12-.18-.15-.17a2,2,0,0,0-.33.16l.23.37A2.41,2.41,0,0,0,166,301.71Zm-54.8,1.37s-.11.13-.16.2l.67.1,0-.2A3.33,3.33,0,0,0,111.21,303.08Zm40.35-.12v.12h1V303Zm73.59,1.78h1c0-.06,0-.11,0-.17l-1,.05Zm-94.87.66h-1.07C129.59,305.59,130,305.92,130.28,305.4Zm21.26.19.68.3c0-.06.05-.11.08-.16l-.66-.34Zm25.68.55c0-.2.08-.41.14-.75l-.54.54Zm46.33-.51a4.93,4.93,0,0,0,.54-.05s0-.07,0-.11h-1A.6.6,0,0,0,223.55,305.63Zm-128.62.86.79-.06C95.3,306,95.3,306,94.93,306.49Zm101.29,0a.34.34,0,0,0,.22.23.31.31,0,0,0,.25-.18c0-.08-.09-.18-.33-.59C196.28,306.22,196.2,306.35,196.22,306.47Zm17.9.66v.14l1,.06c0-.09,0-.17,0-.25ZM82.48,308l0,.16.93-.06V308a2,2,0,0,0-.48-.07A2,2,0,0,0,82.48,308Zm159.27-.08c-.09.22-.18.46-.34.9C241.87,308.43,242.32,308.24,241.75,307.93Zm120.71.75.86.05C362.9,308.1,362.69,308.28,362.46,308.68Zm-124.79.69v.13l1,.05a1.94,1.94,0,0,0,0-.24Zm84.26.24c-.14-.13-.23-.26-.31-.26s-.25.11-.26.19a.32.32,0,0,0,.2.25C321.64,309.8,321.76,309.7,321.93,309.61Zm-11,.17h1v-.13h-1Zm15.08,0s-.1.14-.16.21l.62.15.1-.26A3.45,3.45,0,0,0,326,309.76ZM74.44,310.92h.93v-.24l-1,.09C74.43,310.82,74.43,310.87,74.44,310.92Zm293.68,0,.67.34.11-.19-.69-.33Zm-90.54.15v.1h1v-.1Zm83.28,1c-.47.44-.47.44.05.74C360.89,312.57,360.88,312.36,360.86,312.09Zm-3.54,1.34.91-.36C357.8,312.89,357.48,312.81,357.32,313.43Zm26,.33c-.13-.08-.24-.21-.38-.24a2,2,0,0,0-.55.08l.81.35Zm-13.71.81.83-.06C370.06,313.93,369.84,314.15,369.57,314.57Zm-196-15s.08.1.15.18l.29-.32c-.07,0-.17-.14-.19-.12A1,1,0,0,0,173.57,299.55Zm-46.12.63c0,.05.12.15.15.14a2.69,2.69,0,0,0,.32-.19l-.16-.23Zm-1.38.24h-.14v.68h.14Zm-13.58.65.39.34.13-.13-.4-.34Zm75.9.08c.16.25.19.35.26.39.22.15.43,0,.31-.12S188.69,301.29,188.39,301.15Zm-66.88.55h.65v-.13l-.61-.07A1.46,1.46,0,0,0,121.51,301.7Zm33.4-.35-.62.61C154.9,302,155.12,302,154.91,301.35Zm.87.17c-.12.13-.24.26-.37.38l.15.12.36-.38Zm26.11.22h1C182.37,301.45,182.07,301.33,181.89,301.74Zm-.16.23.15-.2v0h0Zm-82.28.19c.06,0,.14.11.19.09a2.23,2.23,0,0,0,.3-.2c-.1-.08-.19-.17-.2-.16A3.71,3.71,0,0,0,99.45,302.16Zm47.38.18-.64.06,0,.17.64-.07C146.84,302.44,146.84,302.39,146.83,302.34Zm53.88.28-.39.27.21.21c.1-.13.2-.26.29-.4S200.73,302.61,200.71,302.62Zm-40,.52c0,.08.24.19.59.44a3.2,3.2,0,0,0-.25-.46C161,303,160.81,302.83,160.76,303.14Zm10.64.32-.92.05C170.93,303.77,171.23,303.88,171.4,303.46Zm0,0h.06l0,0A.05.05,0,0,0,171.4,303.46Zm11.43.05v.13h.73v-.13Zm-53.3,1.34-.61.06,0,.18.62-.08Zm1.13.24.93,0C131.13,304.84,130.83,304.7,130.66,305.09Zm35.24,0h.66v-.13l-.63-.06C165.93,304.91,165.91,305,165.9,305Zm-73,.27.62.05c0-.06,0-.12.05-.18h-.66Zm15-.12.08-.06.08-.05H108Zm-.22.49c.07-.16.14-.33.22-.49l-.45.34Zm35-.49v.17l.65,0v-.14Zm29.53.18h1C173,305,172.72,305.09,172.2,305.37Zm1,0a.05.05,0,0,1,0,0h0v0Zm-66.65.41.11.13.42-.32-.13-.14Zm178.87-.1-.1.16.46.27c0-.08.07-.21,0-.23A1.79,1.79,0,0,0,285.4,305.68Zm-88,1h.14v-.62h-.14Zm60.32-.52V306H257v.13Zm-172.65.33c0,.08.24.2.6.46a2.86,2.86,0,0,0-.27-.48C85.31,306.35,85.14,306.17,85.09,306.48Zm65.88.23.62.05,0-.16H151A.41.41,0,0,1,151,306.71Zm50.4-.11v.1H202s0-.06,0-.1Zm-27.44.55.18.19a1.49,1.49,0,0,0,.24-.28s-.07-.12-.11-.18A4,4,0,0,0,173.93,307.15Zm33.51-.11s0,0,0,0h0l0,0Zm-1,0h1C207.27,306.65,207,306.79,206.43,307Zm2.07,0h-1C207.69,307.47,208,307.35,208.5,307.08Zm8.3.33v.13h.72v-.13Zm13.11.42h.74v-.14h-.74Zm2.15-.15v.23l.64-.1c0-.05,0-.09,0-.13Zm-146,.4h.67V308H86ZM195,308c.12.13.25.25.37.37l.12-.1-.36-.38Zm29,.81v.1h.66v-.13Zm42.17.43.23-.58C265.87,308.89,265.75,309,266.17,309.27Zm34.12,0-.62.09v.12h.63Zm-51.52.38a1.77,1.77,0,0,0-.32.21s.09.15.14.23l.29-.18Zm127.36.15-.2-.16-.29.37c.08,0,.2.09.24.06A1.31,1.31,0,0,0,376.13,309.82Zm-115.5.52h.66v-.11h-.66Zm2.69.25H264v-.13l-.62,0C263.35,310.48,263.33,310.54,263.32,310.59Zm27.31.16.13.14.37-.32-.12-.13Zm49.89,0h-.63c0,.08,0,.16,0,.24l.62-.11Zm-33.74,1.56.63.06a1.87,1.87,0,0,0,0-.25l-.66,0Zm20.9.14v.13h.67v-.13Zm33.89.22s.09.1.15.18c.11-.11.2-.22.29-.32-.07,0-.17-.13-.19-.12A.88.88,0,0,0,361.57,312.66Zm-22.66,0c.17.4.47.29.91,0Zm-6.78.72.31.27c.05-.06.15-.15.13-.18a1.86,1.86,0,0,0-.22-.27Zm44.05,1.14h.74a.71.71,0,0,1,0-.14h-.75Zm-204-14.75.34-.21-.41.05C172.13,299.66,172.16,299.71,172.18,299.77Zm-62.41.07a.43.43,0,0,0,0,0h0v0Zm0,.2a.92.92,0,0,0,.18.22c0-.08.1-.18.07-.22a1,1,0,0,0-.25-.2A.45.45,0,0,0,109.77,300Zm8.11,0,.43.05-.35-.22Zm5.39.75c.07,0,.13.1.21.1s.11-.06.18-.1a1.72,1.72,0,0,0-.28-.08S123.31,300.73,123.27,300.76Zm-8.08.36.45,0V301h-.45Zm-4.74.61h-.11l-.13.23.17-.19Zm.34-.23-.34.23.43-.05Zm75,0c-.08,0-.16.05-.24.07s.09.13.14.14a.8.8,0,0,0,.24-.07C185.88,301.61,185.83,301.52,185.78,301.52Zm15.6.05-.27,0v.18l.26,0S201.38,301.6,201.38,301.57Zm-14.79.41s-.06-.07-.08-.1-.14.1-.14.15.08.12.12.18A1.15,1.15,0,0,0,186.59,302Zm1.56.14s.06.07.09.1.12-.12.12-.18-.07-.11-.12-.17A1.52,1.52,0,0,0,188.15,302.12Zm-20.45.29.11.16.27-.1s-.07-.09-.11-.09A1.24,1.24,0,0,0,167.7,302.41ZM82,302.84a1.12,1.12,0,0,0,.26-.08l-.16-.12-.2.11S81.93,302.85,82,302.84Zm42-.12-.27-.05v.16l.26,0S123.93,302.75,123.94,302.72Zm-27.65.21s-.07.05-.11.07.11.11.15.11.13-.07.2-.1Zm22.21.11s.08.08.11.08a1.29,1.29,0,0,0,.26-.08l-.17-.12Zm28.33.18a2.25,2.25,0,0,0-.26,0c0,.06.05.12.07.17l.26-.08S146.86,303.23,146.83,303.22Zm64.63,0a1.09,1.09,0,0,0-.26,0l.1.15.26-.09S211.49,303.21,211.46,303.21Zm-29.52.43h.37s0-.05,0-.08l-.39,0Zm16.22-.13-.46,0v.15h.47Zm25.87,0-.26,0s-.07.06-.11.09a1.15,1.15,0,0,0,.23.1S224,303.59,224,303.53ZM75.4,304.1c-.06.08-.15.14-.18.22a.61.61,0,0,0,0,.19,1.24,1.24,0,0,0,.26-.19S75.42,304.18,75.4,304.1Zm-.19.41,0,0,0,0h0A.13.13,0,0,0,75.21,304.51Zm9.33.2a1.62,1.62,0,0,0,.27.08s.08-.05.12-.08-.13-.11-.2-.11S84.61,304.67,84.54,304.71Zm85.18,0a1.07,1.07,0,0,0,0,.25l.17-.07-.09-.24S169.72,304.7,169.72,304.72Zm-61.65.36.42-.05-.08-.17Zm19.47,0,.07,0,.25.12-.21-.15Zm-.43,0,.43,0-.34-.22Zm85.83-.08c.07,0,.13.1.2.1s.13-.06.2-.1a2.05,2.05,0,0,0-.28-.08S213,304.93,212.94,305Zm19.69,0s.07.09.1.09A2.68,2.68,0,0,0,233,305l-.16-.14Zm-15.93.16s-.12.07-.18.11a1.62,1.62,0,0,0,.27.08s.08-.05.12-.08A.71.71,0,0,0,216.7,305.14Zm-127.22.51v.06l0,0,.08-.06-.12,0Zm.12,0,.41-.05-.06-.17Zm10.75-.13c.05.05.11.13.16.13s.13-.08.2-.12a1.84,1.84,0,0,0-.25-.09S100.39,305.47,100.35,305.5Zm17.53.07h.46v-.09h-.46Zm2.16.05.35-.2-.42,0Zm.35-.2h.12l0,0,0,0v-.07l0,0Zm29.67.16h.43v-.1h-.43Zm99.31,0-.16-.12-.21.11s.08.08.11.08A2.5,2.5,0,0,0,249.37,305.57Zm-164.89.15a.69.69,0,0,0-.26.06c.06.05.11.13.17.13a.55.55,0,0,0,.23-.07S84.53,305.72,84.48,305.72Zm92.23.19.07,0,0,0h0Zm-.44,0,.44,0-.35-.22Zm65.58-.05s.08.09.11.09a2.5,2.5,0,0,0,.26-.07l-.16-.14Zm-55.12.46-.27,0a.76.76,0,0,1,.11.14l.26-.08S186.76,306.28,186.73,306.28Zm11.41.17.26,0s0-.05,0-.08l-.26-.06A1.09,1.09,0,0,0,198.14,306.45Zm.75,0a2,2,0,0,0,0,.24l.17-.1c0-.08-.07-.15-.1-.23S198.89,306.38,198.89,306.41Zm119.78-.05c0,.11,0,.22,0,.36.12-.06.22-.09.24-.13a.34.34,0,0,0,0-.22S318.67,306.36,318.67,306.36ZM126,306.62a.54.54,0,0,0,.2.1c.06,0,.12-.06.18-.1a1.54,1.54,0,0,0-.27-.07S126,306.6,126,306.62Zm21.42.07h.44v-.09h-.44Zm52.75,0a1.62,1.62,0,0,0,.27.08s.07-.05.11-.08-.13-.12-.2-.12S200.19,306.61,200.13,306.66Zm-40.59.48s.06.06.1.09.12-.12.12-.18-.08-.1-.13-.16C159.6,307,159.56,307.06,159.54,307.14Zm1.54-.22a.56.56,0,0,0,.24.1c.05,0,.11-.06.19-.12a1.88,1.88,0,0,0-.32-.06S161.12,306.89,161.08,306.92Zm51.57,0s.08.09.11.08A1.25,1.25,0,0,0,213,307l-.16-.13Zm-129.06.31a1,1,0,0,0,.08.25l.13-.15-.12-.2S83.58,307.23,83.59,307.26Zm12.87,0s.07.09.1.08a1.11,1.11,0,0,0,.26-.07l-.16-.12Zm80.7.31a1,1,0,0,0,0,.24l.18-.1-.11-.24S177.16,307.49,177.16,307.53Zm11.36,0s.08.08.11.08a2.44,2.44,0,0,0,.26-.06l-.16-.12Zm34.51-.11a.55.55,0,0,0-.24.07c0,.05.08.13.13.14a.86.86,0,0,0,.25-.07S223.08,307.38,223,307.38Zm83.81.76.36-.22-.43,0Zm25.37.15-.23-.08-.14.14a.48.48,0,0,0,.23.07C332.12,308.42,332.16,308.34,332.21,308.29Zm-15.86.27c0,.07-.09.14-.08.21s.09.09.14.13.09-.15.08-.21S316.4,308.6,316.35,308.56Zm-90.5.42.08,0,.25.1L226,309Zm-.41,0,.41,0-.35-.19Zm3.3-.09a.52.52,0,0,0,.19.11c.06,0,.12-.07.19-.11-.1,0-.18-.06-.27-.07S228.77,308.84,228.74,308.86Zm95.28-.1a.75.75,0,0,0-.24.08c.05.05.09.13.14.14a1.36,1.36,0,0,0,.25-.07C324.12,308.85,324.07,308.77,324,308.76Zm12.13.3c0-.08,0-.15-.08-.23s-.14.09-.15.14a.69.69,0,0,0,.08.21C336.05,309.14,336.15,309.1,336.15,309.06Zm-99.4.42h.45v-.1h-.45Zm43-.08v.08h.38v-.08Zm95.47-.09h-.52C374.87,309.64,375,309.64,375.18,309.31Zm0,0h.05l0,0h-.05Zm-135.74.46h.44v-.12h-.44Zm69.82-.09a.55.55,0,0,0-.23-.07s-.1.08-.15.13a.71.71,0,0,0,.23.06C309.17,309.8,309.21,309.73,309.26,309.68Zm20.75,0v.11h.43v-.11Zm7.26.08s-.08-.12-.13-.13a1.05,1.05,0,0,0-.24.06c.05.05.09.13.14.14A.55.55,0,0,0,337.27,309.74Zm-81.34.32a1.53,1.53,0,0,0,.27-.11h-.42C255.85,310,255.9,310.07,255.93,310.06Zm-173.77.22s.08.08.11.08a1.36,1.36,0,0,0,.25-.07l-.16-.11Zm162.37.28s.08.09.11.09a2.5,2.5,0,0,0,.26-.07l-.17-.13Zm47.34.05.43.05-.35-.23Zm86.23-.1-.24-.08-.14.14a.79.79,0,0,0,.23.08C378,310.64,378.05,310.56,378.1,310.51Zm-101.69.56c0,.05.09.12.14.13a1.2,1.2,0,0,0,.27-.07c-.06-.05-.11-.13-.17-.13A1.09,1.09,0,0,0,276.41,311.07Zm69.86.13a.82.82,0,0,0,.25-.06c0-.05-.1-.14-.15-.14a.55.55,0,0,0-.24.07C346.18,311.12,346.22,311.2,346.27,311.2ZM64,311.4s.07.09.1.08a1.34,1.34,0,0,0,.27-.07l-.17-.13Zm4.21.07.35-.2-.42,0A.77.77,0,0,1,68.2,311.47Zm-8.66.22h.38v-.1h-.37A.54.54,0,0,0,59.54,311.69Zm205.85,0c.1,0,.18.06.27.07s.07-.05.11-.07a.58.58,0,0,0-.19-.1C265.52,311.58,265.46,311.64,265.39,311.68Zm89.94.33.42,0-.34-.21Zm.42,0,.08.05.25.11-.21-.15Zm-49.9.08a.88.88,0,0,0-.28.07c.07.05.12.13.18.13a.55.55,0,0,0,.24-.07C305.94,312.21,305.9,312.13,305.85,312.13Zm6.31.12s.08.09.11.08a1.11,1.11,0,0,0,.26-.07l-.16-.12Zm14.56.31.46,0v-.14h-.45Zm3.62-.05a1.38,1.38,0,0,0,.27.08s.07,0,.11-.07a.66.66,0,0,0-.2-.11C330.46,312.41,330.4,312.48,330.34,312.51Zm8.45.1.07.05h.05s0,0,0,0Zm-.44,0,.44,0-.36-.21A1.42,1.42,0,0,1,338.35,312.58Zm36.08,1c.07,0,.13.11.21.11s.11-.07.18-.11a1.72,1.72,0,0,0-.28-.08S374.47,313.56,374.43,313.59Zm-3,.92h.45v-.1h-.45Zm1.25,0,.11.08.26-.09c-.07,0-.14-.09-.2-.09S372.71,314.44,372.66,314.48Zm-231.46-15,.16-.19v0l0,0Zm-16.09.14s-.06,0-.09.06l.07.08.1-.07S125.14,299.6,125.11,299.6Zm.59,0s-.06,0-.09.06,0,.07.08.07,0,0,.08-.06S125.73,299.61,125.7,299.61Zm3,.69.06-.09h-.1Zm-21.43.13s-.08,0-.08.07,0,.06.07.09l.08-.08Zm-6.77.36s0-.07-.08-.07-.06,0-.09.06,0,.06.08.07S100.43,300.81,100.46,300.79Zm13.56-.05,0,.11.06-.1Zm69.48,0-.06.09h.09Zm6.2,0,.05.1.06-.1Zm-69.29.28-.21-.14-.24-.11.2.15Zm10.82-.1c0-.07.07-.15.11-.22l-.15.19h0l0,0Zm-.12.18.06-.16L131,301A.94.94,0,0,1,131.11,301.12Zm18.22,0s-.06-.08-.09-.08-.06,0-.1.06.06.07.09.08S149.3,301.1,149.33,301.08Zm1.39.06.1-.07-.09-.08A.76.76,0,0,1,150.72,301.14Zm-61.36.12c0,.05,0,.11,0,.16l.09-.07Zm54.82.14.16-.18.11-.22-.15.18Zm39.23-.07.18,0-.09-.09Zm-89.36.29s0,.06.06.08l.08-.06-.06-.08S94.05,301.6,94.05,301.62Zm10.7,0s.06.08.09.08.06,0,.09-.06-.05-.08-.08-.08S104.79,301.6,104.75,301.62Zm98.41.07.06-.09h-.1Zm-18.76.13s-.06,0-.09.07a.2.2,0,0,0,.08.08s.06-.05.09-.07S184.43,301.82,184.4,301.82Zm-94.23.36h.16l-.08-.08Zm57.41.12-.12.22.16-.19a2.12,2.12,0,0,0,.11-.21Zm42.12-.11h.11l-.05-.09Zm17.12,0s0-.08-.08-.08-.06,0-.09.06,0,.07.08.07S206.79,302.21,206.82,302.19Zm.81-.1s-.08.05-.08.08,0,.06.07.09l.09-.08Zm4.11.11h.11l0-.1Zm-124,.14v0h0l-.31.28v0h0Zm13.54.48.09-.07-.08-.08C101.28,302.72,101.27,302.77,101.27,302.82Zm102.41-.08s0,.05.07.08l.09-.07-.08-.09S203.68,302.71,203.68,302.74Zm2.08,0s.05.06.07.09l.09-.08-.07-.09S205.77,302.7,205.76,302.73Zm-62.83.53,0,.1.07-.09Zm12.69-.09.24.11-.2-.14c.48-.36,1-.61,1.53-.1,0,0,.14,0,.27-.09-.05-.2-.11-.41-.17-.63-.93.11-1.87-.28-2.61.44,0,0-.2,0-.21-.08-.13-.55-.45,0-.67-.1a7.1,7.1,0,0,0-.92-.26l.51,1.24,2.27-.42Zm3.69.43h.1l0-.1Zm7.5-.11v.15l.08-.07Zm14.61,0s-.06,0-.1.05.06.07.09.07.06,0,.1-.05S181.45,303.52,181.42,303.52Zm-23,.33s0,.06.07.09l.08-.08-.07-.09S158.4,303.82,158.4,303.85Zm28.38-.06s-.06,0-.09.06.05.06.08.06.06,0,.09-.05S186.81,303.8,186.78,303.79Zm12.77,0-.13.19v0h0Zm-38.21,1-.06,0v0h0Zm.06-.15-.06.15.17-.06Zm-54.22.36h.11l-.05-.1Zm43.21,0,.12,0-.11-.06Zm3.27,0,.11,0-.1-.06Zm17.45.13,0,0h0l.11-.22-.15.18Zm43.73-.16-.05-.09-.06.07Zm-118,.32,0-.09h-.09Zm8.88-.08.15,0-.07-.08Zm19.56.13,0,0,0,0,0,0,.07,0h0l.11-.24Zm5.07,0,0,0h.05l.31-.27,0,0h-.06Zm-14.52.15H116l-.08-.07Zm51,.08.16-.2.12-.23-.15.2Zm95.89,0,.12,0-.11-.06Zm-158.46.17s-.06,0-.09.06,0,.07.08.07.06,0,.09-.06S104.28,305.74,104.25,305.74Zm4.41.08h.11l0-.1Zm-8.26.3V306l-.11,0Zm80.66,0h.1l0-.1Zm89.73.33.09-.07-.08-.09C270.8,306.34,270.79,306.39,270.79,306.44Zm-146.64.21h.11l-.05-.09Zm143.61,0,0,.11.06-.1Zm-160,.32h.11l0-.08Zm107.86,0,.11,0,0-.1ZM98,307.14s-.06,0-.1.05.06.07.09.07.06,0,.1-.05S98,307.14,98,307.14Zm205.27.26s-.08.05-.08.07,0,.06.07.08l.08-.06Zm-64.13.36.1.06v-.1Zm4.51.05.11,0-.1,0Zm-159.37.29.09-.06L84.3,308Zm110.24,0,.09-.07-.07-.07S194.53,308.06,194.52,308.11Zm38.74-.15s-.07,0-.1.06.06.07.09.07.06,0,.09-.06S233.29,308,233.26,308Zm25.92.58s-.07,0-.1,0,.05.07.08.08.07,0,.1-.06S259.21,308.54,259.18,308.54ZM227,309l.06-.09h-.11Zm41.34-.06.21.14h0v0Zm-36.87.31.07-.07-.12,0Zm26.52-.11s-.06,0-.09.06l.08.08.1-.07S258,309.09,258,309.09Zm.85,0,0,.1.07-.08Zm-23.53.36.12,0-.11-.06Zm1,0v-.08l-.11,0Zm137.62-.11s-.06,0-.1.07l.09.07.09-.06S373.91,309.37,373.88,309.36Zm-298.4.19h0l-.12.23c0-.06.1-.13.16-.19v0l0,0Zm3.75.22.16-.18v0h0Zm161.48-.14s-.06,0-.09.06l.07.08.1-.07S240.74,309.63,240.71,309.63Zm65.53.15.1-.07-.08-.08Zm-53.92.28.06-.08h-.11Zm86.24.05,0,0h0l0,0,0,0,0,0Zm-.09.2a1.11,1.11,0,0,0,.07-.16h-.22Zm-261.94.32.09-.07-.08-.07Zm1.19,0,.1-.06a.38.38,0,0,1-.1-.09Zm.9,0,.09-.07-.1-.1Zm166.85-.14s-.06,0-.09.06l.08.09.09-.07S245.5,310.47,245.47,310.47Zm24,.34.17,0-.09-.07Zm64.36,0,.1.05v-.09Zm-265.25.41-.07,0h.11l.12-.22Zm256.09.23.1-.07-.08-.08Zm31.28,0,.09-.06-.08-.08Zm4.1.23s0,.07.07.07.06,0,.09-.06,0-.07-.07-.07S360.12,311.64,360.09,311.67Zm-307.69.88.1-.05-.08-.07S52.41,312.51,52.4,312.55Zm270.84-.1s-.07,0-.1.05.05.06.08.06.07,0,.1-.05S323.26,312.45,323.24,312.45Zm14.37.06-.07-.08,0,.15Zm17.11.54s0,.07.08.07.06,0,.09-.06-.05-.07-.08-.07S354.75,313,354.72,313.05Zm-304.43.33.12,0-.12-.06Zm263.73,0v-.08l-.12,0Zm47.85-.06.18,0-.09-.08Zm-16.29.22s-.06,0-.09.07l.08.08.09-.07S345.61,313.55,345.58,313.54Zm27.11,0-.09.07h.18Zm1.18.44.08-.07-.07-.08C373.88,313.87,373.87,313.92,373.87,314Zm1.2.55.06-.08H375Zm-.91.26.06-.08h-.1ZM70,304.18l.06-.15-.16.05ZM61,305l.18,0-.08-.09Zm-.56.8-.06.15.16-.06Zm-.06.15-.06,0h0v0h0Z" transform="translate(-44.65 -292.32)"/></svg>