<svg id="Layer_1" data-name="Layer 1" xmlns="http://www.w3.org/2000/svg" viewBox="0 0 332.15 26.15"><defs><style>.cls-1{fill:#fff;}</style></defs><path class="cls-1" d="M235.7,258.09c-1.26,0-2.44-.34-2.61-1.74a4.65,4.65,0,0,0-.08-.61c.35,1.6,2.36,2.15,3.33,2.33l-.64,0M237,258a3,3,0,0,0-.08-2.62c-.78-1.65,1.55-4.69,1.94-5.79a57.07,57.07,0,0,0,.75-6.83,4.63,4.63,0,0,1,.54,0,7.88,7.88,0,0,1,1.81.24,23.4,23.4,0,0,0,3.9.2c5.57,0,14.73-.47,14.73-.47,3.49,0,28.33-1.11,34.15-1.38s24.45-1.65,27.16-1.65,7.37-.83,10.86-.83,14.75-1.1,18.63-1.38,16.69-1.38,20.95-1.38,32.6-2.2,35.71-2.2,17.85-.83,26-.83,24.84-.83,31.44-.83,26.38.56,33.37.56S524,232,531,232s19,.27,22.9.27c1.24,0,2.57,0,3.83,0a35.48,35.48,0,0,0-.73,5.56c0,1.38-.38,4.68-.38,6.89s1.16,3.86,2.71,3.86,4.66-9.1,5-10.2-1.17-2.2-.78-3.31c.07-.21.3-.81.63-1.65a3.51,3.51,0,0,1,.92,2.48c0,1.1-1.55,5.51-2.33,7.72s-1.55,5-3.49,5-3.1-1.38-4.27-2.21-3.88-1.38-6.2-1.93a42.7,42.7,0,0,0-8.16-.55c-1.94,0-9.7-.27-14.35-.27s-12.71,1-15.62,1h-5.83a31.89,31.89,0,0,0-4.36.2,36.74,36.74,0,0,1-4.95.21c-1.74,0-4.65-.21-4.65-.21a2.76,2.76,0,0,0-1.44-.78.66.66,0,0,0-.6.37c-.26.47-1.43.6-2.81.6-1.67,0-3.64-.19-4.76-.19H469.41c-3.2,0-12.22.42-13.68.42H449c-1.36,0-2.85-.09-4.29-.09a20.76,20.76,0,0,0-2.11.09c-2,.21-6.12.21-6.12.21a49.81,49.81,0,0,0,6.41.62H449c1.5,0,3.56-.14,4.79-.14.92,0,1.36.08.74.35a34.14,34.14,0,0,1-6.57.34c-4.17,0-8.9-.14-9.73-.14-1.45,0-11.64.42-12.52.42s-13.67.82-16,.82-9.9-.21-11.93-.21-10.77,0-13.39.42-26.49,2.48-28.52,2.48-14.26.21-18.92.83-19.79,2.48-22.12,2.48-12.22.62-14,.82-10.19.63-11.94.83-20.37,1.86-26.19,1.86c-5,0-10.84.46-14.79.46-.66,0-1.26,0-1.8,0-1.11-.06-2.11-.09-3-.09a36.15,36.15,0,0,0-4.83.29c-.36.06-.84.14-1.37.21" transform="translate(-233.01 -231.95)"/></svg>